<?xml version="1.0" encoding="utf-8"?>
<!-- Generator: Adobe Illustrator 26.5.0, SVG Export Plug-In . SVG Version: 6.00 Build 0)  -->
<svg version="1.2" baseProfile="tiny" id="g-lecturer_waffle-Artboard_2-interactive-img" xmlns="http://www.w3.org/2000/svg" xmlns:xlink="http://www.w3.org/1999/xlink"
	 x="0px" y="0px" viewBox="0 0 600 476.25" overflow="visible" xml:space="preserve">
<g>
	<g id="text_1_00000168823567853619441320000005972941494324110475_">
		<g transform="translate(10.8 472.123306)scale(0.35 -0.35)">
			<g>
				<path id="FontAwesome6Free-Solid-f007_00000119824836855459499870000001529084059384698047_" fill="#005F73" d="M54.57,323.867
					c5.278,0,10.2,2.812,12.891,7.5c2.7,4.575,2.7,10.312,0,15c-2.691,4.575-7.612,7.5-12.891,7.5c-5.391,0-10.312-2.925-13.003-7.5
					c-2.7-4.688-2.7-10.425,0-15C44.257,326.679,49.179,323.867,54.57,323.867z M49.179,318.242
					c-11.597,0-20.859-9.375-20.859-20.981c0-1.875,1.528-3.394,3.403-3.394h45.581c1.875,0,3.516,1.519,3.516,3.394
					c0,11.606-9.375,20.981-20.972,20.981H49.179z"/>
			</g>
		</g>
	</g>
	<g id="text_2_00000017510856183061945430000011471253253407615154_">
		<g transform="translate(10.8 425.727455)scale(0.35 -0.35)">
			<g>
				<path id="FontAwesome6Free-Solid-f007_00000150787125172171598650000016444371004493463946_" fill="#005F73" d="M54.57,270.843
					c5.278,0,10.2,2.812,12.891,7.5c2.7,4.575,2.7,10.312,0,15c-2.691,4.575-7.612,7.5-12.891,7.5c-5.391,0-10.312-2.925-13.003-7.5
					c-2.7-4.688-2.7-10.425,0-15C44.257,273.656,49.179,270.843,54.57,270.843z M49.179,265.218
					c-11.597,0-20.859-9.375-20.859-20.981c0-1.875,1.528-3.394,3.403-3.394h45.581c1.875,0,3.516,1.519,3.516,3.394
					c0,11.606-9.375,20.981-20.972,20.981H49.179z"/>
			</g>
		</g>
	</g>
	<g id="text_3_00000064321073349414615750000001187522871570300818_">
		<g transform="translate(10.8 379.331605)scale(0.35 -0.35)">
			<g>
				<path id="FontAwesome6Free-Solid-f007_00000048480612824429943230000002309172955110117797_" fill="#005F73" d="M54.57,217.819
					c5.278,0,10.2,2.812,12.891,7.5c2.7,4.575,2.7,10.312,0,15c-2.691,4.575-7.612,7.5-12.891,7.5c-5.391,0-10.312-2.925-13.003-7.5
					c-2.7-4.688-2.7-10.425,0-15C44.257,220.632,49.179,217.819,54.57,217.819z M49.179,212.194
					c-11.597,0-20.859-9.375-20.859-20.981c0-1.875,1.528-3.394,3.403-3.394h45.581c1.875,0,3.516,1.519,3.516,3.394
					c0,11.606-9.375,20.981-20.972,20.981H49.179z"/>
			</g>
		</g>
	</g>
	<g id="text_4_00000175299152276755584680000001183042120844201894_">
		<g transform="translate(10.8 332.935754)scale(0.35 -0.35)">
			<g>
				<path id="FontAwesome6Free-Solid-f007_00000057867271972645258980000010467329720402930852_" fill="#005F73" d="M54.57,164.796
					c5.278,0,10.2,2.812,12.891,7.5c2.7,4.575,2.7,10.312,0,15c-2.691,4.575-7.612,7.5-12.891,7.5c-5.391,0-10.312-2.925-13.003-7.5
					c-2.7-4.688-2.7-10.425,0-15C44.257,167.608,49.179,164.796,54.57,164.796z M49.179,159.171
					c-11.597,0-20.859-9.375-20.859-20.981c0-1.875,1.528-3.394,3.403-3.394h45.581c1.875,0,3.516,1.519,3.516,3.394
					c0,11.606-9.375,20.981-20.972,20.981H49.179z"/>
			</g>
		</g>
	</g>
	<g id="text_5_00000179621898862533284620000000005783122674696103_">
		<g transform="translate(10.8 286.539903)scale(0.35 -0.35)">
			<g>
				<path id="FontAwesome6Free-Solid-f007_00000016042273907642559290000015203819035891500720_" fill="#005F73" d="M54.57,111.772
					c5.278,0,10.2,2.812,12.891,7.5c2.7,4.575,2.7,10.312,0,15c-2.691,4.575-7.612,7.5-12.891,7.5c-5.391,0-10.312-2.925-13.003-7.5
					c-2.7-4.688-2.7-10.425,0-15C44.257,114.584,49.179,111.772,54.57,111.772z M49.179,106.147
					c-11.597,0-20.859-9.375-20.859-20.981c0-1.875,1.528-3.394,3.403-3.394h45.581c1.875,0,3.516,1.519,3.516,3.394
					c0,11.606-9.375,20.981-20.972,20.981H49.179z"/>
			</g>
		</g>
	</g>
	<g id="text_6_00000052077811408478243610000001144909637505769871_">
		<g transform="translate(57.195851 472.123306)scale(0.35 -0.35)">
			<g>
				<path id="FontAwesome6Free-Solid-f007_00000144316510392755851250000017346264215240948614_" fill="#005F73" d="M1.546,323.867
					c5.278,0,10.2,2.812,12.891,7.5c2.7,4.575,2.7,10.312,0,15c-2.691,4.575-7.613,7.5-12.891,7.5c-5.391,0-10.312-2.925-13.003-7.5
					c-2.7-4.688-2.7-10.425,0-15C-8.767,326.679-3.845,323.867,1.546,323.867z M-3.845,318.242
					c-11.597,0-20.859-9.375-20.859-20.981c0-1.875,1.528-3.394,3.403-3.394H24.28c1.875,0,3.516,1.519,3.516,3.394
					c0,11.606-9.375,20.981-20.972,20.981H-3.845z"/>
			</g>
		</g>
	</g>
	<g id="text_7_00000134936723374006257280000007649146788552386224_">
		<g transform="translate(57.195851 425.727455)scale(0.35 -0.35)">
			<g>
				<path id="FontAwesome6Free-Solid-f007_00000160160803788185432280000006474378059230124733_" fill="#005F73" d="M1.546,270.843
					c5.278,0,10.2,2.812,12.891,7.5c2.7,4.575,2.7,10.312,0,15c-2.691,4.575-7.613,7.5-12.891,7.5c-5.391,0-10.312-2.925-13.003-7.5
					c-2.7-4.688-2.7-10.425,0-15C-8.767,273.656-3.845,270.843,1.546,270.843z M-3.845,265.218
					c-11.597,0-20.859-9.375-20.859-20.981c0-1.875,1.528-3.394,3.403-3.394H24.28c1.875,0,3.516,1.519,3.516,3.394
					c0,11.606-9.375,20.981-20.972,20.981H-3.845z"/>
			</g>
		</g>
	</g>
	<g id="text_8_00000085219737382394884050000010959156865946720418_">
		<g transform="translate(57.195851 379.331605)scale(0.35 -0.35)">
			<g>
				<path id="FontAwesome6Free-Solid-f007_00000110464347436610799350000010362208458170418845_" fill="#005F73" d="M1.546,217.819
					c5.278,0,10.2,2.812,12.891,7.5c2.7,4.575,2.7,10.312,0,15c-2.691,4.575-7.613,7.5-12.891,7.5c-5.391,0-10.312-2.925-13.003-7.5
					c-2.7-4.688-2.7-10.425,0-15C-8.767,220.632-3.845,217.819,1.546,217.819z M-3.845,212.194
					c-11.597,0-20.859-9.375-20.859-20.981c0-1.875,1.528-3.394,3.403-3.394H24.28c1.875,0,3.516,1.519,3.516,3.394
					c0,11.606-9.375,20.981-20.972,20.981H-3.845z"/>
			</g>
		</g>
	</g>
	<g id="text_9_00000018923766632611738830000014162976148907783344_">
		<g transform="translate(57.195851 332.935754)scale(0.35 -0.35)">
			<g>
				<path id="FontAwesome6Free-Solid-f007_00000176735934543096072420000014431364561048699008_" fill="#005F73" d="M1.546,164.796
					c5.278,0,10.2,2.812,12.891,7.5c2.7,4.575,2.7,10.312,0,15c-2.691,4.575-7.613,7.5-12.891,7.5c-5.391,0-10.312-2.925-13.003-7.5
					c-2.7-4.688-2.7-10.425,0-15C-8.767,167.608-3.845,164.796,1.546,164.796z M-3.845,159.171
					c-11.597,0-20.859-9.375-20.859-20.981c0-1.875,1.528-3.394,3.403-3.394H24.28c1.875,0,3.516,1.519,3.516,3.394
					c0,11.606-9.375,20.981-20.972,20.981H-3.845z"/>
			</g>
		</g>
	</g>
	<g id="text_10_00000168813984898376815770000003485366307511139768_">
		<g transform="translate(57.195851 286.539903)scale(0.35 -0.35)">
			<g>
				<path id="FontAwesome6Free-Solid-f007_00000011714901501703050740000005404429633819515021_" fill="#005F73" d="M1.546,111.772
					c5.278,0,10.2,2.812,12.891,7.5c2.7,4.575,2.7,10.312,0,15c-2.691,4.575-7.613,7.5-12.891,7.5c-5.391,0-10.312-2.925-13.003-7.5
					c-2.7-4.688-2.7-10.425,0-15C-8.767,114.584-3.845,111.772,1.546,111.772z M-3.845,106.147
					c-11.597,0-20.859-9.375-20.859-20.981c0-1.875,1.528-3.394,3.403-3.394H24.28c1.875,0,3.516,1.519,3.516,3.394
					c0,11.606-9.375,20.981-20.972,20.981H-3.845z"/>
			</g>
		</g>
	</g>
	<g id="text_11_00000088825593776530610120000009030232315599477151_">
		<g transform="translate(103.591702 472.123306)scale(0.35 -0.35)">
			<g>
				<path id="FontAwesome6Free-Solid-f007_00000065060324247737878310000002154266080677549469_" fill="#005F73" d="
					M-51.478,323.867c5.278,0,10.2,2.812,12.891,7.5c2.7,4.575,2.7,10.312,0,15c-2.691,4.575-7.612,7.5-12.891,7.5
					c-5.391,0-10.312-2.925-13.003-7.5c-2.7-4.688-2.7-10.425,0-15C-61.79,326.679-56.868,323.867-51.478,323.867z M-56.868,318.242
					c-11.597,0-20.859-9.375-20.859-20.981c0-1.875,1.528-3.394,3.403-3.394h45.581c1.875,0,3.516,1.519,3.516,3.394
					c0,11.606-9.375,20.981-20.972,20.981H-56.868z"/>
			</g>
		</g>
	</g>
	<g id="text_12_00000091720306476625892110000005304606301988129939_">
		<g transform="translate(103.591702 425.727455)scale(0.35 -0.35)">
			<g>
				<path id="FontAwesome6Free-Solid-f007_00000126323494535269356280000017597559360875961754_" fill="#005F73" d="
					M-51.478,270.843c5.278,0,10.2,2.812,12.891,7.5c2.7,4.575,2.7,10.312,0,15c-2.691,4.575-7.612,7.5-12.891,7.5
					c-5.391,0-10.312-2.925-13.003-7.5c-2.7-4.688-2.7-10.425,0-15C-61.79,273.656-56.868,270.843-51.478,270.843z M-56.868,265.218
					c-11.597,0-20.859-9.375-20.859-20.981c0-1.875,1.528-3.394,3.403-3.394h45.581c1.875,0,3.516,1.519,3.516,3.394
					c0,11.606-9.375,20.981-20.972,20.981H-56.868z"/>
			</g>
		</g>
	</g>
	<g id="text_13_00000018925358532003281060000010481987146219908489_">
		<g transform="translate(103.591702 379.331605)scale(0.35 -0.35)">
			<g>
				<path id="FontAwesome6Free-Solid-f007_00000097501690521467399420000010254119801766160820_" fill="#005F73" d="
					M-51.478,217.819c5.278,0,10.2,2.812,12.891,7.5c2.7,4.575,2.7,10.312,0,15c-2.691,4.575-7.612,7.5-12.891,7.5
					c-5.391,0-10.312-2.925-13.003-7.5c-2.7-4.688-2.7-10.425,0-15C-61.79,220.632-56.868,217.819-51.478,217.819z M-56.868,212.194
					c-11.597,0-20.859-9.375-20.859-20.981c0-1.875,1.528-3.394,3.403-3.394h45.581c1.875,0,3.516,1.519,3.516,3.394
					c0,11.606-9.375,20.981-20.972,20.981H-56.868z"/>
			</g>
		</g>
	</g>
	<g id="text_14_00000076565828491111217300000015846174742031099828_">
		<g transform="translate(103.591702 332.935754)scale(0.35 -0.35)">
			<g>
				<path id="FontAwesome6Free-Solid-f007_00000134957448411238513860000013872292634864556720_" fill="#005F73" d="
					M-51.478,164.796c5.278,0,10.2,2.812,12.891,7.5c2.7,4.575,2.7,10.312,0,15c-2.691,4.575-7.612,7.5-12.891,7.5
					c-5.391,0-10.312-2.925-13.003-7.5c-2.7-4.688-2.7-10.425,0-15C-61.79,167.608-56.868,164.796-51.478,164.796z M-56.868,159.171
					c-11.597,0-20.859-9.375-20.859-20.981c0-1.875,1.528-3.394,3.403-3.394h45.581c1.875,0,3.516,1.519,3.516,3.394
					c0,11.606-9.375,20.981-20.972,20.981H-56.868z"/>
			</g>
		</g>
	</g>
	<g id="text_15_00000042013496346411859410000011373852663124444095_">
		<g transform="translate(103.591702 286.539903)scale(0.35 -0.35)">
			<g>
				<path id="FontAwesome6Free-Solid-f007_00000150801542203889397280000018159141130880782499_" fill="#005F73" d="
					M-51.478,111.772c5.278,0,10.2,2.812,12.891,7.5c2.7,4.575,2.7,10.312,0,15c-2.691,4.575-7.612,7.5-12.891,7.5
					c-5.391,0-10.312-2.925-13.003-7.5c-2.7-4.688-2.7-10.425,0-15C-61.79,114.584-56.868,111.772-51.478,111.772z M-56.868,106.147
					c-11.597,0-20.859-9.375-20.859-20.981c0-1.875,1.528-3.394,3.403-3.394h45.581c1.875,0,3.516,1.519,3.516,3.394
					c0,11.606-9.375,20.981-20.972,20.981H-56.868z"/>
			</g>
		</g>
	</g>
	<g id="text_16_00000076594026958190117290000006186800623031674540_">
		<g transform="translate(149.987553 472.123306)scale(0.35 -0.35)">
			<g>
				<path id="FontAwesome6Free-Solid-f007_00000025421348526584666650000000547561944654760369_" fill="#005F73" d="
					M-104.502,323.867c5.278,0,10.2,2.812,12.891,7.5c2.7,4.575,2.7,10.312,0,15c-2.691,4.575-7.613,7.5-12.891,7.5
					c-5.391,0-10.312-2.925-13.003-7.5c-2.7-4.688-2.7-10.425,0-15C-114.814,326.679-109.892,323.867-104.502,323.867z
					 M-109.892,318.242c-11.597,0-20.859-9.375-20.859-20.981c0-1.875,1.528-3.394,3.403-3.394h45.581
					c1.875,0,3.516,1.519,3.516,3.394c0,11.606-9.375,20.981-20.972,20.981H-109.892z"/>
			</g>
		</g>
	</g>
	<g id="text_17_00000165228597776023107130000010535928988271136933_">
		<g transform="translate(149.987553 425.727455)scale(0.35 -0.35)">
			<g>
				<path id="FontAwesome6Free-Solid-f007_00000156585282884183608400000014461801604999832213_" fill="#005F73" d="
					M-104.502,270.843c5.278,0,10.2,2.812,12.891,7.5c2.7,4.575,2.7,10.312,0,15c-2.691,4.575-7.613,7.5-12.891,7.5
					c-5.391,0-10.312-2.925-13.003-7.5c-2.7-4.688-2.7-10.425,0-15C-114.814,273.656-109.892,270.843-104.502,270.843z
					 M-109.892,265.218c-11.597,0-20.859-9.375-20.859-20.981c0-1.875,1.528-3.394,3.403-3.394h45.581
					c1.875,0,3.516,1.519,3.516,3.394c0,11.606-9.375,20.981-20.972,20.981H-109.892z"/>
			</g>
		</g>
	</g>
	<g id="text_18_00000127745828599369784190000006761464505717717392_">
		<g transform="translate(149.987553 379.331605)scale(0.35 -0.35)">
			<g>
				<path id="FontAwesome6Free-Solid-f007_00000015341013624493827820000012194888166946172825_" fill="#005F73" d="
					M-104.502,217.819c5.278,0,10.2,2.812,12.891,7.5c2.7,4.575,2.7,10.312,0,15c-2.691,4.575-7.613,7.5-12.891,7.5
					c-5.391,0-10.312-2.925-13.003-7.5c-2.7-4.688-2.7-10.425,0-15C-114.814,220.632-109.892,217.819-104.502,217.819z
					 M-109.892,212.194c-11.597,0-20.859-9.375-20.859-20.981c0-1.875,1.528-3.394,3.403-3.394h45.581
					c1.875,0,3.516,1.519,3.516,3.394c0,11.606-9.375,20.981-20.972,20.981H-109.892z"/>
			</g>
		</g>
	</g>
	<g id="text_19_00000088848246719613108250000009419361281841641126_">
		<g transform="translate(149.987553 332.935754)scale(0.35 -0.35)">
			<g>
				<path id="FontAwesome6Free-Solid-f007_00000065786457598966074680000018179952209656365440_" fill="#005F73" d="
					M-104.502,164.796c5.278,0,10.2,2.812,12.891,7.5c2.7,4.575,2.7,10.312,0,15c-2.691,4.575-7.613,7.5-12.891,7.5
					c-5.391,0-10.312-2.925-13.003-7.5c-2.7-4.688-2.7-10.425,0-15C-114.814,167.608-109.892,164.796-104.502,164.796z
					 M-109.892,159.171c-11.597,0-20.859-9.375-20.859-20.981c0-1.875,1.528-3.394,3.403-3.394h45.581
					c1.875,0,3.516,1.519,3.516,3.394c0,11.606-9.375,20.981-20.972,20.981H-109.892z"/>
			</g>
		</g>
	</g>
	<g id="text_20_00000118361284961033292280000011577533306221396613_">
		<g transform="translate(149.987553 286.539903)scale(0.35 -0.35)">
			<g>
				<path id="FontAwesome6Free-Solid-f007_00000125564246533412687990000015084295643004488865_" fill="#005F73" d="
					M-104.502,111.772c5.278,0,10.2,2.812,12.891,7.5c2.7,4.575,2.7,10.312,0,15c-2.691,4.575-7.613,7.5-12.891,7.5
					c-5.391,0-10.312-2.925-13.003-7.5c-2.7-4.688-2.7-10.425,0-15C-114.814,114.584-109.892,111.772-104.502,111.772z
					 M-109.892,106.147c-11.597,0-20.859-9.375-20.859-20.981c0-1.875,1.528-3.394,3.403-3.394h45.581
					c1.875,0,3.516,1.519,3.516,3.394c0,11.606-9.375,20.981-20.972,20.981H-109.892z"/>
			</g>
		</g>
	</g>
	<g id="text_21_00000136390011967572531170000013979437584402535847_">
		<g transform="translate(196.383403 472.123306)scale(0.35 -0.35)">
			<g>
				<path id="FontAwesome6Free-Solid-f007_00000004543838995314354780000015547108433461279372_" fill="#005F73" d="
					M-157.525,323.867c5.278,0,10.2,2.812,12.891,7.5c2.7,4.575,2.7,10.312,0,15c-2.691,4.575-7.613,7.5-12.891,7.5
					c-5.391,0-10.312-2.925-13.003-7.5c-2.7-4.688-2.7-10.425,0-15C-167.838,326.679-162.916,323.867-157.525,323.867z
					 M-162.916,318.242c-11.597,0-20.859-9.375-20.859-20.981c0-1.875,1.528-3.394,3.403-3.394h45.581
					c1.875,0,3.516,1.519,3.516,3.394c0,11.606-9.375,20.981-20.972,20.981H-162.916z"/>
			</g>
		</g>
	</g>
	<g id="text_22_00000046322224133191155360000008359049133400025278_">
		<g transform="translate(196.383403 425.727455)scale(0.35 -0.35)">
			<g>
				<path id="FontAwesome6Free-Solid-f007_00000121962420268391613830000005510305735209961901_" fill="#005F73" d="
					M-157.525,270.843c5.278,0,10.2,2.812,12.891,7.5c2.7,4.575,2.7,10.312,0,15c-2.691,4.575-7.613,7.5-12.891,7.5
					c-5.391,0-10.312-2.925-13.003-7.5c-2.7-4.688-2.7-10.425,0-15C-167.838,273.656-162.916,270.843-157.525,270.843z
					 M-162.916,265.218c-11.597,0-20.859-9.375-20.859-20.981c0-1.875,1.528-3.394,3.403-3.394h45.581
					c1.875,0,3.516,1.519,3.516,3.394c0,11.606-9.375,20.981-20.972,20.981H-162.916z"/>
			</g>
		</g>
	</g>
	<g id="text_23_00000026157037355828843550000010475478700083314364_">
		<g transform="translate(196.383403 379.331605)scale(0.35 -0.35)">
			<g>
				<path id="FontAwesome6Free-Solid-f007_00000141426478582483605830000008833271335834928531_" fill="#005F73" d="
					M-157.525,217.819c5.278,0,10.2,2.812,12.891,7.5c2.7,4.575,2.7,10.312,0,15c-2.691,4.575-7.613,7.5-12.891,7.5
					c-5.391,0-10.312-2.925-13.003-7.5c-2.7-4.688-2.7-10.425,0-15C-167.838,220.632-162.916,217.819-157.525,217.819z
					 M-162.916,212.194c-11.597,0-20.859-9.375-20.859-20.981c0-1.875,1.528-3.394,3.403-3.394h45.581
					c1.875,0,3.516,1.519,3.516,3.394c0,11.606-9.375,20.981-20.972,20.981H-162.916z"/>
			</g>
		</g>
	</g>
	<g id="text_24_00000072969771718874127610000013833000743520776892_">
		<g transform="translate(196.383403 332.935754)scale(0.35 -0.35)">
			<g>
				<path id="FontAwesome6Free-Solid-f007_00000060728738377943186690000015131801056181628559_" fill="#005F73" d="
					M-157.525,164.796c5.278,0,10.2,2.812,12.891,7.5c2.7,4.575,2.7,10.312,0,15c-2.691,4.575-7.613,7.5-12.891,7.5
					c-5.391,0-10.312-2.925-13.003-7.5c-2.7-4.688-2.7-10.425,0-15C-167.838,167.608-162.916,164.796-157.525,164.796z
					 M-162.916,159.171c-11.597,0-20.859-9.375-20.859-20.981c0-1.875,1.528-3.394,3.403-3.394h45.581
					c1.875,0,3.516,1.519,3.516,3.394c0,11.606-9.375,20.981-20.972,20.981H-162.916z"/>
			</g>
		</g>
	</g>
	<g id="text_25_00000159463017137293518070000003507070024145608840_">
		<g transform="translate(196.383403 286.539903)scale(0.35 -0.35)">
			<g>
				<path id="FontAwesome6Free-Solid-f007_00000036936081718021850820000009116531894166825102_" fill="#005F73" d="
					M-157.525,111.772c5.278,0,10.2,2.812,12.891,7.5c2.7,4.575,2.7,10.312,0,15c-2.691,4.575-7.613,7.5-12.891,7.5
					c-5.391,0-10.312-2.925-13.003-7.5c-2.7-4.688-2.7-10.425,0-15C-167.838,114.584-162.916,111.772-157.525,111.772z
					 M-162.916,106.147c-11.597,0-20.859-9.375-20.859-20.981c0-1.875,1.528-3.394,3.403-3.394h45.581
					c1.875,0,3.516,1.519,3.516,3.394c0,11.606-9.375,20.981-20.972,20.981H-162.916z"/>
			</g>
		</g>
	</g>
	<g id="text_26_00000126297452812703481670000007894500005666805941_">
		<g transform="translate(242.779254 472.123306)scale(0.35 -0.35)">
			<g>
				<path id="FontAwesome6Free-Solid-f007_00000086690524012596831990000013326964136942447785_" fill="#005F73" d="
					M-210.549,323.867c5.278,0,10.2,2.812,12.891,7.5c2.7,4.575,2.7,10.312,0,15c-2.691,4.575-7.613,7.5-12.891,7.5
					c-5.391,0-10.312-2.925-13.003-7.5c-2.7-4.688-2.7-10.425,0-15C-220.862,326.679-215.94,323.867-210.549,323.867z
					 M-215.94,318.242c-11.597,0-20.859-9.375-20.859-20.981c0-1.875,1.528-3.394,3.403-3.394h45.581
					c1.875,0,3.516,1.519,3.516,3.394c0,11.606-9.375,20.981-20.972,20.981H-215.94z"/>
			</g>
		</g>
	</g>
	<g id="text_27_00000109715237883078283260000004786558506455878540_">
		<g transform="translate(242.779254 425.727455)scale(0.35 -0.35)">
			<g>
				<path id="FontAwesome6Free-Solid-f007_00000041290306212525315080000008021716267926701976_" fill="#005F73" d="
					M-210.549,270.843c5.278,0,10.2,2.812,12.891,7.5c2.7,4.575,2.7,10.312,0,15c-2.691,4.575-7.613,7.5-12.891,7.5
					c-5.391,0-10.312-2.925-13.003-7.5c-2.7-4.688-2.7-10.425,0-15C-220.862,273.656-215.94,270.843-210.549,270.843z
					 M-215.94,265.218c-11.597,0-20.859-9.375-20.859-20.981c0-1.875,1.528-3.394,3.403-3.394h45.581
					c1.875,0,3.516,1.519,3.516,3.394c0,11.606-9.375,20.981-20.972,20.981H-215.94z"/>
			</g>
		</g>
	</g>
	<g id="text_28_00000073723388002078004790000011556227076534443948_">
		<g transform="translate(242.779254 379.331605)scale(0.35 -0.35)">
			<g>
				<path id="FontAwesome6Free-Solid-f007_00000023961722162270972490000017099855655074255030_" fill="#005F73" d="
					M-210.549,217.819c5.278,0,10.2,2.812,12.891,7.5c2.7,4.575,2.7,10.312,0,15c-2.691,4.575-7.613,7.5-12.891,7.5
					c-5.391,0-10.312-2.925-13.003-7.5c-2.7-4.688-2.7-10.425,0-15C-220.862,220.632-215.94,217.819-210.549,217.819z
					 M-215.94,212.194c-11.597,0-20.859-9.375-20.859-20.981c0-1.875,1.528-3.394,3.403-3.394h45.581
					c1.875,0,3.516,1.519,3.516,3.394c0,11.606-9.375,20.981-20.972,20.981H-215.94z"/>
			</g>
		</g>
	</g>
	<g id="text_29_00000159429935031487204190000015034759679050186631_">
		<g transform="translate(242.779254 332.935754)scale(0.35 -0.35)">
			<g>
				<path id="FontAwesome6Free-Solid-f007_00000082366332565669226140000004424613639406231178_" fill="#005F73" d="
					M-210.549,164.796c5.278,0,10.2,2.812,12.891,7.5c2.7,4.575,2.7,10.312,0,15c-2.691,4.575-7.613,7.5-12.891,7.5
					c-5.391,0-10.312-2.925-13.003-7.5c-2.7-4.688-2.7-10.425,0-15C-220.862,167.608-215.94,164.796-210.549,164.796z
					 M-215.94,159.171c-11.597,0-20.859-9.375-20.859-20.981c0-1.875,1.528-3.394,3.403-3.394h45.581
					c1.875,0,3.516,1.519,3.516,3.394c0,11.606-9.375,20.981-20.972,20.981H-215.94z"/>
			</g>
		</g>
	</g>
	<g id="text_30_00000084522496688076550860000017810356635273646227_">
		<g transform="translate(242.779254 286.539903)scale(0.35 -0.35)">
			<g>
				<path id="FontAwesome6Free-Solid-f007_00000102535760073080586520000016556401237259826587_" fill="#005F73" d="
					M-210.549,111.772c5.278,0,10.2,2.812,12.891,7.5c2.7,4.575,2.7,10.312,0,15c-2.691,4.575-7.613,7.5-12.891,7.5
					c-5.391,0-10.312-2.925-13.003-7.5c-2.7-4.688-2.7-10.425,0-15C-220.862,114.584-215.94,111.772-210.549,111.772z
					 M-215.94,106.147c-11.597,0-20.859-9.375-20.859-20.981c0-1.875,1.528-3.394,3.403-3.394h45.581
					c1.875,0,3.516,1.519,3.516,3.394c0,11.606-9.375,20.981-20.972,20.981H-215.94z"/>
			</g>
		</g>
	</g>
	<g id="text_31_00000165201377160611064340000010654833055322092168_">
		<g transform="translate(289.175105 472.123306)scale(0.35 -0.35)">
			<g>
				<path id="FontAwesome6Free-Solid-f007_00000160888577850546375950000000114261937538290097_" fill="#005F73" d="
					M-263.573,323.867c5.278,0,10.2,2.812,12.891,7.5c2.7,4.575,2.7,10.312,0,15c-2.691,4.575-7.613,7.5-12.891,7.5
					c-5.391,0-10.312-2.925-13.003-7.5c-2.7-4.688-2.7-10.425,0-15C-273.886,326.679-268.964,323.867-263.573,323.867z
					 M-268.964,318.242c-11.597,0-20.859-9.375-20.859-20.981c0-1.875,1.528-3.394,3.403-3.394h45.581
					c1.875,0,3.516,1.519,3.516,3.394c0,11.606-9.375,20.981-20.972,20.981H-268.964z"/>
			</g>
		</g>
	</g>
	<g id="text_32_00000132787773536620497220000017663425971755019691_">
		<g transform="translate(289.175105 425.727455)scale(0.35 -0.35)">
			<g>
				<path id="FontAwesome6Free-Solid-f007_00000114786966440953577490000012022312665449881253_" fill="#005F73" d="
					M-263.573,270.843c5.278,0,10.2,2.812,12.891,7.5c2.7,4.575,2.7,10.312,0,15c-2.691,4.575-7.613,7.5-12.891,7.5
					c-5.391,0-10.312-2.925-13.003-7.5c-2.7-4.688-2.7-10.425,0-15C-273.886,273.656-268.964,270.843-263.573,270.843z
					 M-268.964,265.218c-11.597,0-20.859-9.375-20.859-20.981c0-1.875,1.528-3.394,3.403-3.394h45.581
					c1.875,0,3.516,1.519,3.516,3.394c0,11.606-9.375,20.981-20.972,20.981H-268.964z"/>
			</g>
		</g>
	</g>
	<g id="text_33_00000087411941461171269250000012829052574260658611_">
		<g transform="translate(289.175105 379.331605)scale(0.35 -0.35)">
			<g>
				<path id="FontAwesome6Free-Solid-f007_00000146494614559708442420000001274200620136034965_" fill="#005F73" d="
					M-263.573,217.819c5.278,0,10.2,2.812,12.891,7.5c2.7,4.575,2.7,10.312,0,15c-2.691,4.575-7.613,7.5-12.891,7.5
					c-5.391,0-10.312-2.925-13.003-7.5c-2.7-4.688-2.7-10.425,0-15C-273.886,220.632-268.964,217.819-263.573,217.819z
					 M-268.964,212.194c-11.597,0-20.859-9.375-20.859-20.981c0-1.875,1.528-3.394,3.403-3.394h45.581
					c1.875,0,3.516,1.519,3.516,3.394c0,11.606-9.375,20.981-20.972,20.981H-268.964z"/>
			</g>
		</g>
	</g>
	<g id="text_34_00000008841370460402596990000016643417197416212645_">
		<g transform="translate(289.175105 332.935754)scale(0.35 -0.35)">
			<g>
				<path id="FontAwesome6Free-Solid-f007_00000016761839470776238250000010673106067473271187_" fill="#005F73" d="
					M-263.573,164.796c5.278,0,10.2,2.812,12.891,7.5c2.7,4.575,2.7,10.312,0,15c-2.691,4.575-7.613,7.5-12.891,7.5
					c-5.391,0-10.312-2.925-13.003-7.5c-2.7-4.688-2.7-10.425,0-15C-273.886,167.608-268.964,164.796-263.573,164.796z
					 M-268.964,159.171c-11.597,0-20.859-9.375-20.859-20.981c0-1.875,1.528-3.394,3.403-3.394h45.581
					c1.875,0,3.516,1.519,3.516,3.394c0,11.606-9.375,20.981-20.972,20.981H-268.964z"/>
			</g>
		</g>
	</g>
	<g id="text_35_00000049917745644348461460000001990820079058518676_">
		<g transform="translate(289.175105 286.539903)scale(0.35 -0.35)">
			<g>
				<path id="FontAwesome6Free-Solid-f007_00000039847779737754792600000009618550604764538756_" fill="#005F73" d="
					M-263.573,111.772c5.278,0,10.2,2.812,12.891,7.5c2.7,4.575,2.7,10.312,0,15c-2.691,4.575-7.613,7.5-12.891,7.5
					c-5.391,0-10.312-2.925-13.003-7.5c-2.7-4.688-2.7-10.425,0-15C-273.886,114.584-268.964,111.772-263.573,111.772z
					 M-268.964,106.147c-11.597,0-20.859-9.375-20.859-20.981c0-1.875,1.528-3.394,3.403-3.394h45.581
					c1.875,0,3.516,1.519,3.516,3.394c0,11.606-9.375,20.981-20.972,20.981H-268.964z"/>
			</g>
		</g>
	</g>
	<g id="text_36_00000052788590843285808590000011109695572061131947_">
		<g transform="translate(335.570956 472.123306)scale(0.35 -0.35)">
			<g>
				<path id="FontAwesome6Free-Solid-f007_00000058587014601446862160000001588409869214097300_" fill="#005F73" d="
					M-316.597,323.867c5.278,0,10.2,2.812,12.891,7.5c2.7,4.575,2.7,10.312,0,15c-2.691,4.575-7.612,7.5-12.891,7.5
					c-5.391,0-10.312-2.925-13.003-7.5c-2.7-4.688-2.7-10.425,0-15C-326.909,326.679-321.988,323.867-316.597,323.867z
					 M-321.988,318.242c-11.597,0-20.859-9.375-20.859-20.981c0-1.875,1.528-3.394,3.403-3.394h45.581
					c1.875,0,3.516,1.519,3.516,3.394c0,11.606-9.375,20.981-20.972,20.981H-321.988z"/>
			</g>
		</g>
	</g>
	<g id="text_37_00000005975357398980037450000000704158085433556885_">
		<g transform="translate(335.570956 425.727455)scale(0.35 -0.35)">
			<g>
				<path id="FontAwesome6Free-Solid-f007_00000158018575700267542960000000875304851232217535_" fill="#005F73" d="
					M-316.597,270.843c5.278,0,10.2,2.812,12.891,7.5c2.7,4.575,2.7,10.312,0,15c-2.691,4.575-7.612,7.5-12.891,7.5
					c-5.391,0-10.312-2.925-13.003-7.5c-2.7-4.688-2.7-10.425,0-15C-326.909,273.656-321.988,270.843-316.597,270.843z
					 M-321.988,265.218c-11.597,0-20.859-9.375-20.859-20.981c0-1.875,1.528-3.394,3.403-3.394h45.581
					c1.875,0,3.516,1.519,3.516,3.394c0,11.606-9.375,20.981-20.972,20.981H-321.988z"/>
			</g>
		</g>
	</g>
	<g id="text_38_00000002357307499534154940000003254162649984695170_">
		<g transform="translate(335.570956 379.331605)scale(0.35 -0.35)">
			<g>
				<path id="FontAwesome6Free-Solid-f007_00000031928152147830932510000013636471336015929222_" fill="#005F73" d="
					M-316.597,217.819c5.278,0,10.2,2.812,12.891,7.5c2.7,4.575,2.7,10.312,0,15c-2.691,4.575-7.612,7.5-12.891,7.5
					c-5.391,0-10.312-2.925-13.003-7.5c-2.7-4.688-2.7-10.425,0-15C-326.909,220.632-321.988,217.819-316.597,217.819z
					 M-321.988,212.194c-11.597,0-20.859-9.375-20.859-20.981c0-1.875,1.528-3.394,3.403-3.394h45.581
					c1.875,0,3.516,1.519,3.516,3.394c0,11.606-9.375,20.981-20.972,20.981H-321.988z"/>
			</g>
		</g>
	</g>
	<g id="text_39_00000067207929356013995670000017773539373620415125_">
		<g transform="translate(335.570956 332.935754)scale(0.35 -0.35)">
			<g>
				<path id="FontAwesome6Free-Solid-f007_00000023246978778695671810000005765720907926059420_" fill="#005F73" d="
					M-316.597,164.796c5.278,0,10.2,2.812,12.891,7.5c2.7,4.575,2.7,10.312,0,15c-2.691,4.575-7.612,7.5-12.891,7.5
					c-5.391,0-10.312-2.925-13.003-7.5c-2.7-4.688-2.7-10.425,0-15C-326.909,167.608-321.988,164.796-316.597,164.796z
					 M-321.988,159.171c-11.597,0-20.859-9.375-20.859-20.981c0-1.875,1.528-3.394,3.403-3.394h45.581
					c1.875,0,3.516,1.519,3.516,3.394c0,11.606-9.375,20.981-20.972,20.981H-321.988z"/>
			</g>
		</g>
	</g>
	<g id="text_40_00000073703953678808449930000012430863457592375714_">
		<g transform="translate(335.570956 286.539903)scale(0.35 -0.35)">
			<g>
				<path id="FontAwesome6Free-Solid-f007_00000128444920213599197210000002418353778434416536_" fill="#005F73" d="
					M-316.597,111.772c5.278,0,10.2,2.812,12.891,7.5c2.7,4.575,2.7,10.312,0,15c-2.691,4.575-7.612,7.5-12.891,7.5
					c-5.391,0-10.312-2.925-13.003-7.5c-2.7-4.688-2.7-10.425,0-15C-326.909,114.584-321.988,111.772-316.597,111.772z
					 M-321.988,106.147c-11.597,0-20.859-9.375-20.859-20.981c0-1.875,1.528-3.394,3.403-3.394h45.581
					c1.875,0,3.516,1.519,3.516,3.394c0,11.606-9.375,20.981-20.972,20.981H-321.988z"/>
			</g>
		</g>
	</g>
	<g id="text_41_00000057108165394747684320000002174891258321789836_">
		<g transform="translate(381.966807 472.123306)scale(0.35 -0.35)">
			<g>
				<path id="FontAwesome6Free-Solid-f007_00000114042242430156700080000013572229774695468947_" fill="#005F73" d="
					M-369.621,323.867c5.278,0,10.2,2.812,12.891,7.5c2.7,4.575,2.7,10.312,0,15c-2.691,4.575-7.613,7.5-12.891,7.5
					c-5.391,0-10.312-2.925-13.003-7.5c-2.7-4.688-2.7-10.425,0-15C-379.933,326.679-375.011,323.867-369.621,323.867z
					 M-375.011,318.242c-11.597,0-20.859-9.375-20.859-20.981c0-1.875,1.528-3.394,3.403-3.394h45.581
					c1.875,0,3.516,1.519,3.516,3.394c0,11.606-9.375,20.981-20.972,20.981H-375.011z"/>
			</g>
		</g>
	</g>
	<g id="text_42_00000038410432253088151720000011067657548147863993_">
		<g transform="translate(381.966807 425.727455)scale(0.35 -0.35)">
			<g>
				<path id="FontAwesome6Free-Solid-f007_00000037693985118207681930000012090160438197479609_" fill="#005F73" d="
					M-369.621,270.843c5.278,0,10.2,2.812,12.891,7.5c2.7,4.575,2.7,10.312,0,15c-2.691,4.575-7.613,7.5-12.891,7.5
					c-5.391,0-10.312-2.925-13.003-7.5c-2.7-4.688-2.7-10.425,0-15C-379.933,273.656-375.011,270.843-369.621,270.843z
					 M-375.011,265.218c-11.597,0-20.859-9.375-20.859-20.981c0-1.875,1.528-3.394,3.403-3.394h45.581
					c1.875,0,3.516,1.519,3.516,3.394c0,11.606-9.375,20.981-20.972,20.981H-375.011z"/>
			</g>
		</g>
	</g>
	<g id="text_43_00000005266845950497113900000016761734049659056271_">
		<g transform="translate(381.966807 379.331605)scale(0.35 -0.35)">
			<g>
				<path id="FontAwesome6Free-Solid-f007_00000026854769939655743710000015649957214164997289_" fill="#005F73" d="
					M-369.621,217.819c5.278,0,10.2,2.812,12.891,7.5c2.7,4.575,2.7,10.312,0,15c-2.691,4.575-7.613,7.5-12.891,7.5
					c-5.391,0-10.312-2.925-13.003-7.5c-2.7-4.688-2.7-10.425,0-15C-379.933,220.632-375.011,217.819-369.621,217.819z
					 M-375.011,212.194c-11.597,0-20.859-9.375-20.859-20.981c0-1.875,1.528-3.394,3.403-3.394h45.581
					c1.875,0,3.516,1.519,3.516,3.394c0,11.606-9.375,20.981-20.972,20.981H-375.011z"/>
			</g>
		</g>
	</g>
	<g id="text_44_00000035525662546180907580000005444688368184454820_">
		<g transform="translate(381.966807 332.935754)scale(0.35 -0.35)">
			<g>
				<path id="FontAwesome6Free-Solid-f007_00000008847133855226749110000002376531179148552633_" fill="#005F73" d="
					M-369.621,164.796c5.278,0,10.2,2.812,12.891,7.5c2.7,4.575,2.7,10.312,0,15c-2.691,4.575-7.613,7.5-12.891,7.5
					c-5.391,0-10.312-2.925-13.003-7.5c-2.7-4.688-2.7-10.425,0-15C-379.933,167.608-375.011,164.796-369.621,164.796z
					 M-375.011,159.171c-11.597,0-20.859-9.375-20.859-20.981c0-1.875,1.528-3.394,3.403-3.394h45.581
					c1.875,0,3.516,1.519,3.516,3.394c0,11.606-9.375,20.981-20.972,20.981H-375.011z"/>
			</g>
		</g>
	</g>
	<g id="text_45_00000029765984734534217090000000957933303918014872_">
		<g transform="translate(381.966807 286.539903)scale(0.35 -0.35)">
			<g>
				<path id="FontAwesome6Free-Solid-f007_00000174577604543082503300000006302390671627036813_" fill="#005F73" d="
					M-369.621,111.772c5.278,0,10.2,2.812,12.891,7.5c2.7,4.575,2.7,10.312,0,15c-2.691,4.575-7.613,7.5-12.891,7.5
					c-5.391,0-10.312-2.925-13.003-7.5c-2.7-4.688-2.7-10.425,0-15C-379.933,114.584-375.011,111.772-369.621,111.772z
					 M-375.011,106.147c-11.597,0-20.859-9.375-20.859-20.981c0-1.875,1.528-3.394,3.403-3.394h45.581
					c1.875,0,3.516,1.519,3.516,3.394c0,11.606-9.375,20.981-20.972,20.981H-375.011z"/>
			</g>
		</g>
	</g>
	<g id="text_46_00000119106544040872867120000013100398875866995127_">
		<g transform="translate(428.362658 472.123306)scale(0.35 -0.35)">
			<g>
				<path id="FontAwesome6Free-Solid-f007_00000131337353182552569340000018236280279074968235_" fill="#005F73" d="
					M-422.645,323.867c5.278,0,10.2,2.812,12.891,7.5c2.7,4.575,2.7,10.312,0,15c-2.691,4.575-7.612,7.5-12.891,7.5
					c-5.391,0-10.312-2.925-13.003-7.5c-2.7-4.688-2.7-10.425,0-15C-432.957,326.679-428.035,323.867-422.645,323.867z
					 M-428.035,318.242c-11.597,0-20.859-9.375-20.859-20.981c0-1.875,1.528-3.394,3.403-3.394h45.581
					c1.875,0,3.516,1.519,3.516,3.394c0,11.606-9.375,20.981-20.972,20.981H-428.035z"/>
			</g>
		</g>
	</g>
	<g id="text_47_00000072976361578012441440000016917551898858225029_">
		<g transform="translate(428.362658 425.727455)scale(0.35 -0.35)">
			<g>
				<path id="FontAwesome6Free-Solid-f007_00000005251241525179379170000001696990698133361085_" fill="#005F73" d="
					M-422.645,270.843c5.278,0,10.2,2.812,12.891,7.5c2.7,4.575,2.7,10.312,0,15c-2.691,4.575-7.612,7.5-12.891,7.5
					c-5.391,0-10.312-2.925-13.003-7.5c-2.7-4.688-2.7-10.425,0-15C-432.957,273.656-428.035,270.843-422.645,270.843z
					 M-428.035,265.218c-11.597,0-20.859-9.375-20.859-20.981c0-1.875,1.528-3.394,3.403-3.394h45.581
					c1.875,0,3.516,1.519,3.516,3.394c0,11.606-9.375,20.981-20.972,20.981H-428.035z"/>
			</g>
		</g>
	</g>
	<g id="text_48_00000108304681031747338070000004139595439400795287_">
		<g transform="translate(428.362658 379.331605)scale(0.35 -0.35)">
			<g>
				<path id="FontAwesome6Free-Solid-f007_00000155122698640342801890000012963304080949081780_" fill="#005F73" d="
					M-422.645,217.819c5.278,0,10.2,2.812,12.891,7.5c2.7,4.575,2.7,10.312,0,15c-2.691,4.575-7.612,7.5-12.891,7.5
					c-5.391,0-10.312-2.925-13.003-7.5c-2.7-4.688-2.7-10.425,0-15C-432.957,220.632-428.035,217.819-422.645,217.819z
					 M-428.035,212.194c-11.597,0-20.859-9.375-20.859-20.981c0-1.875,1.528-3.394,3.403-3.394h45.581
					c1.875,0,3.516,1.519,3.516,3.394c0,11.606-9.375,20.981-20.972,20.981H-428.035z"/>
			</g>
		</g>
	</g>
	<g id="text_49_00000109741025801928062920000000127977987320344248_">
		<g transform="translate(428.362658 332.935754)scale(0.35 -0.35)">
			<g>
				<path id="FontAwesome6Free-Solid-f007_00000068662415350412202200000008930227353450610606_" fill="#005F73" d="
					M-422.645,164.796c5.278,0,10.2,2.812,12.891,7.5c2.7,4.575,2.7,10.312,0,15c-2.691,4.575-7.612,7.5-12.891,7.5
					c-5.391,0-10.312-2.925-13.003-7.5c-2.7-4.688-2.7-10.425,0-15C-432.957,167.608-428.035,164.796-422.645,164.796z
					 M-428.035,159.171c-11.597,0-20.859-9.375-20.859-20.981c0-1.875,1.528-3.394,3.403-3.394h45.581
					c1.875,0,3.516,1.519,3.516,3.394c0,11.606-9.375,20.981-20.972,20.981H-428.035z"/>
			</g>
		</g>
	</g>
	<g id="text_50_00000146459984230857744480000013891150790167278770_">
		<g transform="translate(428.362658 286.539903)scale(0.35 -0.35)">
			<g>
				<path id="FontAwesome6Free-Solid-f007_00000043454255590434588430000013000236815193108921_" fill="#005F73" d="
					M-422.645,111.772c5.278,0,10.2,2.812,12.891,7.5c2.7,4.575,2.7,10.312,0,15c-2.691,4.575-7.612,7.5-12.891,7.5
					c-5.391,0-10.312-2.925-13.003-7.5c-2.7-4.688-2.7-10.425,0-15C-432.957,114.584-428.035,111.772-422.645,111.772z
					 M-428.035,106.147c-11.597,0-20.859-9.375-20.859-20.981c0-1.875,1.528-3.394,3.403-3.394h45.581
					c1.875,0,3.516,1.519,3.516,3.394c0,11.606-9.375,20.981-20.972,20.981H-428.035z"/>
			</g>
		</g>
	</g>
	<g id="text_51_00000031196361504654432050000015656344955854207873_">
		<g transform="translate(474.758508 472.123306)scale(0.35 -0.35)">
			<g>
				<path id="FontAwesome6Free-Solid-f007_00000027578775576512300300000013808813754387411335_" fill="#005F73" d="
					M-475.668,323.867c5.278,0,10.2,2.812,12.891,7.5c2.7,4.575,2.7,10.312,0,15c-2.691,4.575-7.612,7.5-12.891,7.5
					c-5.391,0-10.312-2.925-13.003-7.5c-2.7-4.688-2.7-10.425,0-15C-485.981,326.679-481.059,323.867-475.668,323.867z
					 M-481.059,318.242c-11.597,0-20.859-9.375-20.859-20.981c0-1.875,1.528-3.394,3.403-3.394h45.581
					c1.875,0,3.516,1.519,3.516,3.394c0,11.606-9.375,20.981-20.972,20.981H-481.059z"/>
			</g>
		</g>
	</g>
	<g id="text_52_00000101077567709206525240000015652702129970973582_">
		<g transform="translate(474.758508 425.727455)scale(0.35 -0.35)">
			<g>
				<path id="FontAwesome6Free-Solid-f007_00000063631172628981214040000001437116194269423020_" fill="#005F73" d="
					M-475.668,270.843c5.278,0,10.2,2.812,12.891,7.5c2.7,4.575,2.7,10.312,0,15c-2.691,4.575-7.612,7.5-12.891,7.5
					c-5.391,0-10.312-2.925-13.003-7.5c-2.7-4.688-2.7-10.425,0-15C-485.981,273.656-481.059,270.843-475.668,270.843z
					 M-481.059,265.218c-11.597,0-20.859-9.375-20.859-20.981c0-1.875,1.528-3.394,3.403-3.394h45.581
					c1.875,0,3.516,1.519,3.516,3.394c0,11.606-9.375,20.981-20.972,20.981H-481.059z"/>
			</g>
		</g>
	</g>
	<g id="text_53_00000073682656954634456240000013429284779575988104_">
		<g transform="translate(474.758508 379.331605)scale(0.35 -0.35)">
			<g>
				<path id="FontAwesome6Free-Solid-f007_00000176734985890434605280000017225198997359625629_" fill="#005F73" d="
					M-475.668,217.819c5.278,0,10.2,2.812,12.891,7.5c2.7,4.575,2.7,10.312,0,15c-2.691,4.575-7.612,7.5-12.891,7.5
					c-5.391,0-10.312-2.925-13.003-7.5c-2.7-4.688-2.7-10.425,0-15C-485.981,220.632-481.059,217.819-475.668,217.819z
					 M-481.059,212.194c-11.597,0-20.859-9.375-20.859-20.981c0-1.875,1.528-3.394,3.403-3.394h45.581
					c1.875,0,3.516,1.519,3.516,3.394c0,11.606-9.375,20.981-20.972,20.981H-481.059z"/>
			</g>
		</g>
	</g>
	<g id="text_54_00000070821239886215333290000011378340752702910600_">
		<g transform="translate(474.758508 332.935754)scale(0.35 -0.35)">
			<g>
				<path id="FontAwesome6Free-Solid-f007_00000093862401654866704610000000055838389463599532_" fill="#005F73" d="
					M-475.668,164.796c5.278,0,10.2,2.812,12.891,7.5c2.7,4.575,2.7,10.312,0,15c-2.691,4.575-7.612,7.5-12.891,7.5
					c-5.391,0-10.312-2.925-13.003-7.5c-2.7-4.688-2.7-10.425,0-15C-485.981,167.608-481.059,164.796-475.668,164.796z
					 M-481.059,159.171c-11.597,0-20.859-9.375-20.859-20.981c0-1.875,1.528-3.394,3.403-3.394h45.581
					c1.875,0,3.516,1.519,3.516,3.394c0,11.606-9.375,20.981-20.972,20.981H-481.059z"/>
			</g>
		</g>
	</g>
	<g id="text_55_00000165927449899734667800000012660977409295197852_">
		<g transform="translate(474.758508 286.539903)scale(0.35 -0.35)">
			<g>
				<path id="FontAwesome6Free-Solid-f007_00000002358556596198310400000001757023214721170827_" fill="#005F73" d="
					M-475.668,111.772c5.278,0,10.2,2.812,12.891,7.5c2.7,4.575,2.7,10.312,0,15c-2.691,4.575-7.612,7.5-12.891,7.5
					c-5.391,0-10.312-2.925-13.003-7.5c-2.7-4.688-2.7-10.425,0-15C-485.981,114.584-481.059,111.772-475.668,111.772z
					 M-481.059,106.147c-11.597,0-20.859-9.375-20.859-20.981c0-1.875,1.528-3.394,3.403-3.394h45.581
					c1.875,0,3.516,1.519,3.516,3.394c0,11.606-9.375,20.981-20.972,20.981H-481.059z"/>
			</g>
		</g>
	</g>
	<g id="text_56_00000182515421499054691150000010692008795802341543_">
		<g transform="translate(521.154359 472.123306)scale(0.35 -0.35)">
			<g>
				<path id="FontAwesome6Free-Solid-f007_00000047775424915309663470000004609272758201034163_" fill="#005F73" d="
					M-528.692,323.867c5.278,0,10.2,2.812,12.891,7.5c2.7,4.575,2.7,10.312,0,15c-2.691,4.575-7.612,7.5-12.891,7.5
					c-5.391,0-10.312-2.925-13.003-7.5c-2.7-4.688-2.7-10.425,0-15C-539.005,326.679-534.083,323.867-528.692,323.867z
					 M-534.083,318.242c-11.597,0-20.859-9.375-20.859-20.981c0-1.875,1.528-3.394,3.403-3.394h45.581
					c1.875,0,3.516,1.519,3.516,3.394c0,11.606-9.375,20.981-20.972,20.981H-534.083z"/>
			</g>
		</g>
	</g>
	<g id="text_57_00000075133406519133204690000015380933482578149018_">
		<g transform="translate(521.154359 425.727455)scale(0.35 -0.35)">
			<g>
				<path id="FontAwesome6Free-Solid-f007_00000117655198458009939020000006995387664658973858_" fill="#005F73" d="
					M-528.692,270.843c5.278,0,10.2,2.812,12.891,7.5c2.7,4.575,2.7,10.312,0,15c-2.691,4.575-7.612,7.5-12.891,7.5
					c-5.391,0-10.312-2.925-13.003-7.5c-2.7-4.688-2.7-10.425,0-15C-539.005,273.656-534.083,270.843-528.692,270.843z
					 M-534.083,265.218c-11.597,0-20.859-9.375-20.859-20.981c0-1.875,1.528-3.394,3.403-3.394h45.581
					c1.875,0,3.516,1.519,3.516,3.394c0,11.606-9.375,20.981-20.972,20.981H-534.083z"/>
			</g>
		</g>
	</g>
	<g id="text_58_00000177474839927531974790000016273962315555245185_">
		<g transform="translate(521.154359 379.331605)scale(0.35 -0.35)">
			<g>
				<path id="FontAwesome6Free-Solid-f007_00000065033189163685483030000001291460759092936354_" fill="#005F73" d="
					M-528.692,217.819c5.278,0,10.2,2.812,12.891,7.5c2.7,4.575,2.7,10.312,0,15c-2.691,4.575-7.612,7.5-12.891,7.5
					c-5.391,0-10.312-2.925-13.003-7.5c-2.7-4.688-2.7-10.425,0-15C-539.005,220.632-534.083,217.819-528.692,217.819z
					 M-534.083,212.194c-11.597,0-20.859-9.375-20.859-20.981c0-1.875,1.528-3.394,3.403-3.394h45.581
					c1.875,0,3.516,1.519,3.516,3.394c0,11.606-9.375,20.981-20.972,20.981H-534.083z"/>
			</g>
		</g>
	</g>
	<g id="text_59_00000031207826285755932290000000470448400473663133_">
		<g transform="translate(521.154359 332.935754)scale(0.35 -0.35)">
			<g>
				<path id="FontAwesome6Free-Solid-f007_00000096745953805229949130000003948617667586782650_" fill="#005F73" d="
					M-528.692,164.796c5.278,0,10.2,2.812,12.891,7.5c2.7,4.575,2.7,10.312,0,15c-2.691,4.575-7.612,7.5-12.891,7.5
					c-5.391,0-10.312-2.925-13.003-7.5c-2.7-4.688-2.7-10.425,0-15C-539.005,167.608-534.083,164.796-528.692,164.796z
					 M-534.083,159.171c-11.597,0-20.859-9.375-20.859-20.981c0-1.875,1.528-3.394,3.403-3.394h45.581
					c1.875,0,3.516,1.519,3.516,3.394c0,11.606-9.375,20.981-20.972,20.981H-534.083z"/>
			</g>
		</g>
	</g>
	<g id="text_60_00000182507412268713960070000010798657206209072041_">
		<g transform="translate(521.154359 286.539903)scale(0.35 -0.35)">
			<g>
				<path id="FontAwesome6Free-Solid-f007_00000150067345307765552470000006035931626745660855_" fill="#005F73" d="
					M-528.692,111.772c5.278,0,10.2,2.812,12.891,7.5c2.7,4.575,2.7,10.312,0,15c-2.691,4.575-7.612,7.5-12.891,7.5
					c-5.391,0-10.312-2.925-13.003-7.5c-2.7-4.688-2.7-10.425,0-15C-539.005,114.584-534.083,111.772-528.692,111.772z
					 M-534.083,106.147c-11.597,0-20.859-9.375-20.859-20.981c0-1.875,1.528-3.394,3.403-3.394h45.581
					c1.875,0,3.516,1.519,3.516,3.394c0,11.606-9.375,20.981-20.972,20.981H-534.083z"/>
			</g>
		</g>
	</g>
	<g id="text_61_00000121273391128859498380000013655461137948475041_">
		<g transform="translate(567.55021 472.123306)scale(0.35 -0.35)">
			<g>
				<path id="FontAwesome6Free-Solid-f007_00000093888727064192708890000017485567082578494085_" fill="#005F73" d="
					M-581.716,323.867c5.278,0,10.2,2.812,12.891,7.5c2.7,4.575,2.7,10.312,0,15c-2.691,4.575-7.613,7.5-12.891,7.5
					c-5.391,0-10.312-2.925-13.003-7.5c-2.7-4.688-2.7-10.425,0-15C-592.029,326.679-587.107,323.867-581.716,323.867z
					 M-587.107,318.242c-11.597,0-20.859-9.375-20.859-20.981c0-1.875,1.528-3.394,3.403-3.394h45.581
					c1.875,0,3.516,1.519,3.516,3.394c0,11.606-9.375,20.981-20.972,20.981H-587.107z"/>
			</g>
		</g>
	</g>
	<g id="text_62_00000026855258188650832710000010730155814595467680_">
		<g transform="translate(567.55021 425.727455)scale(0.35 -0.35)">
			<g>
				<path id="FontAwesome6Free-Solid-f007_00000008146204581829281180000008971264977745065125_" fill="#005F73" d="
					M-581.716,270.843c5.278,0,10.2,2.812,12.891,7.5c2.7,4.575,2.7,10.312,0,15c-2.691,4.575-7.613,7.5-12.891,7.5
					c-5.391,0-10.312-2.925-13.003-7.5c-2.7-4.688-2.7-10.425,0-15C-592.029,273.656-587.107,270.843-581.716,270.843z
					 M-587.107,265.218c-11.597,0-20.859-9.375-20.859-20.981c0-1.875,1.528-3.394,3.403-3.394h45.581
					c1.875,0,3.516,1.519,3.516,3.394c0,11.606-9.375,20.981-20.972,20.981H-587.107z"/>
			</g>
		</g>
	</g>
	<g id="text_63_00000171684754744670788510000015357709468525308080_">
		<g transform="translate(567.55021 379.331605)scale(0.35 -0.35)">
			<g>
				<path id="FontAwesome6Free-Solid-f007_00000072260273952714933360000017950019463658848930_" fill="#005F73" d="
					M-581.716,217.819c5.278,0,10.2,2.812,12.891,7.5c2.7,4.575,2.7,10.312,0,15c-2.691,4.575-7.613,7.5-12.891,7.5
					c-5.391,0-10.312-2.925-13.003-7.5c-2.7-4.688-2.7-10.425,0-15C-592.029,220.632-587.107,217.819-581.716,217.819z
					 M-587.107,212.194c-11.597,0-20.859-9.375-20.859-20.981c0-1.875,1.528-3.394,3.403-3.394h45.581
					c1.875,0,3.516,1.519,3.516,3.394c0,11.606-9.375,20.981-20.972,20.981H-587.107z"/>
			</g>
		</g>
	</g>
	<g id="text_64_00000157294006975190216880000001006817289087387530_">
		<g transform="translate(567.55021 332.935754)scale(0.35 -0.35)">
			<g>
				<path id="FontAwesome6Free-Solid-f007_00000095321350460406586240000008974934551978654111_" fill="#005F73" d="
					M-581.716,164.796c5.278,0,10.2,2.812,12.891,7.5c2.7,4.575,2.7,10.312,0,15c-2.691,4.575-7.613,7.5-12.891,7.5
					c-5.391,0-10.312-2.925-13.003-7.5c-2.7-4.688-2.7-10.425,0-15C-592.029,167.608-587.107,164.796-581.716,164.796z
					 M-587.107,159.171c-11.597,0-20.859-9.375-20.859-20.981c0-1.875,1.528-3.394,3.403-3.394h45.581
					c1.875,0,3.516,1.519,3.516,3.394c0,11.606-9.375,20.981-20.972,20.981H-587.107z"/>
			</g>
		</g>
	</g>
	<g id="text_65_00000006677348680914507410000002830558544714323354_">
		<g transform="translate(567.55021 286.539903)scale(0.35 -0.35)">
			<g>
				<path id="FontAwesome6Free-Solid-f007_00000170991407278572584100000010915082661718213783_" fill="#005F73" d="
					M-581.716,111.772c5.278,0,10.2,2.812,12.891,7.5c2.7,4.575,2.7,10.312,0,15c-2.691,4.575-7.613,7.5-12.891,7.5
					c-5.391,0-10.312-2.925-13.003-7.5c-2.7-4.688-2.7-10.425,0-15C-592.029,114.584-587.107,111.772-581.716,111.772z
					 M-587.107,106.147c-11.597,0-20.859-9.375-20.859-20.981c0-1.875,1.528-3.394,3.403-3.394h45.581
					c1.875,0,3.516,1.519,3.516,3.394c0,11.606-9.375,20.981-20.972,20.981H-587.107z"/>
			</g>
		</g>
	</g>
	<g id="text_66_00000168830744531162441140000003744099711421957544_">
		<g transform="translate(613.946061 472.123306)scale(0.35 -0.35)">
			<g>
				<path id="FontAwesome6Free-Solid-f007_00000052084037464117726690000016799018269251052417_" fill="#005F73" d="
					M-634.74,323.867c5.278,0,10.2,2.812,12.891,7.5c2.7,4.575,2.7,10.312,0,15c-2.691,4.575-7.612,7.5-12.891,7.5
					c-5.391,0-10.312-2.925-13.003-7.5c-2.7-4.688-2.7-10.425,0-15C-645.052,326.679-640.131,323.867-634.74,323.867z
					 M-640.131,318.242c-11.597,0-20.859-9.375-20.859-20.981c0-1.875,1.528-3.394,3.403-3.394h45.581
					c1.875,0,3.516,1.519,3.516,3.394c0,11.606-9.375,20.981-20.972,20.981H-640.131z"/>
			</g>
		</g>
	</g>
	<g id="text_67_00000152235706686740644030000005016795669130308255_">
		<g transform="translate(613.946061 425.727455)scale(0.35 -0.35)">
			<g>
				<path id="FontAwesome6Free-Solid-f007_00000018933275934901404710000003925277760996377244_" fill="#005F73" d="
					M-634.74,270.843c5.278,0,10.2,2.812,12.891,7.5c2.7,4.575,2.7,10.312,0,15c-2.691,4.575-7.612,7.5-12.891,7.5
					c-5.391,0-10.312-2.925-13.003-7.5c-2.7-4.688-2.7-10.425,0-15C-645.052,273.656-640.131,270.843-634.74,270.843z
					 M-640.131,265.218c-11.597,0-20.859-9.375-20.859-20.981c0-1.875,1.528-3.394,3.403-3.394h45.581
					c1.875,0,3.516,1.519,3.516,3.394c0,11.606-9.375,20.981-20.972,20.981H-640.131z"/>
			</g>
		</g>
	</g>
	<g id="text_68_00000068657021385671133380000010811793305329926330_">
		<g transform="translate(613.946061 379.331605)scale(0.35 -0.35)">
			<g>
				<path id="FontAwesome6Free-Solid-f007_00000142162326455601205600000013717447151314560919_" fill="#005F73" d="
					M-634.74,217.819c5.278,0,10.2,2.812,12.891,7.5c2.7,4.575,2.7,10.312,0,15c-2.691,4.575-7.612,7.5-12.891,7.5
					c-5.391,0-10.312-2.925-13.003-7.5c-2.7-4.688-2.7-10.425,0-15C-645.052,220.632-640.131,217.819-634.74,217.819z
					 M-640.131,212.194c-11.597,0-20.859-9.375-20.859-20.981c0-1.875,1.528-3.394,3.403-3.394h45.581
					c1.875,0,3.516,1.519,3.516,3.394c0,11.606-9.375,20.981-20.972,20.981H-640.131z"/>
			</g>
		</g>
	</g>
	<g id="text_69_00000097493537649020257540000001811231251900003211_">
		<g transform="translate(613.946061 332.935754)scale(0.35 -0.35)">
			<g>
				<path id="FontAwesome6Free-Solid-f007_00000178883804901674480800000014236342430141015951_" fill="#005F73" d="
					M-634.74,164.796c5.278,0,10.2,2.812,12.891,7.5c2.7,4.575,2.7,10.312,0,15c-2.691,4.575-7.612,7.5-12.891,7.5
					c-5.391,0-10.312-2.925-13.003-7.5c-2.7-4.688-2.7-10.425,0-15C-645.052,167.608-640.131,164.796-634.74,164.796z
					 M-640.131,159.171c-11.597,0-20.859-9.375-20.859-20.981c0-1.875,1.528-3.394,3.403-3.394h45.581
					c1.875,0,3.516,1.519,3.516,3.394c0,11.606-9.375,20.981-20.972,20.981H-640.131z"/>
			</g>
		</g>
	</g>
	<g id="text_70_00000177469741370231471140000011032164398253435796_">
		<g transform="translate(613.946061 286.539903)scale(0.35 -0.35)">
			<g>
				<path id="FontAwesome6Free-Solid-f007_00000060005800781646809930000017541295301436078769_" fill="#005F73" d="
					M-634.74,111.772c5.278,0,10.2,2.812,12.891,7.5c2.7,4.575,2.7,10.312,0,15c-2.691,4.575-7.612,7.5-12.891,7.5
					c-5.391,0-10.312-2.925-13.003-7.5c-2.7-4.688-2.7-10.425,0-15C-645.052,114.584-640.131,111.772-634.74,111.772z
					 M-640.131,106.147c-11.597,0-20.859-9.375-20.859-20.981c0-1.875,1.528-3.394,3.403-3.394h45.581
					c1.875,0,3.516,1.519,3.516,3.394c0,11.606-9.375,20.981-20.972,20.981H-640.131z"/>
			</g>
		</g>
	</g>
	<g id="text_71_00000046301920590668044530000013625458603058215300_">
		<g transform="translate(660.341912 472.123306)scale(0.35 -0.35)">
			<g>
				<path id="FontAwesome6Free-Solid-f007_00000129173529995622723910000015168254595044862646_" fill="#005F73" d="
					M-687.764,323.867c5.278,0,10.2,2.812,12.891,7.5c2.7,4.575,2.7,10.312,0,15c-2.691,4.575-7.612,7.5-12.891,7.5
					c-5.391,0-10.312-2.925-13.003-7.5c-2.7-4.688-2.7-10.425,0-15C-698.076,326.679-693.154,323.867-687.764,323.867z
					 M-693.154,318.242c-11.597,0-20.859-9.375-20.859-20.981c0-1.875,1.528-3.394,3.403-3.394h45.581
					c1.875,0,3.516,1.519,3.516,3.394c0,11.606-9.375,20.981-20.972,20.981H-693.154z"/>
			</g>
		</g>
	</g>
	<g id="text_72_00000134942003178528408700000007414982762860529820_">
		<g transform="translate(660.341912 425.727455)scale(0.35 -0.35)">
			<g>
				<path id="FontAwesome6Free-Solid-f007_00000106846451313176589930000000782214584839046331_" fill="#005F73" d="
					M-687.764,270.843c5.278,0,10.2,2.812,12.891,7.5c2.7,4.575,2.7,10.312,0,15c-2.691,4.575-7.612,7.5-12.891,7.5
					c-5.391,0-10.312-2.925-13.003-7.5c-2.7-4.688-2.7-10.425,0-15C-698.076,273.656-693.154,270.843-687.764,270.843z
					 M-693.154,265.218c-11.597,0-20.859-9.375-20.859-20.981c0-1.875,1.528-3.394,3.403-3.394h45.581
					c1.875,0,3.516,1.519,3.516,3.394c0,11.606-9.375,20.981-20.972,20.981H-693.154z"/>
			</g>
		</g>
	</g>
	<g id="text_73_00000177475824224215415470000003349589667274016408_">
		<g transform="translate(660.341912 379.331605)scale(0.35 -0.35)">
			<g>
				<path id="FontAwesome6Free-Solid-f007_00000119098073929372458980000012661173082085304238_" fill="#005F73" d="
					M-687.764,217.819c5.278,0,10.2,2.812,12.891,7.5c2.7,4.575,2.7,10.312,0,15c-2.691,4.575-7.612,7.5-12.891,7.5
					c-5.391,0-10.312-2.925-13.003-7.5c-2.7-4.688-2.7-10.425,0-15C-698.076,220.632-693.154,217.819-687.764,217.819z
					 M-693.154,212.194c-11.597,0-20.859-9.375-20.859-20.981c0-1.875,1.528-3.394,3.403-3.394h45.581
					c1.875,0,3.516,1.519,3.516,3.394c0,11.606-9.375,20.981-20.972,20.981H-693.154z"/>
			</g>
		</g>
	</g>
	<g id="text_74_00000062162439701283406990000000917494903730530457_">
		<g transform="translate(660.341912 332.935754)scale(0.35 -0.35)">
			<g>
				<path id="FontAwesome6Free-Solid-f007_00000091704584335505921760000001630581094636123786_" fill="#005F73" d="
					M-687.764,164.796c5.278,0,10.2,2.812,12.891,7.5c2.7,4.575,2.7,10.312,0,15c-2.691,4.575-7.612,7.5-12.891,7.5
					c-5.391,0-10.312-2.925-13.003-7.5c-2.7-4.688-2.7-10.425,0-15C-698.076,167.608-693.154,164.796-687.764,164.796z
					 M-693.154,159.171c-11.597,0-20.859-9.375-20.859-20.981c0-1.875,1.528-3.394,3.403-3.394h45.581
					c1.875,0,3.516,1.519,3.516,3.394c0,11.606-9.375,20.981-20.972,20.981H-693.154z"/>
			</g>
		</g>
	</g>
	<g id="text_75_00000016787647031437038650000005173201540565861535_">
		<g transform="translate(660.341912 286.539903)scale(0.35 -0.35)">
			<g>
				<path id="FontAwesome6Free-Solid-f007_00000168831288064931584000000002059207800391837347_" fill="#005F73" d="
					M-687.764,111.772c5.278,0,10.2,2.812,12.891,7.5c2.7,4.575,2.7,10.312,0,15c-2.691,4.575-7.612,7.5-12.891,7.5
					c-5.391,0-10.312-2.925-13.003-7.5c-2.7-4.688-2.7-10.425,0-15C-698.076,114.584-693.154,111.772-687.764,111.772z
					 M-693.154,106.147c-11.597,0-20.859-9.375-20.859-20.981c0-1.875,1.528-3.394,3.403-3.394h45.581
					c1.875,0,3.516,1.519,3.516,3.394c0,11.606-9.375,20.981-20.972,20.981H-693.154z"/>
			</g>
		</g>
	</g>
	<g id="ichange_x5F_2023_00000036247373685408606150000014491482738153438871_">
		<g transform="translate(706.737763 472.123306)scale(0.35 -0.35)">
			<g>
				<path id="FontAwesome6Free-Solid-f007_00000031186357745658410560000012660019396852875665_" fill="#005F73" d="
					M-740.788,323.867c5.278,0,10.2,2.812,12.891,7.5c2.7,4.575,2.7,10.312,0,15c-2.691,4.575-7.612,7.5-12.891,7.5
					c-5.391,0-10.312-2.925-13.003-7.5c-2.7-4.688-2.7-10.425,0-15C-751.1,326.679-746.178,323.867-740.788,323.867z
					 M-746.178,318.242c-11.597,0-20.859-9.375-20.859-20.981c0-1.875,1.528-3.394,3.403-3.394h45.581
					c1.875,0,3.516,1.519,3.516,3.394c0,11.606-9.375,20.981-20.972,20.981H-746.178z"/>
			</g>
		</g>
	</g>
	<g id="ichange-2022_00000010281582153986158980000007272438854218240148_">
		<g transform="translate(706.737763 425.727455)scale(0.35 -0.35)">
			<g>
				<path id="FontAwesome6Free-Solid-f007_00000108289691813550750400000014907380236751132079_" fill="#005F73" d="
					M-740.788,270.843c5.278,0,10.2,2.812,12.891,7.5c2.7,4.575,2.7,10.312,0,15c-2.691,4.575-7.612,7.5-12.891,7.5
					c-5.391,0-10.312-2.925-13.003-7.5c-2.7-4.688-2.7-10.425,0-15C-751.1,273.656-746.178,270.843-740.788,270.843z
					 M-746.178,265.218c-11.597,0-20.859-9.375-20.859-20.981c0-1.875,1.528-3.394,3.403-3.394h45.581
					c1.875,0,3.516,1.519,3.516,3.394c0,11.606-9.375,20.981-20.972,20.981H-746.178z"/>
			</g>
		</g>
	</g>
	<g id="ichange2019-back2021_00000140701589643882863350000012305632940696731811_">
		<g transform="translate(706.737763 379.331605)scale(0.35 -0.35)">
			<g>
				<path id="FontAwesome6Free-Solid-f007_00000060723551464996356210000007427882150954498979_" fill="#005F73" d="
					M-740.788,217.819c5.278,0,10.2,2.812,12.891,7.5c2.7,4.575,2.7,10.312,0,15c-2.691,4.575-7.612,7.5-12.891,7.5
					c-5.391,0-10.312-2.925-13.003-7.5c-2.7-4.688-2.7-10.425,0-15C-751.1,220.632-746.178,217.819-740.788,217.819z
					 M-746.178,212.194c-11.597,0-20.859-9.375-20.859-20.981c0-1.875,1.528-3.394,3.403-3.394h45.581
					c1.875,0,3.516,1.519,3.516,3.394c0,11.606-9.375,20.981-20.972,20.981H-746.178z"/>
			</g>
		</g>
	</g>
	<g id="text_79_00000182491144624359818120000008063705357350265738_">
		<g transform="translate(706.737763 332.935754)scale(0.35 -0.35)">
			<g>
				<path id="FontAwesome6Free-Solid-f007_00000011008901084150262220000010579311818452005819_" fill="#F3722C" d="
					M-740.788,164.796c5.278,0,10.2,2.812,12.891,7.5c2.7,4.575,2.7,10.312,0,15c-2.691,4.575-7.612,7.5-12.891,7.5
					c-5.391,0-10.312-2.925-13.003-7.5c-2.7-4.688-2.7-10.425,0-15C-751.1,167.608-746.178,164.796-740.788,164.796z
					 M-746.178,159.171c-11.597,0-20.859-9.375-20.859-20.981c0-1.875,1.528-3.394,3.403-3.394h45.581
					c1.875,0,3.516,1.519,3.516,3.394c0,11.606-9.375,20.981-20.972,20.981H-746.178z"/>
			</g>
		</g>
	</g>
	<g id="text_80_00000151528701958607229130000016712416429396785845_">
		<g transform="translate(706.737763 286.539903)scale(0.35 -0.35)">
			<g>
				<path id="FontAwesome6Free-Solid-f007_00000044140290075562188700000002470620674193987764_" fill="#F3722C" d="
					M-740.788,111.772c5.278,0,10.2,2.812,12.891,7.5c2.7,4.575,2.7,10.312,0,15c-2.691,4.575-7.612,7.5-12.891,7.5
					c-5.391,0-10.312-2.925-13.003-7.5c-2.7-4.688-2.7-10.425,0-15C-751.1,114.584-746.178,111.772-740.788,111.772z
					 M-746.178,106.147c-11.597,0-20.859-9.375-20.859-20.981c0-1.875,1.528-3.394,3.403-3.394h45.581
					c1.875,0,3.516,1.519,3.516,3.394c0,11.606-9.375,20.981-20.972,20.981H-746.178z"/>
			</g>
		</g>
	</g>
	<g id="text_81_00000003079121141721227260000003492631857492232578_">
		<g transform="translate(753.133613 472.123306)scale(0.35 -0.35)">
			<g>
				<path id="FontAwesome6Free-Solid-f007_00000170962742963917918210000012058300471838908300_" fill="#F3722C" d="
					M-793.811,323.867c5.278,0,10.2,2.812,12.891,7.5c2.7,4.575,2.7,10.312,0,15c-2.691,4.575-7.612,7.5-12.891,7.5
					c-5.391,0-10.312-2.925-13.003-7.5c-2.7-4.688-2.7-10.425,0-15C-804.124,326.679-799.202,323.867-793.811,323.867z
					 M-799.202,318.242c-11.597,0-20.859-9.375-20.859-20.981c0-1.875,1.528-3.394,3.403-3.394h45.581
					c1.875,0,3.516,1.519,3.516,3.394c0,11.606-9.375,20.981-20.972,20.981H-799.202z"/>
			</g>
		</g>
	</g>
	<g id="text_82_00000181075588995665280780000000506679877614986660_">
		<g transform="translate(753.133613 425.727455)scale(0.35 -0.35)">
			<g>
				<path id="FontAwesome6Free-Solid-f007_00000111167022986529386030000015749110817613661569_" fill="#F3722C" d="
					M-793.811,270.843c5.278,0,10.2,2.812,12.891,7.5c2.7,4.575,2.7,10.312,0,15c-2.691,4.575-7.612,7.5-12.891,7.5
					c-5.391,0-10.312-2.925-13.003-7.5c-2.7-4.688-2.7-10.425,0-15C-804.124,273.656-799.202,270.843-793.811,270.843z
					 M-799.202,265.218c-11.597,0-20.859-9.375-20.859-20.981c0-1.875,1.528-3.394,3.403-3.394h45.581
					c1.875,0,3.516,1.519,3.516,3.394c0,11.606-9.375,20.981-20.972,20.981H-799.202z"/>
			</g>
		</g>
	</g>
	<g id="text_83_00000123423188215320609480000016047595592656226190_">
		<g transform="translate(753.133613 379.331605)scale(0.35 -0.35)">
			<g>
				<path id="FontAwesome6Free-Solid-f007_00000005974930267840948970000010573432909059051193_" fill="#F3722C" d="
					M-793.811,217.819c5.278,0,10.2,2.812,12.891,7.5c2.7,4.575,2.7,10.312,0,15c-2.691,4.575-7.612,7.5-12.891,7.5
					c-5.391,0-10.312-2.925-13.003-7.5c-2.7-4.688-2.7-10.425,0-15C-804.124,220.632-799.202,217.819-793.811,217.819z
					 M-799.202,212.194c-11.597,0-20.859-9.375-20.859-20.981c0-1.875,1.528-3.394,3.403-3.394h45.581
					c1.875,0,3.516,1.519,3.516,3.394c0,11.606-9.375,20.981-20.972,20.981H-799.202z"/>
			</g>
		</g>
	</g>
	<g id="text_84_00000098905191739790704300000010801631299061175720_">
		<g transform="translate(753.133613 332.935754)scale(0.35 -0.35)">
			<g>
				<path id="FontAwesome6Free-Solid-f007_00000179646666490072751280000002219539029300427422_" fill="#F3722C" d="
					M-793.811,164.796c5.278,0,10.2,2.812,12.891,7.5c2.7,4.575,2.7,10.312,0,15c-2.691,4.575-7.612,7.5-12.891,7.5
					c-5.391,0-10.312-2.925-13.003-7.5c-2.7-4.688-2.7-10.425,0-15C-804.124,167.608-799.202,164.796-793.811,164.796z
					 M-799.202,159.171c-11.597,0-20.859-9.375-20.859-20.981c0-1.875,1.528-3.394,3.403-3.394h45.581
					c1.875,0,3.516,1.519,3.516,3.394c0,11.606-9.375,20.981-20.972,20.981H-799.202z"/>
			</g>
		</g>
	</g>
	<g id="text_85_00000072264339650867277930000000921770647471270546_">
		<g transform="translate(753.133613 286.539903)scale(0.35 -0.35)">
			<g>
				<path id="FontAwesome6Free-Solid-f007_00000147211065943161532820000018358708209733219970_" fill="#F3722C" d="
					M-793.811,111.772c5.278,0,10.2,2.812,12.891,7.5c2.7,4.575,2.7,10.312,0,15c-2.691,4.575-7.612,7.5-12.891,7.5
					c-5.391,0-10.312-2.925-13.003-7.5c-2.7-4.688-2.7-10.425,0-15C-804.124,114.584-799.202,111.772-793.811,111.772z
					 M-799.202,106.147c-11.597,0-20.859-9.375-20.859-20.981c0-1.875,1.528-3.394,3.403-3.394h45.581
					c1.875,0,3.516,1.519,3.516,3.394c0,11.606-9.375,20.981-20.972,20.981H-799.202z"/>
			</g>
		</g>
	</g>
	<g id="text_86_00000116948291673722550590000010753264868468857229_">
		<g transform="translate(799.529464 472.123306)scale(0.35 -0.35)">
			<g>
				<path id="FontAwesome6Free-Solid-f007_00000080189085393346424880000000464265640935776908_" fill="#F3722C" d="
					M-846.835,323.867c5.278,0,10.2,2.812,12.891,7.5c2.7,4.575,2.7,10.312,0,15c-2.691,4.575-7.613,7.5-12.891,7.5
					c-5.391,0-10.312-2.925-13.003-7.5c-2.7-4.688-2.7-10.425,0-15C-857.148,326.679-852.226,323.867-846.835,323.867z
					 M-852.226,318.242c-11.597,0-20.859-9.375-20.859-20.981c0-1.875,1.528-3.394,3.403-3.394h45.581
					c1.875,0,3.516,1.519,3.516,3.394c0,11.606-9.375,20.981-20.972,20.981H-852.226z"/>
			</g>
		</g>
	</g>
	<g id="text_87_00000173851756352872511520000005289532514620303791_">
		<g transform="translate(799.529464 425.727455)scale(0.35 -0.35)">
			<g>
				<path id="FontAwesome6Free-Solid-f007_00000101793834771576286230000008719229760020879011_" fill="#F3722C" d="
					M-846.835,270.843c5.278,0,10.2,2.812,12.891,7.5c2.7,4.575,2.7,10.312,0,15c-2.691,4.575-7.613,7.5-12.891,7.5
					c-5.391,0-10.312-2.925-13.003-7.5c-2.7-4.688-2.7-10.425,0-15C-857.148,273.656-852.226,270.843-846.835,270.843z
					 M-852.226,265.218c-11.597,0-20.859-9.375-20.859-20.981c0-1.875,1.528-3.394,3.403-3.394h45.581
					c1.875,0,3.516,1.519,3.516,3.394c0,11.606-9.375,20.981-20.972,20.981H-852.226z"/>
			</g>
		</g>
	</g>
	<g id="text_88_00000158726351718352427540000014864751801468888754_">
		<g transform="translate(799.529464 379.331605)scale(0.35 -0.35)">
			<g>
				<path id="FontAwesome6Free-Solid-f007_00000094587555271678726910000014933636726631627193_" fill="#F3722C" d="
					M-846.835,217.819c5.278,0,10.2,2.812,12.891,7.5c2.7,4.575,2.7,10.312,0,15c-2.691,4.575-7.613,7.5-12.891,7.5
					c-5.391,0-10.312-2.925-13.003-7.5c-2.7-4.688-2.7-10.425,0-15C-857.148,220.632-852.226,217.819-846.835,217.819z
					 M-852.226,212.194c-11.597,0-20.859-9.375-20.859-20.981c0-1.875,1.528-3.394,3.403-3.394h45.581
					c1.875,0,3.516,1.519,3.516,3.394c0,11.606-9.375,20.981-20.972,20.981H-852.226z"/>
			</g>
		</g>
	</g>
	<g id="text_89_00000114035723546753897710000005983652434522218891_">
		<g transform="translate(799.529464 332.935754)scale(0.35 -0.35)">
			<g>
				<path id="FontAwesome6Free-Solid-f007_00000080924105503958437800000004011368011479086249_" fill="#F3722C" d="
					M-846.835,164.796c5.278,0,10.2,2.812,12.891,7.5c2.7,4.575,2.7,10.312,0,15c-2.691,4.575-7.613,7.5-12.891,7.5
					c-5.391,0-10.312-2.925-13.003-7.5c-2.7-4.688-2.7-10.425,0-15C-857.148,167.608-852.226,164.796-846.835,164.796z
					 M-852.226,159.171c-11.597,0-20.859-9.375-20.859-20.981c0-1.875,1.528-3.394,3.403-3.394h45.581
					c1.875,0,3.516,1.519,3.516,3.394c0,11.606-9.375,20.981-20.972,20.981H-852.226z"/>
			</g>
		</g>
	</g>
	<g id="text_90_00000057867293566406594180000010665666738768736929_">
		<g transform="translate(799.529464 286.539903)scale(0.35 -0.35)">
			<g>
				<path id="FontAwesome6Free-Solid-f007_00000036953481630899718580000004867045268202713229_" fill="#F3722C" d="
					M-846.835,111.772c5.278,0,10.2,2.812,12.891,7.5c2.7,4.575,2.7,10.312,0,15c-2.691,4.575-7.613,7.5-12.891,7.5
					c-5.391,0-10.312-2.925-13.003-7.5c-2.7-4.688-2.7-10.425,0-15C-857.148,114.584-852.226,111.772-846.835,111.772z
					 M-852.226,106.147c-11.597,0-20.859-9.375-20.859-20.981c0-1.875,1.528-3.394,3.403-3.394h45.581
					c1.875,0,3.516,1.519,3.516,3.394c0,11.606-9.375,20.981-20.972,20.981H-852.226z"/>
			</g>
		</g>
	</g>
	<g id="text_91_00000142136924226599825250000004174601435220328101_">
		<g transform="translate(845.925315 472.123306)scale(0.35 -0.35)">
			<g>
				<path id="FontAwesome6Free-Solid-f007_00000000203032528609010300000003886703141474070185_" fill="#F3722C" d="
					M-899.859,323.867c5.278,0,10.2,2.812,12.891,7.5c2.7,4.575,2.7,10.312,0,15c-2.691,4.575-7.612,7.5-12.891,7.5
					c-5.391,0-10.312-2.925-13.003-7.5c-2.7-4.688-2.7-10.425,0-15C-910.172,326.679-905.25,323.867-899.859,323.867z
					 M-905.25,318.242c-11.597,0-20.859-9.375-20.859-20.981c0-1.875,1.528-3.394,3.403-3.394h45.581
					c1.875,0,3.516,1.519,3.516,3.394c0,11.606-9.375,20.981-20.972,20.981H-905.25z"/>
			</g>
		</g>
	</g>
	<g id="text_92_00000139276061183452334020000011306732638563969210_">
		<g transform="translate(845.925315 425.727455)scale(0.35 -0.35)">
			<g>
				<path id="FontAwesome6Free-Solid-f007_00000182514115712367044530000013150364806504496040_" fill="#F3722C" d="
					M-899.859,270.843c5.278,0,10.2,2.812,12.891,7.5c2.7,4.575,2.7,10.312,0,15c-2.691,4.575-7.612,7.5-12.891,7.5
					c-5.391,0-10.312-2.925-13.003-7.5c-2.7-4.688-2.7-10.425,0-15C-910.172,273.656-905.25,270.843-899.859,270.843z
					 M-905.25,265.218c-11.597,0-20.859-9.375-20.859-20.981c0-1.875,1.528-3.394,3.403-3.394h45.581
					c1.875,0,3.516,1.519,3.516,3.394c0,11.606-9.375,20.981-20.972,20.981H-905.25z"/>
			</g>
		</g>
	</g>
	<g id="text_93_00000134224819779253023890000004651195392664253874_">
		<g transform="translate(845.925315 379.331605)scale(0.35 -0.35)">
			<g>
				<path id="FontAwesome6Free-Solid-f007_00000016066901020647814160000016980867614699809449_" fill="#F3722C" d="
					M-899.859,217.819c5.278,0,10.2,2.812,12.891,7.5c2.7,4.575,2.7,10.312,0,15c-2.691,4.575-7.612,7.5-12.891,7.5
					c-5.391,0-10.312-2.925-13.003-7.5c-2.7-4.688-2.7-10.425,0-15C-910.172,220.632-905.25,217.819-899.859,217.819z
					 M-905.25,212.194c-11.597,0-20.859-9.375-20.859-20.981c0-1.875,1.528-3.394,3.403-3.394h45.581
					c1.875,0,3.516,1.519,3.516,3.394c0,11.606-9.375,20.981-20.972,20.981H-905.25z"/>
			</g>
		</g>
	</g>
	<g id="text_94_00000158002890475250743080000004813782287655537036_">
		<g transform="translate(845.925315 332.935754)scale(0.35 -0.35)">
			<g>
				<path id="FontAwesome6Free-Solid-f007_00000173858439520204157070000002192813850366859191_" fill="#F3722C" d="
					M-899.859,164.796c5.278,0,10.2,2.812,12.891,7.5c2.7,4.575,2.7,10.312,0,15c-2.691,4.575-7.612,7.5-12.891,7.5
					c-5.391,0-10.312-2.925-13.003-7.5c-2.7-4.688-2.7-10.425,0-15C-910.172,167.608-905.25,164.796-899.859,164.796z
					 M-905.25,159.171c-11.597,0-20.859-9.375-20.859-20.981c0-1.875,1.528-3.394,3.403-3.394h45.581
					c1.875,0,3.516,1.519,3.516,3.394c0,11.606-9.375,20.981-20.972,20.981H-905.25z"/>
			</g>
		</g>
	</g>
	<g id="text_95_00000144323535783115074830000000709907919888392080_">
		<g transform="translate(845.925315 286.539903)scale(0.35 -0.35)">
			<g>
				<path id="FontAwesome6Free-Solid-f007_00000057846455778184426420000003677924094394989237_" fill="#F3722C" d="
					M-899.859,111.772c5.278,0,10.2,2.812,12.891,7.5c2.7,4.575,2.7,10.312,0,15c-2.691,4.575-7.612,7.5-12.891,7.5
					c-5.391,0-10.312-2.925-13.003-7.5c-2.7-4.688-2.7-10.425,0-15C-910.172,114.584-905.25,111.772-899.859,111.772z
					 M-905.25,106.147c-11.597,0-20.859-9.375-20.859-20.981c0-1.875,1.528-3.394,3.403-3.394h45.581
					c1.875,0,3.516,1.519,3.516,3.394c0,11.606-9.375,20.981-20.972,20.981H-905.25z"/>
			</g>
		</g>
	</g>
	<g id="text_96_00000164472638223872570340000016797406228156802223_">
		<g transform="translate(892.321166 472.123306)scale(0.35 -0.35)">
			<g>
				<path id="FontAwesome6Free-Solid-f007_00000085931138509931101740000009431977021489521559_" fill="#F3722C" d="
					M-952.883,323.867c5.278,0,10.2,2.812,12.891,7.5c2.7,4.575,2.7,10.312,0,15c-2.691,4.575-7.612,7.5-12.891,7.5
					c-5.391,0-10.312-2.925-13.003-7.5c-2.7-4.688-2.7-10.425,0-15C-963.195,326.679-958.274,323.867-952.883,323.867z
					 M-958.274,318.242c-11.597,0-20.859-9.375-20.859-20.981c0-1.875,1.528-3.394,3.403-3.394h45.581
					c1.875,0,3.516,1.519,3.516,3.394c0,11.606-9.375,20.981-20.972,20.981H-958.274z"/>
			</g>
		</g>
	</g>
	<g id="text_97_00000164474873880173736330000003602460246773215379_">
		<g transform="translate(892.321166 425.727455)scale(0.35 -0.35)">
			<g>
				<path id="FontAwesome6Free-Solid-f007_00000034774465193908709320000013332666284833371829_" fill="#F3722C" d="
					M-952.883,270.843c5.278,0,10.2,2.812,12.891,7.5c2.7,4.575,2.7,10.312,0,15c-2.691,4.575-7.612,7.5-12.891,7.5
					c-5.391,0-10.312-2.925-13.003-7.5c-2.7-4.688-2.7-10.425,0-15C-963.195,273.656-958.274,270.843-952.883,270.843z
					 M-958.274,265.218c-11.597,0-20.859-9.375-20.859-20.981c0-1.875,1.528-3.394,3.403-3.394h45.581
					c1.875,0,3.516,1.519,3.516,3.394c0,11.606-9.375,20.981-20.972,20.981H-958.274z"/>
			</g>
		</g>
	</g>
	<g id="text_98_00000000901145904822081550000018291481333951483831_">
		<g transform="translate(892.321166 379.331605)scale(0.35 -0.35)">
			<g>
				<path id="FontAwesome6Free-Solid-f007_00000092441850619119099300000016352938365349566649_" fill="#F3722C" d="
					M-952.883,217.819c5.278,0,10.2,2.812,12.891,7.5c2.7,4.575,2.7,10.312,0,15c-2.691,4.575-7.612,7.5-12.891,7.5
					c-5.391,0-10.312-2.925-13.003-7.5c-2.7-4.688-2.7-10.425,0-15C-963.195,220.632-958.274,217.819-952.883,217.819z
					 M-958.274,212.194c-11.597,0-20.859-9.375-20.859-20.981c0-1.875,1.528-3.394,3.403-3.394h45.581
					c1.875,0,3.516,1.519,3.516,3.394c0,11.606-9.375,20.981-20.972,20.981H-958.274z"/>
			</g>
		</g>
	</g>
	<g id="text_99_00000066490799706517212640000009563318689157693827_">
		<g transform="translate(892.321166 332.935754)scale(0.35 -0.35)">
			<g>
				<path id="FontAwesome6Free-Solid-f007_00000134210285396729588880000004022947847800377750_" fill="#F3722C" d="
					M-952.883,164.796c5.278,0,10.2,2.812,12.891,7.5c2.7,4.575,2.7,10.312,0,15c-2.691,4.575-7.612,7.5-12.891,7.5
					c-5.391,0-10.312-2.925-13.003-7.5c-2.7-4.688-2.7-10.425,0-15C-963.195,167.608-958.274,164.796-952.883,164.796z
					 M-958.274,159.171c-11.597,0-20.859-9.375-20.859-20.981c0-1.875,1.528-3.394,3.403-3.394h45.581
					c1.875,0,3.516,1.519,3.516,3.394c0,11.606-9.375,20.981-20.972,20.981H-958.274z"/>
			</g>
		</g>
	</g>
	<g id="text_100_00000099646879527940679720000016699790944705696910_">
		<g transform="translate(892.321166 286.539903)scale(0.35 -0.35)">
			<g>
				<path id="FontAwesome6Free-Solid-f007_00000019660278521849798530000015938467571503911843_" fill="#F3722C" d="
					M-952.883,111.772c5.278,0,10.2,2.812,12.891,7.5c2.7,4.575,2.7,10.312,0,15c-2.691,4.575-7.612,7.5-12.891,7.5
					c-5.391,0-10.312-2.925-13.003-7.5c-2.7-4.688-2.7-10.425,0-15C-963.195,114.584-958.274,111.772-952.883,111.772z
					 M-958.274,106.147c-11.597,0-20.859-9.375-20.859-20.981c0-1.875,1.528-3.394,3.403-3.394h45.581
					c1.875,0,3.516,1.519,3.516,3.394c0,11.606-9.375,20.981-20.972,20.981H-958.274z"/>
			</g>
		</g>
	</g>
	<g id="text_102_00000066495944298239411380000015513420762320872609_">
		<g transform="translate(945.609375 264.725131)scale(0.1 -0.1)">
			<g>
				<path id="FontAwesome6Free-Solid-f007_00000075137013640910479210000001902890585273240471_" fill="#005F73" d="
					M-9158.907,783.533c9.87,0,19.074,5.259,24.105,14.025c5.049,8.555,5.049,19.284,0,28.05
					c-5.031,8.555-14.235,14.025-24.105,14.025c-10.08,0-19.284-5.47-24.315-14.025c-5.049-8.766-5.049-19.495,0-28.05
					C-9178.191,788.792-9168.987,783.533-9158.907,783.533z M-9168.987,773.014c-21.687,0-39.007-17.531-39.007-39.235
					c0-3.506,2.857-6.346,6.363-6.346h85.237c3.506,0,6.574,2.84,6.574,6.346c0,21.704-17.531,39.235-39.218,39.235H-9168.987z"/>
			</g>
		</g>
	</g>
	<g id="text_108_00000149359945367588098240000005034477493460252085_">
		<g transform="translate(945.609375 308.759506)scale(0.1 -0.1)">
			<g>
				<path id="FontAwesome6Free-Solid-f007_00000014623956164497083950000012250523791104840611_" fill="#F3722C" d="
					M-6963.473,1222.6c9.87,0,19.074,5.259,24.105,14.025c5.049,8.555,5.049,19.284,0,28.05
					c-5.032,8.555-14.235,14.025-24.105,14.025c-10.081,0-19.285-5.47-24.316-14.025c-5.049-8.766-5.049-19.495,0-28.05
					C-6982.757,1227.86-6973.553,1222.6-6963.473,1222.6z M-6973.553,1212.082c-21.686,0-39.007-17.531-39.007-39.235
					c0-3.506,2.858-6.346,6.364-6.346h85.237c3.506,0,6.574,2.84,6.574,6.346c0,21.704-17.531,39.235-39.217,39.235H-6973.553z"/>
			</g>
		</g>
	</g>
	<g>
		<path d="M446.954,175.749c0.144,15.938,0.289,31.877,0.433,47.815"/>
		<g>
			<path fill="none" stroke="#000000" stroke-miterlimit="10" d="M446.954,175.749c0.123,13.585,0.246,27.17,0.369,40.755"/>
			<g>
				<polygon points="447.388,223.564 443.232,213.652 447.319,215.976 451.362,213.579 				"/>
			</g>
		</g>
	</g>
</g>
<style>
#g-lecturer_waffle-Artboard_2-interactive-img rect, #g-lecturer_waffle-Artboard_2-interactive-img circle, #g-lecturer_waffle-Artboard_2-interactive-img path, #g-lecturer_waffle-Artboard_2-interactive-img line, #g-lecturer_waffle-Artboard_2-interactive-img polyline, #g-lecturer_waffle-Artboard_2-interactive-img polygon { vector-effect: non-scaling-stroke; }
</style>
</svg>

