<?xml version="1.0" encoding="utf-8"?>
<!-- Generator: Adobe Illustrator 26.5.0, SVG Export Plug-In . SVG Version: 6.00 Build 0)  -->
<svg version="1.2" baseProfile="tiny" id="g-lecturer_waffle-Artboard_1-interactive-img" xmlns="http://www.w3.org/2000/svg" xmlns:xlink="http://www.w3.org/1999/xlink"
	 x="0px" y="0px" viewBox="0 0 1200 693" overflow="visible" xml:space="preserve">
<g>
	<g id="text_1_00000120532710540691484990000004811457972123427976_">
		<g transform="translate(10.8 472.123306)scale(0.35 -0.35)">
			<g>
				<path id="FontAwesome6Free-Solid-f007_00000082333295609468727680000000092276926700349835_" fill="#005F73" d="
					M147.314-240.413c10.556,0,20.4,5.625,25.781,15c5.4,9.15,5.4,20.625,0,30c-5.381,9.15-15.225,15-25.781,15
					c-10.781,0-20.625-5.85-26.006-15c-5.4-9.375-5.4-20.85,0-30C126.689-234.788,136.533-240.413,147.314-240.413z
					 M136.533-251.663c-23.194,0-41.719-18.75-41.719-41.963c0-3.75,3.056-6.787,6.806-6.787h91.163c3.75,0,7.031,3.037,7.031,6.787
					c0,23.213-18.75,41.963-41.944,41.963H136.533z"/>
			</g>
		</g>
	</g>
	<g id="text_2_00000171721216288192953060000006772573477676223376_">
		<g transform="translate(10.8 425.727455)scale(0.35 -0.35)">
			<g>
				<path id="FontAwesome6Free-Solid-f007_00000075149459315739342850000006317932712181669302_" fill="#005F73" d="
					M147.314-213.901c10.556,0,20.4,5.625,25.781,15c5.4,9.15,5.4,20.625,0,30c-5.381,9.15-15.225,15-25.781,15
					c-10.781,0-20.625-5.85-26.006-15c-5.4-9.375-5.4-20.85,0-30C126.689-208.276,136.533-213.901,147.314-213.901z
					 M136.533-225.151c-23.194,0-41.719-18.75-41.719-41.962c0-3.75,3.056-6.788,6.806-6.788h91.163c3.75,0,7.031,3.038,7.031,6.788
					c0,23.212-18.75,41.962-41.944,41.962H136.533z"/>
			</g>
		</g>
	</g>
	<g id="text_3_00000047022045118766152410000003071782529750150033_">
		<g transform="translate(10.8 379.331605)scale(0.35 -0.35)">
			<g>
				<path id="FontAwesome6Free-Solid-f007_00000031908898668775972940000001466922872466123404_" fill="#005F73" d="
					M147.314-187.389c10.556,0,20.4,5.625,25.781,15c5.4,9.15,5.4,20.625,0,30c-5.381,9.15-15.225,15-25.781,15
					c-10.781,0-20.625-5.85-26.006-15c-5.4-9.375-5.4-20.85,0-30C126.689-181.764,136.533-187.389,147.314-187.389z
					 M136.533-198.639c-23.194,0-41.719-18.75-41.719-41.962c0-3.75,3.056-6.788,6.806-6.788h91.163c3.75,0,7.031,3.038,7.031,6.788
					c0,23.212-18.75,41.962-41.944,41.962H136.533z"/>
			</g>
		</g>
	</g>
	<g id="text_4_00000175323596360408230090000010636951517987335319_">
		<g transform="translate(10.8 332.935754)scale(0.35 -0.35)">
			<g>
				<path id="FontAwesome6Free-Solid-f007_00000155847447613556000790000008651622014710456731_" fill="#005F73" d="
					M147.314-160.877c10.556,0,20.4,5.625,25.781,15c5.4,9.15,5.4,20.625,0,30c-5.381,9.15-15.225,15-25.781,15
					c-10.781,0-20.625-5.85-26.006-15c-5.4-9.375-5.4-20.85,0-30C126.689-155.252,136.533-160.877,147.314-160.877z
					 M136.533-172.127c-23.194,0-41.719-18.75-41.719-41.963c0-3.75,3.056-6.787,6.806-6.787h91.163c3.75,0,7.031,3.037,7.031,6.787
					c0,23.213-18.75,41.963-41.944,41.963H136.533z"/>
			</g>
		</g>
	</g>
	<g id="text_5_00000178169421406570489050000015175737626061740175_">
		<g transform="translate(10.8 286.539903)scale(0.35 -0.35)">
			<g>
				<path id="FontAwesome6Free-Solid-f007_00000133508083671000109310000012547583104444872851_" fill="#005F73" d="
					M147.314-134.365c10.556,0,20.4,5.625,25.781,15c5.4,9.15,5.4,20.625,0,30c-5.381,9.15-15.225,15-25.781,15
					c-10.781,0-20.625-5.85-26.006-15c-5.4-9.375-5.4-20.85,0-30C126.689-128.74,136.533-134.365,147.314-134.365z M136.533-145.615
					c-23.194,0-41.719-18.75-41.719-41.962c0-3.75,3.056-6.788,6.806-6.788h91.163c3.75,0,7.031,3.038,7.031,6.788
					c0,23.212-18.75,41.962-41.944,41.962H136.533z"/>
			</g>
		</g>
	</g>
	<g id="text_6_00000102511222759190944640000009669717512089989769_">
		<g transform="translate(57.195851 472.123306)scale(0.35 -0.35)">
			<g>
				<path id="FontAwesome6Free-Solid-f007_00000098209618584832540630000011849516612884539277_" fill="#005F73" d="
					M173.826-240.413c10.556,0,20.4,5.625,25.781,15c5.4,9.15,5.4,20.625,0,30c-5.381,9.15-15.225,15-25.781,15
					c-10.781,0-20.625-5.85-26.006-15c-5.4-9.375-5.4-20.85,0-30C153.201-234.788,163.044-240.413,173.826-240.413z
					 M163.044-251.663c-23.194,0-41.719-18.75-41.719-41.963c0-3.75,3.056-6.787,6.806-6.787h91.163c3.75,0,7.031,3.037,7.031,6.787
					c0,23.213-18.75,41.963-41.944,41.963H163.044z"/>
			</g>
		</g>
	</g>
	<g id="text_7_00000179605107080961336030000004427621131496210562_">
		<g transform="translate(57.195851 425.727455)scale(0.35 -0.35)">
			<g>
				<path id="FontAwesome6Free-Solid-f007_00000137821518196723983140000013304052506132675486_" fill="#005F73" d="
					M173.826-213.901c10.556,0,20.4,5.625,25.781,15c5.4,9.15,5.4,20.625,0,30c-5.381,9.15-15.225,15-25.781,15
					c-10.781,0-20.625-5.85-26.006-15c-5.4-9.375-5.4-20.85,0-30C153.201-208.276,163.044-213.901,173.826-213.901z
					 M163.044-225.151c-23.194,0-41.719-18.75-41.719-41.962c0-3.75,3.056-6.788,6.806-6.788h91.163c3.75,0,7.031,3.038,7.031,6.788
					c0,23.212-18.75,41.962-41.944,41.962H163.044z"/>
			</g>
		</g>
	</g>
	<g id="text_8_00000031891932237447623550000001498280142485953962_">
		<g transform="translate(57.195851 379.331605)scale(0.35 -0.35)">
			<g>
				<path id="FontAwesome6Free-Solid-f007_00000063599504654887758910000013018914977943397287_" fill="#005F73" d="
					M173.826-187.389c10.556,0,20.4,5.625,25.781,15c5.4,9.15,5.4,20.625,0,30c-5.381,9.15-15.225,15-25.781,15
					c-10.781,0-20.625-5.85-26.006-15c-5.4-9.375-5.4-20.85,0-30C153.201-181.764,163.044-187.389,173.826-187.389z
					 M163.044-198.639c-23.194,0-41.719-18.75-41.719-41.962c0-3.75,3.056-6.788,6.806-6.788h91.163c3.75,0,7.031,3.038,7.031,6.788
					c0,23.212-18.75,41.962-41.944,41.962H163.044z"/>
			</g>
		</g>
	</g>
	<g id="text_9_00000143586373869795746280000011320808172374381698_">
		<g transform="translate(57.195851 332.935754)scale(0.35 -0.35)">
			<g>
				<path id="FontAwesome6Free-Solid-f007_00000016069938301242432000000010019516804744225176_" fill="#005F73" d="
					M173.826-160.877c10.556,0,20.4,5.625,25.781,15c5.4,9.15,5.4,20.625,0,30c-5.381,9.15-15.225,15-25.781,15
					c-10.781,0-20.625-5.85-26.006-15c-5.4-9.375-5.4-20.85,0-30C153.201-155.252,163.044-160.877,173.826-160.877z
					 M163.044-172.127c-23.194,0-41.719-18.75-41.719-41.963c0-3.75,3.056-6.787,6.806-6.787h91.163c3.75,0,7.031,3.037,7.031,6.787
					c0,23.213-18.75,41.963-41.944,41.963H163.044z"/>
			</g>
		</g>
	</g>
	<g id="text_10_00000059268690836224271270000015719128452377723802_">
		<g transform="translate(57.195851 286.539903)scale(0.35 -0.35)">
			<g>
				<path id="FontAwesome6Free-Solid-f007_00000049190175713418462500000017413631570509019529_" fill="#005F73" d="
					M173.826-134.365c10.556,0,20.4,5.625,25.781,15c5.4,9.15,5.4,20.625,0,30c-5.381,9.15-15.225,15-25.781,15
					c-10.781,0-20.625-5.85-26.006-15c-5.4-9.375-5.4-20.85,0-30C153.201-128.74,163.044-134.365,173.826-134.365z M163.044-145.615
					c-23.194,0-41.719-18.75-41.719-41.962c0-3.75,3.056-6.788,6.806-6.788h91.163c3.75,0,7.031,3.038,7.031,6.788
					c0,23.212-18.75,41.962-41.944,41.962H163.044z"/>
			</g>
		</g>
	</g>
	<g id="text_11_00000163772361095701175150000010027091794492524708_">
		<g transform="translate(103.591702 472.123306)scale(0.35 -0.35)">
			<g>
				<path id="FontAwesome6Free-Solid-f007_00000054981550490206042360000001999922016872188052_" fill="#005F73" d="
					M200.338-240.413c10.556,0,20.4,5.625,25.781,15c5.4,9.15,5.4,20.625,0,30c-5.381,9.15-15.225,15-25.781,15
					c-10.781,0-20.625-5.85-26.006-15c-5.4-9.375-5.4-20.85,0-30C179.713-234.788,189.556-240.413,200.338-240.413z
					 M189.556-251.663c-23.194,0-41.719-18.75-41.719-41.963c0-3.75,3.056-6.787,6.806-6.787h91.163c3.75,0,7.031,3.037,7.031,6.787
					c0,23.213-18.75,41.963-41.944,41.963H189.556z"/>
			</g>
		</g>
	</g>
	<g id="text_12_00000054961032800528061570000012750313644907926923_">
		<g transform="translate(103.591702 425.727455)scale(0.35 -0.35)">
			<g>
				<path id="FontAwesome6Free-Solid-f007_00000067916799516797363660000013311913770278611099_" fill="#005F73" d="
					M200.338-213.901c10.556,0,20.4,5.625,25.781,15c5.4,9.15,5.4,20.625,0,30c-5.381,9.15-15.225,15-25.781,15
					c-10.781,0-20.625-5.85-26.006-15c-5.4-9.375-5.4-20.85,0-30C179.713-208.276,189.556-213.901,200.338-213.901z
					 M189.556-225.151c-23.194,0-41.719-18.75-41.719-41.962c0-3.75,3.056-6.788,6.806-6.788h91.163c3.75,0,7.031,3.038,7.031,6.788
					c0,23.212-18.75,41.962-41.944,41.962H189.556z"/>
			</g>
		</g>
	</g>
	<g id="text_13_00000153665262533732158260000001890402433873235609_">
		<g transform="translate(103.591702 379.331605)scale(0.35 -0.35)">
			<g>
				<path id="FontAwesome6Free-Solid-f007_00000136399959551200788830000006796923247877344645_" fill="#005F73" d="
					M200.338-187.389c10.556,0,20.4,5.625,25.781,15c5.4,9.15,5.4,20.625,0,30c-5.381,9.15-15.225,15-25.781,15
					c-10.781,0-20.625-5.85-26.006-15c-5.4-9.375-5.4-20.85,0-30C179.713-181.764,189.556-187.389,200.338-187.389z
					 M189.556-198.639c-23.194,0-41.719-18.75-41.719-41.962c0-3.75,3.056-6.788,6.806-6.788h91.163c3.75,0,7.031,3.038,7.031,6.788
					c0,23.212-18.75,41.962-41.944,41.962H189.556z"/>
			</g>
		</g>
	</g>
	<g id="text_14_00000083811979988787671880000006101981519799311495_">
		<g transform="translate(103.591702 332.935754)scale(0.35 -0.35)">
			<g>
				<path id="FontAwesome6Free-Solid-f007_00000072973716166094563420000014999645833617565347_" fill="#005F73" d="
					M200.338-160.877c10.556,0,20.4,5.625,25.781,15c5.4,9.15,5.4,20.625,0,30c-5.381,9.15-15.225,15-25.781,15
					c-10.781,0-20.625-5.85-26.006-15c-5.4-9.375-5.4-20.85,0-30C179.713-155.252,189.556-160.877,200.338-160.877z
					 M189.556-172.127c-23.194,0-41.719-18.75-41.719-41.963c0-3.75,3.056-6.787,6.806-6.787h91.163c3.75,0,7.031,3.037,7.031,6.787
					c0,23.213-18.75,41.963-41.944,41.963H189.556z"/>
			</g>
		</g>
	</g>
	<g id="text_15_00000065073102409528728000000001031972311354601869_">
		<g transform="translate(103.591702 286.539903)scale(0.35 -0.35)">
			<g>
				<path id="FontAwesome6Free-Solid-f007_00000062874612487548003120000001028174967751206316_" fill="#005F73" d="
					M200.338-134.365c10.556,0,20.4,5.625,25.781,15c5.4,9.15,5.4,20.625,0,30c-5.381,9.15-15.225,15-25.781,15
					c-10.781,0-20.625-5.85-26.006-15c-5.4-9.375-5.4-20.85,0-30C179.713-128.74,189.556-134.365,200.338-134.365z M189.556-145.615
					c-23.194,0-41.719-18.75-41.719-41.962c0-3.75,3.056-6.788,6.806-6.788h91.163c3.75,0,7.031,3.038,7.031,6.788
					c0,23.212-18.75,41.962-41.944,41.962H189.556z"/>
			</g>
		</g>
	</g>
	<g id="text_16_00000060004710623432616540000007832160345803317946_">
		<g transform="translate(149.987553 472.123306)scale(0.35 -0.35)">
			<g>
				<path id="FontAwesome6Free-Solid-f007_00000109735050897225154420000011023295792072028062_" fill="#005F73" d="M226.85-240.413
					c10.556,0,20.4,5.625,25.781,15c5.4,9.15,5.4,20.625,0,30c-5.381,9.15-15.225,15-25.781,15c-10.781,0-20.625-5.85-26.006-15
					c-5.4-9.375-5.4-20.85,0-30C206.225-234.788,216.068-240.413,226.85-240.413z M216.068-251.663
					c-23.194,0-41.719-18.75-41.719-41.963c0-3.75,3.056-6.787,6.806-6.787h91.162c3.75,0,7.031,3.037,7.031,6.787
					c0,23.213-18.75,41.963-41.944,41.963H216.068z"/>
			</g>
		</g>
	</g>
	<g id="text_17_00000116200510757084306270000008223114624753784708_">
		<g transform="translate(149.987553 425.727455)scale(0.35 -0.35)">
			<g>
				<path id="FontAwesome6Free-Solid-f007_00000101097000486195648490000001647914499578023567_" fill="#005F73" d="M226.85-213.901
					c10.556,0,20.4,5.625,25.781,15c5.4,9.15,5.4,20.625,0,30c-5.381,9.15-15.225,15-25.781,15c-10.781,0-20.625-5.85-26.006-15
					c-5.4-9.375-5.4-20.85,0-30C206.225-208.276,216.068-213.901,226.85-213.901z M216.068-225.151
					c-23.194,0-41.719-18.75-41.719-41.962c0-3.75,3.056-6.788,6.806-6.788h91.162c3.75,0,7.031,3.038,7.031,6.788
					c0,23.212-18.75,41.962-41.944,41.962H216.068z"/>
			</g>
		</g>
	</g>
	<g id="text_18_00000011734585204174266970000015860070624313043625_">
		<g transform="translate(149.987553 379.331605)scale(0.35 -0.35)">
			<g>
				<path id="FontAwesome6Free-Solid-f007_00000100373547940589327480000013650440993800514492_" fill="#005F73" d="M226.85-187.389
					c10.556,0,20.4,5.625,25.781,15c5.4,9.15,5.4,20.625,0,30c-5.381,9.15-15.225,15-25.781,15c-10.781,0-20.625-5.85-26.006-15
					c-5.4-9.375-5.4-20.85,0-30C206.225-181.764,216.068-187.389,226.85-187.389z M216.068-198.639
					c-23.194,0-41.719-18.75-41.719-41.962c0-3.75,3.056-6.788,6.806-6.788h91.162c3.75,0,7.031,3.038,7.031,6.788
					c0,23.212-18.75,41.962-41.944,41.962H216.068z"/>
			</g>
		</g>
	</g>
	<g id="text_19_00000121988858667150129410000001917407142658332078_">
		<g transform="translate(149.987553 332.935754)scale(0.35 -0.35)">
			<g>
				<path id="FontAwesome6Free-Solid-f007_00000041278711457717204730000016466464877774518436_" fill="#005F73" d="M226.85-160.877
					c10.556,0,20.4,5.625,25.781,15c5.4,9.15,5.4,20.625,0,30c-5.381,9.15-15.225,15-25.781,15c-10.781,0-20.625-5.85-26.006-15
					c-5.4-9.375-5.4-20.85,0-30C206.225-155.252,216.068-160.877,226.85-160.877z M216.068-172.127
					c-23.194,0-41.719-18.75-41.719-41.963c0-3.75,3.056-6.787,6.806-6.787h91.162c3.75,0,7.031,3.037,7.031,6.787
					c0,23.213-18.75,41.963-41.944,41.963H216.068z"/>
			</g>
		</g>
	</g>
	<g id="text_20_00000036972071116783083700000013202927021592155314_">
		<g transform="translate(149.987553 286.539903)scale(0.35 -0.35)">
			<g>
				<path id="FontAwesome6Free-Solid-f007_00000066507556447811578720000005490139844929520785_" fill="#005F73" d="M226.85-134.365
					c10.556,0,20.4,5.625,25.781,15c5.4,9.15,5.4,20.625,0,30c-5.381,9.15-15.225,15-25.781,15c-10.781,0-20.625-5.85-26.006-15
					c-5.4-9.375-5.4-20.85,0-30C206.225-128.74,216.068-134.365,226.85-134.365z M216.068-145.615
					c-23.194,0-41.719-18.75-41.719-41.962c0-3.75,3.056-6.788,6.806-6.788h91.162c3.75,0,7.031,3.038,7.031,6.788
					c0,23.212-18.75,41.962-41.944,41.962H216.068z"/>
			</g>
		</g>
	</g>
	<g id="text_21_00000163780427589613122490000015596588197666710408_">
		<g transform="translate(196.383403 472.123306)scale(0.35 -0.35)">
			<g>
				<path id="FontAwesome6Free-Solid-f007_00000094613863868184408230000011560419685891270815_" fill="#005F73" d="
					M253.361-240.413c10.556,0,20.4,5.625,25.781,15c5.4,9.15,5.4,20.625,0,30c-5.381,9.15-15.225,15-25.781,15
					c-10.781,0-20.625-5.85-26.006-15c-5.4-9.375-5.4-20.85,0-30C232.736-234.788,242.58-240.413,253.361-240.413z M242.58-251.663
					c-23.194,0-41.719-18.75-41.719-41.963c0-3.75,3.056-6.787,6.806-6.787h91.163c3.75,0,7.031,3.037,7.031,6.787
					c0,23.213-18.75,41.963-41.944,41.963H242.58z"/>
			</g>
		</g>
	</g>
	<g id="text_22_00000139283831034172623200000008611741550636722358_">
		<g transform="translate(196.383403 425.727455)scale(0.35 -0.35)">
			<g>
				<path id="FontAwesome6Free-Solid-f007_00000068664053265883860450000004229497200567529366_" fill="#005F73" d="
					M253.361-213.901c10.556,0,20.4,5.625,25.781,15c5.4,9.15,5.4,20.625,0,30c-5.381,9.15-15.225,15-25.781,15
					c-10.781,0-20.625-5.85-26.006-15c-5.4-9.375-5.4-20.85,0-30C232.736-208.276,242.58-213.901,253.361-213.901z M242.58-225.151
					c-23.194,0-41.719-18.75-41.719-41.962c0-3.75,3.056-6.788,6.806-6.788h91.163c3.75,0,7.031,3.038,7.031,6.788
					c0,23.212-18.75,41.962-41.944,41.962H242.58z"/>
			</g>
		</g>
	</g>
	<g id="text_23_00000132782998601012096090000010931434067762891953_">
		<g transform="translate(196.383403 379.331605)scale(0.35 -0.35)">
			<g>
				<path id="FontAwesome6Free-Solid-f007_00000162326193584025096300000000850828778752566704_" fill="#005F73" d="
					M253.361-187.389c10.556,0,20.4,5.625,25.781,15c5.4,9.15,5.4,20.625,0,30c-5.381,9.15-15.225,15-25.781,15
					c-10.781,0-20.625-5.85-26.006-15c-5.4-9.375-5.4-20.85,0-30C232.736-181.764,242.58-187.389,253.361-187.389z M242.58-198.639
					c-23.194,0-41.719-18.75-41.719-41.962c0-3.75,3.056-6.788,6.806-6.788h91.163c3.75,0,7.031,3.038,7.031,6.788
					c0,23.212-18.75,41.962-41.944,41.962H242.58z"/>
			</g>
		</g>
	</g>
	<g id="text_24_00000020397469150921374840000013611247274914425768_">
		<g transform="translate(196.383403 332.935754)scale(0.35 -0.35)">
			<g>
				<path id="FontAwesome6Free-Solid-f007_00000127001849709958823990000005527882678734897573_" fill="#005F73" d="
					M253.361-160.877c10.556,0,20.4,5.625,25.781,15c5.4,9.15,5.4,20.625,0,30c-5.381,9.15-15.225,15-25.781,15
					c-10.781,0-20.625-5.85-26.006-15c-5.4-9.375-5.4-20.85,0-30C232.736-155.252,242.58-160.877,253.361-160.877z M242.58-172.127
					c-23.194,0-41.719-18.75-41.719-41.963c0-3.75,3.056-6.787,6.806-6.787h91.163c3.75,0,7.031,3.037,7.031,6.787
					c0,23.213-18.75,41.963-41.944,41.963H242.58z"/>
			</g>
		</g>
	</g>
	<g id="text_25_00000035532735605504529610000015260243856463707288_">
		<g transform="translate(196.383403 286.539903)scale(0.35 -0.35)">
			<g>
				<path id="FontAwesome6Free-Solid-f007_00000075879155772264129700000003039003825668340620_" fill="#005F73" d="
					M253.361-134.365c10.556,0,20.4,5.625,25.781,15c5.4,9.15,5.4,20.625,0,30c-5.381,9.15-15.225,15-25.781,15
					c-10.781,0-20.625-5.85-26.006-15c-5.4-9.375-5.4-20.85,0-30C232.736-128.74,242.58-134.365,253.361-134.365z M242.58-145.615
					c-23.194,0-41.719-18.75-41.719-41.962c0-3.75,3.056-6.788,6.806-6.788h91.163c3.75,0,7.031,3.038,7.031,6.788
					c0,23.212-18.75,41.962-41.944,41.962H242.58z"/>
			</g>
		</g>
	</g>
	<g id="text_26_00000021110548832858401020000015912986587959504023_">
		<g transform="translate(242.779254 472.123306)scale(0.35 -0.35)">
			<g>
				<path id="FontAwesome6Free-Solid-f007_00000132084985046837725220000013435011846625953171_" fill="#005F73" d="
					M279.873-240.413c10.556,0,20.4,5.625,25.781,15c5.4,9.15,5.4,20.625,0,30c-5.381,9.15-15.225,15-25.781,15
					c-10.781,0-20.625-5.85-26.006-15c-5.4-9.375-5.4-20.85,0-30C259.248-234.788,269.092-240.413,279.873-240.413z
					 M269.092-251.663c-23.194,0-41.719-18.75-41.719-41.963c0-3.75,3.056-6.787,6.806-6.787h91.163c3.75,0,7.031,3.037,7.031,6.787
					c0,23.213-18.75,41.963-41.944,41.963H269.092z"/>
			</g>
		</g>
	</g>
	<g id="text_27_00000005952791231861972920000002550853414775772836_">
		<g transform="translate(242.779254 425.727455)scale(0.35 -0.35)">
			<g>
				<path id="FontAwesome6Free-Solid-f007_00000182525830876448510390000009418592983912415382_" fill="#005F73" d="
					M279.873-213.901c10.556,0,20.4,5.625,25.781,15c5.4,9.15,5.4,20.625,0,30c-5.381,9.15-15.225,15-25.781,15
					c-10.781,0-20.625-5.85-26.006-15c-5.4-9.375-5.4-20.85,0-30C259.248-208.276,269.092-213.901,279.873-213.901z
					 M269.092-225.151c-23.194,0-41.719-18.75-41.719-41.962c0-3.75,3.056-6.788,6.806-6.788h91.163c3.75,0,7.031,3.038,7.031,6.788
					c0,23.212-18.75,41.962-41.944,41.962H269.092z"/>
			</g>
		</g>
	</g>
	<g id="text_28_00000093162974930438329040000011809021878295690899_">
		<g transform="translate(242.779254 379.331605)scale(0.35 -0.35)">
			<g>
				<path id="FontAwesome6Free-Solid-f007_00000015352828223889651810000008270658152394104237_" fill="#005F73" d="
					M279.873-187.389c10.556,0,20.4,5.625,25.781,15c5.4,9.15,5.4,20.625,0,30c-5.381,9.15-15.225,15-25.781,15
					c-10.781,0-20.625-5.85-26.006-15c-5.4-9.375-5.4-20.85,0-30C259.248-181.764,269.092-187.389,279.873-187.389z
					 M269.092-198.639c-23.194,0-41.719-18.75-41.719-41.962c0-3.75,3.056-6.788,6.806-6.788h91.163c3.75,0,7.031,3.038,7.031,6.788
					c0,23.212-18.75,41.962-41.944,41.962H269.092z"/>
			</g>
		</g>
	</g>
	<g id="text_29_00000016771735456009829280000002229588368631972486_">
		<g transform="translate(242.779254 332.935754)scale(0.35 -0.35)">
			<g>
				<path id="FontAwesome6Free-Solid-f007_00000120559167678880773530000003027195109787691700_" fill="#005F73" d="
					M279.873-160.877c10.556,0,20.4,5.625,25.781,15c5.4,9.15,5.4,20.625,0,30c-5.381,9.15-15.225,15-25.781,15
					c-10.781,0-20.625-5.85-26.006-15c-5.4-9.375-5.4-20.85,0-30C259.248-155.252,269.092-160.877,279.873-160.877z
					 M269.092-172.127c-23.194,0-41.719-18.75-41.719-41.963c0-3.75,3.056-6.787,6.806-6.787h91.163c3.75,0,7.031,3.037,7.031,6.787
					c0,23.213-18.75,41.963-41.944,41.963H269.092z"/>
			</g>
		</g>
	</g>
	<g id="text_30_00000096753619704931366930000012702829194540404106_">
		<g transform="translate(242.779254 286.539903)scale(0.35 -0.35)">
			<g>
				<path id="FontAwesome6Free-Solid-f007_00000101811996594204189410000004185234630936606880_" fill="#005F73" d="
					M279.873-134.365c10.556,0,20.4,5.625,25.781,15c5.4,9.15,5.4,20.625,0,30c-5.381,9.15-15.225,15-25.781,15
					c-10.781,0-20.625-5.85-26.006-15c-5.4-9.375-5.4-20.85,0-30C259.248-128.74,269.092-134.365,279.873-134.365z M269.092-145.615
					c-23.194,0-41.719-18.75-41.719-41.962c0-3.75,3.056-6.788,6.806-6.788h91.163c3.75,0,7.031,3.038,7.031,6.788
					c0,23.212-18.75,41.962-41.944,41.962H269.092z"/>
			</g>
		</g>
	</g>
	<g id="text_31_00000009570691976785575920000011117981544087331254_">
		<g transform="translate(289.175105 472.123306)scale(0.35 -0.35)">
			<g>
				<path id="FontAwesome6Free-Solid-f007_00000060710018936815488380000011103950803831627666_" fill="#005F73" d="
					M306.385-240.413c10.556,0,20.4,5.625,25.781,15c5.4,9.15,5.4,20.625,0,30c-5.381,9.15-15.225,15-25.781,15
					c-10.781,0-20.625-5.85-26.006-15c-5.4-9.375-5.4-20.85,0-30C285.76-234.788,295.604-240.413,306.385-240.413z M295.604-251.663
					c-23.194,0-41.719-18.75-41.719-41.963c0-3.75,3.056-6.787,6.806-6.787h91.162c3.75,0,7.031,3.037,7.031,6.787
					c0,23.213-18.75,41.963-41.944,41.963H295.604z"/>
			</g>
		</g>
	</g>
	<g id="text_32_00000034807338325796829000000017724760022675671696_">
		<g transform="translate(289.175105 425.727455)scale(0.35 -0.35)">
			<g>
				<path id="FontAwesome6Free-Solid-f007_00000140730496620360362420000018130923782992721072_" fill="#005F73" d="
					M306.385-213.901c10.556,0,20.4,5.625,25.781,15c5.4,9.15,5.4,20.625,0,30c-5.381,9.15-15.225,15-25.781,15
					c-10.781,0-20.625-5.85-26.006-15c-5.4-9.375-5.4-20.85,0-30C285.76-208.276,295.604-213.901,306.385-213.901z M295.604-225.151
					c-23.194,0-41.719-18.75-41.719-41.962c0-3.75,3.056-6.788,6.806-6.788h91.162c3.75,0,7.031,3.038,7.031,6.788
					c0,23.212-18.75,41.962-41.944,41.962H295.604z"/>
			</g>
		</g>
	</g>
	<g id="text_33_00000003812858548742316770000004447171312531573646_">
		<g transform="translate(289.175105 379.331605)scale(0.35 -0.35)">
			<g>
				<path id="FontAwesome6Free-Solid-f007_00000174587780952600590040000007157243625356512939_" fill="#005F73" d="
					M306.385-187.389c10.556,0,20.4,5.625,25.781,15c5.4,9.15,5.4,20.625,0,30c-5.381,9.15-15.225,15-25.781,15
					c-10.781,0-20.625-5.85-26.006-15c-5.4-9.375-5.4-20.85,0-30C285.76-181.764,295.604-187.389,306.385-187.389z M295.604-198.639
					c-23.194,0-41.719-18.75-41.719-41.962c0-3.75,3.056-6.788,6.806-6.788h91.162c3.75,0,7.031,3.038,7.031,6.788
					c0,23.212-18.75,41.962-41.944,41.962H295.604z"/>
			</g>
		</g>
	</g>
	<g id="text_34_00000179632248440489502720000012374873533976222127_">
		<g transform="translate(289.175105 332.935754)scale(0.35 -0.35)">
			<g>
				<path id="FontAwesome6Free-Solid-f007_00000038395778159554109490000016212394589524631224_" fill="#005F73" d="
					M306.385-160.877c10.556,0,20.4,5.625,25.781,15c5.4,9.15,5.4,20.625,0,30c-5.381,9.15-15.225,15-25.781,15
					c-10.781,0-20.625-5.85-26.006-15c-5.4-9.375-5.4-20.85,0-30C285.76-155.252,295.604-160.877,306.385-160.877z M295.604-172.127
					c-23.194,0-41.719-18.75-41.719-41.963c0-3.75,3.056-6.787,6.806-6.787h91.162c3.75,0,7.031,3.037,7.031,6.787
					c0,23.213-18.75,41.963-41.944,41.963H295.604z"/>
			</g>
		</g>
	</g>
	<g id="text_35_00000176036665563131891080000002312707983322003087_">
		<g transform="translate(289.175105 286.539903)scale(0.35 -0.35)">
			<g>
				<path id="FontAwesome6Free-Solid-f007_00000073705383587266546200000000583928109475662502_" fill="#005F73" d="
					M306.385-134.365c10.556,0,20.4,5.625,25.781,15c5.4,9.15,5.4,20.625,0,30c-5.381,9.15-15.225,15-25.781,15
					c-10.781,0-20.625-5.85-26.006-15c-5.4-9.375-5.4-20.85,0-30C285.76-128.74,295.604-134.365,306.385-134.365z M295.604-145.615
					c-23.194,0-41.719-18.75-41.719-41.962c0-3.75,3.056-6.788,6.806-6.788h91.162c3.75,0,7.031,3.038,7.031,6.788
					c0,23.212-18.75,41.962-41.944,41.962H295.604z"/>
			</g>
		</g>
	</g>
	<g id="text_36_00000150101255562568178720000009888972480182380477_">
		<g transform="translate(335.570956 472.123306)scale(0.35 -0.35)">
			<g>
				<path id="FontAwesome6Free-Solid-f007_00000036966793949948732230000010533468058926964396_" fill="#005F73" d="
					M332.897-240.413c10.556,0,20.4,5.625,25.781,15c5.4,9.15,5.4,20.625,0,30c-5.381,9.15-15.225,15-25.781,15
					c-10.781,0-20.625-5.85-26.006-15c-5.4-9.375-5.4-20.85,0-30C312.272-234.788,322.116-240.413,332.897-240.413z
					 M322.116-251.663c-23.194,0-41.719-18.75-41.719-41.963c0-3.75,3.056-6.787,6.806-6.787h91.163c3.75,0,7.031,3.037,7.031,6.787
					c0,23.213-18.75,41.963-41.944,41.963H322.116z"/>
			</g>
		</g>
	</g>
	<g id="text_37_00000077290018295982235580000002355990722047299487_">
		<g transform="translate(335.570956 425.727455)scale(0.35 -0.35)">
			<g>
				<path id="FontAwesome6Free-Solid-f007_00000079444284989043350520000012860960968726857392_" fill="#005F73" d="
					M332.897-213.901c10.556,0,20.4,5.625,25.781,15c5.4,9.15,5.4,20.625,0,30c-5.381,9.15-15.225,15-25.781,15
					c-10.781,0-20.625-5.85-26.006-15c-5.4-9.375-5.4-20.85,0-30C312.272-208.276,322.116-213.901,332.897-213.901z
					 M322.116-225.151c-23.194,0-41.719-18.75-41.719-41.962c0-3.75,3.056-6.788,6.806-6.788h91.163c3.75,0,7.031,3.038,7.031,6.788
					c0,23.212-18.75,41.962-41.944,41.962H322.116z"/>
			</g>
		</g>
	</g>
	<g id="text_38_00000070826467187866507540000001280593589560854169_">
		<g transform="translate(335.570956 379.331605)scale(0.35 -0.35)">
			<g>
				<path id="FontAwesome6Free-Solid-f007_00000077312819354906292320000006800866343264469177_" fill="#005F73" d="
					M332.897-187.389c10.556,0,20.4,5.625,25.781,15c5.4,9.15,5.4,20.625,0,30c-5.381,9.15-15.225,15-25.781,15
					c-10.781,0-20.625-5.85-26.006-15c-5.4-9.375-5.4-20.85,0-30C312.272-181.764,322.116-187.389,332.897-187.389z
					 M322.116-198.639c-23.194,0-41.719-18.75-41.719-41.962c0-3.75,3.056-6.788,6.806-6.788h91.163c3.75,0,7.031,3.038,7.031,6.788
					c0,23.212-18.75,41.962-41.944,41.962H322.116z"/>
			</g>
		</g>
	</g>
	<g id="text_39_00000099653039012658715040000016134702706561009587_">
		<g transform="translate(335.570956 332.935754)scale(0.35 -0.35)">
			<g>
				<path id="FontAwesome6Free-Solid-f007_00000052814118957372506860000016241920674961102995_" fill="#005F73" d="
					M332.897-160.877c10.556,0,20.4,5.625,25.781,15c5.4,9.15,5.4,20.625,0,30c-5.381,9.15-15.225,15-25.781,15
					c-10.781,0-20.625-5.85-26.006-15c-5.4-9.375-5.4-20.85,0-30C312.272-155.252,322.116-160.877,332.897-160.877z
					 M322.116-172.127c-23.194,0-41.719-18.75-41.719-41.963c0-3.75,3.056-6.787,6.806-6.787h91.163c3.75,0,7.031,3.037,7.031,6.787
					c0,23.213-18.75,41.963-41.944,41.963H322.116z"/>
			</g>
		</g>
	</g>
	<g id="text_40_00000081623676971336910560000007618306207099617181_">
		<g transform="translate(335.570956 286.539903)scale(0.35 -0.35)">
			<g>
				<path id="FontAwesome6Free-Solid-f007_00000172423807802741898750000007101525390190014875_" fill="#005F73" d="
					M332.897-134.365c10.556,0,20.4,5.625,25.781,15c5.4,9.15,5.4,20.625,0,30c-5.381,9.15-15.225,15-25.781,15
					c-10.781,0-20.625-5.85-26.006-15c-5.4-9.375-5.4-20.85,0-30C312.272-128.74,322.116-134.365,332.897-134.365z M322.116-145.615
					c-23.194,0-41.719-18.75-41.719-41.962c0-3.75,3.056-6.788,6.806-6.788h91.163c3.75,0,7.031,3.038,7.031,6.788
					c0,23.212-18.75,41.962-41.944,41.962H322.116z"/>
			</g>
		</g>
	</g>
	<g id="text_41_00000044160047191436944450000000875102660217275549_">
		<g transform="translate(381.966807 472.123306)scale(0.35 -0.35)">
			<g>
				<path id="FontAwesome6Free-Solid-f007_00000031890885749993531110000015207541870114262953_" fill="#005F73" d="
					M359.409-240.413c10.556,0,20.4,5.625,25.781,15c5.4,9.15,5.4,20.625,0,30c-5.381,9.15-15.225,15-25.781,15
					c-10.781,0-20.625-5.85-26.006-15c-5.4-9.375-5.4-20.85,0-30C338.784-234.788,348.628-240.413,359.409-240.413z
					 M348.628-251.663c-23.194,0-41.719-18.75-41.719-41.963c0-3.75,3.056-6.787,6.806-6.787h91.163c3.75,0,7.031,3.037,7.031,6.787
					c0,23.213-18.75,41.963-41.944,41.963H348.628z"/>
			</g>
		</g>
	</g>
	<g id="text_42_00000112633913548107140820000010273747533925871011_">
		<g transform="translate(381.966807 425.727455)scale(0.35 -0.35)">
			<g>
				<path id="FontAwesome6Free-Solid-f007_00000096027313296394949640000015796718946679365507_" fill="#005F73" d="
					M359.409-213.901c10.556,0,20.4,5.625,25.781,15c5.4,9.15,5.4,20.625,0,30c-5.381,9.15-15.225,15-25.781,15
					c-10.781,0-20.625-5.85-26.006-15c-5.4-9.375-5.4-20.85,0-30C338.784-208.276,348.628-213.901,359.409-213.901z
					 M348.628-225.151c-23.194,0-41.719-18.75-41.719-41.962c0-3.75,3.056-6.788,6.806-6.788h91.163c3.75,0,7.031,3.038,7.031,6.788
					c0,23.212-18.75,41.962-41.944,41.962H348.628z"/>
			</g>
		</g>
	</g>
	<g id="text_43_00000005984708144254888820000012237739348609762695_">
		<g transform="translate(381.966807 379.331605)scale(0.35 -0.35)">
			<g>
				<path id="FontAwesome6Free-Solid-f007_00000129204063963778679610000018155804267816602023_" fill="#005F73" d="
					M359.409-187.389c10.556,0,20.4,5.625,25.781,15c5.4,9.15,5.4,20.625,0,30c-5.381,9.15-15.225,15-25.781,15
					c-10.781,0-20.625-5.85-26.006-15c-5.4-9.375-5.4-20.85,0-30C338.784-181.764,348.628-187.389,359.409-187.389z
					 M348.628-198.639c-23.194,0-41.719-18.75-41.719-41.962c0-3.75,3.056-6.788,6.806-6.788h91.163c3.75,0,7.031,3.038,7.031,6.788
					c0,23.212-18.75,41.962-41.944,41.962H348.628z"/>
			</g>
		</g>
	</g>
	<g id="text_44_00000078741023100739072370000010780051311201748143_">
		<g transform="translate(381.966807 332.935754)scale(0.35 -0.35)">
			<g>
				<path id="FontAwesome6Free-Solid-f007_00000110449229983945996880000008541098684746087590_" fill="#005F73" d="
					M359.409-160.877c10.556,0,20.4,5.625,25.781,15c5.4,9.15,5.4,20.625,0,30c-5.381,9.15-15.225,15-25.781,15
					c-10.781,0-20.625-5.85-26.006-15c-5.4-9.375-5.4-20.85,0-30C338.784-155.252,348.628-160.877,359.409-160.877z
					 M348.628-172.127c-23.194,0-41.719-18.75-41.719-41.963c0-3.75,3.056-6.787,6.806-6.787h91.163c3.75,0,7.031,3.037,7.031,6.787
					c0,23.213-18.75,41.963-41.944,41.963H348.628z"/>
			</g>
		</g>
	</g>
	<g id="text_45_00000121988468764452257860000006838886918778824609_">
		<g transform="translate(381.966807 286.539903)scale(0.35 -0.35)">
			<g>
				<path id="FontAwesome6Free-Solid-f007_00000080188581559164656190000009987397591904248461_" fill="#005F73" d="
					M359.409-134.365c10.556,0,20.4,5.625,25.781,15c5.4,9.15,5.4,20.625,0,30c-5.381,9.15-15.225,15-25.781,15
					c-10.781,0-20.625-5.85-26.006-15c-5.4-9.375-5.4-20.85,0-30C338.784-128.74,348.628-134.365,359.409-134.365z M348.628-145.615
					c-23.194,0-41.719-18.75-41.719-41.962c0-3.75,3.056-6.788,6.806-6.788h91.163c3.75,0,7.031,3.038,7.031,6.788
					c0,23.212-18.75,41.962-41.944,41.962H348.628z"/>
			</g>
		</g>
	</g>
	<g id="text_46_00000163789998162128886900000001758802376371804339_">
		<g transform="translate(428.362658 472.123306)scale(0.35 -0.35)">
			<g>
				<path id="FontAwesome6Free-Solid-f007_00000067200255010449527710000007618282676855407511_" fill="#005F73" d="
					M385.921-240.413c10.556,0,20.4,5.625,25.781,15c5.4,9.15,5.4,20.625,0,30c-5.381,9.15-15.225,15-25.781,15
					c-10.781,0-20.625-5.85-26.006-15c-5.4-9.375-5.4-20.85,0-30C365.296-234.788,375.14-240.413,385.921-240.413z M375.14-251.663
					c-23.194,0-41.719-18.75-41.719-41.963c0-3.75,3.056-6.787,6.806-6.787h91.163c3.75,0,7.031,3.037,7.031,6.787
					c0,23.213-18.75,41.963-41.944,41.963H375.14z"/>
			</g>
		</g>
	</g>
	<g id="text_47_00000115481446857483079640000008506012729322155415_">
		<g transform="translate(428.362658 425.727455)scale(0.35 -0.35)">
			<g>
				<path id="FontAwesome6Free-Solid-f007_00000068648183483451883670000007351838717224443521_" fill="#005F73" d="
					M385.921-213.901c10.556,0,20.4,5.625,25.781,15c5.4,9.15,5.4,20.625,0,30c-5.381,9.15-15.225,15-25.781,15
					c-10.781,0-20.625-5.85-26.006-15c-5.4-9.375-5.4-20.85,0-30C365.296-208.276,375.14-213.901,385.921-213.901z M375.14-225.151
					c-23.194,0-41.719-18.75-41.719-41.962c0-3.75,3.056-6.788,6.806-6.788h91.163c3.75,0,7.031,3.038,7.031,6.788
					c0,23.212-18.75,41.962-41.944,41.962H375.14z"/>
			</g>
		</g>
	</g>
	<g id="text_48_00000103954889306913241510000018027900049018750094_">
		<g transform="translate(428.362658 379.331605)scale(0.35 -0.35)">
			<g>
				<path id="FontAwesome6Free-Solid-f007_00000033329270603764146030000001742544142193860778_" fill="#005F73" d="
					M385.921-187.389c10.556,0,20.4,5.625,25.781,15c5.4,9.15,5.4,20.625,0,30c-5.381,9.15-15.225,15-25.781,15
					c-10.781,0-20.625-5.85-26.006-15c-5.4-9.375-5.4-20.85,0-30C365.296-181.764,375.14-187.389,385.921-187.389z M375.14-198.639
					c-23.194,0-41.719-18.75-41.719-41.962c0-3.75,3.056-6.788,6.806-6.788h91.163c3.75,0,7.031,3.038,7.031,6.788
					c0,23.212-18.75,41.962-41.944,41.962H375.14z"/>
			</g>
		</g>
	</g>
	<g id="text_49_00000164472596221560943470000002077533631443535239_">
		<g transform="translate(428.362658 332.935754)scale(0.35 -0.35)">
			<g>
				<path id="FontAwesome6Free-Solid-f007_00000134242925609807079260000016377978057681880767_" fill="#005F73" d="
					M385.921-160.877c10.556,0,20.4,5.625,25.781,15c5.4,9.15,5.4,20.625,0,30c-5.381,9.15-15.225,15-25.781,15
					c-10.781,0-20.625-5.85-26.006-15c-5.4-9.375-5.4-20.85,0-30C365.296-155.252,375.14-160.877,385.921-160.877z M375.14-172.127
					c-23.194,0-41.719-18.75-41.719-41.963c0-3.75,3.056-6.787,6.806-6.787h91.163c3.75,0,7.031,3.037,7.031,6.787
					c0,23.213-18.75,41.963-41.944,41.963H375.14z"/>
			</g>
		</g>
	</g>
	<g id="text_50_00000140704004970731667350000017980521833748879272_">
		<g transform="translate(428.362658 286.539903)scale(0.35 -0.35)">
			<g>
				<path id="FontAwesome6Free-Solid-f007_00000095328338210602045130000017248238163424451262_" fill="#005F73" d="
					M385.921-134.365c10.556,0,20.4,5.625,25.781,15c5.4,9.15,5.4,20.625,0,30c-5.381,9.15-15.225,15-25.781,15
					c-10.781,0-20.625-5.85-26.006-15c-5.4-9.375-5.4-20.85,0-30C365.296-128.74,375.14-134.365,385.921-134.365z M375.14-145.615
					c-23.194,0-41.719-18.75-41.719-41.962c0-3.75,3.056-6.788,6.806-6.788h91.163c3.75,0,7.031,3.038,7.031,6.788
					c0,23.212-18.75,41.962-41.944,41.962H375.14z"/>
			</g>
		</g>
	</g>
	<g id="text_51_00000148619152810075100840000012133741900001792950_">
		<g transform="translate(474.758508 472.123306)scale(0.35 -0.35)">
			<g>
				<path id="FontAwesome6Free-Solid-f007_00000068665908287685006310000011875518241132769712_" fill="#005F73" d="
					M412.433-240.413c10.556,0,20.4,5.625,25.781,15c5.4,9.15,5.4,20.625,0,30c-5.381,9.15-15.225,15-25.781,15
					c-10.781,0-20.625-5.85-26.006-15c-5.4-9.375-5.4-20.85,0-30C391.808-234.788,401.652-240.413,412.433-240.413z
					 M401.652-251.663c-23.194,0-41.719-18.75-41.719-41.963c0-3.75,3.056-6.787,6.806-6.787h91.163c3.75,0,7.031,3.037,7.031,6.787
					c0,23.213-18.75,41.963-41.944,41.963H401.652z"/>
			</g>
		</g>
	</g>
	<g id="text_52_00000016056697146825684020000000288221856768648099_">
		<g transform="translate(474.758508 425.727455)scale(0.35 -0.35)">
			<g>
				<path id="FontAwesome6Free-Solid-f007_00000139270967700245834910000018184744380946251926_" fill="#005F73" d="
					M412.433-213.901c10.556,0,20.4,5.625,25.781,15c5.4,9.15,5.4,20.625,0,30c-5.381,9.15-15.225,15-25.781,15
					c-10.781,0-20.625-5.85-26.006-15c-5.4-9.375-5.4-20.85,0-30C391.808-208.276,401.652-213.901,412.433-213.901z
					 M401.652-225.151c-23.194,0-41.719-18.75-41.719-41.962c0-3.75,3.056-6.788,6.806-6.788h91.163c3.75,0,7.031,3.038,7.031,6.788
					c0,23.212-18.75,41.962-41.944,41.962H401.652z"/>
			</g>
		</g>
	</g>
	<g id="text_53_00000090288942859267306210000014373503331490021530_">
		<g transform="translate(474.758508 379.331605)scale(0.35 -0.35)">
			<g>
				<path id="FontAwesome6Free-Solid-f007_00000140011408009073606250000001021385347949238959_" fill="#005F73" d="
					M412.433-187.389c10.556,0,20.4,5.625,25.781,15c5.4,9.15,5.4,20.625,0,30c-5.381,9.15-15.225,15-25.781,15
					c-10.781,0-20.625-5.85-26.006-15c-5.4-9.375-5.4-20.85,0-30C391.808-181.764,401.652-187.389,412.433-187.389z
					 M401.652-198.639c-23.194,0-41.719-18.75-41.719-41.962c0-3.75,3.056-6.788,6.806-6.788h91.163c3.75,0,7.031,3.038,7.031,6.788
					c0,23.212-18.75,41.962-41.944,41.962H401.652z"/>
			</g>
		</g>
	</g>
	<g id="text_54_00000107576173164703047920000011004614221187811204_">
		<g transform="translate(474.758508 332.935754)scale(0.35 -0.35)">
			<g>
				<path id="FontAwesome6Free-Solid-f007_00000100383564126558615260000006303662469552280490_" fill="#005F73" d="
					M412.433-160.877c10.556,0,20.4,5.625,25.781,15c5.4,9.15,5.4,20.625,0,30c-5.381,9.15-15.225,15-25.781,15
					c-10.781,0-20.625-5.85-26.006-15c-5.4-9.375-5.4-20.85,0-30C391.808-155.252,401.652-160.877,412.433-160.877z
					 M401.652-172.127c-23.194,0-41.719-18.75-41.719-41.963c0-3.75,3.056-6.787,6.806-6.787h91.163c3.75,0,7.031,3.037,7.031,6.787
					c0,23.213-18.75,41.963-41.944,41.963H401.652z"/>
			</g>
		</g>
	</g>
	<g id="text_55_00000021810868212915313970000002685547304764509352_">
		<g transform="translate(474.758508 286.539903)scale(0.35 -0.35)">
			<g>
				<path id="FontAwesome6Free-Solid-f007_00000030471070771732235610000016326681428764403603_" fill="#005F73" d="
					M412.433-134.365c10.556,0,20.4,5.625,25.781,15c5.4,9.15,5.4,20.625,0,30c-5.381,9.15-15.225,15-25.781,15
					c-10.781,0-20.625-5.85-26.006-15c-5.4-9.375-5.4-20.85,0-30C391.808-128.74,401.652-134.365,412.433-134.365z M401.652-145.615
					c-23.194,0-41.719-18.75-41.719-41.962c0-3.75,3.056-6.788,6.806-6.788h91.163c3.75,0,7.031,3.038,7.031,6.788
					c0,23.212-18.75,41.962-41.944,41.962H401.652z"/>
			</g>
		</g>
	</g>
	<g id="text_56_00000127735341094732216790000018402320592048922559_">
		<g transform="translate(521.154359 472.123306)scale(0.35 -0.35)">
			<g>
				<path id="FontAwesome6Free-Solid-f007_00000099654345686921562010000003738035049160758154_" fill="#005F73" d="
					M438.945-240.413c10.556,0,20.4,5.625,25.781,15c5.4,9.15,5.4,20.625,0,30c-5.381,9.15-15.225,15-25.781,15
					c-10.781,0-20.625-5.85-26.006-15c-5.4-9.375-5.4-20.85,0-30C418.32-234.788,428.164-240.413,438.945-240.413z M428.164-251.663
					c-23.194,0-41.719-18.75-41.719-41.963c0-3.75,3.056-6.787,6.806-6.787h91.162c3.75,0,7.031,3.037,7.031,6.787
					c0,23.213-18.75,41.963-41.944,41.963H428.164z"/>
			</g>
		</g>
	</g>
	<g id="text_57_00000174565863012646868550000009631988215738125498_">
		<g transform="translate(521.154359 425.727455)scale(0.35 -0.35)">
			<g>
				<path id="FontAwesome6Free-Solid-f007_00000119111569592423069040000009085249302230849975_" fill="#005F73" d="
					M438.945-213.901c10.556,0,20.4,5.625,25.781,15c5.4,9.15,5.4,20.625,0,30c-5.381,9.15-15.225,15-25.781,15
					c-10.781,0-20.625-5.85-26.006-15c-5.4-9.375-5.4-20.85,0-30C418.32-208.276,428.164-213.901,438.945-213.901z M428.164-225.151
					c-23.194,0-41.719-18.75-41.719-41.962c0-3.75,3.056-6.788,6.806-6.788h91.162c3.75,0,7.031,3.038,7.031,6.788
					c0,23.212-18.75,41.962-41.944,41.962H428.164z"/>
			</g>
		</g>
	</g>
	<g id="text_58_00000062160819207960144040000012468628835404804513_">
		<g transform="translate(521.154359 379.331605)scale(0.35 -0.35)">
			<g>
				<path id="FontAwesome6Free-Solid-f007_00000092421554590968290590000003999561020839522977_" fill="#005F73" d="
					M438.945-187.389c10.556,0,20.4,5.625,25.781,15c5.4,9.15,5.4,20.625,0,30c-5.381,9.15-15.225,15-25.781,15
					c-10.781,0-20.625-5.85-26.006-15c-5.4-9.375-5.4-20.85,0-30C418.32-181.764,428.164-187.389,438.945-187.389z M428.164-198.639
					c-23.194,0-41.719-18.75-41.719-41.962c0-3.75,3.056-6.788,6.806-6.788h91.162c3.75,0,7.031,3.038,7.031,6.788
					c0,23.212-18.75,41.962-41.944,41.962H428.164z"/>
			</g>
		</g>
	</g>
	<g id="text_59_00000171704378191218950410000013761204864058062483_">
		<g transform="translate(521.154359 332.935754)scale(0.35 -0.35)">
			<g>
				<path id="FontAwesome6Free-Solid-f007_00000010298700939638198080000011859309585049253799_" fill="#005F73" d="
					M438.945-160.877c10.556,0,20.4,5.625,25.781,15c5.4,9.15,5.4,20.625,0,30c-5.381,9.15-15.225,15-25.781,15
					c-10.781,0-20.625-5.85-26.006-15c-5.4-9.375-5.4-20.85,0-30C418.32-155.252,428.164-160.877,438.945-160.877z M428.164-172.127
					c-23.194,0-41.719-18.75-41.719-41.963c0-3.75,3.056-6.787,6.806-6.787h91.162c3.75,0,7.031,3.037,7.031,6.787
					c0,23.213-18.75,41.963-41.944,41.963H428.164z"/>
			</g>
		</g>
	</g>
	<g id="text_60_00000103984713100681173540000012687841907118697137_">
		<g transform="translate(521.154359 286.539903)scale(0.35 -0.35)">
			<g>
				<path id="FontAwesome6Free-Solid-f007_00000180351434747231586660000009641475296156126345_" fill="#005F73" d="
					M438.945-134.365c10.556,0,20.4,5.625,25.781,15c5.4,9.15,5.4,20.625,0,30c-5.381,9.15-15.225,15-25.781,15
					c-10.781,0-20.625-5.85-26.006-15c-5.4-9.375-5.4-20.85,0-30C418.32-128.74,428.164-134.365,438.945-134.365z M428.164-145.615
					c-23.194,0-41.719-18.75-41.719-41.962c0-3.75,3.056-6.788,6.806-6.788h91.162c3.75,0,7.031,3.038,7.031,6.788
					c0,23.212-18.75,41.962-41.944,41.962H428.164z"/>
			</g>
		</g>
	</g>
	<g id="text_61_00000114059956689677648510000015484048192214343318_">
		<g transform="translate(567.55021 472.123306)scale(0.35 -0.35)">
			<g>
				<path id="FontAwesome6Free-Solid-f007_00000106838617084503018070000013793690677876533936_" fill="#005F73" d="
					M465.457-240.413c10.556,0,20.4,5.625,25.781,15c5.4,9.15,5.4,20.625,0,30c-5.381,9.15-15.225,15-25.781,15
					c-10.781,0-20.625-5.85-26.006-15c-5.4-9.375-5.4-20.85,0-30C444.832-234.788,454.676-240.413,465.457-240.413z
					 M454.676-251.663c-23.194,0-41.719-18.75-41.719-41.963c0-3.75,3.056-6.787,6.806-6.787h91.162c3.75,0,7.031,3.037,7.031,6.787
					c0,23.213-18.75,41.963-41.944,41.963H454.676z"/>
			</g>
		</g>
	</g>
	<g id="text_62_00000156567884624357687810000007118741076470952084_">
		<g transform="translate(567.55021 425.727455)scale(0.35 -0.35)">
			<g>
				<path id="FontAwesome6Free-Solid-f007_00000082344594991587693470000004124787902851385226_" fill="#005F73" d="
					M465.457-213.901c10.556,0,20.4,5.625,25.781,15c5.4,9.15,5.4,20.625,0,30c-5.381,9.15-15.225,15-25.781,15
					c-10.781,0-20.625-5.85-26.006-15c-5.4-9.375-5.4-20.85,0-30C444.832-208.276,454.676-213.901,465.457-213.901z
					 M454.676-225.151c-23.194,0-41.719-18.75-41.719-41.962c0-3.75,3.056-6.788,6.806-6.788h91.162c3.75,0,7.031,3.038,7.031,6.788
					c0,23.212-18.75,41.962-41.944,41.962H454.676z"/>
			</g>
		</g>
	</g>
	<g id="text_63_00000152980233381126252330000010079798815273666181_">
		<g transform="translate(567.55021 379.331605)scale(0.35 -0.35)">
			<g>
				<path id="FontAwesome6Free-Solid-f007_00000002348675666863907540000017495094154819621534_" fill="#005F73" d="
					M465.457-187.389c10.556,0,20.4,5.625,25.781,15c5.4,9.15,5.4,20.625,0,30c-5.381,9.15-15.225,15-25.781,15
					c-10.781,0-20.625-5.85-26.006-15c-5.4-9.375-5.4-20.85,0-30C444.832-181.764,454.676-187.389,465.457-187.389z
					 M454.676-198.639c-23.194,0-41.719-18.75-41.719-41.962c0-3.75,3.056-6.788,6.806-6.788h91.162c3.75,0,7.031,3.038,7.031,6.788
					c0,23.212-18.75,41.962-41.944,41.962H454.676z"/>
			</g>
		</g>
	</g>
	<g id="text_64_00000034784619825465318010000017841894393471919761_">
		<g transform="translate(567.55021 332.935754)scale(0.35 -0.35)">
			<g>
				<path id="FontAwesome6Free-Solid-f007_00000138547543809560231230000002715232143888412558_" fill="#005F73" d="
					M465.457-160.877c10.556,0,20.4,5.625,25.781,15c5.4,9.15,5.4,20.625,0,30c-5.381,9.15-15.225,15-25.781,15
					c-10.781,0-20.625-5.85-26.006-15c-5.4-9.375-5.4-20.85,0-30C444.832-155.252,454.676-160.877,465.457-160.877z
					 M454.676-172.127c-23.194,0-41.719-18.75-41.719-41.963c0-3.75,3.056-6.787,6.806-6.787h91.162c3.75,0,7.031,3.037,7.031,6.787
					c0,23.213-18.75,41.963-41.944,41.963H454.676z"/>
			</g>
		</g>
	</g>
	<g id="text_65_00000116216075591857494050000002704294316893264770_">
		<g transform="translate(567.55021 286.539903)scale(0.35 -0.35)">
			<g>
				<path id="FontAwesome6Free-Solid-f007_00000142163709979373924950000003901097401815324853_" fill="#005F73" d="
					M465.457-134.365c10.556,0,20.4,5.625,25.781,15c5.4,9.15,5.4,20.625,0,30c-5.381,9.15-15.225,15-25.781,15
					c-10.781,0-20.625-5.85-26.006-15c-5.4-9.375-5.4-20.85,0-30C444.832-128.74,454.676-134.365,465.457-134.365z M454.676-145.615
					c-23.194,0-41.719-18.75-41.719-41.962c0-3.75,3.056-6.788,6.806-6.788h91.162c3.75,0,7.031,3.038,7.031,6.788
					c0,23.212-18.75,41.962-41.944,41.962H454.676z"/>
			</g>
		</g>
	</g>
	<g id="text_66_00000090280155769607730300000014236195737946264450_">
		<g transform="translate(613.946061 472.123306)scale(0.35 -0.35)">
			<g>
				<path id="FontAwesome6Free-Solid-f007_00000107570664181168443490000009771281178491456413_" fill="#005F73" d="
					M491.969-240.413c10.556,0,20.4,5.625,25.781,15c5.4,9.15,5.4,20.625,0,30c-5.381,9.15-15.225,15-25.781,15
					c-10.781,0-20.625-5.85-26.006-15c-5.4-9.375-5.4-20.85,0-30C471.344-234.788,481.187-240.413,491.969-240.413z
					 M481.187-251.663c-23.194,0-41.719-18.75-41.719-41.963c0-3.75,3.056-6.787,6.806-6.787h91.163c3.75,0,7.031,3.037,7.031,6.787
					c0,23.213-18.75,41.963-41.944,41.963H481.187z"/>
			</g>
		</g>
	</g>
	<g id="text_67_00000163064180251123311050000008267631020266975378_">
		<g transform="translate(613.946061 425.727455)scale(0.35 -0.35)">
			<g>
				<path id="FontAwesome6Free-Solid-f007_00000089567455713070678800000000978834514615159206_" fill="#005F73" d="
					M491.969-213.901c10.556,0,20.4,5.625,25.781,15c5.4,9.15,5.4,20.625,0,30c-5.381,9.15-15.225,15-25.781,15
					c-10.781,0-20.625-5.85-26.006-15c-5.4-9.375-5.4-20.85,0-30C471.344-208.276,481.187-213.901,491.969-213.901z
					 M481.187-225.151c-23.194,0-41.719-18.75-41.719-41.962c0-3.75,3.056-6.788,6.806-6.788h91.163c3.75,0,7.031,3.038,7.031,6.788
					c0,23.212-18.75,41.962-41.944,41.962H481.187z"/>
			</g>
		</g>
	</g>
	<g id="text_68_00000089558185978006785490000017445827564038495675_">
		<g transform="translate(613.946061 379.331605)scale(0.35 -0.35)">
			<g>
				<path id="FontAwesome6Free-Solid-f007_00000085231857701835131230000013399597635222988453_" fill="#005F73" d="
					M491.969-187.389c10.556,0,20.4,5.625,25.781,15c5.4,9.15,5.4,20.625,0,30c-5.381,9.15-15.225,15-25.781,15
					c-10.781,0-20.625-5.85-26.006-15c-5.4-9.375-5.4-20.85,0-30C471.344-181.764,481.187-187.389,491.969-187.389z
					 M481.187-198.639c-23.194,0-41.719-18.75-41.719-41.962c0-3.75,3.056-6.788,6.806-6.788h91.163c3.75,0,7.031,3.038,7.031,6.788
					c0,23.212-18.75,41.962-41.944,41.962H481.187z"/>
			</g>
		</g>
	</g>
	<g id="text_69_00000044160846604420637570000008825251740573659306_">
		<g transform="translate(613.946061 332.935754)scale(0.35 -0.35)">
			<g>
				<path id="FontAwesome6Free-Solid-f007_00000029015143548200256250000007739303352319893684_" fill="#005F73" d="
					M491.969-160.877c10.556,0,20.4,5.625,25.781,15c5.4,9.15,5.4,20.625,0,30c-5.381,9.15-15.225,15-25.781,15
					c-10.781,0-20.625-5.85-26.006-15c-5.4-9.375-5.4-20.85,0-30C471.344-155.252,481.187-160.877,491.969-160.877z
					 M481.187-172.127c-23.194,0-41.719-18.75-41.719-41.963c0-3.75,3.056-6.787,6.806-6.787h91.163c3.75,0,7.031,3.037,7.031,6.787
					c0,23.213-18.75,41.963-41.944,41.963H481.187z"/>
			</g>
		</g>
	</g>
	<g id="text_70_00000181058910171323294110000017806455746117767317_">
		<g transform="translate(613.946061 286.539903)scale(0.35 -0.35)">
			<g>
				<path id="FontAwesome6Free-Solid-f007_00000160903980817227968030000016118987790884586644_" fill="#005F73" d="
					M491.969-134.365c10.556,0,20.4,5.625,25.781,15c5.4,9.15,5.4,20.625,0,30c-5.381,9.15-15.225,15-25.781,15
					c-10.781,0-20.625-5.85-26.006-15c-5.4-9.375-5.4-20.85,0-30C471.344-128.74,481.187-134.365,491.969-134.365z M481.187-145.615
					c-23.194,0-41.719-18.75-41.719-41.962c0-3.75,3.056-6.788,6.806-6.788h91.163c3.75,0,7.031,3.038,7.031,6.788
					c0,23.212-18.75,41.962-41.944,41.962H481.187z"/>
			</g>
		</g>
	</g>
	<g id="text_71_00000116212198609576290330000016523953851775913918_">
		<g transform="translate(660.341912 472.123306)scale(0.35 -0.35)">
			<g>
				<path id="FontAwesome6Free-Solid-f007_00000108309513107744118880000012424363559229500600_" fill="#005F73" d="
					M518.481-240.413c10.556,0,20.4,5.625,25.781,15c5.4,9.15,5.4,20.625,0,30c-5.381,9.15-15.225,15-25.781,15
					c-10.781,0-20.625-5.85-26.006-15c-5.4-9.375-5.4-20.85,0-30C497.856-234.788,507.699-240.413,518.481-240.413z
					 M507.699-251.663c-23.194,0-41.719-18.75-41.719-41.963c0-3.75,3.056-6.787,6.806-6.787h91.162c3.75,0,7.031,3.037,7.031,6.787
					c0,23.213-18.75,41.963-41.944,41.963H507.699z"/>
			</g>
		</g>
	</g>
	<g id="text_72_00000051380992086195285660000000601685930013979041_">
		<g transform="translate(660.341912 425.727455)scale(0.35 -0.35)">
			<g>
				<path id="FontAwesome6Free-Solid-f007_00000034791954545206023000000000669303664084403114_" fill="#005F73" d="
					M518.481-213.901c10.556,0,20.4,5.625,25.781,15c5.4,9.15,5.4,20.625,0,30c-5.381,9.15-15.225,15-25.781,15
					c-10.781,0-20.625-5.85-26.006-15c-5.4-9.375-5.4-20.85,0-30C497.856-208.276,507.699-213.901,518.481-213.901z
					 M507.699-225.151c-23.194,0-41.719-18.75-41.719-41.962c0-3.75,3.056-6.788,6.806-6.788h91.162c3.75,0,7.031,3.038,7.031,6.788
					c0,23.212-18.75,41.962-41.944,41.962H507.699z"/>
			</g>
		</g>
	</g>
	<g id="text_73_00000147933320968153287050000012087002468618795686_">
		<g transform="translate(660.341912 379.331605)scale(0.35 -0.35)">
			<g>
				<path id="FontAwesome6Free-Solid-f007_00000057118355970691769970000008166757140749193367_" fill="#005F73" d="
					M518.481-187.389c10.556,0,20.4,5.625,25.781,15c5.4,9.15,5.4,20.625,0,30c-5.381,9.15-15.225,15-25.781,15
					c-10.781,0-20.625-5.85-26.006-15c-5.4-9.375-5.4-20.85,0-30C497.856-181.764,507.699-187.389,518.481-187.389z
					 M507.699-198.639c-23.194,0-41.719-18.75-41.719-41.962c0-3.75,3.056-6.788,6.806-6.788h91.162c3.75,0,7.031,3.038,7.031,6.788
					c0,23.212-18.75,41.962-41.944,41.962H507.699z"/>
			</g>
		</g>
	</g>
	<g id="text_74_00000178906963791995755670000017327076871214862999_">
		<g transform="translate(660.341912 332.935754)scale(0.35 -0.35)">
			<g>
				<path id="FontAwesome6Free-Solid-f007_00000012435048756672426480000003673544782890843272_" fill="#005F73" d="
					M518.481-160.877c10.556,0,20.4,5.625,25.781,15c5.4,9.15,5.4,20.625,0,30c-5.381,9.15-15.225,15-25.781,15
					c-10.781,0-20.625-5.85-26.006-15c-5.4-9.375-5.4-20.85,0-30C497.856-155.252,507.699-160.877,518.481-160.877z
					 M507.699-172.127c-23.194,0-41.719-18.75-41.719-41.963c0-3.75,3.056-6.787,6.806-6.787h91.162c3.75,0,7.031,3.037,7.031,6.787
					c0,23.213-18.75,41.963-41.944,41.963H507.699z"/>
			</g>
		</g>
	</g>
	<g id="text_75_00000116923636748951249660000010672030483286074046_">
		<g transform="translate(660.341912 286.539903)scale(0.35 -0.35)">
			<g>
				<path id="FontAwesome6Free-Solid-f007_00000057854367742082640030000011250784531861205635_" fill="#005F73" d="
					M518.481-134.365c10.556,0,20.4,5.625,25.781,15c5.4,9.15,5.4,20.625,0,30c-5.381,9.15-15.225,15-25.781,15
					c-10.781,0-20.625-5.85-26.006-15c-5.4-9.375-5.4-20.85,0-30C497.856-128.74,507.699-134.365,518.481-134.365z M507.699-145.615
					c-23.194,0-41.719-18.75-41.719-41.962c0-3.75,3.056-6.788,6.806-6.788h91.162c3.75,0,7.031,3.038,7.031,6.788
					c0,23.212-18.75,41.962-41.944,41.962H507.699z"/>
			</g>
		</g>
	</g>
	<g id="change_2023_00000027586870310750774760000016023042111349388190_">
		<g transform="translate(706.737763 472.123306)scale(0.35 -0.35)">
			<g>
				<path id="FontAwesome6Free-Solid-f007_00000065054663907112157850000009154689552369248647_" fill="#005F73" d="
					M544.993-240.413c10.556,0,20.4,5.625,25.781,15c5.4,9.15,5.4,20.625,0,30c-5.381,9.15-15.225,15-25.781,15
					c-10.781,0-20.625-5.85-26.006-15c-5.4-9.375-5.4-20.85,0-30C524.368-234.788,534.211-240.413,544.993-240.413z
					 M534.211-251.663c-23.194,0-41.719-18.75-41.719-41.963c0-3.75,3.056-6.787,6.806-6.787h91.163c3.75,0,7.031,3.037,7.031,6.787
					c0,23.213-18.75,41.963-41.944,41.963H534.211z"/>
			</g>
		</g>
	</g>
	<g id="change-2022_00000092418200293297740900000016334372881487523751_">
		<g transform="translate(706.737763 425.727455)scale(0.35 -0.35)">
			<g>
				<path id="FontAwesome6Free-Solid-f007_00000041258166471847132870000003637686308758107046_" fill="#005F73" d="
					M544.993-213.901c10.556,0,20.4,5.625,25.781,15c5.4,9.15,5.4,20.625,0,30c-5.381,9.15-15.225,15-25.781,15
					c-10.781,0-20.625-5.85-26.006-15c-5.4-9.375-5.4-20.85,0-30C524.368-208.276,534.211-213.901,544.993-213.901z
					 M534.211-225.151c-23.194,0-41.719-18.75-41.719-41.962c0-3.75,3.056-6.788,6.806-6.788h91.163c3.75,0,7.031,3.038,7.031,6.788
					c0,23.212-18.75,41.962-41.944,41.962H534.211z"/>
			</g>
		</g>
	</g>
	<g id="change2019-back2021_00000047738557040604060670000008419122576629434269_">
		<g transform="translate(706.737763 379.331605)scale(0.35 -0.35)">
			<g>
				<path id="FontAwesome6Free-Solid-f007_00000158005434530708177870000010374446339908809894_" fill="#005F73" d="
					M544.993-187.389c10.556,0,20.4,5.625,25.781,15c5.4,9.15,5.4,20.625,0,30c-5.381,9.15-15.225,15-25.781,15
					c-10.781,0-20.625-5.85-26.006-15c-5.4-9.375-5.4-20.85,0-30C524.368-181.764,534.211-187.389,544.993-187.389z
					 M534.211-198.639c-23.194,0-41.719-18.75-41.719-41.962c0-3.75,3.056-6.788,6.806-6.788h91.163c3.75,0,7.031,3.038,7.031,6.788
					c0,23.212-18.75,41.962-41.944,41.962H534.211z"/>
			</g>
		</g>
	</g>
	<g id="text_79_00000091711547766032451600000007568375780573141658_">
		<g transform="translate(706.737763 332.935754)scale(0.35 -0.35)">
			<g>
				<path id="FontAwesome6Free-Solid-f007_00000093174752653470341600000013279373589402329532_" fill="#F3722C" d="
					M544.993-160.877c10.556,0,20.4,5.625,25.781,15c5.4,9.15,5.4,20.625,0,30c-5.381,9.15-15.225,15-25.781,15
					c-10.781,0-20.625-5.85-26.006-15c-5.4-9.375-5.4-20.85,0-30C524.368-155.252,534.211-160.877,544.993-160.877z
					 M534.211-172.127c-23.194,0-41.719-18.75-41.719-41.963c0-3.75,3.056-6.787,6.806-6.787h91.163c3.75,0,7.031,3.037,7.031,6.787
					c0,23.213-18.75,41.963-41.944,41.963H534.211z"/>
			</g>
		</g>
	</g>
	<g id="text_80_00000096773738480136796700000002627210283138858137_">
		<g transform="translate(706.737763 286.539903)scale(0.35 -0.35)">
			<g>
				<path id="FontAwesome6Free-Solid-f007_00000111878710713092867340000000533924874447436955_" fill="#F3722C" d="
					M544.993-134.365c10.556,0,20.4,5.625,25.781,15c5.4,9.15,5.4,20.625,0,30c-5.381,9.15-15.225,15-25.781,15
					c-10.781,0-20.625-5.85-26.006-15c-5.4-9.375-5.4-20.85,0-30C524.368-128.74,534.211-134.365,544.993-134.365z M534.211-145.615
					c-23.194,0-41.719-18.75-41.719-41.962c0-3.75,3.056-6.788,6.806-6.788h91.163c3.75,0,7.031,3.038,7.031,6.788
					c0,23.212-18.75,41.962-41.944,41.962H534.211z"/>
			</g>
		</g>
	</g>
	<g id="text_81_00000121272397271542180490000002724028379664173981_">
		<g transform="translate(753.133613 472.123306)scale(0.35 -0.35)">
			<g>
				<path id="FontAwesome6Free-Solid-f007_00000049213117534317482020000007440250373662581923_" fill="#F3722C" d="
					M571.504-240.413c10.556,0,20.4,5.625,25.781,15c5.4,9.15,5.4,20.625,0,30c-5.381,9.15-15.225,15-25.781,15
					c-10.781,0-20.625-5.85-26.006-15c-5.4-9.375-5.4-20.85,0-30C550.879-234.788,560.723-240.413,571.504-240.413z
					 M560.723-251.663c-23.194,0-41.719-18.75-41.719-41.963c0-3.75,3.056-6.787,6.806-6.787h91.163c3.75,0,7.031,3.037,7.031,6.787
					c0,23.213-18.75,41.963-41.944,41.963H560.723z"/>
			</g>
		</g>
	</g>
	<g id="text_82_00000058576760673793355940000002688095164040668072_">
		<g transform="translate(753.133613 425.727455)scale(0.35 -0.35)">
			<g>
				<path id="FontAwesome6Free-Solid-f007_00000043441277855105550440000001014402710129255575_" fill="#F3722C" d="
					M571.504-213.901c10.556,0,20.4,5.625,25.781,15c5.4,9.15,5.4,20.625,0,30c-5.381,9.15-15.225,15-25.781,15
					c-10.781,0-20.625-5.85-26.006-15c-5.4-9.375-5.4-20.85,0-30C550.879-208.276,560.723-213.901,571.504-213.901z
					 M560.723-225.151c-23.194,0-41.719-18.75-41.719-41.962c0-3.75,3.056-6.788,6.806-6.788h91.163c3.75,0,7.031,3.038,7.031,6.788
					c0,23.212-18.75,41.962-41.944,41.962H560.723z"/>
			</g>
		</g>
	</g>
	<g id="text_83_00000106855771425991393060000004959998778968361620_">
		<g transform="translate(753.133613 379.331605)scale(0.35 -0.35)">
			<g>
				<path id="FontAwesome6Free-Solid-f007_00000026868461649437266290000005923520122744245129_" fill="#F3722C" d="
					M571.504-187.389c10.556,0,20.4,5.625,25.781,15c5.4,9.15,5.4,20.625,0,30c-5.381,9.15-15.225,15-25.781,15
					c-10.781,0-20.625-5.85-26.006-15c-5.4-9.375-5.4-20.85,0-30C550.879-181.764,560.723-187.389,571.504-187.389z
					 M560.723-198.639c-23.194,0-41.719-18.75-41.719-41.962c0-3.75,3.056-6.788,6.806-6.788h91.163c3.75,0,7.031,3.038,7.031,6.788
					c0,23.212-18.75,41.962-41.944,41.962H560.723z"/>
			</g>
		</g>
	</g>
	<g id="text_84_00000131336194987080307120000004445610180599779735_">
		<g transform="translate(753.133613 332.935754)scale(0.35 -0.35)">
			<g>
				<path id="FontAwesome6Free-Solid-f007_00000156584182039524076070000006441814194257574077_" fill="#F3722C" d="
					M571.504-160.877c10.556,0,20.4,5.625,25.781,15c5.4,9.15,5.4,20.625,0,30c-5.381,9.15-15.225,15-25.781,15
					c-10.781,0-20.625-5.85-26.006-15c-5.4-9.375-5.4-20.85,0-30C550.879-155.252,560.723-160.877,571.504-160.877z
					 M560.723-172.127c-23.194,0-41.719-18.75-41.719-41.963c0-3.75,3.056-6.787,6.806-6.787h91.163c3.75,0,7.031,3.037,7.031,6.787
					c0,23.213-18.75,41.963-41.944,41.963H560.723z"/>
			</g>
		</g>
	</g>
	<g id="text_85_00000009552838642632841350000005049138793821306011_">
		<g transform="translate(753.133613 286.539903)scale(0.35 -0.35)">
			<g>
				<path id="FontAwesome6Free-Solid-f007_00000029019828782036680240000004259126232524078760_" fill="#F3722C" d="
					M571.504-134.365c10.556,0,20.4,5.625,25.781,15c5.4,9.15,5.4,20.625,0,30c-5.381,9.15-15.225,15-25.781,15
					c-10.781,0-20.625-5.85-26.006-15c-5.4-9.375-5.4-20.85,0-30C550.879-128.74,560.723-134.365,571.504-134.365z M560.723-145.615
					c-23.194,0-41.719-18.75-41.719-41.962c0-3.75,3.056-6.788,6.806-6.788h91.163c3.75,0,7.031,3.038,7.031,6.788
					c0,23.212-18.75,41.962-41.944,41.962H560.723z"/>
			</g>
		</g>
	</g>
	<g id="text_86_00000064344909226894609230000012676681588084807076_">
		<g transform="translate(799.529464 472.123306)scale(0.35 -0.35)">
			<g>
				<path id="FontAwesome6Free-Solid-f007_00000064351218022350166440000008468042870189896092_" fill="#F3722C" d="
					M598.016-240.413c10.556,0,20.4,5.625,25.781,15c5.4,9.15,5.4,20.625,0,30c-5.381,9.15-15.225,15-25.781,15
					c-10.781,0-20.625-5.85-26.006-15c-5.4-9.375-5.4-20.85,0-30C577.391-234.788,587.235-240.413,598.016-240.413z
					 M587.235-251.663c-23.194,0-41.719-18.75-41.719-41.963c0-3.75,3.056-6.787,6.806-6.787h91.162c3.75,0,7.031,3.037,7.031,6.787
					c0,23.213-18.75,41.963-41.944,41.963H587.235z"/>
			</g>
		</g>
	</g>
	<g id="text_87_00000161628926601864837300000011152677007404101819_">
		<g transform="translate(799.529464 425.727455)scale(0.35 -0.35)">
			<g>
				<path id="FontAwesome6Free-Solid-f007_00000049200270094210592810000007535681784443044490_" fill="#F3722C" d="
					M598.016-213.901c10.556,0,20.4,5.625,25.781,15c5.4,9.15,5.4,20.625,0,30c-5.381,9.15-15.225,15-25.781,15
					c-10.781,0-20.625-5.85-26.006-15c-5.4-9.375-5.4-20.85,0-30C577.391-208.276,587.235-213.901,598.016-213.901z
					 M587.235-225.151c-23.194,0-41.719-18.75-41.719-41.962c0-3.75,3.056-6.788,6.806-6.788h91.162c3.75,0,7.031,3.038,7.031,6.788
					c0,23.212-18.75,41.962-41.944,41.962H587.235z"/>
			</g>
		</g>
	</g>
	<g id="text_88_00000020371238010501857360000008240759265345947569_">
		<g transform="translate(799.529464 379.331605)scale(0.35 -0.35)">
			<g>
				<path id="FontAwesome6Free-Solid-f007_00000134234289429223693270000011619223844836069791_" fill="#F3722C" d="
					M598.016-187.389c10.556,0,20.4,5.625,25.781,15c5.4,9.15,5.4,20.625,0,30c-5.381,9.15-15.225,15-25.781,15
					c-10.781,0-20.625-5.85-26.006-15c-5.4-9.375-5.4-20.85,0-30C577.391-181.764,587.235-187.389,598.016-187.389z
					 M587.235-198.639c-23.194,0-41.719-18.75-41.719-41.962c0-3.75,3.056-6.788,6.806-6.788h91.162c3.75,0,7.031,3.038,7.031,6.788
					c0,23.212-18.75,41.962-41.944,41.962H587.235z"/>
			</g>
		</g>
	</g>
	<g id="text_89_00000146491302386503932460000013433912430405961864_">
		<g transform="translate(799.529464 332.935754)scale(0.35 -0.35)">
			<g>
				<path id="FontAwesome6Free-Solid-f007_00000051357044919887454890000018360051052780936381_" fill="#F3722C" d="
					M598.016-160.877c10.556,0,20.4,5.625,25.781,15c5.4,9.15,5.4,20.625,0,30c-5.381,9.15-15.225,15-25.781,15
					c-10.781,0-20.625-5.85-26.006-15c-5.4-9.375-5.4-20.85,0-30C577.391-155.252,587.235-160.877,598.016-160.877z
					 M587.235-172.127c-23.194,0-41.719-18.75-41.719-41.963c0-3.75,3.056-6.787,6.806-6.787h91.162c3.75,0,7.031,3.037,7.031,6.787
					c0,23.213-18.75,41.963-41.944,41.963H587.235z"/>
			</g>
		</g>
	</g>
	<g id="text_90_00000092439323930404213730000006020273379226117300_">
		<g transform="translate(799.529464 286.539903)scale(0.35 -0.35)">
			<g>
				<path id="FontAwesome6Free-Solid-f007_00000079473726962206914860000018435173915102471592_" fill="#F3722C" d="
					M598.016-134.365c10.556,0,20.4,5.625,25.781,15c5.4,9.15,5.4,20.625,0,30c-5.381,9.15-15.225,15-25.781,15
					c-10.781,0-20.625-5.85-26.006-15c-5.4-9.375-5.4-20.85,0-30C577.391-128.74,587.235-134.365,598.016-134.365z M587.235-145.615
					c-23.194,0-41.719-18.75-41.719-41.962c0-3.75,3.056-6.788,6.806-6.788h91.162c3.75,0,7.031,3.038,7.031,6.788
					c0,23.212-18.75,41.962-41.944,41.962H587.235z"/>
			</g>
		</g>
	</g>
	<g id="text_91_00000150104887518021964010000015838397582907861897_">
		<g transform="translate(845.925315 472.123306)scale(0.35 -0.35)">
			<g>
				<path id="FontAwesome6Free-Solid-f007_00000095297834927296024120000015150151431836207780_" fill="#F3722C" d="
					M624.528-240.413c10.556,0,20.4,5.625,25.781,15c5.4,9.15,5.4,20.625,0,30c-5.381,9.15-15.225,15-25.781,15
					c-10.781,0-20.625-5.85-26.006-15c-5.4-9.375-5.4-20.85,0-30C603.903-234.788,613.747-240.413,624.528-240.413z
					 M613.747-251.663c-23.194,0-41.719-18.75-41.719-41.963c0-3.75,3.056-6.787,6.806-6.787h91.162c3.75,0,7.031,3.037,7.031,6.787
					c0,23.213-18.75,41.963-41.944,41.963H613.747z"/>
			</g>
		</g>
	</g>
	<g id="text_92_00000013160611794167144910000015875191052513067938_">
		<g transform="translate(845.925315 425.727455)scale(0.35 -0.35)">
			<g>
				<path id="FontAwesome6Free-Solid-f007_00000008856498437882813520000016830577700693197217_" fill="#F3722C" d="
					M624.528-213.901c10.556,0,20.4,5.625,25.781,15c5.4,9.15,5.4,20.625,0,30c-5.381,9.15-15.225,15-25.781,15
					c-10.781,0-20.625-5.85-26.006-15c-5.4-9.375-5.4-20.85,0-30C603.903-208.276,613.747-213.901,624.528-213.901z
					 M613.747-225.151c-23.194,0-41.719-18.75-41.719-41.962c0-3.75,3.056-6.788,6.806-6.788h91.162c3.75,0,7.031,3.038,7.031,6.788
					c0,23.212-18.75,41.962-41.944,41.962H613.747z"/>
			</g>
		</g>
	</g>
	<g id="text_93_00000101783507319276075500000017963143178048434622_">
		<g transform="translate(845.925315 379.331605)scale(0.35 -0.35)">
			<g>
				<path id="FontAwesome6Free-Solid-f007_00000072962309817648209790000007132291459923175833_" fill="#F3722C" d="
					M624.528-187.389c10.556,0,20.4,5.625,25.781,15c5.4,9.15,5.4,20.625,0,30c-5.381,9.15-15.225,15-25.781,15
					c-10.781,0-20.625-5.85-26.006-15c-5.4-9.375-5.4-20.85,0-30C603.903-181.764,613.747-187.389,624.528-187.389z
					 M613.747-198.639c-23.194,0-41.719-18.75-41.719-41.962c0-3.75,3.056-6.788,6.806-6.788h91.162c3.75,0,7.031,3.038,7.031,6.788
					c0,23.212-18.75,41.962-41.944,41.962H613.747z"/>
			</g>
		</g>
	</g>
	<g id="text_94_00000110444196314933865040000017072204460968850573_">
		<g transform="translate(845.925315 332.935754)scale(0.35 -0.35)">
			<g>
				<path id="FontAwesome6Free-Solid-f007_00000182493175916518695280000005144893209869484446_" fill="#F3722C" d="
					M624.528-160.877c10.556,0,20.4,5.625,25.781,15c5.4,9.15,5.4,20.625,0,30c-5.381,9.15-15.225,15-25.781,15
					c-10.781,0-20.625-5.85-26.006-15c-5.4-9.375-5.4-20.85,0-30C603.903-155.252,613.747-160.877,624.528-160.877z
					 M613.747-172.127c-23.194,0-41.719-18.75-41.719-41.963c0-3.75,3.056-6.787,6.806-6.787h91.162c3.75,0,7.031,3.037,7.031,6.787
					c0,23.213-18.75,41.963-41.944,41.963H613.747z"/>
			</g>
		</g>
	</g>
	<g id="text_95_00000056427449402983193780000014842797209720454073_">
		<g transform="translate(845.925315 286.539903)scale(0.35 -0.35)">
			<g>
				<path id="FontAwesome6Free-Solid-f007_00000052815222300205236540000016323373209690979742_" fill="#F3722C" d="
					M624.528-134.365c10.556,0,20.4,5.625,25.781,15c5.4,9.15,5.4,20.625,0,30c-5.381,9.15-15.225,15-25.781,15
					c-10.781,0-20.625-5.85-26.006-15c-5.4-9.375-5.4-20.85,0-30C603.903-128.74,613.747-134.365,624.528-134.365z M613.747-145.615
					c-23.194,0-41.719-18.75-41.719-41.962c0-3.75,3.056-6.788,6.806-6.788h91.162c3.75,0,7.031,3.038,7.031,6.788
					c0,23.212-18.75,41.962-41.944,41.962H613.747z"/>
			</g>
		</g>
	</g>
	<g id="text_96_00000132062389929478540400000012244202561560045740_">
		<g transform="translate(892.321166 472.123306)scale(0.35 -0.35)">
			<g>
				<path id="FontAwesome6Free-Solid-f007_00000161614953946170526700000012981506539562467986_" fill="#F3722C" d="M651.04-240.413
					c10.556,0,20.4,5.625,25.781,15c5.4,9.15,5.4,20.625,0,30c-5.381,9.15-15.225,15-25.781,15c-10.781,0-20.625-5.85-26.006-15
					c-5.4-9.375-5.4-20.85,0-30C630.415-234.788,640.259-240.413,651.04-240.413z M640.259-251.663
					c-23.194,0-41.719-18.75-41.719-41.963c0-3.75,3.056-6.787,6.806-6.787h91.162c3.75,0,7.031,3.037,7.031,6.787
					c0,23.213-18.75,41.963-41.944,41.963H640.259z"/>
			</g>
		</g>
	</g>
	<g id="text_97_00000156555952808613794470000009176821525419487919_">
		<g transform="translate(892.321166 425.727455)scale(0.35 -0.35)">
			<g>
				<path id="FontAwesome6Free-Solid-f007_00000038409764148318994140000006067694294860705193_" fill="#F3722C" d="M651.04-213.901
					c10.556,0,20.4,5.625,25.781,15c5.4,9.15,5.4,20.625,0,30c-5.381,9.15-15.225,15-25.781,15c-10.781,0-20.625-5.85-26.006-15
					c-5.4-9.375-5.4-20.85,0-30C630.415-208.276,640.259-213.901,651.04-213.901z M640.259-225.151
					c-23.194,0-41.719-18.75-41.719-41.962c0-3.75,3.056-6.788,6.806-6.788h91.162c3.75,0,7.031,3.038,7.031,6.788
					c0,23.212-18.75,41.962-41.944,41.962H640.259z"/>
			</g>
		</g>
	</g>
	<g id="text_98_00000159449462179440727940000005008950134159352497_">
		<g transform="translate(892.321166 379.331605)scale(0.35 -0.35)">
			<g>
				<path id="FontAwesome6Free-Solid-f007_00000073695358389137414070000011110764724344949944_" fill="#F3722C" d="M651.04-187.389
					c10.556,0,20.4,5.625,25.781,15c5.4,9.15,5.4,20.625,0,30c-5.381,9.15-15.225,15-25.781,15c-10.781,0-20.625-5.85-26.006-15
					c-5.4-9.375-5.4-20.85,0-30C630.415-181.764,640.259-187.389,651.04-187.389z M640.259-198.639
					c-23.194,0-41.719-18.75-41.719-41.962c0-3.75,3.056-6.788,6.806-6.788h91.162c3.75,0,7.031,3.038,7.031,6.788
					c0,23.212-18.75,41.962-41.944,41.962H640.259z"/>
			</g>
		</g>
	</g>
	<g id="text_99_00000150817117330143245380000014202045447771341486_">
		<g transform="translate(892.321166 332.935754)scale(0.35 -0.35)">
			<g>
				<path id="FontAwesome6Free-Solid-f007_00000151520809304898134600000015994568857403547067_" fill="#F3722C" d="M651.04-160.877
					c10.556,0,20.4,5.625,25.781,15c5.4,9.15,5.4,20.625,0,30c-5.381,9.15-15.225,15-25.781,15c-10.781,0-20.625-5.85-26.006-15
					c-5.4-9.375-5.4-20.85,0-30C630.415-155.252,640.259-160.877,651.04-160.877z M640.259-172.127
					c-23.194,0-41.719-18.75-41.719-41.963c0-3.75,3.056-6.787,6.806-6.787h91.162c3.75,0,7.031,3.037,7.031,6.787
					c0,23.213-18.75,41.963-41.944,41.963H640.259z"/>
			</g>
		</g>
	</g>
	<g id="text_100_00000001659554878681769480000011531906342598139011_">
		<g transform="translate(892.321166 286.539903)scale(0.35 -0.35)">
			<g>
				<path id="FontAwesome6Free-Solid-f007_00000168076349826134314080000016600505899149236635_" fill="#F3722C" d="M651.04-134.365
					c10.556,0,20.4,5.625,25.781,15c5.4,9.15,5.4,20.625,0,30c-5.381,9.15-15.225,15-25.781,15c-10.781,0-20.625-5.85-26.006-15
					c-5.4-9.375-5.4-20.85,0-30C630.415-128.74,640.259-134.365,651.04-134.365z M640.259-145.615
					c-23.194,0-41.719-18.75-41.719-41.962c0-3.75,3.056-6.788,6.806-6.788h91.162c3.75,0,7.031,3.038,7.031,6.788
					c0,23.212-18.75,41.962-41.944,41.962H640.259z"/>
			</g>
		</g>
	</g>
	<g id="text_102_00000180347316546602589110000006444813752304119989_">
		<g transform="translate(945.609375 264.725131)scale(0.1 -0.1)">
			<g>
				<path id="FontAwesome6Free-Solid-f007_00000062891167285284859870000011473349695472171144_" fill="#005F73" d="
					M-8859.858,191.524c16.45,0.022,31.778,8.808,40.145,23.428c8.396,14.27,8.373,32.152-0.062,46.75
					c-8.404,14.248-23.757,23.344-40.207,23.322c-16.801-0.022-32.128-9.159-40.495-23.429c-8.396-14.621-8.372-32.502,0.062-46.75
					C-8892.011,200.247-8876.659,191.502-8859.858,191.524z M-8876.636,173.97c-36.144-0.048-64.973-29.305-64.925-65.478
					c0.008-5.844,4.776-10.571,10.62-10.563l142.062,0.188c5.844,0.008,10.951,4.748,10.943,10.592
					c-0.049,36.173-29.306,65.353-65.449,65.305L-8876.636,173.97z"/>
			</g>
		</g>
	</g>
	<g id="text_108_00000079488262851999069790000014355966709822913934_">
		<g transform="translate(945.609375 308.759506)scale(0.1 -0.1)">
			<g>
				<path id="FontAwesome6Free-Solid-f007_00000000218344778290228790000014560364647584083381_" fill="#F3722C" d="
					M-6377.716,650.671c16.45,0.022,31.778,8.808,40.145,23.428c8.396,14.27,8.372,32.152-0.062,46.75
					c-8.405,14.248-23.757,23.344-40.207,23.322c-16.801-0.022-32.128-9.159-40.495-23.429c-8.396-14.62-8.372-32.502,0.062-46.75
					C-6409.869,659.394-6394.517,650.649-6377.716,650.671z M-6394.494,633.118c-36.144-0.048-64.973-29.305-64.925-65.478
					c0.008-5.844,4.777-10.571,10.621-10.563l142.062,0.188c5.844,0.008,10.951,4.748,10.943,10.592
					c-0.048,36.173-29.305,65.353-65.449,65.305L-6394.494,633.118z"/>
			</g>
		</g>
	</g>
	<g>
		<path d="M897.388,199.82c0.333,31,0.667,62,1,93"/>
		<g>
			<path fill="none" stroke="#000000" stroke-width="2" stroke-miterlimit="10" d="M897.388,199.82
				c0.283,26.293,0.565,52.586,0.848,78.88"/>
			<g>
				<polygon points="898.388,292.82 890.043,273.01 898.224,277.644 906.302,272.836 				"/>
			</g>
		</g>
	</g>
</g>
<style>
#g-lecturer_waffle-Artboard_1-interactive-img rect, #g-lecturer_waffle-Artboard_1-interactive-img circle, #g-lecturer_waffle-Artboard_1-interactive-img path, #g-lecturer_waffle-Artboard_1-interactive-img line, #g-lecturer_waffle-Artboard_1-interactive-img polyline, #g-lecturer_waffle-Artboard_1-interactive-img polygon { vector-effect: non-scaling-stroke; }
</style>
</svg>

