<?xml version="1.0" encoding="utf-8"?>
<!-- Generator: Adobe Illustrator 26.5.0, SVG Export Plug-In . SVG Version: 6.00 Build 0)  -->
<svg version="1.2" baseProfile="tiny" id="g-lecturer_waffle-Artboard_3-interactive-img" xmlns="http://www.w3.org/2000/svg" xmlns:xlink="http://www.w3.org/1999/xlink"
	 x="0px" y="0px" viewBox="0 0 300 643.5" overflow="visible" xml:space="preserve">
<g>
	<g id="text_1_00000120550688273940288320000000081200918050743484_">
		<g transform="translate(10.8 928.092188)scale(0.3 -0.3)">
			<g>
				<path id="FontAwesome6Free-Solid-f007_00000047745150062543308380000000045783285025481140_" fill="#005F73" d="
					M67.932,1447.062c5.278,0,10.2,2.812,12.891,7.5c2.7,4.575,2.7,10.312,0,15c-2.691,4.575-7.613,7.5-12.891,7.5
					c-5.391,0-10.313-2.925-13.003-7.5c-2.7-4.688-2.7-10.425,0-15C57.619,1449.875,62.541,1447.062,67.932,1447.062z
					 M62.541,1441.437c-11.597,0-20.859-9.375-20.859-20.981c0-1.875,1.528-3.394,3.403-3.394h45.581
					c1.875,0,3.516,1.519,3.516,3.394c0,11.606-9.375,20.981-20.972,20.981H62.541z"/>
			</g>
		</g>
	</g>
	<g id="text_2_00000147181535292263469750000008522864440937811097_">
		<g transform="translate(10.8 885.768353)scale(0.3 -0.3)">
			<g>
				<path id="FontAwesome6Free-Solid-f007_00000015334392719280085850000012566328725796363910_" fill="#005F73" d="
					M67.932,1390.631c5.278,0,10.2,2.812,12.891,7.5c2.7,4.575,2.7,10.312,0,15c-2.691,4.575-7.613,7.5-12.891,7.5
					c-5.391,0-10.313-2.925-13.003-7.5c-2.7-4.688-2.7-10.425,0-15C57.619,1393.443,62.541,1390.631,67.932,1390.631z
					 M62.541,1385.006c-11.597,0-20.859-9.375-20.859-20.981c0-1.875,1.528-3.394,3.403-3.394h45.581
					c1.875,0,3.516,1.519,3.516,3.394c0,11.606-9.375,20.981-20.972,20.981H62.541z"/>
			</g>
		</g>
	</g>
	<g id="text_3_00000095312873647033076620000015710669949224526262_">
		<g transform="translate(10.8 843.444518)scale(0.3 -0.3)">
			<g>
				<path id="FontAwesome6Free-Solid-f007_00000180344134540846595140000018019872000385568389_" fill="#005F73" d="
					M67.932,1334.199c5.278,0,10.2,2.812,12.891,7.5c2.7,4.575,2.7,10.312,0,15c-2.691,4.575-7.613,7.5-12.891,7.5
					c-5.391,0-10.313-2.925-13.003-7.5c-2.7-4.688-2.7-10.425,0-15C57.619,1337.011,62.541,1334.199,67.932,1334.199z
					 M62.541,1328.574c-11.597,0-20.859-9.375-20.859-20.981c0-1.875,1.528-3.394,3.403-3.394h45.581
					c1.875,0,3.516,1.519,3.516,3.394c0,11.606-9.375,20.981-20.972,20.981H62.541z"/>
			</g>
		</g>
	</g>
	<g id="text_4_00000028316133769413659090000001844184375355733644_">
		<g transform="translate(10.8 801.120683)scale(0.3 -0.3)">
			<g>
				<path id="FontAwesome6Free-Solid-f007_00000085947855941980564900000004626092052302641336_" fill="#005F73" d="
					M67.932,1277.767c5.278,0,10.2,2.812,12.891,7.5c2.7,4.575,2.7,10.312,0,15c-2.691,4.575-7.613,7.5-12.891,7.5
					c-5.391,0-10.313-2.925-13.003-7.5c-2.7-4.688-2.7-10.425,0-15C57.619,1280.579,62.541,1277.767,67.932,1277.767z
					 M62.541,1272.142c-11.597,0-20.859-9.375-20.859-20.981c0-1.875,1.528-3.394,3.403-3.394h45.581
					c1.875,0,3.516,1.519,3.516,3.394c0,11.606-9.375,20.981-20.972,20.981H62.541z"/>
			</g>
		</g>
	</g>
	<g id="text_5_00000021840610405503324690000017259794558848534178_">
		<g transform="translate(10.8 758.796849)scale(0.3 -0.3)">
			<g>
				<path id="FontAwesome6Free-Solid-f007_00000114753555305443731960000012922816247124199352_" fill="#005F73" d="
					M67.932,1221.335c5.278,0,10.2,2.812,12.891,7.5c2.7,4.575,2.7,10.312,0,15c-2.691,4.575-7.613,7.5-12.891,7.5
					c-5.391,0-10.313-2.925-13.003-7.5c-2.7-4.688-2.7-10.425,0-15C57.619,1224.148,62.541,1221.335,67.932,1221.335z
					 M62.541,1215.71c-11.597,0-20.859-9.375-20.859-20.981c0-1.875,1.528-3.394,3.403-3.394h45.581
					c1.875,0,3.516,1.519,3.516,3.394c0,11.606-9.375,20.981-20.972,20.981H62.541z"/>
			</g>
		</g>
	</g>
	<g id="text_6_00000080928940637192201340000003378938723862993315_">
		<g transform="translate(10.8 716.473014)scale(0.3 -0.3)">
			<g>
				<path id="FontAwesome6Free-Solid-f007_00000115510352370876821900000005402123603817893263_" fill="#005F73" d="
					M67.932,1164.903c5.278,0,10.2,2.812,12.891,7.5c2.7,4.575,2.7,10.312,0,15c-2.691,4.575-7.613,7.5-12.891,7.5
					c-5.391,0-10.313-2.925-13.003-7.5c-2.7-4.688-2.7-10.425,0-15C57.619,1167.716,62.541,1164.903,67.932,1164.903z
					 M62.541,1159.278c-11.597,0-20.859-9.375-20.859-20.981c0-1.875,1.528-3.394,3.403-3.394h45.581
					c1.875,0,3.516,1.519,3.516,3.394c0,11.606-9.375,20.981-20.972,20.981H62.541z"/>
			</g>
		</g>
	</g>
	<g id="text_7_00000018207126727959230720000004170978169378247355_">
		<g transform="translate(10.8 674.149179)scale(0.3 -0.3)">
			<g>
				<path id="FontAwesome6Free-Solid-f007_00000173875035401510550750000010186184591665536904_" fill="#005F73" d="
					M67.932,1108.472c5.278,0,10.2,2.812,12.891,7.5c2.7,4.575,2.7,10.312,0,15c-2.691,4.575-7.613,7.5-12.891,7.5
					c-5.391,0-10.313-2.925-13.003-7.5c-2.7-4.688-2.7-10.425,0-15C57.619,1111.284,62.541,1108.472,67.932,1108.472z
					 M62.541,1102.847c-11.597,0-20.859-9.375-20.859-20.981c0-1.875,1.528-3.394,3.403-3.394h45.581
					c1.875,0,3.516,1.519,3.516,3.394c0,11.606-9.375,20.981-20.972,20.981H62.541z"/>
			</g>
		</g>
	</g>
	<g id="text_8_00000141422962059783678640000009889932132454298789_">
		<g transform="translate(10.8 631.825344)scale(0.3 -0.3)">
			<g>
				<path id="FontAwesome6Free-Solid-f007_00000124881522765152639980000012367578323446624908_" fill="#005F73" d="M67.932,1052.04
					c5.278,0,10.2,2.812,12.891,7.5c2.7,4.575,2.7,10.312,0,15c-2.691,4.575-7.613,7.5-12.891,7.5c-5.391,0-10.313-2.925-13.003-7.5
					c-2.7-4.688-2.7-10.425,0-15C57.619,1054.852,62.541,1052.04,67.932,1052.04z M62.541,1046.415
					c-11.597,0-20.859-9.375-20.859-20.981c0-1.875,1.528-3.394,3.403-3.394h45.581c1.875,0,3.516,1.519,3.516,3.394
					c0,11.606-9.375,20.981-20.972,20.981H62.541z"/>
			</g>
		</g>
	</g>
	<g id="text_9_00000110445330919032572320000000426006145042798488_">
		<g transform="translate(10.8 589.50151)scale(0.3 -0.3)">
			<g>
				<path id="FontAwesome6Free-Solid-f007_00000117676647218967109360000006784678547377047996_" fill="#005F73" d="M67.932,995.608
					c5.278,0,10.2,2.812,12.891,7.5c2.7,4.575,2.7,10.312,0,15c-2.691,4.575-7.613,7.5-12.891,7.5c-5.391,0-10.313-2.925-13.003-7.5
					c-2.7-4.688-2.7-10.425,0-15C57.619,998.421,62.541,995.608,67.932,995.608z M62.541,989.983
					c-11.597,0-20.859-9.375-20.859-20.981c0-1.875,1.528-3.394,3.403-3.394h45.581c1.875,0,3.516,1.519,3.516,3.394
					c0,11.606-9.375,20.981-20.972,20.981H62.541z"/>
			</g>
		</g>
	</g>
	<g id="text_10_00000003798234330011544770000007461518941754565254_">
		<g transform="translate(10.8 547.177675)scale(0.3 -0.3)">
			<g>
				<path id="FontAwesome6Free-Solid-f007_00000057844093490476632600000006941044267355597503_" fill="#005F73" d="M67.932,939.176
					c5.278,0,10.2,2.812,12.891,7.5c2.7,4.575,2.7,10.312,0,15c-2.691,4.575-7.613,7.5-12.891,7.5c-5.391,0-10.313-2.925-13.003-7.5
					c-2.7-4.688-2.7-10.425,0-15C57.619,941.989,62.541,939.176,67.932,939.176z M62.541,933.551
					c-11.597,0-20.859-9.375-20.859-20.981c0-1.875,1.528-3.394,3.403-3.394h45.581c1.875,0,3.516,1.519,3.516,3.394
					c0,11.606-9.375,20.981-20.972,20.981H62.541z"/>
			</g>
		</g>
	</g>
	<g id="text_11_00000117659388615831047830000017555080374521350071_">
		<g transform="translate(53.123835 928.092188)scale(0.3 -0.3)">
			<g>
				<path id="FontAwesome6Free-Solid-f007_00000149344373470087781810000011379533835402573185_" fill="#005F73" d="M11.5,1447.062
					c5.278,0,10.2,2.812,12.891,7.5c2.7,4.575,2.7,10.312,0,15c-2.691,4.575-7.613,7.5-12.891,7.5c-5.391,0-10.312-2.925-13.003-7.5
					c-2.7-4.688-2.7-10.425,0-15C1.187,1449.875,6.109,1447.062,11.5,1447.062z M6.109,1441.437
					c-11.597,0-20.859-9.375-20.859-20.981c0-1.875,1.528-3.394,3.403-3.394h45.581c1.875,0,3.516,1.519,3.516,3.394
					c0,11.606-9.375,20.981-20.972,20.981H6.109z"/>
			</g>
		</g>
	</g>
	<g id="text_12_00000044861243525879789530000002819582024437666214_">
		<g transform="translate(53.123835 885.768353)scale(0.3 -0.3)">
			<g>
				<path id="FontAwesome6Free-Solid-f007_00000045586634960694659770000016403853723069433000_" fill="#005F73" d="M11.5,1390.631
					c5.278,0,10.2,2.812,12.891,7.5c2.7,4.575,2.7,10.312,0,15c-2.691,4.575-7.613,7.5-12.891,7.5c-5.391,0-10.312-2.925-13.003-7.5
					c-2.7-4.688-2.7-10.425,0-15C1.187,1393.443,6.109,1390.631,11.5,1390.631z M6.109,1385.006
					c-11.597,0-20.859-9.375-20.859-20.981c0-1.875,1.528-3.394,3.403-3.394h45.581c1.875,0,3.516,1.519,3.516,3.394
					c0,11.606-9.375,20.981-20.972,20.981H6.109z"/>
			</g>
		</g>
	</g>
	<g id="text_13_00000062179145248476364800000013747219126954607512_">
		<g transform="translate(53.123835 843.444518)scale(0.3 -0.3)">
			<g>
				<path id="FontAwesome6Free-Solid-f007_00000102531426449501965240000013203984536828344196_" fill="#005F73" d="M11.5,1334.199
					c5.278,0,10.2,2.812,12.891,7.5c2.7,4.575,2.7,10.312,0,15c-2.691,4.575-7.613,7.5-12.891,7.5c-5.391,0-10.312-2.925-13.003-7.5
					c-2.7-4.688-2.7-10.425,0-15C1.187,1337.011,6.109,1334.199,11.5,1334.199z M6.109,1328.574
					c-11.597,0-20.859-9.375-20.859-20.981c0-1.875,1.528-3.394,3.403-3.394h45.581c1.875,0,3.516,1.519,3.516,3.394
					c0,11.606-9.375,20.981-20.972,20.981H6.109z"/>
			</g>
		</g>
	</g>
	<g id="text_14_00000074401081812646287450000010754642023682750098_">
		<g transform="translate(53.123835 801.120683)scale(0.3 -0.3)">
			<g>
				<path id="FontAwesome6Free-Solid-f007_00000080927081355293436860000005450867444905802880_" fill="#005F73" d="M11.5,1277.767
					c5.278,0,10.2,2.812,12.891,7.5c2.7,4.575,2.7,10.312,0,15c-2.691,4.575-7.613,7.5-12.891,7.5c-5.391,0-10.312-2.925-13.003-7.5
					c-2.7-4.688-2.7-10.425,0-15C1.187,1280.579,6.109,1277.767,11.5,1277.767z M6.109,1272.142
					c-11.597,0-20.859-9.375-20.859-20.981c0-1.875,1.528-3.394,3.403-3.394h45.581c1.875,0,3.516,1.519,3.516,3.394
					c0,11.606-9.375,20.981-20.972,20.981H6.109z"/>
			</g>
		</g>
	</g>
	<g id="text_15_00000035507483495349057390000012600174146996542092_">
		<g transform="translate(53.123835 758.796849)scale(0.3 -0.3)">
			<g>
				<path id="FontAwesome6Free-Solid-f007_00000077326020796907182180000001079684006884979080_" fill="#005F73" d="M11.5,1221.335
					c5.278,0,10.2,2.812,12.891,7.5c2.7,4.575,2.7,10.312,0,15c-2.691,4.575-7.613,7.5-12.891,7.5c-5.391,0-10.312-2.925-13.003-7.5
					c-2.7-4.688-2.7-10.425,0-15C1.187,1224.148,6.109,1221.335,11.5,1221.335z M6.109,1215.71
					c-11.597,0-20.859-9.375-20.859-20.981c0-1.875,1.528-3.394,3.403-3.394h45.581c1.875,0,3.516,1.519,3.516,3.394
					c0,11.606-9.375,20.981-20.972,20.981H6.109z"/>
			</g>
		</g>
	</g>
	<g id="text_16_00000021097502039049189850000012232289799375792796_">
		<g transform="translate(53.123835 716.473014)scale(0.3 -0.3)">
			<g>
				<path id="FontAwesome6Free-Solid-f007_00000117653207644772270110000011480128208031867017_" fill="#005F73" d="M11.5,1164.903
					c5.278,0,10.2,2.812,12.891,7.5c2.7,4.575,2.7,10.312,0,15c-2.691,4.575-7.613,7.5-12.891,7.5c-5.391,0-10.312-2.925-13.003-7.5
					c-2.7-4.688-2.7-10.425,0-15C1.187,1167.716,6.109,1164.903,11.5,1164.903z M6.109,1159.278
					c-11.597,0-20.859-9.375-20.859-20.981c0-1.875,1.528-3.394,3.403-3.394h45.581c1.875,0,3.516,1.519,3.516,3.394
					c0,11.606-9.375,20.981-20.972,20.981H6.109z"/>
			</g>
		</g>
	</g>
	<g id="text_17_00000103266869837112771750000000476564801188389527_">
		<g transform="translate(53.123835 674.149179)scale(0.3 -0.3)">
			<g>
				<path id="FontAwesome6Free-Solid-f007_00000065069114517598658160000013078744370605226653_" fill="#005F73" d="M11.5,1108.472
					c5.278,0,10.2,2.812,12.891,7.5c2.7,4.575,2.7,10.312,0,15c-2.691,4.575-7.613,7.5-12.891,7.5c-5.391,0-10.312-2.925-13.003-7.5
					c-2.7-4.688-2.7-10.425,0-15C1.187,1111.284,6.109,1108.472,11.5,1108.472z M6.109,1102.847
					c-11.597,0-20.859-9.375-20.859-20.981c0-1.875,1.528-3.394,3.403-3.394h45.581c1.875,0,3.516,1.519,3.516,3.394
					c0,11.606-9.375,20.981-20.972,20.981H6.109z"/>
			</g>
		</g>
	</g>
	<g id="text_18_00000152947448910149832310000002611979539275323801_">
		<g transform="translate(53.123835 631.825344)scale(0.3 -0.3)">
			<g>
				<path id="FontAwesome6Free-Solid-f007_00000035494853136124430990000007090015899988010638_" fill="#005F73" d="M11.5,1052.04
					c5.278,0,10.2,2.812,12.891,7.5c2.7,4.575,2.7,10.312,0,15c-2.691,4.575-7.613,7.5-12.891,7.5c-5.391,0-10.312-2.925-13.003-7.5
					c-2.7-4.688-2.7-10.425,0-15C1.187,1054.852,6.109,1052.04,11.5,1052.04z M6.109,1046.415c-11.597,0-20.859-9.375-20.859-20.981
					c0-1.875,1.528-3.394,3.403-3.394h45.581c1.875,0,3.516,1.519,3.516,3.394c0,11.606-9.375,20.981-20.972,20.981H6.109z"/>
			</g>
		</g>
	</g>
	<g id="text_19_00000000926580764425005780000002308959157213173416_">
		<g transform="translate(53.123835 589.50151)scale(0.3 -0.3)">
			<g>
				<path id="FontAwesome6Free-Solid-f007_00000018225638331440326410000000072725560349481623_" fill="#005F73" d="M11.5,995.608
					c5.278,0,10.2,2.812,12.891,7.5c2.7,4.575,2.7,10.312,0,15c-2.691,4.575-7.613,7.5-12.891,7.5c-5.391,0-10.312-2.925-13.003-7.5
					c-2.7-4.688-2.7-10.425,0-15C1.187,998.421,6.109,995.608,11.5,995.608z M6.109,989.983c-11.597,0-20.859-9.375-20.859-20.981
					c0-1.875,1.528-3.394,3.403-3.394h45.581c1.875,0,3.516,1.519,3.516,3.394c0,11.606-9.375,20.981-20.972,20.981H6.109z"/>
			</g>
		</g>
	</g>
	<g id="text_20_00000121972672899886491530000000315105082521392058_">
		<g transform="translate(53.123835 547.177675)scale(0.3 -0.3)">
			<g>
				<path id="FontAwesome6Free-Solid-f007_00000016771121786792240100000004770251905422153617_" fill="#005F73" d="M11.5,939.176
					c5.278,0,10.2,2.812,12.891,7.5c2.7,4.575,2.7,10.312,0,15c-2.691,4.575-7.613,7.5-12.891,7.5c-5.391,0-10.312-2.925-13.003-7.5
					c-2.7-4.688-2.7-10.425,0-15C1.187,941.989,6.109,939.176,11.5,939.176z M6.109,933.551c-11.597,0-20.859-9.375-20.859-20.981
					c0-1.875,1.528-3.394,3.403-3.394h45.581c1.875,0,3.516,1.519,3.516,3.394c0,11.606-9.375,20.981-20.972,20.981H6.109z"/>
			</g>
		</g>
	</g>
	<g id="text_21_00000060029316143937069700000017926947137976034224_">
		<g transform="translate(95.447669 928.092188)scale(0.3 -0.3)">
			<g>
				<path id="FontAwesome6Free-Solid-f007_00000085965372424449647150000006346423217765581466_" fill="#005F73" d="
					M-44.932,1447.062c5.278,0,10.2,2.812,12.891,7.5c2.7,4.575,2.7,10.312,0,15c-2.691,4.575-7.612,7.5-12.891,7.5
					c-5.391,0-10.312-2.925-13.003-7.5c-2.7-4.688-2.7-10.425,0-15C-55.244,1449.875-50.322,1447.062-44.932,1447.062z
					 M-50.322,1441.437c-11.597,0-20.859-9.375-20.859-20.981c0-1.875,1.528-3.394,3.403-3.394h45.581
					c1.875,0,3.516,1.519,3.516,3.394c0,11.606-9.375,20.981-20.972,20.981H-50.322z"/>
			</g>
		</g>
	</g>
	<g id="text_22_00000154385197002206160710000012997127299029533863_">
		<g transform="translate(95.447669 885.768353)scale(0.3 -0.3)">
			<g>
				<path id="FontAwesome6Free-Solid-f007_00000157296067035462710530000004043508751345296290_" fill="#005F73" d="
					M-44.932,1390.631c5.278,0,10.2,2.812,12.891,7.5c2.7,4.575,2.7,10.312,0,15c-2.691,4.575-7.612,7.5-12.891,7.5
					c-5.391,0-10.312-2.925-13.003-7.5c-2.7-4.688-2.7-10.425,0-15C-55.244,1393.443-50.322,1390.631-44.932,1390.631z
					 M-50.322,1385.006c-11.597,0-20.859-9.375-20.859-20.981c0-1.875,1.528-3.394,3.403-3.394h45.581
					c1.875,0,3.516,1.519,3.516,3.394c0,11.606-9.375,20.981-20.972,20.981H-50.322z"/>
			</g>
		</g>
	</g>
	<g id="text_23_00000150094348614339449250000005394580248326819260_">
		<g transform="translate(95.447669 843.444518)scale(0.3 -0.3)">
			<g>
				<path id="FontAwesome6Free-Solid-f007_00000093147359035526105670000000213986598686112133_" fill="#005F73" d="
					M-44.932,1334.199c5.278,0,10.2,2.812,12.891,7.5c2.7,4.575,2.7,10.312,0,15c-2.691,4.575-7.612,7.5-12.891,7.5
					c-5.391,0-10.312-2.925-13.003-7.5c-2.7-4.688-2.7-10.425,0-15C-55.244,1337.011-50.322,1334.199-44.932,1334.199z
					 M-50.322,1328.574c-11.597,0-20.859-9.375-20.859-20.981c0-1.875,1.528-3.394,3.403-3.394h45.581
					c1.875,0,3.516,1.519,3.516,3.394c0,11.606-9.375,20.981-20.972,20.981H-50.322z"/>
			</g>
		</g>
	</g>
	<g id="text_24_00000127742522844547113710000011748961001146364545_">
		<g transform="translate(95.447669 801.120683)scale(0.3 -0.3)">
			<g>
				<path id="FontAwesome6Free-Solid-f007_00000025422599334235687790000009030645006868305832_" fill="#005F73" d="
					M-44.932,1277.767c5.278,0,10.2,2.812,12.891,7.5c2.7,4.575,2.7,10.312,0,15c-2.691,4.575-7.612,7.5-12.891,7.5
					c-5.391,0-10.312-2.925-13.003-7.5c-2.7-4.688-2.7-10.425,0-15C-55.244,1280.579-50.322,1277.767-44.932,1277.767z
					 M-50.322,1272.142c-11.597,0-20.859-9.375-20.859-20.981c0-1.875,1.528-3.394,3.403-3.394h45.581
					c1.875,0,3.516,1.519,3.516,3.394c0,11.606-9.375,20.981-20.972,20.981H-50.322z"/>
			</g>
		</g>
	</g>
	<g id="text_25_00000100348195004263712540000009816275367988543668_">
		<g transform="translate(95.447669 758.796849)scale(0.3 -0.3)">
			<g>
				<path id="FontAwesome6Free-Solid-f007_00000067922140838755406040000004474591950406374835_" fill="#005F73" d="
					M-44.932,1221.335c5.278,0,10.2,2.812,12.891,7.5c2.7,4.575,2.7,10.312,0,15c-2.691,4.575-7.612,7.5-12.891,7.5
					c-5.391,0-10.312-2.925-13.003-7.5c-2.7-4.688-2.7-10.425,0-15C-55.244,1224.148-50.322,1221.335-44.932,1221.335z
					 M-50.322,1215.71c-11.597,0-20.859-9.375-20.859-20.981c0-1.875,1.528-3.394,3.403-3.394h45.581
					c1.875,0,3.516,1.519,3.516,3.394c0,11.606-9.375,20.981-20.972,20.981H-50.322z"/>
			</g>
		</g>
	</g>
	<g id="text_26_00000062875383396271867380000011734959531295115676_">
		<g transform="translate(95.447669 716.473014)scale(0.3 -0.3)">
			<g>
				<path id="FontAwesome6Free-Solid-f007_00000144323191239132150150000003439446866931210130_" fill="#005F73" d="
					M-44.932,1164.903c5.278,0,10.2,2.812,12.891,7.5c2.7,4.575,2.7,10.312,0,15c-2.691,4.575-7.612,7.5-12.891,7.5
					c-5.391,0-10.312-2.925-13.003-7.5c-2.7-4.688-2.7-10.425,0-15C-55.244,1167.716-50.322,1164.903-44.932,1164.903z
					 M-50.322,1159.278c-11.597,0-20.859-9.375-20.859-20.981c0-1.875,1.528-3.394,3.403-3.394h45.581
					c1.875,0,3.516,1.519,3.516,3.394c0,11.606-9.375,20.981-20.972,20.981H-50.322z"/>
			</g>
		</g>
	</g>
	<g id="text_27_00000100353021224691865350000014686459985173982395_">
		<g transform="translate(95.447669 674.149179)scale(0.3 -0.3)">
			<g>
				<path id="FontAwesome6Free-Solid-f007_00000145767322290272648290000014427872314095818679_" fill="#005F73" d="
					M-44.932,1108.472c5.278,0,10.2,2.812,12.891,7.5c2.7,4.575,2.7,10.312,0,15c-2.691,4.575-7.612,7.5-12.891,7.5
					c-5.391,0-10.312-2.925-13.003-7.5c-2.7-4.688-2.7-10.425,0-15C-55.244,1111.284-50.322,1108.472-44.932,1108.472z
					 M-50.322,1102.847c-11.597,0-20.859-9.375-20.859-20.981c0-1.875,1.528-3.394,3.403-3.394h45.581
					c1.875,0,3.516,1.519,3.516,3.394c0,11.606-9.375,20.981-20.972,20.981H-50.322z"/>
			</g>
		</g>
	</g>
	<g id="text_28_00000044148046297679561610000002887494873922793104_">
		<g transform="translate(95.447669 631.825344)scale(0.3 -0.3)">
			<g>
				<path id="FontAwesome6Free-Solid-f007_00000094596961825737960800000007810002139652036790_" fill="#005F73" d="
					M-44.932,1052.04c5.278,0,10.2,2.812,12.891,7.5c2.7,4.575,2.7,10.312,0,15c-2.691,4.575-7.612,7.5-12.891,7.5
					c-5.391,0-10.312-2.925-13.003-7.5c-2.7-4.688-2.7-10.425,0-15C-55.244,1054.852-50.322,1052.04-44.932,1052.04z
					 M-50.322,1046.415c-11.597,0-20.859-9.375-20.859-20.981c0-1.875,1.528-3.394,3.403-3.394h45.581
					c1.875,0,3.516,1.519,3.516,3.394c0,11.606-9.375,20.981-20.972,20.981H-50.322z"/>
			</g>
		</g>
	</g>
	<g id="text_29_00000182520971527259918700000002962969672074706355_">
		<g transform="translate(95.447669 589.50151)scale(0.3 -0.3)">
			<g>
				<path id="FontAwesome6Free-Solid-f007_00000067954592656026680630000003310913814240930233_" fill="#005F73" d="
					M-44.932,995.608c5.278,0,10.2,2.812,12.891,7.5c2.7,4.575,2.7,10.312,0,15c-2.691,4.575-7.612,7.5-12.891,7.5
					c-5.391,0-10.312-2.925-13.003-7.5c-2.7-4.688-2.7-10.425,0-15C-55.244,998.421-50.322,995.608-44.932,995.608z
					 M-50.322,989.983c-11.597,0-20.859-9.375-20.859-20.981c0-1.875,1.528-3.394,3.403-3.394h45.581
					c1.875,0,3.516,1.519,3.516,3.394c0,11.606-9.375,20.981-20.972,20.981H-50.322z"/>
			</g>
		</g>
	</g>
	<g id="text_30_00000150824702709210119810000015382102703824992417_">
		<g transform="translate(95.447669 547.177675)scale(0.3 -0.3)">
			<g>
				<path id="FontAwesome6Free-Solid-f007_00000121961375478352738890000014325056105086968466_" fill="#005F73" d="
					M-44.932,939.176c5.278,0,10.2,2.812,12.891,7.5c2.7,4.575,2.7,10.312,0,15c-2.691,4.575-7.612,7.5-12.891,7.5
					c-5.391,0-10.312-2.925-13.003-7.5c-2.7-4.688-2.7-10.425,0-15C-55.244,941.989-50.322,939.176-44.932,939.176z
					 M-50.322,933.551c-11.597,0-20.859-9.375-20.859-20.981c0-1.875,1.528-3.394,3.403-3.394h45.581
					c1.875,0,3.516,1.519,3.516,3.394c0,11.606-9.375,20.981-20.972,20.981H-50.322z"/>
			</g>
		</g>
	</g>
	<g id="text_31_00000045597600862790465770000012811379854702253463_">
		<g transform="translate(137.771504 928.092188)scale(0.3 -0.3)">
			<g>
				<path id="FontAwesome6Free-Solid-f007_00000168086912244071037160000012991817993973308551_" fill="#005F73" d="
					M-101.364,1447.062c5.278,0,10.2,2.812,12.891,7.5c2.7,4.575,2.7,10.312,0,15c-2.691,4.575-7.613,7.5-12.891,7.5
					c-5.391,0-10.312-2.925-13.003-7.5c-2.7-4.688-2.7-10.425,0-15C-111.676,1449.875-106.754,1447.062-101.364,1447.062z
					 M-106.754,1441.437c-11.597,0-20.859-9.375-20.859-20.981c0-1.875,1.528-3.394,3.403-3.394h45.581
					c1.875,0,3.516,1.519,3.516,3.394c0,11.606-9.375,20.981-20.972,20.981H-106.754z"/>
			</g>
		</g>
	</g>
	<g id="text_32_00000047022408533622991920000010440998188450913436_">
		<g transform="translate(137.771504 885.768353)scale(0.3 -0.3)">
			<g>
				<path id="FontAwesome6Free-Solid-f007_00000101095276594968672320000002734010983260425108_" fill="#005F73" d="
					M-101.364,1390.631c5.278,0,10.2,2.812,12.891,7.5c2.7,4.575,2.7,10.312,0,15c-2.691,4.575-7.613,7.5-12.891,7.5
					c-5.391,0-10.312-2.925-13.003-7.5c-2.7-4.688-2.7-10.425,0-15C-111.676,1393.443-106.754,1390.631-101.364,1390.631z
					 M-106.754,1385.006c-11.597,0-20.859-9.375-20.859-20.981c0-1.875,1.528-3.394,3.403-3.394h45.581
					c1.875,0,3.516,1.519,3.516,3.394c0,11.606-9.375,20.981-20.972,20.981H-106.754z"/>
			</g>
		</g>
	</g>
	<g id="text_33_00000004507407754018778130000017263904472922468001_">
		<g transform="translate(137.771504 843.444518)scale(0.3 -0.3)">
			<g>
				<path id="FontAwesome6Free-Solid-f007_00000059278938858652682260000000314342105534390938_" fill="#005F73" d="
					M-101.364,1334.199c5.278,0,10.2,2.812,12.891,7.5c2.7,4.575,2.7,10.312,0,15c-2.691,4.575-7.613,7.5-12.891,7.5
					c-5.391,0-10.312-2.925-13.003-7.5c-2.7-4.688-2.7-10.425,0-15C-111.676,1337.011-106.754,1334.199-101.364,1334.199z
					 M-106.754,1328.574c-11.597,0-20.859-9.375-20.859-20.981c0-1.875,1.528-3.394,3.403-3.394h45.581
					c1.875,0,3.516,1.519,3.516,3.394c0,11.606-9.375,20.981-20.972,20.981H-106.754z"/>
			</g>
		</g>
	</g>
	<g id="text_34_00000156572218357641587740000000980242426173820328_">
		<g transform="translate(137.771504 801.120683)scale(0.3 -0.3)">
			<g>
				<path id="FontAwesome6Free-Solid-f007_00000030484410583527266580000003065605129828028085_" fill="#005F73" d="
					M-101.364,1277.767c5.278,0,10.2,2.812,12.891,7.5c2.7,4.575,2.7,10.312,0,15c-2.691,4.575-7.613,7.5-12.891,7.5
					c-5.391,0-10.312-2.925-13.003-7.5c-2.7-4.688-2.7-10.425,0-15C-111.676,1280.579-106.754,1277.767-101.364,1277.767z
					 M-106.754,1272.142c-11.597,0-20.859-9.375-20.859-20.981c0-1.875,1.528-3.394,3.403-3.394h45.581
					c1.875,0,3.516,1.519,3.516,3.394c0,11.606-9.375,20.981-20.972,20.981H-106.754z"/>
			</g>
		</g>
	</g>
	<g id="text_35_00000126302578978376407220000016640216076233046407_">
		<g transform="translate(137.771504 758.796849)scale(0.3 -0.3)">
			<g>
				<path id="FontAwesome6Free-Solid-f007_00000062174933716666391250000014124218041861141911_" fill="#005F73" d="
					M-101.364,1221.335c5.278,0,10.2,2.812,12.891,7.5c2.7,4.575,2.7,10.312,0,15c-2.691,4.575-7.613,7.5-12.891,7.5
					c-5.391,0-10.312-2.925-13.003-7.5c-2.7-4.688-2.7-10.425,0-15C-111.676,1224.148-106.754,1221.335-101.364,1221.335z
					 M-106.754,1215.71c-11.597,0-20.859-9.375-20.859-20.981c0-1.875,1.528-3.394,3.403-3.394h45.581
					c1.875,0,3.516,1.519,3.516,3.394c0,11.606-9.375,20.981-20.972,20.981H-106.754z"/>
			</g>
		</g>
	</g>
	<g id="text_36_00000075132119235835481450000000949144677077287357_">
		<g transform="translate(137.771504 716.473014)scale(0.3 -0.3)">
			<g>
				<path id="FontAwesome6Free-Solid-f007_00000000186497409992079020000000099925171385713054_" fill="#005F73" d="
					M-101.364,1164.903c5.278,0,10.2,2.812,12.891,7.5c2.7,4.575,2.7,10.312,0,15c-2.691,4.575-7.613,7.5-12.891,7.5
					c-5.391,0-10.312-2.925-13.003-7.5c-2.7-4.688-2.7-10.425,0-15C-111.676,1167.716-106.754,1164.903-101.364,1164.903z
					 M-106.754,1159.278c-11.597,0-20.859-9.375-20.859-20.981c0-1.875,1.528-3.394,3.403-3.394h45.581
					c1.875,0,3.516,1.519,3.516,3.394c0,11.606-9.375,20.981-20.972,20.981H-106.754z"/>
			</g>
		</g>
	</g>
	<g id="text_37_00000150090614699965052060000009357968606035447228_">
		<g transform="translate(137.771504 674.149179)scale(0.3 -0.3)">
			<g>
				<path id="FontAwesome6Free-Solid-f007_00000022519914292300314750000016589899321383354274_" fill="#005F73" d="
					M-101.364,1108.472c5.278,0,10.2,2.812,12.891,7.5c2.7,4.575,2.7,10.312,0,15c-2.691,4.575-7.613,7.5-12.891,7.5
					c-5.391,0-10.312-2.925-13.003-7.5c-2.7-4.688-2.7-10.425,0-15C-111.676,1111.284-106.754,1108.472-101.364,1108.472z
					 M-106.754,1102.847c-11.597,0-20.859-9.375-20.859-20.981c0-1.875,1.528-3.394,3.403-3.394h45.581
					c1.875,0,3.516,1.519,3.516,3.394c0,11.606-9.375,20.981-20.972,20.981H-106.754z"/>
			</g>
		</g>
	</g>
	<g id="text_38_00000084512326083280298820000010221734524896573597_">
		<g transform="translate(137.771504 631.825344)scale(0.3 -0.3)">
			<g>
				<path id="FontAwesome6Free-Solid-f007_00000100342797822113455140000009680719096394776738_" fill="#005F73" d="
					M-101.364,1052.04c5.278,0,10.2,2.812,12.891,7.5c2.7,4.575,2.7,10.312,0,15c-2.691,4.575-7.613,7.5-12.891,7.5
					c-5.391,0-10.312-2.925-13.003-7.5c-2.7-4.688-2.7-10.425,0-15C-111.676,1054.852-106.754,1052.04-101.364,1052.04z
					 M-106.754,1046.415c-11.597,0-20.859-9.375-20.859-20.981c0-1.875,1.528-3.394,3.403-3.394h45.581
					c1.875,0,3.516,1.519,3.516,3.394c0,11.606-9.375,20.981-20.972,20.981H-106.754z"/>
			</g>
		</g>
	</g>
	<g id="text_39_00000088100324200513894010000011275902668271334328_">
		<g transform="translate(137.771504 589.50151)scale(0.3 -0.3)">
			<g>
				<path id="FontAwesome6Free-Solid-f007_00000170994834269105820900000013815486068366717113_" fill="#005F73" d="
					M-101.364,995.608c5.278,0,10.2,2.812,12.891,7.5c2.7,4.575,2.7,10.312,0,15c-2.691,4.575-7.613,7.5-12.891,7.5
					c-5.391,0-10.312-2.925-13.003-7.5c-2.7-4.688-2.7-10.425,0-15C-111.676,998.421-106.754,995.608-101.364,995.608z
					 M-106.754,989.983c-11.597,0-20.859-9.375-20.859-20.981c0-1.875,1.528-3.394,3.403-3.394h45.581
					c1.875,0,3.516,1.519,3.516,3.394c0,11.606-9.375,20.981-20.972,20.981H-106.754z"/>
			</g>
		</g>
	</g>
	<g id="text_40_00000105384252095535134080000002175098119040687504_">
		<g transform="translate(137.771504 547.177675)scale(0.3 -0.3)">
			<g>
				<path id="FontAwesome6Free-Solid-f007_00000151539903796122121740000017021012888538379683_" fill="#005F73" d="
					M-101.364,939.176c5.278,0,10.2,2.812,12.891,7.5c2.7,4.575,2.7,10.312,0,15c-2.691,4.575-7.613,7.5-12.891,7.5
					c-5.391,0-10.312-2.925-13.003-7.5c-2.7-4.688-2.7-10.425,0-15C-111.676,941.989-106.754,939.176-101.364,939.176z
					 M-106.754,933.551c-11.597,0-20.859-9.375-20.859-20.981c0-1.875,1.528-3.394,3.403-3.394h45.581
					c1.875,0,3.516,1.519,3.516,3.394c0,11.606-9.375,20.981-20.972,20.981H-106.754z"/>
			</g>
		</g>
	</g>
	<g id="text_41_00000117635508866919834830000009159342098745908139_">
		<g transform="translate(180.095339 928.092188)scale(0.3 -0.3)">
			<g>
				<path id="FontAwesome6Free-Solid-f007_00000106841166450138003580000009685451653738765985_" fill="#005F73" d="
					M-157.795,1447.062c5.278,0,10.2,2.812,12.891,7.5c2.7,4.575,2.7,10.312,0,15c-2.691,4.575-7.613,7.5-12.891,7.5
					c-5.391,0-10.312-2.925-13.003-7.5c-2.7-4.688-2.7-10.425,0-15C-168.108,1449.875-163.186,1447.062-157.795,1447.062z
					 M-163.186,1441.437c-11.597,0-20.859-9.375-20.859-20.981c0-1.875,1.528-3.394,3.403-3.394h45.581
					c1.875,0,3.516,1.519,3.516,3.394c0,11.606-9.375,20.981-20.972,20.981H-163.186z"/>
			</g>
		</g>
	</g>
	<g id="text_42_00000047741012880542333840000001496121022283905669_">
		<g transform="translate(180.095339 885.768353)scale(0.3 -0.3)">
			<g>
				<path id="FontAwesome6Free-Solid-f007_00000122684781999580611990000005018696752369461666_" fill="#005F73" d="
					M-157.795,1390.631c5.278,0,10.2,2.812,12.891,7.5c2.7,4.575,2.7,10.312,0,15c-2.691,4.575-7.613,7.5-12.891,7.5
					c-5.391,0-10.312-2.925-13.003-7.5c-2.7-4.688-2.7-10.425,0-15C-168.108,1393.443-163.186,1390.631-157.795,1390.631z
					 M-163.186,1385.006c-11.597,0-20.859-9.375-20.859-20.981c0-1.875,1.528-3.394,3.403-3.394h45.581
					c1.875,0,3.516,1.519,3.516,3.394c0,11.606-9.375,20.981-20.972,20.981H-163.186z"/>
			</g>
		</g>
	</g>
	<g id="text_43_00000134237780961965385700000008285809197439215532_">
		<g transform="translate(180.095339 843.444518)scale(0.3 -0.3)">
			<g>
				<path id="FontAwesome6Free-Solid-f007_00000160165759526436289100000017600990823118985896_" fill="#005F73" d="
					M-157.795,1334.199c5.278,0,10.2,2.812,12.891,7.5c2.7,4.575,2.7,10.312,0,15c-2.691,4.575-7.613,7.5-12.891,7.5
					c-5.391,0-10.312-2.925-13.003-7.5c-2.7-4.688-2.7-10.425,0-15C-168.108,1337.011-163.186,1334.199-157.795,1334.199z
					 M-163.186,1328.574c-11.597,0-20.859-9.375-20.859-20.981c0-1.875,1.528-3.394,3.403-3.394h45.581
					c1.875,0,3.516,1.519,3.516,3.394c0,11.606-9.375,20.981-20.972,20.981H-163.186z"/>
			</g>
		</g>
	</g>
	<g id="text_44_00000008862203189464715910000002151286135638064279_">
		<g transform="translate(180.095339 801.120683)scale(0.3 -0.3)">
			<g>
				<path id="FontAwesome6Free-Solid-f007_00000018201407580416457350000002705584826043479699_" fill="#005F73" d="
					M-157.795,1277.767c5.278,0,10.2,2.812,12.891,7.5c2.7,4.575,2.7,10.312,0,15c-2.691,4.575-7.613,7.5-12.891,7.5
					c-5.391,0-10.312-2.925-13.003-7.5c-2.7-4.688-2.7-10.425,0-15C-168.108,1280.579-163.186,1277.767-157.795,1277.767z
					 M-163.186,1272.142c-11.597,0-20.859-9.375-20.859-20.981c0-1.875,1.528-3.394,3.403-3.394h45.581
					c1.875,0,3.516,1.519,3.516,3.394c0,11.606-9.375,20.981-20.972,20.981H-163.186z"/>
			</g>
		</g>
	</g>
	<g id="text_45_00000164483229819918081690000014793808060789309610_">
		<g transform="translate(180.095339 758.796849)scale(0.3 -0.3)">
			<g>
				<path id="FontAwesome6Free-Solid-f007_00000013914690386985338460000013411270084522263958_" fill="#005F73" d="
					M-157.795,1221.335c5.278,0,10.2,2.812,12.891,7.5c2.7,4.575,2.7,10.312,0,15c-2.691,4.575-7.613,7.5-12.891,7.5
					c-5.391,0-10.312-2.925-13.003-7.5c-2.7-4.688-2.7-10.425,0-15C-168.108,1224.148-163.186,1221.335-157.795,1221.335z
					 M-163.186,1215.71c-11.597,0-20.859-9.375-20.859-20.981c0-1.875,1.528-3.394,3.403-3.394h45.581
					c1.875,0,3.516,1.519,3.516,3.394c0,11.606-9.375,20.981-20.972,20.981H-163.186z"/>
			</g>
		</g>
	</g>
	<g id="text_46_00000027592268097893710850000007924837962698211983_">
		<g transform="translate(180.095339 716.473014)scale(0.3 -0.3)">
			<g>
				<path id="FontAwesome6Free-Solid-f007_00000157267703438760308930000011726447820498160063_" fill="#005F73" d="
					M-157.795,1164.903c5.278,0,10.2,2.812,12.891,7.5c2.7,4.575,2.7,10.312,0,15c-2.691,4.575-7.613,7.5-12.891,7.5
					c-5.391,0-10.312-2.925-13.003-7.5c-2.7-4.688-2.7-10.425,0-15C-168.108,1167.716-163.186,1164.903-157.795,1164.903z
					 M-163.186,1159.278c-11.597,0-20.859-9.375-20.859-20.981c0-1.875,1.528-3.394,3.403-3.394h45.581
					c1.875,0,3.516,1.519,3.516,3.394c0,11.606-9.375,20.981-20.972,20.981H-163.186z"/>
			</g>
		</g>
	</g>
	<g id="text_47_00000132802403149489374580000000895064670743186324_">
		<g transform="translate(180.095339 674.149179)scale(0.3 -0.3)">
			<g>
				<path id="FontAwesome6Free-Solid-f007_00000162348032715631034250000008068190404588839856_" fill="#005F73" d="
					M-157.795,1108.472c5.278,0,10.2,2.812,12.891,7.5c2.7,4.575,2.7,10.312,0,15c-2.691,4.575-7.613,7.5-12.891,7.5
					c-5.391,0-10.312-2.925-13.003-7.5c-2.7-4.688-2.7-10.425,0-15C-168.108,1111.284-163.186,1108.472-157.795,1108.472z
					 M-163.186,1102.847c-11.597,0-20.859-9.375-20.859-20.981c0-1.875,1.528-3.394,3.403-3.394h45.581
					c1.875,0,3.516,1.519,3.516,3.394c0,11.606-9.375,20.981-20.972,20.981H-163.186z"/>
			</g>
		</g>
	</g>
	<g id="text_48_00000039841032910035337020000012313877967862432946_">
		<g transform="translate(180.095339 631.825344)scale(0.3 -0.3)">
			<g>
				<path id="FontAwesome6Free-Solid-f007_00000000926381220017568350000017626739895129677983_" fill="#005F73" d="
					M-157.795,1052.04c5.278,0,10.2,2.812,12.891,7.5c2.7,4.575,2.7,10.312,0,15c-2.691,4.575-7.613,7.5-12.891,7.5
					c-5.391,0-10.312-2.925-13.003-7.5c-2.7-4.688-2.7-10.425,0-15C-168.108,1054.852-163.186,1052.04-157.795,1052.04z
					 M-163.186,1046.415c-11.597,0-20.859-9.375-20.859-20.981c0-1.875,1.528-3.394,3.403-3.394h45.581
					c1.875,0,3.516,1.519,3.516,3.394c0,11.606-9.375,20.981-20.972,20.981H-163.186z"/>
			</g>
		</g>
	</g>
	<g id="text_49_00000086672706930439099050000016728128229847648951_">
		<g transform="translate(180.095339 589.50151)scale(0.3 -0.3)">
			<g>
				<path id="FontAwesome6Free-Solid-f007_00000161604244071584907260000006753313061169577148_" fill="#005F73" d="
					M-157.795,995.608c5.278,0,10.2,2.812,12.891,7.5c2.7,4.575,2.7,10.312,0,15c-2.691,4.575-7.613,7.5-12.891,7.5
					c-5.391,0-10.312-2.925-13.003-7.5c-2.7-4.688-2.7-10.425,0-15C-168.108,998.421-163.186,995.608-157.795,995.608z
					 M-163.186,989.983c-11.597,0-20.859-9.375-20.859-20.981c0-1.875,1.528-3.394,3.403-3.394h45.581
					c1.875,0,3.516,1.519,3.516,3.394c0,11.606-9.375,20.981-20.972,20.981H-163.186z"/>
			</g>
		</g>
	</g>
	<g id="text_50_00000085214023014810709400000016722577262348430778_">
		<g transform="translate(180.095339 547.177675)scale(0.3 -0.3)">
			<g>
				<path id="FontAwesome6Free-Solid-f007_00000084489854200756731730000012239401196376364430_" fill="#005F73" d="
					M-157.795,939.176c5.278,0,10.2,2.812,12.891,7.5c2.7,4.575,2.7,10.312,0,15c-2.691,4.575-7.613,7.5-12.891,7.5
					c-5.391,0-10.312-2.925-13.003-7.5c-2.7-4.688-2.7-10.425,0-15C-168.108,941.989-163.186,939.176-157.795,939.176z
					 M-163.186,933.551c-11.597,0-20.859-9.375-20.859-20.981c0-1.875,1.528-3.394,3.403-3.394h45.581
					c1.875,0,3.516,1.519,3.516,3.394c0,11.606-9.375,20.981-20.972,20.981H-163.186z"/>
			</g>
		</g>
	</g>
	<g id="text_51_00000027589807859875692050000006177047283792920488_">
		<g transform="translate(222.419174 928.092188)scale(0.3 -0.3)">
			<g>
				<path id="FontAwesome6Free-Solid-f007_00000068657527509184016980000014181388372633829548_" fill="#005F73" d="
					M-214.227,1447.062c5.278,0,10.2,2.812,12.891,7.5c2.7,4.575,2.7,10.312,0,15c-2.691,4.575-7.613,7.5-12.891,7.5
					c-5.391,0-10.312-2.925-13.003-7.5c-2.7-4.688-2.7-10.425,0-15C-224.54,1449.875-219.618,1447.062-214.227,1447.062z
					 M-219.618,1441.437c-11.597,0-20.859-9.375-20.859-20.981c0-1.875,1.528-3.394,3.403-3.394h45.581
					c1.875,0,3.516,1.519,3.516,3.394c0,11.606-9.375,20.981-20.972,20.981H-219.618z"/>
			</g>
		</g>
	</g>
	<g id="text_62_00000178191610678100309530000002398672203127110579_">
		<g transform="translate(264.743008 885.768353)scale(0.3 -0.3)">
			<g>
				<path id="FontAwesome6Free-Solid-f007_00000013871297812199228660000001488779225485260463_" fill="#005F73" d="
					M-270.659,1390.631c5.278,0,10.2,2.812,12.891,7.5c2.7,4.575,2.7,10.312,0,15c-2.691,4.575-7.612,7.5-12.891,7.5
					c-5.391,0-10.312-2.925-13.003-7.5c-2.7-4.688-2.7-10.425,0-15C-280.971,1393.443-276.05,1390.631-270.659,1390.631z
					 M-276.05,1385.006c-11.597,0-20.859-9.375-20.859-20.981c0-1.875,1.528-3.394,3.403-3.394h45.581
					c1.875,0,3.516,1.519,3.516,3.394c0,11.606-9.375,20.981-20.972,20.981H-276.05z"/>
			</g>
		</g>
	</g>
	<g>
		<g id="text_52_00000090266280079259697140000003192759478946978206_">
			<g transform="translate(222.419174 885.768353)scale(0.3 -0.3)">
				<g>
					<path id="FontAwesome6Free-Solid-f007_00000163073940561301384600000002666931602965914506_" fill="#005F73" d="
						M-214.227,1390.631c5.278,0,10.2,2.812,12.891,7.5c2.7,4.575,2.7,10.312,0,15c-2.691,4.575-7.613,7.5-12.891,7.5
						c-5.391,0-10.312-2.925-13.003-7.5c-2.7-4.688-2.7-10.425,0-15C-224.54,1393.443-219.618,1390.631-214.227,1390.631z
						 M-219.618,1385.006c-11.597,0-20.859-9.375-20.859-20.981c0-1.875,1.528-3.394,3.403-3.394h45.581
						c1.875,0,3.516,1.519,3.516,3.394c0,11.606-9.375,20.981-20.972,20.981H-219.618z"/>
				</g>
			</g>
		</g>
		<g id="text_53_00000007430168071646664730000010509544571962489755_">
			<g transform="translate(222.419174 843.444518)scale(0.3 -0.3)">
				<g>
					<path id="FontAwesome6Free-Solid-f007_00000023278745206218458000000014530394640123614890_" fill="#005F73" d="
						M-214.227,1334.199c5.278,0,10.2,2.812,12.891,7.5c2.7,4.575,2.7,10.312,0,15c-2.691,4.575-7.613,7.5-12.891,7.5
						c-5.391,0-10.312-2.925-13.003-7.5c-2.7-4.688-2.7-10.425,0-15C-224.54,1337.011-219.618,1334.199-214.227,1334.199z
						 M-219.618,1328.574c-11.597,0-20.859-9.375-20.859-20.981c0-1.875,1.528-3.394,3.403-3.394h45.581
						c1.875,0,3.516,1.519,3.516,3.394c0,11.606-9.375,20.981-20.972,20.981H-219.618z"/>
				</g>
			</g>
		</g>
		<g id="text_54_00000139255053349296905730000000185763291578044553_">
			<g transform="translate(222.419174 801.120683)scale(0.3 -0.3)">
				<g>
					<path id="FontAwesome6Free-Solid-f007_00000135681145261852496230000001801201380488577676_" fill="#005F73" d="
						M-214.227,1277.767c5.278,0,10.2,2.812,12.891,7.5c2.7,4.575,2.7,10.312,0,15c-2.691,4.575-7.613,7.5-12.891,7.5
						c-5.391,0-10.312-2.925-13.003-7.5c-2.7-4.688-2.7-10.425,0-15C-224.54,1280.579-219.618,1277.767-214.227,1277.767z
						 M-219.618,1272.142c-11.597,0-20.859-9.375-20.859-20.981c0-1.875,1.528-3.394,3.403-3.394h45.581
						c1.875,0,3.516,1.519,3.516,3.394c0,11.606-9.375,20.981-20.972,20.981H-219.618z"/>
				</g>
			</g>
		</g>
		<g id="text_55_00000028287825353580787620000004757198283265153703_">
			<g transform="translate(222.419174 758.796849)scale(0.3 -0.3)">
				<g>
					<path id="FontAwesome6Free-Solid-f007_00000180344602859178357220000001176951425156561037_" fill="#005F73" d="
						M-214.227,1221.335c5.278,0,10.2,2.812,12.891,7.5c2.7,4.575,2.7,10.312,0,15c-2.691,4.575-7.613,7.5-12.891,7.5
						c-5.391,0-10.312-2.925-13.003-7.5c-2.7-4.688-2.7-10.425,0-15C-224.54,1224.148-219.618,1221.335-214.227,1221.335z
						 M-219.618,1215.71c-11.597,0-20.859-9.375-20.859-20.981c0-1.875,1.528-3.394,3.403-3.394h45.581
						c1.875,0,3.516,1.519,3.516,3.394c0,11.606-9.375,20.981-20.972,20.981H-219.618z"/>
				</g>
			</g>
		</g>
		<g id="text_56_00000115483034059154729200000009534728575062697606_">
			<g transform="translate(222.419174 716.473014)scale(0.3 -0.3)">
				<g>
					<path id="FontAwesome6Free-Solid-f007_00000098219964140412309170000003330371179124613525_" fill="#005F73" d="
						M-214.227,1164.903c5.278,0,10.2,2.812,12.891,7.5c2.7,4.575,2.7,10.312,0,15c-2.691,4.575-7.613,7.5-12.891,7.5
						c-5.391,0-10.312-2.925-13.003-7.5c-2.7-4.688-2.7-10.425,0-15C-224.54,1167.716-219.618,1164.903-214.227,1164.903z
						 M-219.618,1159.278c-11.597,0-20.859-9.375-20.859-20.981c0-1.875,1.528-3.394,3.403-3.394h45.581
						c1.875,0,3.516,1.519,3.516,3.394c0,11.606-9.375,20.981-20.972,20.981H-219.618z"/>
				</g>
			</g>
		</g>
		<g id="text_57_00000149362482541139451010000005235887546260832399_">
			<g transform="translate(222.419174 674.149179)scale(0.3 -0.3)">
				<g>
					<path id="FontAwesome6Free-Solid-f007_00000181801530812644487980000013309894014039342782_" fill="#005F73" d="
						M-214.227,1108.472c5.278,0,10.2,2.812,12.891,7.5c2.7,4.575,2.7,10.312,0,15c-2.691,4.575-7.613,7.5-12.891,7.5
						c-5.391,0-10.312-2.925-13.003-7.5c-2.7-4.688-2.7-10.425,0-15C-224.54,1111.284-219.618,1108.472-214.227,1108.472z
						 M-219.618,1102.847c-11.597,0-20.859-9.375-20.859-20.981c0-1.875,1.528-3.394,3.403-3.394h45.581
						c1.875,0,3.516,1.519,3.516,3.394c0,11.606-9.375,20.981-20.972,20.981H-219.618z"/>
				</g>
			</g>
		</g>
		<g id="text_58_00000030447746399500476170000016639980085708593302_">
			<g transform="translate(222.419174 631.825344)scale(0.3 -0.3)">
				<g>
					<path id="FontAwesome6Free-Solid-f007_00000049923149947235012900000000402940944452083878_" fill="#005F73" d="
						M-214.227,1052.04c5.278,0,10.2,2.812,12.891,7.5c2.7,4.575,2.7,10.312,0,15c-2.691,4.575-7.613,7.5-12.891,7.5
						c-5.391,0-10.312-2.925-13.003-7.5c-2.7-4.688-2.7-10.425,0-15C-224.54,1054.852-219.618,1052.04-214.227,1052.04z
						 M-219.618,1046.415c-11.597,0-20.859-9.375-20.859-20.981c0-1.875,1.528-3.394,3.403-3.394h45.581
						c1.875,0,3.516,1.519,3.516,3.394c0,11.606-9.375,20.981-20.972,20.981H-219.618z"/>
				</g>
			</g>
		</g>
		<g id="text_59_00000122002502682897810650000014105078499819774381_">
			<g transform="translate(222.419174 589.50151)scale(0.3 -0.3)">
				<g>
					<path id="FontAwesome6Free-Solid-f007_00000127004128384152276690000014737321895168878509_" fill="#005F73" d="
						M-214.227,995.608c5.278,0,10.2,2.812,12.891,7.5c2.7,4.575,2.7,10.312,0,15c-2.691,4.575-7.613,7.5-12.891,7.5
						c-5.391,0-10.312-2.925-13.003-7.5c-2.7-4.688-2.7-10.425,0-15C-224.54,998.421-219.618,995.608-214.227,995.608z
						 M-219.618,989.983c-11.597,0-20.859-9.375-20.859-20.981c0-1.875,1.528-3.394,3.403-3.394h45.581
						c1.875,0,3.516,1.519,3.516,3.394c0,11.606-9.375,20.981-20.972,20.981H-219.618z"/>
				</g>
			</g>
		</g>
		<g id="text_60_00000167371441804657893360000010839452602771192737_">
			<g transform="translate(222.419174 547.177675)scale(0.3 -0.3)">
				<g>
					<path id="FontAwesome6Free-Solid-f007_00000156584008579448451360000018335375454256784026_" fill="#005F73" d="
						M-214.227,939.176c5.278,0,10.2,2.812,12.891,7.5c2.7,4.575,2.7,10.312,0,15c-2.691,4.575-7.613,7.5-12.891,7.5
						c-5.391,0-10.312-2.925-13.003-7.5c-2.7-4.688-2.7-10.425,0-15C-224.54,941.989-219.618,939.176-214.227,939.176z
						 M-219.618,933.551c-11.597,0-20.859-9.375-20.859-20.981c0-1.875,1.528-3.394,3.403-3.394h45.581
						c1.875,0,3.516,1.519,3.516,3.394c0,11.606-9.375,20.981-20.972,20.981H-219.618z"/>
				</g>
			</g>
		</g>
		<g id="text_61_00000059283846447841449350000011316946291262387106_">
			<g transform="translate(264.743008 928.092188)scale(0.3 -0.3)">
				<g>
					<path id="FontAwesome6Free-Solid-f007_00000075155604633310387190000014422429744860120193_" fill="#005F73" d="
						M-270.659,1447.062c5.278,0,10.2,2.812,12.891,7.5c2.7,4.575,2.7,10.312,0,15c-2.691,4.575-7.612,7.5-12.891,7.5
						c-5.391,0-10.312-2.925-13.003-7.5c-2.7-4.688-2.7-10.425,0-15C-280.971,1449.875-276.05,1447.062-270.659,1447.062z
						 M-276.05,1441.437c-11.597,0-20.859-9.375-20.859-20.981c0-1.875,1.528-3.394,3.403-3.394h45.581
						c1.875,0,3.516,1.519,3.516,3.394c0,11.606-9.375,20.981-20.972,20.981H-276.05z"/>
				</g>
			</g>
		</g>
		<g id="text_63_00000085241939049169836660000015460116481612154530_">
			<g transform="translate(264.743008 843.444518)scale(0.3 -0.3)">
				<g>
					<path id="FontAwesome6Free-Solid-f007_00000047739022309781868460000015567428215946913981_" fill="#005F73" d="
						M-270.659,1334.199c5.278,0,10.2,2.812,12.891,7.5c2.7,4.575,2.7,10.312,0,15c-2.691,4.575-7.612,7.5-12.891,7.5
						c-5.391,0-10.312-2.925-13.003-7.5c-2.7-4.688-2.7-10.425,0-15C-280.971,1337.011-276.05,1334.199-270.659,1334.199z
						 M-276.05,1328.574c-11.597,0-20.859-9.375-20.859-20.981c0-1.875,1.528-3.394,3.403-3.394h45.581
						c1.875,0,3.516,1.519,3.516,3.394c0,11.606-9.375,20.981-20.972,20.981H-276.05z"/>
				</g>
			</g>
		</g>
		<g id="text_64_00000140002274450062234490000004772738845510501816_">
			<g transform="translate(264.743008 801.120683)scale(0.3 -0.3)">
				<g>
					<path id="FontAwesome6Free-Solid-f007_00000147214097619232790840000003474719396683751867_" fill="#005F73" d="
						M-270.659,1277.767c5.278,0,10.2,2.812,12.891,7.5c2.7,4.575,2.7,10.312,0,15c-2.691,4.575-7.612,7.5-12.891,7.5
						c-5.391,0-10.312-2.925-13.003-7.5c-2.7-4.688-2.7-10.425,0-15C-280.971,1280.579-276.05,1277.767-270.659,1277.767z
						 M-276.05,1272.142c-11.597,0-20.859-9.375-20.859-20.981c0-1.875,1.528-3.394,3.403-3.394h45.581
						c1.875,0,3.516,1.519,3.516,3.394c0,11.606-9.375,20.981-20.972,20.981H-276.05z"/>
				</g>
			</g>
		</g>
		<g id="text_65_00000109712346586689786740000012357177159854504084_">
			<g transform="translate(264.743008 758.796849)scale(0.3 -0.3)">
				<g>
					<path id="FontAwesome6Free-Solid-f007_00000133530495773168860970000001903571435473580988_" fill="#005F73" d="
						M-270.659,1221.335c5.278,0,10.2,2.812,12.891,7.5c2.7,4.575,2.7,10.312,0,15c-2.691,4.575-7.612,7.5-12.891,7.5
						c-5.391,0-10.312-2.925-13.003-7.5c-2.7-4.688-2.7-10.425,0-15C-280.971,1224.148-276.05,1221.335-270.659,1221.335z
						 M-276.05,1215.71c-11.597,0-20.859-9.375-20.859-20.981c0-1.875,1.528-3.394,3.403-3.394h45.581
						c1.875,0,3.516,1.519,3.516,3.394c0,11.606-9.375,20.981-20.972,20.981H-276.05z"/>
				</g>
			</g>
		</g>
	</g>
	<g id="text_66_00000119084780344492410430000016101502668288014747_">
		<g transform="translate(264.743008 716.473014)scale(0.3 -0.3)">
			<g>
				<path id="FontAwesome6Free-Solid-f007_00000101820265583004655160000002236616913083128754_" fill="#005F73" d="
					M-270.659,1164.903c5.278,0,10.2,2.812,12.891,7.5c2.7,4.575,2.7,10.312,0,15c-2.691,4.575-7.612,7.5-12.891,7.5
					c-5.391,0-10.312-2.925-13.003-7.5c-2.7-4.688-2.7-10.425,0-15C-280.971,1167.716-276.05,1164.903-270.659,1164.903z
					 M-276.05,1159.278c-11.597,0-20.859-9.375-20.859-20.981c0-1.875,1.528-3.394,3.403-3.394h45.581
					c1.875,0,3.516,1.519,3.516,3.394c0,11.606-9.375,20.981-20.972,20.981H-276.05z"/>
			</g>
		</g>
	</g>
	<g id="text_67_00000115500351922574610170000015257247058288114094_">
		<g transform="translate(264.743008 674.149179)scale(0.3 -0.3)">
			<g>
				<path id="FontAwesome6Free-Solid-f007_00000119817479887151034850000008475114999566033057_" fill="#005F73" d="
					M-270.659,1108.472c5.278,0,10.2,2.812,12.891,7.5c2.7,4.575,2.7,10.312,0,15c-2.691,4.575-7.612,7.5-12.891,7.5
					c-5.391,0-10.312-2.925-13.003-7.5c-2.7-4.688-2.7-10.425,0-15C-280.971,1111.284-276.05,1108.472-270.659,1108.472z
					 M-276.05,1102.847c-11.597,0-20.859-9.375-20.859-20.981c0-1.875,1.528-3.394,3.403-3.394h45.581
					c1.875,0,3.516,1.519,3.516,3.394c0,11.606-9.375,20.981-20.972,20.981H-276.05z"/>
			</g>
		</g>
	</g>
	<g id="text_68_00000102529060537568383010000013633241217564684200_">
		<g transform="translate(264.743008 631.825344)scale(0.3 -0.3)">
			<g>
				<path id="FontAwesome6Free-Solid-f007_00000055687325862633991270000014618587543003778448_" fill="#005F73" d="
					M-270.659,1052.04c5.278,0,10.2,2.812,12.891,7.5c2.7,4.575,2.7,10.312,0,15c-2.691,4.575-7.612,7.5-12.891,7.5
					c-5.391,0-10.312-2.925-13.003-7.5c-2.7-4.688-2.7-10.425,0-15C-280.971,1054.852-276.05,1052.04-270.659,1052.04z
					 M-276.05,1046.415c-11.597,0-20.859-9.375-20.859-20.981c0-1.875,1.528-3.394,3.403-3.394h45.581
					c1.875,0,3.516,1.519,3.516,3.394c0,11.606-9.375,20.981-20.972,20.981H-276.05z"/>
			</g>
		</g>
	</g>
	<g id="text_69_00000163073387234434374360000007308594598070643103_">
		<g transform="translate(264.743008 589.50151)scale(0.3 -0.3)">
			<g>
				<path id="FontAwesome6Free-Solid-f007_00000051362281688428965360000009482262617143248289_" fill="#005F73" d="
					M-270.659,995.608c5.278,0,10.2,2.812,12.891,7.5c2.7,4.575,2.7,10.312,0,15c-2.691,4.575-7.612,7.5-12.891,7.5
					c-5.391,0-10.312-2.925-13.003-7.5c-2.7-4.688-2.7-10.425,0-15C-280.971,998.421-276.05,995.608-270.659,995.608z
					 M-276.05,989.983c-11.597,0-20.859-9.375-20.859-20.981c0-1.875,1.528-3.394,3.403-3.394h45.581
					c1.875,0,3.516,1.519,3.516,3.394c0,11.606-9.375,20.981-20.972,20.981H-276.05z"/>
			</g>
		</g>
	</g>
	<g id="text_70_00000021083638334347343530000005936680988194332035_">
		<g transform="translate(264.743008 547.177675)scale(0.3 -0.3)">
			<g>
				<path id="FontAwesome6Free-Solid-f007_00000176751301139285343790000014861687263996844422_" fill="#005F73" d="
					M-270.659,939.176c5.278,0,10.2,2.812,12.891,7.5c2.7,4.575,2.7,10.312,0,15c-2.691,4.575-7.612,7.5-12.891,7.5
					c-5.391,0-10.312-2.925-13.003-7.5c-2.7-4.688-2.7-10.425,0-15C-280.971,941.989-276.05,939.176-270.659,939.176z
					 M-276.05,933.551c-11.597,0-20.859-9.375-20.859-20.981c0-1.875,1.528-3.394,3.403-3.394h45.581
					c1.875,0,3.516,1.519,3.516,3.394c0,11.606-9.375,20.981-20.972,20.981H-276.05z"/>
			</g>
		</g>
	</g>
	<g id="text_71_00000164495013025326621480000016706501528478935697_">
		<g transform="translate(307.066843 928.092188)scale(0.3 -0.3)">
			<g>
				<path id="FontAwesome6Free-Solid-f007_00000096059825749711268750000014042245068094237590_" fill="#005F73" d="
					M-327.091,1447.062c5.278,0,10.2,2.812,12.891,7.5c2.7,4.575,2.7,10.312,0,15c-2.691,4.575-7.612,7.5-12.891,7.5
					c-5.391,0-10.312-2.925-13.003-7.5c-2.7-4.688-2.7-10.425,0-15C-337.403,1449.875-332.481,1447.062-327.091,1447.062z
					 M-332.481,1441.437c-11.597,0-20.859-9.375-20.859-20.981c0-1.875,1.528-3.394,3.403-3.394h45.581
					c1.875,0,3.516,1.519,3.516,3.394c0,11.606-9.375,20.981-20.972,20.981H-332.481z"/>
			</g>
		</g>
	</g>
	<g id="text_72_00000037692732637964222000000008212336131294045103_">
		<g transform="translate(307.066843 885.768353)scale(0.3 -0.3)">
			<g>
				<path id="FontAwesome6Free-Solid-f007_00000088848891884854781350000006610690637099901603_" fill="#005F73" d="
					M-327.091,1390.631c5.278,0,10.2,2.812,12.891,7.5c2.7,4.575,2.7,10.312,0,15c-2.691,4.575-7.612,7.5-12.891,7.5
					c-5.391,0-10.312-2.925-13.003-7.5c-2.7-4.688-2.7-10.425,0-15C-337.403,1393.443-332.481,1390.631-327.091,1390.631z
					 M-332.481,1385.006c-11.597,0-20.859-9.375-20.859-20.981c0-1.875,1.528-3.394,3.403-3.394h45.581
					c1.875,0,3.516,1.519,3.516,3.394c0,11.606-9.375,20.981-20.972,20.981H-332.481z"/>
			</g>
		</g>
	</g>
	<g id="text_73_00000076589051101923670780000004603076225709356216_">
		<g transform="translate(307.066843 843.444518)scale(0.3 -0.3)">
			<g>
				<path id="FontAwesome6Free-Solid-f007_00000181047697411989619000000008949366816740831160_" fill="#005F73" d="
					M-327.091,1334.199c5.278,0,10.2,2.812,12.891,7.5c2.7,4.575,2.7,10.312,0,15c-2.691,4.575-7.612,7.5-12.891,7.5
					c-5.391,0-10.312-2.925-13.003-7.5c-2.7-4.688-2.7-10.425,0-15C-337.403,1337.011-332.481,1334.199-327.091,1334.199z
					 M-332.481,1328.574c-11.597,0-20.859-9.375-20.859-20.981c0-1.875,1.528-3.394,3.403-3.394h45.581
					c1.875,0,3.516,1.519,3.516,3.394c0,11.606-9.375,20.981-20.972,20.981H-332.481z"/>
			</g>
		</g>
	</g>
	<g id="text_74_00000071535563573549432940000009575764291788277436_">
		<g transform="translate(307.066843 801.120683)scale(0.3 -0.3)">
			<g>
				<path id="FontAwesome6Free-Solid-f007_00000175307406983170367430000014280349529995293338_" fill="#005F73" d="
					M-327.091,1277.767c5.278,0,10.2,2.812,12.891,7.5c2.7,4.575,2.7,10.312,0,15c-2.691,4.575-7.612,7.5-12.891,7.5
					c-5.391,0-10.312-2.925-13.003-7.5c-2.7-4.688-2.7-10.425,0-15C-337.403,1280.579-332.481,1277.767-327.091,1277.767z
					 M-332.481,1272.142c-11.597,0-20.859-9.375-20.859-20.981c0-1.875,1.528-3.394,3.403-3.394h45.581
					c1.875,0,3.516,1.519,3.516,3.394c0,11.606-9.375,20.981-20.972,20.981H-332.481z"/>
			</g>
		</g>
	</g>
	<g id="text_75_00000171701241574858909160000007445131631875199881_">
		<g transform="translate(307.066843 758.796849)scale(0.3 -0.3)">
			<g>
				<path id="FontAwesome6Free-Solid-f007_00000047021452448520557110000011194339145480248213_" fill="#005F73" d="
					M-327.091,1221.335c5.278,0,10.2,2.812,12.891,7.5c2.7,4.575,2.7,10.312,0,15c-2.691,4.575-7.612,7.5-12.891,7.5
					c-5.391,0-10.312-2.925-13.003-7.5c-2.7-4.688-2.7-10.425,0-15C-337.403,1224.148-332.481,1221.335-327.091,1221.335z
					 M-332.481,1215.71c-11.597,0-20.859-9.375-20.859-20.981c0-1.875,1.528-3.394,3.403-3.394h45.581
					c1.875,0,3.516,1.519,3.516,3.394c0,11.606-9.375,20.981-20.972,20.981H-332.481z"/>
			</g>
		</g>
	</g>
	<g id="pchange_x5F_2023_00000018213615544763428960000004713577649451825806_">
		<g transform="translate(307.066843 716.473014)scale(0.3 -0.3)">
			<g>
				<path id="FontAwesome6Free-Solid-f007_00000038392733318716351330000004272882323404005282_" fill="#005F73" d="
					M-327.091,1164.903c5.278,0,10.2,2.812,12.891,7.5c2.7,4.575,2.7,10.312,0,15c-2.691,4.575-7.612,7.5-12.891,7.5
					c-5.391,0-10.312-2.925-13.003-7.5c-2.7-4.688-2.7-10.425,0-15C-337.403,1167.716-332.481,1164.903-327.091,1164.903z
					 M-332.481,1159.278c-11.597,0-20.859-9.375-20.859-20.981c0-1.875,1.528-3.394,3.403-3.394h45.581
					c1.875,0,3.516,1.519,3.516,3.394c0,11.606-9.375,20.981-20.972,20.981H-332.481z"/>
			</g>
		</g>
	</g>
	<g id="pchange-2022_00000183248233791600639160000002506191018945434037_">
		<g transform="translate(307.066843 674.149179)scale(0.3 -0.3)">
			<g>
				<path id="FontAwesome6Free-Solid-f007_00000124141215344338459440000006483222310305098148_" fill="#005F73" d="
					M-327.091,1108.472c5.278,0,10.2,2.812,12.891,7.5c2.7,4.575,2.7,10.312,0,15c-2.691,4.575-7.612,7.5-12.891,7.5
					c-5.391,0-10.312-2.925-13.003-7.5c-2.7-4.688-2.7-10.425,0-15C-337.403,1111.284-332.481,1108.472-327.091,1108.472z
					 M-332.481,1102.847c-11.597,0-20.859-9.375-20.859-20.981c0-1.875,1.528-3.394,3.403-3.394h45.581
					c1.875,0,3.516,1.519,3.516,3.394c0,11.606-9.375,20.981-20.972,20.981H-332.481z"/>
			</g>
		</g>
	</g>
	<g id="pchange2019-back2021_00000000180385330337105420000008813329192546971537_">
		<g transform="translate(307.066843 631.825344)scale(0.3 -0.3)">
			<g>
				<path id="FontAwesome6Free-Solid-f007_00000147924360101060334520000006840283373312447418_" fill="#005F73" d="
					M-327.091,1052.04c5.278,0,10.2,2.812,12.891,7.5c2.7,4.575,2.7,10.312,0,15c-2.691,4.575-7.612,7.5-12.891,7.5
					c-5.391,0-10.312-2.925-13.003-7.5c-2.7-4.688-2.7-10.425,0-15C-337.403,1054.852-332.481,1052.04-327.091,1052.04z
					 M-332.481,1046.415c-11.597,0-20.859-9.375-20.859-20.981c0-1.875,1.528-3.394,3.403-3.394h45.581
					c1.875,0,3.516,1.519,3.516,3.394c0,11.606-9.375,20.981-20.972,20.981H-332.481z"/>
			</g>
		</g>
	</g>
	<g id="text_79_00000033341049046038559870000000004739283058483092_">
		<g transform="translate(307.066843 589.50151)scale(0.3 -0.3)">
			<g>
				<path id="FontAwesome6Free-Solid-f007_00000150086480297341940310000008758533127595623064_" fill="#F3722C" d="
					M-327.091,995.608c5.278,0,10.2,2.812,12.891,7.5c2.7,4.575,2.7,10.312,0,15c-2.691,4.575-7.612,7.5-12.891,7.5
					c-5.391,0-10.312-2.925-13.003-7.5c-2.7-4.688-2.7-10.425,0-15C-337.403,998.421-332.481,995.608-327.091,995.608z
					 M-332.481,989.983c-11.597,0-20.859-9.375-20.859-20.981c0-1.875,1.528-3.394,3.403-3.394h45.581
					c1.875,0,3.516,1.519,3.516,3.394c0,11.606-9.375,20.981-20.972,20.981H-332.481z"/>
			</g>
		</g>
	</g>
	<g id="text_80_00000031913088857027429640000003259372186575744156_">
		<g transform="translate(307.066843 547.177675)scale(0.3 -0.3)">
			<g>
				<path id="FontAwesome6Free-Solid-f007_00000131354717106056892600000003725862175822084537_" fill="#F3722C" d="
					M-327.091,939.176c5.278,0,10.2,2.812,12.891,7.5c2.7,4.575,2.7,10.312,0,15c-2.691,4.575-7.612,7.5-12.891,7.5
					c-5.391,0-10.312-2.925-13.003-7.5c-2.7-4.688-2.7-10.425,0-15C-337.403,941.989-332.481,939.176-327.091,939.176z
					 M-332.481,933.551c-11.597,0-20.859-9.375-20.859-20.981c0-1.875,1.528-3.394,3.403-3.394h45.581
					c1.875,0,3.516,1.519,3.516,3.394c0,11.606-9.375,20.981-20.972,20.981H-332.481z"/>
			</g>
		</g>
	</g>
	<g id="text_81_00000052818159191862605310000016936696004855807123_">
		<g transform="translate(349.390678 928.092188)scale(0.3 -0.3)">
			<g>
				<path id="FontAwesome6Free-Solid-f007_00000180338647888572575860000011992483907242815673_" fill="#F3722C" d="
					M-383.522,1447.062c5.278,0,10.2,2.812,12.891,7.5c2.7,4.575,2.7,10.312,0,15c-2.691,4.575-7.613,7.5-12.891,7.5
					c-5.391,0-10.312-2.925-13.003-7.5c-2.7-4.688-2.7-10.425,0-15C-393.835,1449.875-388.913,1447.062-383.522,1447.062z
					 M-388.913,1441.437c-11.597,0-20.859-9.375-20.859-20.981c0-1.875,1.528-3.394,3.403-3.394h45.581
					c1.875,0,3.516,1.519,3.516,3.394c0,11.606-9.375,20.981-20.972,20.981H-388.913z"/>
			</g>
		</g>
	</g>
	<g id="text_82_00000156546349880738038080000007986061074331474358_">
		<g transform="translate(349.390678 885.768353)scale(0.3 -0.3)">
			<g>
				<path id="FontAwesome6Free-Solid-f007_00000041294094709005655750000004652892423380749495_" fill="#F3722C" d="
					M-383.522,1390.631c5.278,0,10.2,2.812,12.891,7.5c2.7,4.575,2.7,10.312,0,15c-2.691,4.575-7.613,7.5-12.891,7.5
					c-5.391,0-10.312-2.925-13.003-7.5c-2.7-4.688-2.7-10.425,0-15C-393.835,1393.443-388.913,1390.631-383.522,1390.631z
					 M-388.913,1385.006c-11.597,0-20.859-9.375-20.859-20.981c0-1.875,1.528-3.394,3.403-3.394h45.581
					c1.875,0,3.516,1.519,3.516,3.394c0,11.606-9.375,20.981-20.972,20.981H-388.913z"/>
			</g>
		</g>
	</g>
	<g id="text_83_00000077295720386641517250000003169369458030993793_">
		<g transform="translate(349.390678 843.444518)scale(0.3 -0.3)">
			<g>
				<path id="FontAwesome6Free-Solid-f007_00000102543744998913640290000011419865966154136996_" fill="#F3722C" d="
					M-383.522,1334.199c5.278,0,10.2,2.812,12.891,7.5c2.7,4.575,2.7,10.312,0,15c-2.691,4.575-7.613,7.5-12.891,7.5
					c-5.391,0-10.312-2.925-13.003-7.5c-2.7-4.688-2.7-10.425,0-15C-393.835,1337.011-388.913,1334.199-383.522,1334.199z
					 M-388.913,1328.574c-11.597,0-20.859-9.375-20.859-20.981c0-1.875,1.528-3.394,3.403-3.394h45.581
					c1.875,0,3.516,1.519,3.516,3.394c0,11.606-9.375,20.981-20.972,20.981H-388.913z"/>
			</g>
		</g>
	</g>
	<g id="text_84_00000072253064075150329550000001936593528162367670_">
		<g transform="translate(349.390678 801.120683)scale(0.3 -0.3)">
			<g>
				<path id="FontAwesome6Free-Solid-f007_00000095311625487481895290000001707694406609166982_" fill="#F3722C" d="
					M-383.522,1277.767c5.278,0,10.2,2.812,12.891,7.5c2.7,4.575,2.7,10.312,0,15c-2.691,4.575-7.613,7.5-12.891,7.5
					c-5.391,0-10.312-2.925-13.003-7.5c-2.7-4.688-2.7-10.425,0-15C-393.835,1280.579-388.913,1277.767-383.522,1277.767z
					 M-388.913,1272.142c-11.597,0-20.859-9.375-20.859-20.981c0-1.875,1.528-3.394,3.403-3.394h45.581
					c1.875,0,3.516,1.519,3.516,3.394c0,11.606-9.375,20.981-20.972,20.981H-388.913z"/>
			</g>
		</g>
	</g>
	<g id="text_85_00000024709957120436034720000007774695022432674176_">
		<g transform="translate(349.390678 758.796849)scale(0.3 -0.3)">
			<g>
				<path id="FontAwesome6Free-Solid-f007_00000003803545402722662070000011380047737521655688_" fill="#F3722C" d="
					M-383.522,1221.335c5.278,0,10.2,2.812,12.891,7.5c2.7,4.575,2.7,10.312,0,15c-2.691,4.575-7.613,7.5-12.891,7.5
					c-5.391,0-10.312-2.925-13.003-7.5c-2.7-4.688-2.7-10.425,0-15C-393.835,1224.148-388.913,1221.335-383.522,1221.335z
					 M-388.913,1215.71c-11.597,0-20.859-9.375-20.859-20.981c0-1.875,1.528-3.394,3.403-3.394h45.581
					c1.875,0,3.516,1.519,3.516,3.394c0,11.606-9.375,20.981-20.972,20.981H-388.913z"/>
			</g>
		</g>
	</g>
	<g id="text_86_00000110443910871068057300000009129855405237969074_">
		<g transform="translate(349.390678 716.473014)scale(0.3 -0.3)">
			<g>
				<path id="FontAwesome6Free-Solid-f007_00000016795115702621502740000000900500079143557286_" fill="#F3722C" d="
					M-383.522,1164.903c5.278,0,10.2,2.812,12.891,7.5c2.7,4.575,2.7,10.312,0,15c-2.691,4.575-7.613,7.5-12.891,7.5
					c-5.391,0-10.312-2.925-13.003-7.5c-2.7-4.688-2.7-10.425,0-15C-393.835,1167.716-388.913,1164.903-383.522,1164.903z
					 M-388.913,1159.278c-11.597,0-20.859-9.375-20.859-20.981c0-1.875,1.528-3.394,3.403-3.394h45.581
					c1.875,0,3.516,1.519,3.516,3.394c0,11.606-9.375,20.981-20.972,20.981H-388.913z"/>
			</g>
		</g>
	</g>
	<g id="text_87_00000037666531909507493520000015221953449945194918_">
		<g transform="translate(349.390678 674.149179)scale(0.3 -0.3)">
			<g>
				<path id="FontAwesome6Free-Solid-f007_00000099625583177665605620000017861042333310841524_" fill="#F3722C" d="
					M-383.522,1108.472c5.278,0,10.2,2.812,12.891,7.5c2.7,4.575,2.7,10.312,0,15c-2.691,4.575-7.613,7.5-12.891,7.5
					c-5.391,0-10.312-2.925-13.003-7.5c-2.7-4.688-2.7-10.425,0-15C-393.835,1111.284-388.913,1108.472-383.522,1108.472z
					 M-388.913,1102.847c-11.597,0-20.859-9.375-20.859-20.981c0-1.875,1.528-3.394,3.403-3.394h45.581
					c1.875,0,3.516,1.519,3.516,3.394c0,11.606-9.375,20.981-20.972,20.981H-388.913z"/>
			</g>
		</g>
	</g>
	<g id="text_88_00000000212194402340374620000010300149776859465637_">
		<g transform="translate(349.390678 631.825344)scale(0.3 -0.3)">
			<g>
				<path id="FontAwesome6Free-Solid-f007_00000060715650289505170250000008532275646564473991_" fill="#F3722C" d="
					M-383.522,1052.04c5.278,0,10.2,2.812,12.891,7.5c2.7,4.575,2.7,10.312,0,15c-2.691,4.575-7.613,7.5-12.891,7.5
					c-5.391,0-10.312-2.925-13.003-7.5c-2.7-4.688-2.7-10.425,0-15C-393.835,1054.852-388.913,1052.04-383.522,1052.04z
					 M-388.913,1046.415c-11.597,0-20.859-9.375-20.859-20.981c0-1.875,1.528-3.394,3.403-3.394h45.581
					c1.875,0,3.516,1.519,3.516,3.394c0,11.606-9.375,20.981-20.972,20.981H-388.913z"/>
			</g>
		</g>
	</g>
	<g id="text_89_00000159436982648486599050000005499647204706621885_">
		<g transform="translate(349.390678 589.50151)scale(0.3 -0.3)">
			<g>
				<path id="FontAwesome6Free-Solid-f007_00000066481680332198456630000015790175119813156787_" fill="#F3722C" d="
					M-383.522,995.608c5.278,0,10.2,2.812,12.891,7.5c2.7,4.575,2.7,10.312,0,15c-2.691,4.575-7.613,7.5-12.891,7.5
					c-5.391,0-10.312-2.925-13.003-7.5c-2.7-4.688-2.7-10.425,0-15C-393.835,998.421-388.913,995.608-383.522,995.608z
					 M-388.913,989.983c-11.597,0-20.859-9.375-20.859-20.981c0-1.875,1.528-3.394,3.403-3.394h45.581
					c1.875,0,3.516,1.519,3.516,3.394c0,11.606-9.375,20.981-20.972,20.981H-388.913z"/>
			</g>
		</g>
	</g>
	<g id="text_90_00000143592746615148970770000002056816999235172746_">
		<g transform="translate(349.390678 547.177675)scale(0.3 -0.3)">
			<g>
				<path id="FontAwesome6Free-Solid-f007_00000050630768088523014910000006398293703541052598_" fill="#F3722C" d="
					M-383.522,939.176c5.278,0,10.2,2.812,12.891,7.5c2.7,4.575,2.7,10.312,0,15c-2.691,4.575-7.613,7.5-12.891,7.5
					c-5.391,0-10.312-2.925-13.003-7.5c-2.7-4.688-2.7-10.425,0-15C-393.835,941.989-388.913,939.176-383.522,939.176z
					 M-388.913,933.551c-11.597,0-20.859-9.375-20.859-20.981c0-1.875,1.528-3.394,3.403-3.394h45.581
					c1.875,0,3.516,1.519,3.516,3.394c0,11.606-9.375,20.981-20.972,20.981H-388.913z"/>
			</g>
		</g>
	</g>
	<g id="text_91_00000000902152837795069980000012947775566135191450_">
		<g transform="translate(391.714513 928.092188)scale(0.3 -0.3)">
			<g>
				<path id="FontAwesome6Free-Solid-f007_00000051363832039734266870000003560501017427528588_" fill="#F3722C" d="
					M-439.954,1447.062c5.278,0,10.2,2.812,12.891,7.5c2.7,4.575,2.7,10.312,0,15c-2.691,4.575-7.613,7.5-12.891,7.5
					c-5.391,0-10.312-2.925-13.003-7.5c-2.7-4.688-2.7-10.425,0-15C-450.267,1449.875-445.345,1447.062-439.954,1447.062z
					 M-445.345,1441.437c-11.597,0-20.859-9.375-20.859-20.981c0-1.875,1.528-3.394,3.403-3.394h45.581
					c1.875,0,3.516,1.519,3.516,3.394c0,11.606-9.375,20.981-20.972,20.981H-445.345z"/>
			</g>
		</g>
	</g>
	<g id="text_92_00000134213148863147983830000005425024922162314117_">
		<g transform="translate(391.714513 885.768353)scale(0.3 -0.3)">
			<g>
				<path id="FontAwesome6Free-Solid-f007_00000078042797323827145070000015667672372733682364_" fill="#F3722C" d="
					M-439.954,1390.631c5.278,0,10.2,2.812,12.891,7.5c2.7,4.575,2.7,10.312,0,15c-2.691,4.575-7.613,7.5-12.891,7.5
					c-5.391,0-10.312-2.925-13.003-7.5c-2.7-4.688-2.7-10.425,0-15C-450.267,1393.443-445.345,1390.631-439.954,1390.631z
					 M-445.345,1385.006c-11.597,0-20.859-9.375-20.859-20.981c0-1.875,1.528-3.394,3.403-3.394h45.581
					c1.875,0,3.516,1.519,3.516,3.394c0,11.606-9.375,20.981-20.972,20.981H-445.345z"/>
			</g>
		</g>
	</g>
	<g id="text_93_00000122714876730935648920000015904119567355023495_">
		<g transform="translate(391.714513 843.444518)scale(0.3 -0.3)">
			<g>
				<path id="FontAwesome6Free-Solid-f007_00000079469541713437773720000011080772049364823444_" fill="#F3722C" d="
					M-439.954,1334.199c5.278,0,10.2,2.812,12.891,7.5c2.7,4.575,2.7,10.312,0,15c-2.691,4.575-7.613,7.5-12.891,7.5
					c-5.391,0-10.312-2.925-13.003-7.5c-2.7-4.688-2.7-10.425,0-15C-450.267,1337.011-445.345,1334.199-439.954,1334.199z
					 M-445.345,1328.574c-11.597,0-20.859-9.375-20.859-20.981c0-1.875,1.528-3.394,3.403-3.394h45.581
					c1.875,0,3.516,1.519,3.516,3.394c0,11.606-9.375,20.981-20.972,20.981H-445.345z"/>
			</g>
		</g>
	</g>
	<g id="text_94_00000050640986880993131970000012090628395724914305_">
		<g transform="translate(391.714513 801.120683)scale(0.3 -0.3)">
			<g>
				<path id="FontAwesome6Free-Solid-f007_00000078733886703378547820000015149087882937277625_" fill="#F3722C" d="
					M-439.954,1277.767c5.278,0,10.2,2.812,12.891,7.5c2.7,4.575,2.7,10.312,0,15c-2.691,4.575-7.613,7.5-12.891,7.5
					c-5.391,0-10.312-2.925-13.003-7.5c-2.7-4.688-2.7-10.425,0-15C-450.267,1280.579-445.345,1277.767-439.954,1277.767z
					 M-445.345,1272.142c-11.597,0-20.859-9.375-20.859-20.981c0-1.875,1.528-3.394,3.403-3.394h45.581
					c1.875,0,3.516,1.519,3.516,3.394c0,11.606-9.375,20.981-20.972,20.981H-445.345z"/>
			</g>
		</g>
	</g>
	<g id="text_95_00000084506491424935094460000004087676428772712339_">
		<g transform="translate(391.714513 758.796849)scale(0.3 -0.3)">
			<g>
				<path id="FontAwesome6Free-Solid-f007_00000150791600654421830740000015221406919361119364_" fill="#F3722C" d="
					M-439.954,1221.335c5.278,0,10.2,2.812,12.891,7.5c2.7,4.575,2.7,10.312,0,15c-2.691,4.575-7.613,7.5-12.891,7.5
					c-5.391,0-10.312-2.925-13.003-7.5c-2.7-4.688-2.7-10.425,0-15C-450.267,1224.148-445.345,1221.335-439.954,1221.335z
					 M-445.345,1215.71c-11.597,0-20.859-9.375-20.859-20.981c0-1.875,1.528-3.394,3.403-3.394h45.581
					c1.875,0,3.516,1.519,3.516,3.394c0,11.606-9.375,20.981-20.972,20.981H-445.345z"/>
			</g>
		</g>
	</g>
	<g id="text_96_00000167375759483890698050000014006083817812595861_">
		<g transform="translate(391.714513 716.473014)scale(0.3 -0.3)">
			<g>
				<path id="FontAwesome6Free-Solid-f007_00000034771587498711021830000016101095669420930236_" fill="#F3722C" d="
					M-439.954,1164.903c5.278,0,10.2,2.812,12.891,7.5c2.7,4.575,2.7,10.312,0,15c-2.691,4.575-7.613,7.5-12.891,7.5
					c-5.391,0-10.312-2.925-13.003-7.5c-2.7-4.688-2.7-10.425,0-15C-450.267,1167.716-445.345,1164.903-439.954,1164.903z
					 M-445.345,1159.278c-11.597,0-20.859-9.375-20.859-20.981c0-1.875,1.528-3.394,3.403-3.394h45.581
					c1.875,0,3.516,1.519,3.516,3.394c0,11.606-9.375,20.981-20.972,20.981H-445.345z"/>
			</g>
		</g>
	</g>
	<g id="text_97_00000130639663304456830910000008303937580408559488_">
		<g transform="translate(391.714513 674.149179)scale(0.3 -0.3)">
			<g>
				<path id="FontAwesome6Free-Solid-f007_00000075139529337490222040000013104344714181840557_" fill="#F3722C" d="
					M-439.954,1108.472c5.278,0,10.2,2.812,12.891,7.5c2.7,4.575,2.7,10.312,0,15c-2.691,4.575-7.613,7.5-12.891,7.5
					c-5.391,0-10.312-2.925-13.003-7.5c-2.7-4.688-2.7-10.425,0-15C-450.267,1111.284-445.345,1108.472-439.954,1108.472z
					 M-445.345,1102.847c-11.597,0-20.859-9.375-20.859-20.981c0-1.875,1.528-3.394,3.403-3.394h45.581
					c1.875,0,3.516,1.519,3.516,3.394c0,11.606-9.375,20.981-20.972,20.981H-445.345z"/>
			</g>
		</g>
	</g>
	<g id="text_98_00000167380562543799778480000013503840180650195110_">
		<g transform="translate(391.714513 631.825344)scale(0.3 -0.3)">
			<g>
				<path id="FontAwesome6Free-Solid-f007_00000087402060911634557830000003373602657263291833_" fill="#F3722C" d="
					M-439.954,1052.04c5.278,0,10.2,2.812,12.891,7.5c2.7,4.575,2.7,10.312,0,15c-2.691,4.575-7.613,7.5-12.891,7.5
					c-5.391,0-10.312-2.925-13.003-7.5c-2.7-4.688-2.7-10.425,0-15C-450.267,1054.852-445.345,1052.04-439.954,1052.04z
					 M-445.345,1046.415c-11.597,0-20.859-9.375-20.859-20.981c0-1.875,1.528-3.394,3.403-3.394h45.581
					c1.875,0,3.516,1.519,3.516,3.394c0,11.606-9.375,20.981-20.972,20.981H-445.345z"/>
			</g>
		</g>
	</g>
	<g id="text_99_00000072971502789710948010000015761967131832341690_">
		<g transform="translate(391.714513 589.50151)scale(0.3 -0.3)">
			<g>
				<path id="FontAwesome6Free-Solid-f007_00000049924012063045352840000016991310848729403826_" fill="#F3722C" d="
					M-439.954,995.608c5.278,0,10.2,2.812,12.891,7.5c2.7,4.575,2.7,10.312,0,15c-2.691,4.575-7.613,7.5-12.891,7.5
					c-5.391,0-10.312-2.925-13.003-7.5c-2.7-4.688-2.7-10.425,0-15C-450.267,998.421-445.345,995.608-439.954,995.608z
					 M-445.345,989.983c-11.597,0-20.859-9.375-20.859-20.981c0-1.875,1.528-3.394,3.403-3.394h45.581
					c1.875,0,3.516,1.519,3.516,3.394c0,11.606-9.375,20.981-20.972,20.981H-445.345z"/>
			</g>
		</g>
	</g>
	<g id="text_100_00000141456946297423143320000008538093104331249590_">
		<g transform="translate(391.714513 547.177675)scale(0.3 -0.3)">
			<g>
				<path id="FontAwesome6Free-Solid-f007_00000082357899098223193740000014487266670756104887_" fill="#F3722C" d="
					M-439.954,939.176c5.278,0,10.2,2.812,12.891,7.5c2.7,4.575,2.7,10.312,0,15c-2.691,4.575-7.613,7.5-12.891,7.5
					c-5.391,0-10.312-2.925-13.003-7.5c-2.7-4.688-2.7-10.425,0-15C-450.267,941.989-445.345,939.176-439.954,939.176z
					 M-445.345,933.551c-11.597,0-20.859-9.375-20.859-20.981c0-1.875,1.528-3.394,3.403-3.394h45.581
					c1.875,0,3.516,1.519,3.516,3.394c0,11.606-9.375,20.981-20.972,20.981H-445.345z"/>
			</g>
		</g>
	</g>
	<g id="text_102_00000110442276240946748300000009267286687004760973_">
		<g transform="translate(945.609375 264.725131)scale(0.1 -0.1)">
			<g>
				<path id="FontAwesome6Free-Solid-f007_00000028302665753842587380000015274546488693432965_" fill="#005F73" d="
					M-9182.217,871.062c8.225,0,15.895,4.383,20.088,11.688c4.207,7.129,4.207,16.07,0,23.375
					c-4.193,7.129-11.863,11.688-20.088,11.688c-8.4,0-16.07-4.558-20.264-11.688c-4.207-7.305-4.207-16.246,0-23.375
					C-9198.287,875.445-9190.617,871.062-9182.217,871.062z M-9190.617,862.297c-18.072,0-32.506-14.609-32.506-32.696
					c0-2.922,2.381-5.289,5.303-5.289h71.031c2.922,0,5.479,2.367,5.479,5.289c0,18.086-14.609,32.696-32.682,32.696H-9190.617z"/>
			</g>
		</g>
	</g>
	<g id="text_108_00000149343084708421148230000008651405403708090767_">
		<g transform="translate(945.609375 308.759506)scale(0.1 -0.1)">
			<g>
				<path id="FontAwesome6Free-Solid-f007_00000134958691644584042990000005092435013948400523_" fill="#F3722C" d="
					M-9182.217,964.163c8.225,0,15.895,4.383,20.088,11.688c4.207,7.129,4.207,16.07,0,23.375
					c-4.193,7.129-11.863,11.688-20.088,11.688c-8.4,0-16.07-4.558-20.264-11.688c-4.207-7.305-4.207-16.246,0-23.375
					C-9198.287,968.545-9190.617,964.163-9182.217,964.163z M-9190.617,955.397c-18.072,0-32.506-14.609-32.506-32.696
					c0-2.922,2.381-5.289,5.303-5.289h71.031c2.922,0,5.479,2.367,5.479,5.289c0,18.086-14.609,32.696-32.682,32.696H-9190.617z"/>
			</g>
		</g>
	</g>
	<g>
		<path d="M209.454,196.749c0.144,15.938,0.289,31.877,0.433,47.815"/>
		<g>
			<path fill="none" stroke="#000000" stroke-miterlimit="10" d="M209.454,196.749c0.123,13.585,0.246,27.17,0.369,40.755"/>
			<g>
				<polygon points="209.888,244.564 205.732,234.652 209.819,236.976 213.862,234.579 				"/>
			</g>
		</g>
	</g>
</g>
<style>
#g-lecturer_waffle-Artboard_3-interactive-img rect, #g-lecturer_waffle-Artboard_3-interactive-img circle, #g-lecturer_waffle-Artboard_3-interactive-img path, #g-lecturer_waffle-Artboard_3-interactive-img line, #g-lecturer_waffle-Artboard_3-interactive-img polyline, #g-lecturer_waffle-Artboard_3-interactive-img polygon { vector-effect: non-scaling-stroke; }
</style>
</svg>

