<?xml version="1.0" encoding="UTF-8"?>
<svg xmlns="http://www.w3.org/2000/svg" baseProfile="tiny" version="1.2" viewBox="0 0 300 643.5">
  <!-- Generator: Adobe Illustrator 28.7.1, SVG Export Plug-In . SVG Version: 1.2.0 Build 142)  -->
  <g>
    <g id="g-lecturer_waffle-Artboard_3-interactive-img">
      <g>
        <g id="text_1">
          <path id="FontAwesome6Free-Solid-f007" d="M31.18,493.973c1.583,0,3.06-.844,3.867-2.25.81-1.373.81-3.094,0-4.5-.807-1.373-2.284-2.25-3.867-2.25-1.617,0-3.094.878-3.901,2.25-.81,1.406-.81,3.128,0,4.5.807,1.406,2.284,2.25,3.901,2.25ZM29.562,495.661c-3.479,0-6.258,2.813-6.258,6.294,0,.563.458,1.018,1.021,1.018h13.674c.563,0,1.055-.456,1.055-1.018,0-3.482-2.813-6.294-6.292-6.294h-3.201Z" fill="#005f73"/>
        </g>
        <g id="text_2">
          <path id="FontAwesome6Free-Solid-f007-2" data-name="FontAwesome6Free-Solid-f007" d="M31.18,468.579c1.583,0,3.06-.844,3.867-2.25.81-1.373.81-3.094,0-4.5-.807-1.373-2.284-2.25-3.867-2.25-1.617,0-3.094.878-3.901,2.25-.81,1.406-.81,3.128,0,4.5.807,1.406,2.284,2.25,3.901,2.25ZM29.562,470.267c-3.479,0-6.258,2.813-6.258,6.294,0,.563.458,1.018,1.021,1.018h13.674c.563,0,1.055-.456,1.055-1.018,0-3.482-2.813-6.294-6.292-6.294h-3.201Z" fill="#005f73"/>
        </g>
        <g id="text_3">
          <path id="FontAwesome6Free-Solid-f007-3" data-name="FontAwesome6Free-Solid-f007" d="M31.18,443.185c1.583,0,3.06-.844,3.867-2.25.81-1.373.81-3.094,0-4.5-.807-1.373-2.284-2.25-3.867-2.25-1.617,0-3.094.878-3.901,2.25-.81,1.406-.81,3.128,0,4.5.807,1.406,2.284,2.25,3.901,2.25ZM29.562,444.872c-3.479,0-6.258,2.813-6.258,6.294,0,.563.458,1.018,1.021,1.018h13.674c.563,0,1.055-.456,1.055-1.018,0-3.482-2.813-6.294-6.292-6.294h-3.201Z" fill="#005f73"/>
        </g>
        <g id="text_4">
          <path id="FontAwesome6Free-Solid-f007-4" data-name="FontAwesome6Free-Solid-f007" d="M31.18,417.791c1.583,0,3.06-.844,3.867-2.25.81-1.373.81-3.094,0-4.5-.807-1.373-2.284-2.25-3.867-2.25-1.617,0-3.094.878-3.901,2.25-.81,1.406-.81,3.128,0,4.5.807,1.406,2.284,2.25,3.901,2.25ZM29.562,419.478c-3.479,0-6.258,2.813-6.258,6.294,0,.563.458,1.018,1.021,1.018h13.674c.563,0,1.055-.456,1.055-1.018,0-3.482-2.813-6.294-6.292-6.294h-3.201Z" fill="#005f73"/>
        </g>
        <g id="text_5">
          <path id="FontAwesome6Free-Solid-f007-5" data-name="FontAwesome6Free-Solid-f007" d="M31.18,392.396c1.583,0,3.06-.844,3.867-2.25.81-1.373.81-3.094,0-4.5-.807-1.373-2.284-2.25-3.867-2.25-1.617,0-3.094.878-3.901,2.25-.81,1.406-.81,3.128,0,4.5.807,1.406,2.284,2.25,3.901,2.25ZM29.562,394.084c-3.479,0-6.258,2.813-6.258,6.294,0,.563.458,1.018,1.021,1.018h13.674c.563,0,1.055-.456,1.055-1.018,0-3.482-2.813-6.294-6.292-6.294h-3.201Z" fill="#005f73"/>
        </g>
        <g id="text_6">
          <path id="FontAwesome6Free-Solid-f007-6" data-name="FontAwesome6Free-Solid-f007" d="M31.18,367.002c1.583,0,3.06-.844,3.867-2.25.81-1.373.81-3.094,0-4.5-.807-1.373-2.284-2.25-3.867-2.25-1.617,0-3.094.878-3.901,2.25-.81,1.406-.81,3.128,0,4.5.807,1.406,2.284,2.25,3.901,2.25ZM29.562,368.689c-3.479,0-6.258,2.813-6.258,6.294,0,.563.458,1.018,1.021,1.018h13.674c.563,0,1.055-.456,1.055-1.018,0-3.482-2.813-6.294-6.292-6.294h-3.201Z" fill="#005f73"/>
        </g>
        <g id="text_7">
          <path id="FontAwesome6Free-Solid-f007-7" data-name="FontAwesome6Free-Solid-f007" d="M31.18,341.608c1.583,0,3.06-.844,3.867-2.25.81-1.373.81-3.094,0-4.5-.807-1.373-2.284-2.25-3.867-2.25-1.617,0-3.094.878-3.901,2.25-.81,1.406-.81,3.128,0,4.5.807,1.406,2.284,2.25,3.901,2.25ZM29.562,343.295c-3.479,0-6.258,2.813-6.258,6.294,0,.563.458,1.018,1.021,1.018h13.674c.563,0,1.055-.456,1.055-1.018,0-3.482-2.813-6.294-6.292-6.294h-3.201Z" fill="#005f73"/>
        </g>
        <g id="text_8">
          <path id="FontAwesome6Free-Solid-f007-8" data-name="FontAwesome6Free-Solid-f007" d="M31.18,316.213c1.583,0,3.06-.844,3.867-2.25.81-1.373.81-3.094,0-4.5-.807-1.373-2.284-2.25-3.867-2.25-1.617,0-3.094.878-3.901,2.25-.81,1.406-.81,3.128,0,4.5.807,1.406,2.284,2.25,3.901,2.25ZM29.562,317.901c-3.479,0-6.258,2.813-6.258,6.294,0,.563.458,1.018,1.021,1.018h13.674c.563,0,1.055-.456,1.055-1.018,0-3.482-2.813-6.294-6.292-6.294h-3.201Z" fill="#005f73"/>
        </g>
        <g id="text_9">
          <path id="FontAwesome6Free-Solid-f007-9" data-name="FontAwesome6Free-Solid-f007" d="M31.18,290.819c1.583,0,3.06-.844,3.867-2.25.81-1.373.81-3.094,0-4.5-.807-1.373-2.284-2.25-3.867-2.25-1.617,0-3.094.878-3.901,2.25-.81,1.406-.81,3.128,0,4.5.807,1.406,2.284,2.25,3.901,2.25ZM29.562,292.507c-3.479,0-6.258,2.813-6.258,6.294,0,.563.458,1.018,1.021,1.018h13.674c.563,0,1.055-.456,1.055-1.018,0-3.482-2.813-6.294-6.292-6.294h-3.201Z" fill="#005f73"/>
        </g>
        <g id="text_10">
          <path id="FontAwesome6Free-Solid-f007-10" data-name="FontAwesome6Free-Solid-f007" d="M31.18,265.425c1.583,0,3.06-.844,3.867-2.25.81-1.373.81-3.094,0-4.5-.807-1.373-2.284-2.25-3.867-2.25-1.617,0-3.094.878-3.901,2.25-.81,1.406-.81,3.128,0,4.5.807,1.406,2.284,2.25,3.901,2.25ZM29.562,267.112c-3.479,0-6.258,2.813-6.258,6.294,0,.563.458,1.018,1.021,1.018h13.674c.563,0,1.055-.456,1.055-1.018,0-3.482-2.813-6.294-6.292-6.294h-3.201Z" fill="#005f73"/>
        </g>
        <g id="text_11">
          <path id="FontAwesome6Free-Solid-f007-11" data-name="FontAwesome6Free-Solid-f007" d="M56.574,493.973c1.583,0,3.06-.844,3.867-2.25.81-1.373.81-3.094,0-4.5-.807-1.373-2.284-2.25-3.867-2.25-1.617,0-3.094.878-3.901,2.25-.81,1.406-.81,3.128,0,4.5.807,1.406,2.284,2.25,3.901,2.25ZM54.957,495.661c-3.479,0-6.258,2.813-6.258,6.294,0,.563.458,1.018,1.021,1.018h13.674c.563,0,1.055-.456,1.055-1.018,0-3.482-2.813-6.294-6.292-6.294h-3.201Z" fill="#005f73"/>
        </g>
        <g id="text_12">
          <path id="FontAwesome6Free-Solid-f007-12" data-name="FontAwesome6Free-Solid-f007" d="M56.574,468.579c1.583,0,3.06-.844,3.867-2.25.81-1.373.81-3.094,0-4.5-.807-1.373-2.284-2.25-3.867-2.25-1.617,0-3.094.878-3.901,2.25-.81,1.406-.81,3.128,0,4.5.807,1.406,2.284,2.25,3.901,2.25ZM54.957,470.267c-3.479,0-6.258,2.813-6.258,6.294,0,.563.458,1.018,1.021,1.018h13.674c.563,0,1.055-.456,1.055-1.018,0-3.482-2.813-6.294-6.292-6.294h-3.201Z" fill="#005f73"/>
        </g>
        <g id="text_13">
          <path id="FontAwesome6Free-Solid-f007-13" data-name="FontAwesome6Free-Solid-f007" d="M56.574,443.185c1.583,0,3.06-.844,3.867-2.25.81-1.373.81-3.094,0-4.5-.807-1.373-2.284-2.25-3.867-2.25-1.617,0-3.094.878-3.901,2.25-.81,1.406-.81,3.128,0,4.5.807,1.406,2.284,2.25,3.901,2.25ZM54.957,444.872c-3.479,0-6.258,2.813-6.258,6.294,0,.563.458,1.018,1.021,1.018h13.674c.563,0,1.055-.456,1.055-1.018,0-3.482-2.813-6.294-6.292-6.294h-3.201Z" fill="#005f73"/>
        </g>
        <g id="text_14">
          <path id="FontAwesome6Free-Solid-f007-14" data-name="FontAwesome6Free-Solid-f007" d="M56.574,417.791c1.583,0,3.06-.844,3.867-2.25.81-1.373.81-3.094,0-4.5-.807-1.373-2.284-2.25-3.867-2.25-1.617,0-3.094.878-3.901,2.25-.81,1.406-.81,3.128,0,4.5.807,1.406,2.284,2.25,3.901,2.25ZM54.957,419.478c-3.479,0-6.258,2.813-6.258,6.294,0,.563.458,1.018,1.021,1.018h13.674c.563,0,1.055-.456,1.055-1.018,0-3.482-2.813-6.294-6.292-6.294h-3.201Z" fill="#005f73"/>
        </g>
        <g id="text_15">
          <path id="FontAwesome6Free-Solid-f007-15" data-name="FontAwesome6Free-Solid-f007" d="M56.574,392.396c1.583,0,3.06-.844,3.867-2.25.81-1.373.81-3.094,0-4.5-.807-1.373-2.284-2.25-3.867-2.25-1.617,0-3.094.878-3.901,2.25-.81,1.406-.81,3.128,0,4.5.807,1.406,2.284,2.25,3.901,2.25ZM54.957,394.084c-3.479,0-6.258,2.813-6.258,6.294,0,.563.458,1.018,1.021,1.018h13.674c.563,0,1.055-.456,1.055-1.018,0-3.482-2.813-6.294-6.292-6.294h-3.201Z" fill="#005f73"/>
        </g>
        <g id="text_16">
          <path id="FontAwesome6Free-Solid-f007-16" data-name="FontAwesome6Free-Solid-f007" d="M56.574,367.002c1.583,0,3.06-.844,3.867-2.25.81-1.373.81-3.094,0-4.5-.807-1.373-2.284-2.25-3.867-2.25-1.617,0-3.094.878-3.901,2.25-.81,1.406-.81,3.128,0,4.5.807,1.406,2.284,2.25,3.901,2.25ZM54.957,368.689c-3.479,0-6.258,2.813-6.258,6.294,0,.563.458,1.018,1.021,1.018h13.674c.563,0,1.055-.456,1.055-1.018,0-3.482-2.813-6.294-6.292-6.294h-3.201Z" fill="#005f73"/>
        </g>
        <g id="text_17">
          <path id="FontAwesome6Free-Solid-f007-17" data-name="FontAwesome6Free-Solid-f007" d="M56.574,341.608c1.583,0,3.06-.844,3.867-2.25.81-1.373.81-3.094,0-4.5-.807-1.373-2.284-2.25-3.867-2.25-1.617,0-3.094.878-3.901,2.25-.81,1.406-.81,3.128,0,4.5.807,1.406,2.284,2.25,3.901,2.25ZM54.957,343.295c-3.479,0-6.258,2.813-6.258,6.294,0,.563.458,1.018,1.021,1.018h13.674c.563,0,1.055-.456,1.055-1.018,0-3.482-2.813-6.294-6.292-6.294h-3.201Z" fill="#005f73"/>
        </g>
        <g id="text_18">
          <path id="FontAwesome6Free-Solid-f007-18" data-name="FontAwesome6Free-Solid-f007" d="M56.574,316.213c1.583,0,3.06-.844,3.867-2.25.81-1.373.81-3.094,0-4.5-.807-1.373-2.284-2.25-3.867-2.25-1.617,0-3.094.878-3.901,2.25-.81,1.406-.81,3.128,0,4.5.807,1.406,2.284,2.25,3.901,2.25ZM54.957,317.901c-3.479,0-6.258,2.813-6.258,6.294,0,.563.458,1.018,1.021,1.018h13.674c.563,0,1.055-.456,1.055-1.018,0-3.482-2.813-6.294-6.292-6.294h-3.201Z" fill="#005f73"/>
        </g>
        <g id="text_19">
          <path id="FontAwesome6Free-Solid-f007-19" data-name="FontAwesome6Free-Solid-f007" d="M56.574,290.819c1.583,0,3.06-.844,3.867-2.25.81-1.373.81-3.094,0-4.5-.807-1.373-2.284-2.25-3.867-2.25-1.617,0-3.094.878-3.901,2.25-.81,1.406-.81,3.128,0,4.5.807,1.406,2.284,2.25,3.901,2.25ZM54.957,292.507c-3.479,0-6.258,2.813-6.258,6.294,0,.563.458,1.018,1.021,1.018h13.674c.563,0,1.055-.456,1.055-1.018,0-3.482-2.813-6.294-6.292-6.294h-3.201Z" fill="#005f73"/>
        </g>
        <g id="text_20">
          <path id="FontAwesome6Free-Solid-f007-20" data-name="FontAwesome6Free-Solid-f007" d="M56.574,265.425c1.583,0,3.06-.844,3.867-2.25.81-1.373.81-3.094,0-4.5-.807-1.373-2.284-2.25-3.867-2.25-1.617,0-3.094.878-3.901,2.25-.81,1.406-.81,3.128,0,4.5.807,1.406,2.284,2.25,3.901,2.25ZM54.957,267.112c-3.479,0-6.258,2.813-6.258,6.294,0,.563.458,1.018,1.021,1.018h13.674c.563,0,1.055-.456,1.055-1.018,0-3.482-2.813-6.294-6.292-6.294h-3.201Z" fill="#005f73"/>
        </g>
        <g id="text_21">
          <path id="FontAwesome6Free-Solid-f007-21" data-name="FontAwesome6Free-Solid-f007" d="M81.968,493.973c1.583,0,3.06-.844,3.867-2.25.81-1.373.81-3.094,0-4.5-.807-1.373-2.284-2.25-3.867-2.25-1.617,0-3.094.878-3.901,2.25-.81,1.406-.81,3.128,0,4.5.807,1.406,2.284,2.25,3.901,2.25ZM80.351,495.661c-3.479,0-6.258,2.813-6.258,6.294,0,.563.458,1.018,1.021,1.018h13.674c.563,0,1.055-.456,1.055-1.018,0-3.482-2.813-6.294-6.292-6.294h-3.201Z" fill="#005f73"/>
        </g>
        <g id="text_22">
          <path id="FontAwesome6Free-Solid-f007-22" data-name="FontAwesome6Free-Solid-f007" d="M81.968,468.579c1.583,0,3.06-.844,3.867-2.25.81-1.373.81-3.094,0-4.5-.807-1.373-2.284-2.25-3.867-2.25-1.617,0-3.094.878-3.901,2.25-.81,1.406-.81,3.128,0,4.5.807,1.406,2.284,2.25,3.901,2.25ZM80.351,470.267c-3.479,0-6.258,2.813-6.258,6.294,0,.563.458,1.018,1.021,1.018h13.674c.563,0,1.055-.456,1.055-1.018,0-3.482-2.813-6.294-6.292-6.294h-3.201Z" fill="#005f73"/>
        </g>
        <g id="text_23">
          <path id="FontAwesome6Free-Solid-f007-23" data-name="FontAwesome6Free-Solid-f007" d="M81.968,443.185c1.583,0,3.06-.844,3.867-2.25.81-1.373.81-3.094,0-4.5-.807-1.373-2.284-2.25-3.867-2.25-1.617,0-3.094.878-3.901,2.25-.81,1.406-.81,3.128,0,4.5.807,1.406,2.284,2.25,3.901,2.25ZM80.351,444.872c-3.479,0-6.258,2.813-6.258,6.294,0,.563.458,1.018,1.021,1.018h13.674c.563,0,1.055-.456,1.055-1.018,0-3.482-2.813-6.294-6.292-6.294h-3.201Z" fill="#005f73"/>
        </g>
        <g id="text_24">
          <path id="FontAwesome6Free-Solid-f007-24" data-name="FontAwesome6Free-Solid-f007" d="M81.968,417.791c1.583,0,3.06-.844,3.867-2.25.81-1.373.81-3.094,0-4.5-.807-1.373-2.284-2.25-3.867-2.25-1.617,0-3.094.878-3.901,2.25-.81,1.406-.81,3.128,0,4.5.807,1.406,2.284,2.25,3.901,2.25ZM80.351,419.478c-3.479,0-6.258,2.813-6.258,6.294,0,.563.458,1.018,1.021,1.018h13.674c.563,0,1.055-.456,1.055-1.018,0-3.482-2.813-6.294-6.292-6.294h-3.201Z" fill="#005f73"/>
        </g>
        <g id="text_25">
          <path id="FontAwesome6Free-Solid-f007-25" data-name="FontAwesome6Free-Solid-f007" d="M81.968,392.396c1.583,0,3.06-.844,3.867-2.25.81-1.373.81-3.094,0-4.5-.807-1.373-2.284-2.25-3.867-2.25-1.617,0-3.094.878-3.901,2.25-.81,1.406-.81,3.128,0,4.5.807,1.406,2.284,2.25,3.901,2.25ZM80.351,394.084c-3.479,0-6.258,2.813-6.258,6.294,0,.563.458,1.018,1.021,1.018h13.674c.563,0,1.055-.456,1.055-1.018,0-3.482-2.813-6.294-6.292-6.294h-3.201Z" fill="#005f73"/>
        </g>
        <g id="text_26">
          <path id="FontAwesome6Free-Solid-f007-26" data-name="FontAwesome6Free-Solid-f007" d="M81.968,367.002c1.583,0,3.06-.844,3.867-2.25.81-1.373.81-3.094,0-4.5-.807-1.373-2.284-2.25-3.867-2.25-1.617,0-3.094.878-3.901,2.25-.81,1.406-.81,3.128,0,4.5.807,1.406,2.284,2.25,3.901,2.25ZM80.351,368.689c-3.479,0-6.258,2.813-6.258,6.294,0,.563.458,1.018,1.021,1.018h13.674c.563,0,1.055-.456,1.055-1.018,0-3.482-2.813-6.294-6.292-6.294h-3.201Z" fill="#005f73"/>
        </g>
        <g id="text_27">
          <path id="FontAwesome6Free-Solid-f007-27" data-name="FontAwesome6Free-Solid-f007" d="M81.968,341.608c1.583,0,3.06-.844,3.867-2.25.81-1.373.81-3.094,0-4.5-.807-1.373-2.284-2.25-3.867-2.25-1.617,0-3.094.878-3.901,2.25-.81,1.406-.81,3.128,0,4.5.807,1.406,2.284,2.25,3.901,2.25ZM80.351,343.295c-3.479,0-6.258,2.813-6.258,6.294,0,.563.458,1.018,1.021,1.018h13.674c.563,0,1.055-.456,1.055-1.018,0-3.482-2.813-6.294-6.292-6.294h-3.201Z" fill="#005f73"/>
        </g>
        <g id="text_28">
          <path id="FontAwesome6Free-Solid-f007-28" data-name="FontAwesome6Free-Solid-f007" d="M81.968,316.213c1.583,0,3.06-.844,3.867-2.25.81-1.373.81-3.094,0-4.5-.807-1.373-2.284-2.25-3.867-2.25-1.617,0-3.094.878-3.901,2.25-.81,1.406-.81,3.128,0,4.5.807,1.406,2.284,2.25,3.901,2.25ZM80.351,317.901c-3.479,0-6.258,2.813-6.258,6.294,0,.563.458,1.018,1.021,1.018h13.674c.563,0,1.055-.456,1.055-1.018,0-3.482-2.813-6.294-6.292-6.294h-3.201Z" fill="#005f73"/>
        </g>
        <g id="text_29">
          <path id="FontAwesome6Free-Solid-f007-29" data-name="FontAwesome6Free-Solid-f007" d="M81.968,290.819c1.583,0,3.06-.844,3.867-2.25.81-1.373.81-3.094,0-4.5-.807-1.373-2.284-2.25-3.867-2.25-1.617,0-3.094.878-3.901,2.25-.81,1.406-.81,3.128,0,4.5.807,1.406,2.284,2.25,3.901,2.25ZM80.351,292.507c-3.479,0-6.258,2.813-6.258,6.294,0,.563.458,1.018,1.021,1.018h13.674c.563,0,1.055-.456,1.055-1.018,0-3.482-2.813-6.294-6.292-6.294h-3.201Z" fill="#005f73"/>
        </g>
        <g id="text_30">
          <path id="FontAwesome6Free-Solid-f007-30" data-name="FontAwesome6Free-Solid-f007" d="M81.968,265.425c1.583,0,3.06-.844,3.867-2.25.81-1.373.81-3.094,0-4.5-.807-1.373-2.284-2.25-3.867-2.25-1.617,0-3.094.878-3.901,2.25-.81,1.406-.81,3.128,0,4.5.807,1.406,2.284,2.25,3.901,2.25ZM80.351,267.112c-3.479,0-6.258,2.813-6.258,6.294,0,.563.458,1.018,1.021,1.018h13.674c.563,0,1.055-.456,1.055-1.018,0-3.482-2.813-6.294-6.292-6.294h-3.201Z" fill="#005f73"/>
        </g>
        <g id="text_31">
          <path id="FontAwesome6Free-Solid-f007-31" data-name="FontAwesome6Free-Solid-f007" d="M107.362,493.973c1.583,0,3.06-.844,3.867-2.25.81-1.373.81-3.094,0-4.5-.807-1.373-2.284-2.25-3.867-2.25-1.617,0-3.094.878-3.901,2.25-.81,1.406-.81,3.128,0,4.5.807,1.406,2.284,2.25,3.901,2.25ZM105.745,495.661c-3.479,0-6.258,2.813-6.258,6.294,0,.563.458,1.018,1.021,1.018h13.674c.563,0,1.055-.456,1.055-1.018,0-3.482-2.813-6.294-6.292-6.294h-3.201Z" fill="#005f73"/>
        </g>
        <g id="text_32">
          <path id="FontAwesome6Free-Solid-f007-32" data-name="FontAwesome6Free-Solid-f007" d="M107.362,468.579c1.583,0,3.06-.844,3.867-2.25.81-1.373.81-3.094,0-4.5-.807-1.373-2.284-2.25-3.867-2.25-1.617,0-3.094.878-3.901,2.25-.81,1.406-.81,3.128,0,4.5.807,1.406,2.284,2.25,3.901,2.25ZM105.745,470.267c-3.479,0-6.258,2.813-6.258,6.294,0,.563.458,1.018,1.021,1.018h13.674c.563,0,1.055-.456,1.055-1.018,0-3.482-2.813-6.294-6.292-6.294h-3.201Z" fill="#005f73"/>
        </g>
        <g id="text_33">
          <path id="FontAwesome6Free-Solid-f007-33" data-name="FontAwesome6Free-Solid-f007" d="M107.362,443.185c1.583,0,3.06-.844,3.867-2.25.81-1.373.81-3.094,0-4.5-.807-1.373-2.284-2.25-3.867-2.25-1.617,0-3.094.878-3.901,2.25-.81,1.406-.81,3.128,0,4.5.807,1.406,2.284,2.25,3.901,2.25ZM105.745,444.872c-3.479,0-6.258,2.813-6.258,6.294,0,.563.458,1.018,1.021,1.018h13.674c.563,0,1.055-.456,1.055-1.018,0-3.482-2.813-6.294-6.292-6.294h-3.201Z" fill="#005f73"/>
        </g>
        <g id="text_34">
          <path id="FontAwesome6Free-Solid-f007-34" data-name="FontAwesome6Free-Solid-f007" d="M107.362,417.791c1.583,0,3.06-.844,3.867-2.25.81-1.373.81-3.094,0-4.5-.807-1.373-2.284-2.25-3.867-2.25-1.617,0-3.094.878-3.901,2.25-.81,1.406-.81,3.128,0,4.5.807,1.406,2.284,2.25,3.901,2.25ZM105.745,419.478c-3.479,0-6.258,2.813-6.258,6.294,0,.563.458,1.018,1.021,1.018h13.674c.563,0,1.055-.456,1.055-1.018,0-3.482-2.813-6.294-6.292-6.294h-3.201Z" fill="#005f73"/>
        </g>
        <g id="text_35">
          <path id="FontAwesome6Free-Solid-f007-35" data-name="FontAwesome6Free-Solid-f007" d="M107.362,392.396c1.583,0,3.06-.844,3.867-2.25.81-1.373.81-3.094,0-4.5-.807-1.373-2.284-2.25-3.867-2.25-1.617,0-3.094.878-3.901,2.25-.81,1.406-.81,3.128,0,4.5.807,1.406,2.284,2.25,3.901,2.25ZM105.745,394.084c-3.479,0-6.258,2.813-6.258,6.294,0,.563.458,1.018,1.021,1.018h13.674c.563,0,1.055-.456,1.055-1.018,0-3.482-2.813-6.294-6.292-6.294h-3.201Z" fill="#005f73"/>
        </g>
        <g id="text_36">
          <path id="FontAwesome6Free-Solid-f007-36" data-name="FontAwesome6Free-Solid-f007" d="M107.362,367.002c1.583,0,3.06-.844,3.867-2.25.81-1.373.81-3.094,0-4.5-.807-1.373-2.284-2.25-3.867-2.25-1.617,0-3.094.878-3.901,2.25-.81,1.406-.81,3.128,0,4.5.807,1.406,2.284,2.25,3.901,2.25ZM105.745,368.689c-3.479,0-6.258,2.813-6.258,6.294,0,.563.458,1.018,1.021,1.018h13.674c.563,0,1.055-.456,1.055-1.018,0-3.482-2.813-6.294-6.292-6.294h-3.201Z" fill="#005f73"/>
        </g>
        <g id="text_37">
          <path id="FontAwesome6Free-Solid-f007-37" data-name="FontAwesome6Free-Solid-f007" d="M107.362,341.608c1.583,0,3.06-.844,3.867-2.25.81-1.373.81-3.094,0-4.5-.807-1.373-2.284-2.25-3.867-2.25-1.617,0-3.094.878-3.901,2.25-.81,1.406-.81,3.128,0,4.5.807,1.406,2.284,2.25,3.901,2.25ZM105.745,343.295c-3.479,0-6.258,2.813-6.258,6.294,0,.563.458,1.018,1.021,1.018h13.674c.563,0,1.055-.456,1.055-1.018,0-3.482-2.813-6.294-6.292-6.294h-3.201Z" fill="#005f73"/>
        </g>
        <g id="text_38">
          <path id="FontAwesome6Free-Solid-f007-38" data-name="FontAwesome6Free-Solid-f007" d="M107.362,316.213c1.583,0,3.06-.844,3.867-2.25.81-1.373.81-3.094,0-4.5-.807-1.373-2.284-2.25-3.867-2.25-1.617,0-3.094.878-3.901,2.25-.81,1.406-.81,3.128,0,4.5.807,1.406,2.284,2.25,3.901,2.25ZM105.745,317.901c-3.479,0-6.258,2.813-6.258,6.294,0,.563.458,1.018,1.021,1.018h13.674c.563,0,1.055-.456,1.055-1.018,0-3.482-2.813-6.294-6.292-6.294h-3.201Z" fill="#005f73"/>
        </g>
        <g id="text_39">
          <path id="FontAwesome6Free-Solid-f007-39" data-name="FontAwesome6Free-Solid-f007" d="M107.362,290.819c1.583,0,3.06-.844,3.867-2.25.81-1.373.81-3.094,0-4.5-.807-1.373-2.284-2.25-3.867-2.25-1.617,0-3.094.878-3.901,2.25-.81,1.406-.81,3.128,0,4.5.807,1.406,2.284,2.25,3.901,2.25ZM105.745,292.507c-3.479,0-6.258,2.813-6.258,6.294,0,.563.458,1.018,1.021,1.018h13.674c.563,0,1.055-.456,1.055-1.018,0-3.482-2.813-6.294-6.292-6.294h-3.201Z" fill="#005f73"/>
        </g>
        <g id="text_40">
          <path id="FontAwesome6Free-Solid-f007-40" data-name="FontAwesome6Free-Solid-f007" d="M107.362,265.425c1.583,0,3.06-.844,3.867-2.25.81-1.373.81-3.094,0-4.5-.807-1.373-2.284-2.25-3.867-2.25-1.617,0-3.094.878-3.901,2.25-.81,1.406-.81,3.128,0,4.5.807,1.406,2.284,2.25,3.901,2.25ZM105.745,267.112c-3.479,0-6.258,2.813-6.258,6.294,0,.563.458,1.018,1.021,1.018h13.674c.563,0,1.055-.456,1.055-1.018,0-3.482-2.813-6.294-6.292-6.294h-3.201Z" fill="#005f73"/>
        </g>
        <g id="text_41">
          <path id="FontAwesome6Free-Solid-f007-41" data-name="FontAwesome6Free-Solid-f007" d="M132.757,493.973c1.583,0,3.06-.844,3.867-2.25.81-1.373.81-3.094,0-4.5-.807-1.373-2.284-2.25-3.867-2.25-1.617,0-3.094.878-3.901,2.25-.81,1.406-.81,3.128,0,4.5.807,1.406,2.284,2.25,3.901,2.25ZM131.14,495.661c-3.479,0-6.258,2.813-6.258,6.294,0,.563.458,1.018,1.021,1.018h13.674c.563,0,1.055-.456,1.055-1.018,0-3.482-2.813-6.294-6.292-6.294h-3.201Z" fill="#005f73"/>
        </g>
        <g id="text_42">
          <path id="FontAwesome6Free-Solid-f007-42" data-name="FontAwesome6Free-Solid-f007" d="M132.757,468.579c1.583,0,3.06-.844,3.867-2.25.81-1.373.81-3.094,0-4.5-.807-1.373-2.284-2.25-3.867-2.25-1.617,0-3.094.878-3.901,2.25-.81,1.406-.81,3.128,0,4.5.807,1.406,2.284,2.25,3.901,2.25ZM131.14,470.267c-3.479,0-6.258,2.813-6.258,6.294,0,.563.458,1.018,1.021,1.018h13.674c.563,0,1.055-.456,1.055-1.018,0-3.482-2.813-6.294-6.292-6.294h-3.201Z" fill="#005f73"/>
        </g>
        <g id="text_43">
          <path id="FontAwesome6Free-Solid-f007-43" data-name="FontAwesome6Free-Solid-f007" d="M132.757,443.185c1.583,0,3.06-.844,3.867-2.25.81-1.373.81-3.094,0-4.5-.807-1.373-2.284-2.25-3.867-2.25-1.617,0-3.094.878-3.901,2.25-.81,1.406-.81,3.128,0,4.5.807,1.406,2.284,2.25,3.901,2.25ZM131.14,444.872c-3.479,0-6.258,2.813-6.258,6.294,0,.563.458,1.018,1.021,1.018h13.674c.563,0,1.055-.456,1.055-1.018,0-3.482-2.813-6.294-6.292-6.294h-3.201Z" fill="#005f73"/>
        </g>
        <g id="text_44">
          <path id="FontAwesome6Free-Solid-f007-44" data-name="FontAwesome6Free-Solid-f007" d="M132.757,417.791c1.583,0,3.06-.844,3.867-2.25.81-1.373.81-3.094,0-4.5-.807-1.373-2.284-2.25-3.867-2.25-1.617,0-3.094.878-3.901,2.25-.81,1.406-.81,3.128,0,4.5.807,1.406,2.284,2.25,3.901,2.25ZM131.14,419.478c-3.479,0-6.258,2.813-6.258,6.294,0,.563.458,1.018,1.021,1.018h13.674c.563,0,1.055-.456,1.055-1.018,0-3.482-2.813-6.294-6.292-6.294h-3.201Z" fill="#005f73"/>
        </g>
        <g id="text_45">
          <path id="FontAwesome6Free-Solid-f007-45" data-name="FontAwesome6Free-Solid-f007" d="M132.757,392.396c1.583,0,3.06-.844,3.867-2.25.81-1.373.81-3.094,0-4.5-.807-1.373-2.284-2.25-3.867-2.25-1.617,0-3.094.878-3.901,2.25-.81,1.406-.81,3.128,0,4.5.807,1.406,2.284,2.25,3.901,2.25ZM131.14,394.084c-3.479,0-6.258,2.813-6.258,6.294,0,.563.458,1.018,1.021,1.018h13.674c.563,0,1.055-.456,1.055-1.018,0-3.482-2.813-6.294-6.292-6.294h-3.201Z" fill="#005f73"/>
        </g>
        <g id="text_46">
          <path id="FontAwesome6Free-Solid-f007-46" data-name="FontAwesome6Free-Solid-f007" d="M132.757,367.002c1.583,0,3.06-.844,3.867-2.25.81-1.373.81-3.094,0-4.5-.807-1.373-2.284-2.25-3.867-2.25-1.617,0-3.094.878-3.901,2.25-.81,1.406-.81,3.128,0,4.5.807,1.406,2.284,2.25,3.901,2.25ZM131.14,368.689c-3.479,0-6.258,2.813-6.258,6.294,0,.563.458,1.018,1.021,1.018h13.674c.563,0,1.055-.456,1.055-1.018,0-3.482-2.813-6.294-6.292-6.294h-3.201Z" fill="#005f73"/>
        </g>
        <g id="text_47">
          <path id="FontAwesome6Free-Solid-f007-47" data-name="FontAwesome6Free-Solid-f007" d="M132.757,341.608c1.583,0,3.06-.844,3.867-2.25.81-1.373.81-3.094,0-4.5-.807-1.373-2.284-2.25-3.867-2.25-1.617,0-3.094.878-3.901,2.25-.81,1.406-.81,3.128,0,4.5.807,1.406,2.284,2.25,3.901,2.25ZM131.14,343.295c-3.479,0-6.258,2.813-6.258,6.294,0,.563.458,1.018,1.021,1.018h13.674c.563,0,1.055-.456,1.055-1.018,0-3.482-2.813-6.294-6.292-6.294h-3.201Z" fill="#005f73"/>
        </g>
        <g id="text_48">
          <path id="FontAwesome6Free-Solid-f007-48" data-name="FontAwesome6Free-Solid-f007" d="M132.757,316.213c1.583,0,3.06-.844,3.867-2.25.81-1.373.81-3.094,0-4.5-.807-1.373-2.284-2.25-3.867-2.25-1.617,0-3.094.878-3.901,2.25-.81,1.406-.81,3.128,0,4.5.807,1.406,2.284,2.25,3.901,2.25ZM131.14,317.901c-3.479,0-6.258,2.813-6.258,6.294,0,.563.458,1.018,1.021,1.018h13.674c.563,0,1.055-.456,1.055-1.018,0-3.482-2.813-6.294-6.292-6.294h-3.201Z" fill="#005f73"/>
        </g>
        <g id="text_49">
          <path id="FontAwesome6Free-Solid-f007-49" data-name="FontAwesome6Free-Solid-f007" d="M132.757,290.819c1.583,0,3.06-.844,3.867-2.25.81-1.373.81-3.094,0-4.5-.807-1.373-2.284-2.25-3.867-2.25-1.617,0-3.094.878-3.901,2.25-.81,1.406-.81,3.128,0,4.5.807,1.406,2.284,2.25,3.901,2.25ZM131.14,292.507c-3.479,0-6.258,2.813-6.258,6.294,0,.563.458,1.018,1.021,1.018h13.674c.563,0,1.055-.456,1.055-1.018,0-3.482-2.813-6.294-6.292-6.294h-3.201Z" fill="#005f73"/>
        </g>
        <g id="text_50">
          <path id="FontAwesome6Free-Solid-f007-50" data-name="FontAwesome6Free-Solid-f007" d="M132.757,265.425c1.583,0,3.06-.844,3.867-2.25.81-1.373.81-3.094,0-4.5-.807-1.373-2.284-2.25-3.867-2.25-1.617,0-3.094.878-3.901,2.25-.81,1.406-.81,3.128,0,4.5.807,1.406,2.284,2.25,3.901,2.25ZM131.14,267.112c-3.479,0-6.258,2.813-6.258,6.294,0,.563.458,1.018,1.021,1.018h13.674c.563,0,1.055-.456,1.055-1.018,0-3.482-2.813-6.294-6.292-6.294h-3.201Z" fill="#005f73"/>
        </g>
        <g id="text_51">
          <path id="FontAwesome6Free-Solid-f007-51" data-name="FontAwesome6Free-Solid-f007" d="M158.151,493.973c1.583,0,3.06-.844,3.867-2.25.81-1.373.81-3.094,0-4.5-.807-1.373-2.284-2.25-3.867-2.25-1.617,0-3.094.878-3.901,2.25-.81,1.406-.81,3.128,0,4.5.807,1.406,2.284,2.25,3.901,2.25ZM156.534,495.661c-3.479,0-6.258,2.813-6.258,6.294,0,.563.458,1.018,1.021,1.018h13.674c.563,0,1.055-.456,1.055-1.018,0-3.482-2.813-6.294-6.292-6.294h-3.201Z" fill="#005f73"/>
        </g>
        <g id="text_62">
          <path id="FontAwesome6Free-Solid-f007-52" data-name="FontAwesome6Free-Solid-f007" d="M183.545,468.579c1.583,0,3.06-.844,3.867-2.25.81-1.373.81-3.094,0-4.5-.807-1.373-2.284-2.25-3.867-2.25-1.617,0-3.094.878-3.901,2.25-.81,1.406-.81,3.128,0,4.5.807,1.406,2.284,2.25,3.901,2.25ZM181.928,470.267c-3.479,0-6.258,2.813-6.258,6.294,0,.563.458,1.018,1.021,1.018h13.674c.563,0,1.055-.456,1.055-1.018,0-3.482-2.813-6.294-6.292-6.294h-3.201Z" fill="#005f73"/>
        </g>
        <g>
          <g id="text_52">
            <path id="FontAwesome6Free-Solid-f007-53" data-name="FontAwesome6Free-Solid-f007" d="M158.151,468.579c1.583,0,3.06-.844,3.867-2.25.81-1.373.81-3.094,0-4.5-.807-1.373-2.284-2.25-3.867-2.25-1.617,0-3.094.878-3.901,2.25-.81,1.406-.81,3.128,0,4.5.807,1.406,2.284,2.25,3.901,2.25ZM156.534,470.267c-3.479,0-6.258,2.813-6.258,6.294,0,.563.458,1.018,1.021,1.018h13.674c.563,0,1.055-.456,1.055-1.018,0-3.482-2.813-6.294-6.292-6.294h-3.201Z" fill="#005f73"/>
          </g>
          <g id="text_53">
            <path id="FontAwesome6Free-Solid-f007-54" data-name="FontAwesome6Free-Solid-f007" d="M158.151,443.185c1.583,0,3.06-.844,3.867-2.25.81-1.373.81-3.094,0-4.5-.807-1.373-2.284-2.25-3.867-2.25-1.617,0-3.094.878-3.901,2.25-.81,1.406-.81,3.128,0,4.5.807,1.406,2.284,2.25,3.901,2.25ZM156.534,444.872c-3.479,0-6.258,2.813-6.258,6.294,0,.563.458,1.018,1.021,1.018h13.674c.563,0,1.055-.456,1.055-1.018,0-3.482-2.813-6.294-6.292-6.294h-3.201Z" fill="#005f73"/>
          </g>
          <g id="text_54">
            <path id="FontAwesome6Free-Solid-f007-55" data-name="FontAwesome6Free-Solid-f007" d="M158.151,417.791c1.583,0,3.06-.844,3.867-2.25.81-1.373.81-3.094,0-4.5-.807-1.373-2.284-2.25-3.867-2.25-1.617,0-3.094.878-3.901,2.25-.81,1.406-.81,3.128,0,4.5.807,1.406,2.284,2.25,3.901,2.25ZM156.534,419.478c-3.479,0-6.258,2.813-6.258,6.294,0,.563.458,1.018,1.021,1.018h13.674c.563,0,1.055-.456,1.055-1.018,0-3.482-2.813-6.294-6.292-6.294h-3.201Z" fill="#005f73"/>
          </g>
          <g id="text_55">
            <path id="FontAwesome6Free-Solid-f007-56" data-name="FontAwesome6Free-Solid-f007" d="M158.151,392.396c1.583,0,3.06-.844,3.867-2.25.81-1.373.81-3.094,0-4.5-.807-1.373-2.284-2.25-3.867-2.25-1.617,0-3.094.878-3.901,2.25-.81,1.406-.81,3.128,0,4.5.807,1.406,2.284,2.25,3.901,2.25ZM156.534,394.084c-3.479,0-6.258,2.813-6.258,6.294,0,.563.458,1.018,1.021,1.018h13.674c.563,0,1.055-.456,1.055-1.018,0-3.482-2.813-6.294-6.292-6.294h-3.201Z" fill="#005f73"/>
          </g>
          <g id="text_56">
            <path id="FontAwesome6Free-Solid-f007-57" data-name="FontAwesome6Free-Solid-f007" d="M158.151,367.002c1.583,0,3.06-.844,3.867-2.25.81-1.373.81-3.094,0-4.5-.807-1.373-2.284-2.25-3.867-2.25-1.617,0-3.094.878-3.901,2.25-.81,1.406-.81,3.128,0,4.5.807,1.406,2.284,2.25,3.901,2.25ZM156.534,368.689c-3.479,0-6.258,2.813-6.258,6.294,0,.563.458,1.018,1.021,1.018h13.674c.563,0,1.055-.456,1.055-1.018,0-3.482-2.813-6.294-6.292-6.294h-3.201Z" fill="#005f73"/>
          </g>
          <g id="text_57">
            <path id="FontAwesome6Free-Solid-f007-58" data-name="FontAwesome6Free-Solid-f007" d="M158.151,341.608c1.583,0,3.06-.844,3.867-2.25.81-1.373.81-3.094,0-4.5-.807-1.373-2.284-2.25-3.867-2.25-1.617,0-3.094.878-3.901,2.25-.81,1.406-.81,3.128,0,4.5.807,1.406,2.284,2.25,3.901,2.25ZM156.534,343.295c-3.479,0-6.258,2.813-6.258,6.294,0,.563.458,1.018,1.021,1.018h13.674c.563,0,1.055-.456,1.055-1.018,0-3.482-2.813-6.294-6.292-6.294h-3.201Z" fill="#005f73"/>
          </g>
          <g id="text_58">
            <path id="FontAwesome6Free-Solid-f007-59" data-name="FontAwesome6Free-Solid-f007" d="M158.151,316.213c1.583,0,3.06-.844,3.867-2.25.81-1.373.81-3.094,0-4.5-.807-1.373-2.284-2.25-3.867-2.25-1.617,0-3.094.878-3.901,2.25-.81,1.406-.81,3.128,0,4.5.807,1.406,2.284,2.25,3.901,2.25ZM156.534,317.901c-3.479,0-6.258,2.813-6.258,6.294,0,.563.458,1.018,1.021,1.018h13.674c.563,0,1.055-.456,1.055-1.018,0-3.482-2.813-6.294-6.292-6.294h-3.201Z" fill="#005f73"/>
          </g>
          <g id="text_59">
            <path id="FontAwesome6Free-Solid-f007-60" data-name="FontAwesome6Free-Solid-f007" d="M158.151,290.819c1.583,0,3.06-.844,3.867-2.25.81-1.373.81-3.094,0-4.5-.807-1.373-2.284-2.25-3.867-2.25-1.617,0-3.094.878-3.901,2.25-.81,1.406-.81,3.128,0,4.5.807,1.406,2.284,2.25,3.901,2.25ZM156.534,292.507c-3.479,0-6.258,2.813-6.258,6.294,0,.563.458,1.018,1.021,1.018h13.674c.563,0,1.055-.456,1.055-1.018,0-3.482-2.813-6.294-6.292-6.294h-3.201Z" fill="#005f73"/>
          </g>
          <g id="text_60">
            <path id="FontAwesome6Free-Solid-f007-61" data-name="FontAwesome6Free-Solid-f007" d="M158.151,265.425c1.583,0,3.06-.844,3.867-2.25.81-1.373.81-3.094,0-4.5-.807-1.373-2.284-2.25-3.867-2.25-1.617,0-3.094.878-3.901,2.25-.81,1.406-.81,3.128,0,4.5.807,1.406,2.284,2.25,3.901,2.25ZM156.534,267.112c-3.479,0-6.258,2.813-6.258,6.294,0,.563.458,1.018,1.021,1.018h13.674c.563,0,1.055-.456,1.055-1.018,0-3.482-2.813-6.294-6.292-6.294h-3.201Z" fill="#005f73"/>
          </g>
          <g id="text_61">
            <path id="FontAwesome6Free-Solid-f007-62" data-name="FontAwesome6Free-Solid-f007" d="M183.545,493.973c1.583,0,3.06-.844,3.867-2.25.81-1.373.81-3.094,0-4.5-.807-1.373-2.284-2.25-3.867-2.25-1.617,0-3.094.878-3.901,2.25-.81,1.406-.81,3.128,0,4.5.807,1.406,2.284,2.25,3.901,2.25ZM181.928,495.661c-3.479,0-6.258,2.813-6.258,6.294,0,.563.458,1.018,1.021,1.018h13.674c.563,0,1.055-.456,1.055-1.018,0-3.482-2.813-6.294-6.292-6.294h-3.201Z" fill="#005f73"/>
          </g>
          <g id="text_63">
            <path id="FontAwesome6Free-Solid-f007-63" data-name="FontAwesome6Free-Solid-f007" d="M183.545,443.185c1.583,0,3.06-.844,3.867-2.25.81-1.373.81-3.094,0-4.5-.807-1.373-2.284-2.25-3.867-2.25-1.617,0-3.094.878-3.901,2.25-.81,1.406-.81,3.128,0,4.5.807,1.406,2.284,2.25,3.901,2.25ZM181.928,444.872c-3.479,0-6.258,2.813-6.258,6.294,0,.563.458,1.018,1.021,1.018h13.674c.563,0,1.055-.456,1.055-1.018,0-3.482-2.813-6.294-6.292-6.294h-3.201Z" fill="#005f73"/>
          </g>
          <g id="text_64">
            <path id="FontAwesome6Free-Solid-f007-64" data-name="FontAwesome6Free-Solid-f007" d="M183.545,417.791c1.583,0,3.06-.844,3.867-2.25.81-1.373.81-3.094,0-4.5-.807-1.373-2.284-2.25-3.867-2.25-1.617,0-3.094.878-3.901,2.25-.81,1.406-.81,3.128,0,4.5.807,1.406,2.284,2.25,3.901,2.25ZM181.928,419.478c-3.479,0-6.258,2.813-6.258,6.294,0,.563.458,1.018,1.021,1.018h13.674c.563,0,1.055-.456,1.055-1.018,0-3.482-2.813-6.294-6.292-6.294h-3.201Z" fill="#005f73"/>
          </g>
          <g id="text_65">
            <path id="FontAwesome6Free-Solid-f007-65" data-name="FontAwesome6Free-Solid-f007" d="M183.545,392.396c1.583,0,3.06-.844,3.867-2.25.81-1.373.81-3.094,0-4.5-.807-1.373-2.284-2.25-3.867-2.25-1.617,0-3.094.878-3.901,2.25-.81,1.406-.81,3.128,0,4.5.807,1.406,2.284,2.25,3.901,2.25ZM181.928,394.084c-3.479,0-6.258,2.813-6.258,6.294,0,.563.458,1.018,1.021,1.018h13.674c.563,0,1.055-.456,1.055-1.018,0-3.482-2.813-6.294-6.292-6.294h-3.201Z" fill="#005f73"/>
          </g>
        </g>
        <g id="text_66">
          <path id="FontAwesome6Free-Solid-f007-66" data-name="FontAwesome6Free-Solid-f007" d="M183.545,367.002c1.583,0,3.06-.844,3.867-2.25.81-1.373.81-3.094,0-4.5-.807-1.373-2.284-2.25-3.867-2.25-1.617,0-3.094.878-3.901,2.25-.81,1.406-.81,3.128,0,4.5.807,1.406,2.284,2.25,3.901,2.25ZM181.928,368.689c-3.479,0-6.258,2.813-6.258,6.294,0,.563.458,1.018,1.021,1.018h13.674c.563,0,1.055-.456,1.055-1.018,0-3.482-2.813-6.294-6.292-6.294h-3.201Z" fill="#005f73"/>
        </g>
        <g id="text_67">
          <path id="FontAwesome6Free-Solid-f007-67" data-name="FontAwesome6Free-Solid-f007" d="M183.545,341.608c1.583,0,3.06-.844,3.867-2.25.81-1.373.81-3.094,0-4.5-.807-1.373-2.284-2.25-3.867-2.25-1.617,0-3.094.878-3.901,2.25-.81,1.406-.81,3.128,0,4.5.807,1.406,2.284,2.25,3.901,2.25ZM181.928,343.295c-3.479,0-6.258,2.813-6.258,6.294,0,.563.458,1.018,1.021,1.018h13.674c.563,0,1.055-.456,1.055-1.018,0-3.482-2.813-6.294-6.292-6.294h-3.201Z" fill="#005f73"/>
        </g>
        <g id="text_68">
          <path id="FontAwesome6Free-Solid-f007-68" data-name="FontAwesome6Free-Solid-f007" d="M183.545,316.213c1.583,0,3.06-.844,3.867-2.25.81-1.373.81-3.094,0-4.5-.807-1.373-2.284-2.25-3.867-2.25-1.617,0-3.094.878-3.901,2.25-.81,1.406-.81,3.128,0,4.5.807,1.406,2.284,2.25,3.901,2.25ZM181.928,317.901c-3.479,0-6.258,2.813-6.258,6.294,0,.563.458,1.018,1.021,1.018h13.674c.563,0,1.055-.456,1.055-1.018,0-3.482-2.813-6.294-6.292-6.294h-3.201Z" fill="#005f73"/>
        </g>
        <g id="text_69">
          <path id="FontAwesome6Free-Solid-f007-69" data-name="FontAwesome6Free-Solid-f007" d="M183.545,290.819c1.583,0,3.06-.844,3.867-2.25.81-1.373.81-3.094,0-4.5-.807-1.373-2.284-2.25-3.867-2.25-1.617,0-3.094.878-3.901,2.25-.81,1.406-.81,3.128,0,4.5.807,1.406,2.284,2.25,3.901,2.25ZM181.928,292.507c-3.479,0-6.258,2.813-6.258,6.294,0,.563.458,1.018,1.021,1.018h13.674c.563,0,1.055-.456,1.055-1.018,0-3.482-2.813-6.294-6.292-6.294h-3.201Z" fill="#005f73"/>
        </g>
        <g id="text_70">
          <path id="FontAwesome6Free-Solid-f007-70" data-name="FontAwesome6Free-Solid-f007" d="M183.545,265.425c1.583,0,3.06-.844,3.867-2.25.81-1.373.81-3.094,0-4.5-.807-1.373-2.284-2.25-3.867-2.25-1.617,0-3.094.878-3.901,2.25-.81,1.406-.81,3.128,0,4.5.807,1.406,2.284,2.25,3.901,2.25ZM181.928,267.112c-3.479,0-6.258,2.813-6.258,6.294,0,.563.458,1.018,1.021,1.018h13.674c.563,0,1.055-.456,1.055-1.018,0-3.482-2.813-6.294-6.292-6.294h-3.201Z" fill="#005f73"/>
        </g>
        <g id="text_71">
          <path id="FontAwesome6Free-Solid-f007-71" data-name="FontAwesome6Free-Solid-f007" d="M208.94,493.973c1.583,0,3.06-.844,3.867-2.25.81-1.373.81-3.094,0-4.5-.807-1.373-2.284-2.25-3.867-2.25-1.617,0-3.094.878-3.901,2.25-.81,1.406-.81,3.128,0,4.5.807,1.406,2.284,2.25,3.901,2.25ZM207.322,495.661c-3.479,0-6.258,2.813-6.258,6.294,0,.563.458,1.018,1.021,1.018h13.674c.563,0,1.055-.456,1.055-1.018,0-3.482-2.813-6.294-6.292-6.294h-3.201Z" fill="#005f73"/>
        </g>
        <g id="text_72">
          <path id="FontAwesome6Free-Solid-f007-72" data-name="FontAwesome6Free-Solid-f007" d="M208.94,468.579c1.583,0,3.06-.844,3.867-2.25.81-1.373.81-3.094,0-4.5-.807-1.373-2.284-2.25-3.867-2.25-1.617,0-3.094.878-3.901,2.25-.81,1.406-.81,3.128,0,4.5.807,1.406,2.284,2.25,3.901,2.25ZM207.322,470.267c-3.479,0-6.258,2.813-6.258,6.294,0,.563.458,1.018,1.021,1.018h13.674c.563,0,1.055-.456,1.055-1.018,0-3.482-2.813-6.294-6.292-6.294h-3.201Z" fill="#005f73"/>
        </g>
        <g id="text_73">
          <path id="FontAwesome6Free-Solid-f007-73" data-name="FontAwesome6Free-Solid-f007" d="M208.94,443.185c1.583,0,3.06-.844,3.867-2.25.81-1.373.81-3.094,0-4.5-.807-1.373-2.284-2.25-3.867-2.25-1.617,0-3.094.878-3.901,2.25-.81,1.406-.81,3.128,0,4.5.807,1.406,2.284,2.25,3.901,2.25ZM207.322,444.872c-3.479,0-6.258,2.813-6.258,6.294,0,.563.458,1.018,1.021,1.018h13.674c.563,0,1.055-.456,1.055-1.018,0-3.482-2.813-6.294-6.292-6.294h-3.201Z" fill="#005f73"/>
        </g>
        <g id="text_74">
          <path id="FontAwesome6Free-Solid-f007-74" data-name="FontAwesome6Free-Solid-f007" d="M208.94,417.791c1.583,0,3.06-.844,3.867-2.25.81-1.373.81-3.094,0-4.5-.807-1.373-2.284-2.25-3.867-2.25-1.617,0-3.094.878-3.901,2.25-.81,1.406-.81,3.128,0,4.5.807,1.406,2.284,2.25,3.901,2.25ZM207.322,419.478c-3.479,0-6.258,2.813-6.258,6.294,0,.563.458,1.018,1.021,1.018h13.674c.563,0,1.055-.456,1.055-1.018,0-3.482-2.813-6.294-6.292-6.294h-3.201Z" fill="#005f73"/>
        </g>
        <g id="text_75">
          <path id="FontAwesome6Free-Solid-f007-75" data-name="FontAwesome6Free-Solid-f007" d="M208.94,392.396c1.583,0,3.06-.844,3.867-2.25.81-1.373.81-3.094,0-4.5-.807-1.373-2.284-2.25-3.867-2.25-1.617,0-3.094.878-3.901,2.25-.81,1.406-.81,3.128,0,4.5.807,1.406,2.284,2.25,3.901,2.25ZM207.322,394.084c-3.479,0-6.258,2.813-6.258,6.294,0,.563.458,1.018,1.021,1.018h13.674c.563,0,1.055-.456,1.055-1.018,0-3.482-2.813-6.294-6.292-6.294h-3.201Z" fill="#005f73"/>
        </g>
        <g id="pchange_x5F_2023">
          <path id="FontAwesome6Free-Solid-f007-76" data-name="FontAwesome6Free-Solid-f007" d="M208.94,367.002c1.583,0,3.06-.844,3.867-2.25.81-1.373.81-3.094,0-4.5-.807-1.373-2.284-2.25-3.867-2.25-1.617,0-3.094.878-3.901,2.25-.81,1.406-.81,3.128,0,4.5.807,1.406,2.284,2.25,3.901,2.25ZM207.322,368.689c-3.479,0-6.258,2.813-6.258,6.294,0,.563.458,1.018,1.021,1.018h13.674c.563,0,1.055-.456,1.055-1.018,0-3.482-2.813-6.294-6.292-6.294h-3.201Z" fill="#005f73"/>
        </g>
        <g id="pchange-2022">
          <path id="FontAwesome6Free-Solid-f007-77" data-name="FontAwesome6Free-Solid-f007" d="M208.94,341.608c1.583,0,3.06-.844,3.867-2.25.81-1.373.81-3.094,0-4.5-.807-1.373-2.284-2.25-3.867-2.25-1.617,0-3.094.878-3.901,2.25-.81,1.406-.81,3.128,0,4.5.807,1.406,2.284,2.25,3.901,2.25ZM207.322,343.295c-3.479,0-6.258,2.813-6.258,6.294,0,.563.458,1.018,1.021,1.018h13.674c.563,0,1.055-.456,1.055-1.018,0-3.482-2.813-6.294-6.292-6.294h-3.201Z" fill="#005f73"/>
        </g>
        <g id="pchange2019-back2021">
          <path id="FontAwesome6Free-Solid-f007-78" data-name="FontAwesome6Free-Solid-f007" d="M208.94,316.213c1.583,0,3.06-.844,3.867-2.25.81-1.373.81-3.094,0-4.5-.807-1.373-2.284-2.25-3.867-2.25-1.617,0-3.094.878-3.901,2.25-.81,1.406-.81,3.128,0,4.5.807,1.406,2.284,2.25,3.901,2.25ZM207.322,317.901c-3.479,0-6.258,2.813-6.258,6.294,0,.563.458,1.018,1.021,1.018h13.674c.563,0,1.055-.456,1.055-1.018,0-3.482-2.813-6.294-6.292-6.294h-3.201Z" fill="#005f73"/>
        </g>
        <g id="text_79">
          <path id="FontAwesome6Free-Solid-f007-79" data-name="FontAwesome6Free-Solid-f007" d="M208.94,290.819c1.583,0,3.06-.844,3.867-2.25.81-1.373.81-3.094,0-4.5-.807-1.373-2.284-2.25-3.867-2.25-1.617,0-3.094.878-3.901,2.25-.81,1.406-.81,3.128,0,4.5.807,1.406,2.284,2.25,3.901,2.25ZM207.322,292.507c-3.479,0-6.258,2.813-6.258,6.294,0,.563.458,1.018,1.021,1.018h13.674c.563,0,1.055-.456,1.055-1.018,0-3.482-2.813-6.294-6.292-6.294h-3.201Z" fill="#f3722c"/>
        </g>
        <g id="text_80">
          <path id="FontAwesome6Free-Solid-f007-80" data-name="FontAwesome6Free-Solid-f007" d="M208.94,265.425c1.583,0,3.06-.844,3.867-2.25.81-1.373.81-3.094,0-4.5-.807-1.373-2.284-2.25-3.867-2.25-1.617,0-3.094.878-3.901,2.25-.81,1.406-.81,3.128,0,4.5.807,1.406,2.284,2.25,3.901,2.25ZM207.322,267.112c-3.479,0-6.258,2.813-6.258,6.294,0,.563.458,1.018,1.021,1.018h13.674c.563,0,1.055-.456,1.055-1.018,0-3.482-2.813-6.294-6.292-6.294h-3.201Z" fill="#f3722c"/>
        </g>
        <g id="text_81">
          <path id="FontAwesome6Free-Solid-f007-81" data-name="FontAwesome6Free-Solid-f007" d="M234.334,493.973c1.583,0,3.06-.844,3.867-2.25.81-1.373.81-3.094,0-4.5-.807-1.373-2.284-2.25-3.867-2.25-1.617,0-3.094.878-3.901,2.25-.81,1.406-.81,3.128,0,4.5.807,1.406,2.284,2.25,3.901,2.25ZM232.717,495.661c-3.479,0-6.258,2.813-6.258,6.294,0,.563.458,1.018,1.021,1.018h13.674c.563,0,1.055-.456,1.055-1.018,0-3.482-2.813-6.294-6.292-6.294h-3.201Z" fill="#f3722c"/>
        </g>
        <g id="text_82">
          <path id="FontAwesome6Free-Solid-f007-82" data-name="FontAwesome6Free-Solid-f007" d="M234.334,468.579c1.583,0,3.06-.844,3.867-2.25.81-1.373.81-3.094,0-4.5-.807-1.373-2.284-2.25-3.867-2.25-1.617,0-3.094.878-3.901,2.25-.81,1.406-.81,3.128,0,4.5.807,1.406,2.284,2.25,3.901,2.25ZM232.717,470.267c-3.479,0-6.258,2.813-6.258,6.294,0,.563.458,1.018,1.021,1.018h13.674c.563,0,1.055-.456,1.055-1.018,0-3.482-2.813-6.294-6.292-6.294h-3.201Z" fill="#f3722c"/>
        </g>
        <g id="text_83">
          <path id="FontAwesome6Free-Solid-f007-83" data-name="FontAwesome6Free-Solid-f007" d="M234.334,443.185c1.583,0,3.06-.844,3.867-2.25.81-1.373.81-3.094,0-4.5-.807-1.373-2.284-2.25-3.867-2.25-1.617,0-3.094.878-3.901,2.25-.81,1.406-.81,3.128,0,4.5.807,1.406,2.284,2.25,3.901,2.25ZM232.717,444.872c-3.479,0-6.258,2.813-6.258,6.294,0,.563.458,1.018,1.021,1.018h13.674c.563,0,1.055-.456,1.055-1.018,0-3.482-2.813-6.294-6.292-6.294h-3.201Z" fill="#f3722c"/>
        </g>
        <g id="text_84">
          <path id="FontAwesome6Free-Solid-f007-84" data-name="FontAwesome6Free-Solid-f007" d="M234.334,417.791c1.583,0,3.06-.844,3.867-2.25.81-1.373.81-3.094,0-4.5-.807-1.373-2.284-2.25-3.867-2.25-1.617,0-3.094.878-3.901,2.25-.81,1.406-.81,3.128,0,4.5.807,1.406,2.284,2.25,3.901,2.25ZM232.717,419.478c-3.479,0-6.258,2.813-6.258,6.294,0,.563.458,1.018,1.021,1.018h13.674c.563,0,1.055-.456,1.055-1.018,0-3.482-2.813-6.294-6.292-6.294h-3.201Z" fill="#f3722c"/>
        </g>
        <g id="text_85">
          <path id="FontAwesome6Free-Solid-f007-85" data-name="FontAwesome6Free-Solid-f007" d="M234.334,392.396c1.583,0,3.06-.844,3.867-2.25.81-1.373.81-3.094,0-4.5-.807-1.373-2.284-2.25-3.867-2.25-1.617,0-3.094.878-3.901,2.25-.81,1.406-.81,3.128,0,4.5.807,1.406,2.284,2.25,3.901,2.25ZM232.717,394.084c-3.479,0-6.258,2.813-6.258,6.294,0,.563.458,1.018,1.021,1.018h13.674c.563,0,1.055-.456,1.055-1.018,0-3.482-2.813-6.294-6.292-6.294h-3.201Z" fill="#f3722c"/>
        </g>
        <g id="text_86">
          <path id="FontAwesome6Free-Solid-f007-86" data-name="FontAwesome6Free-Solid-f007" d="M234.334,367.002c1.583,0,3.06-.844,3.867-2.25.81-1.373.81-3.094,0-4.5-.807-1.373-2.284-2.25-3.867-2.25-1.617,0-3.094.878-3.901,2.25-.81,1.406-.81,3.128,0,4.5.807,1.406,2.284,2.25,3.901,2.25ZM232.717,368.689c-3.479,0-6.258,2.813-6.258,6.294,0,.563.458,1.018,1.021,1.018h13.674c.563,0,1.055-.456,1.055-1.018,0-3.482-2.813-6.294-6.292-6.294h-3.201Z" fill="#f3722c"/>
        </g>
        <g id="text_87">
          <path id="FontAwesome6Free-Solid-f007-87" data-name="FontAwesome6Free-Solid-f007" d="M234.334,341.608c1.583,0,3.06-.844,3.867-2.25.81-1.373.81-3.094,0-4.5-.807-1.373-2.284-2.25-3.867-2.25-1.617,0-3.094.878-3.901,2.25-.81,1.406-.81,3.128,0,4.5.807,1.406,2.284,2.25,3.901,2.25ZM232.717,343.295c-3.479,0-6.258,2.813-6.258,6.294,0,.563.458,1.018,1.021,1.018h13.674c.563,0,1.055-.456,1.055-1.018,0-3.482-2.813-6.294-6.292-6.294h-3.201Z" fill="#f3722c"/>
        </g>
        <g id="text_88">
          <path id="FontAwesome6Free-Solid-f007-88" data-name="FontAwesome6Free-Solid-f007" d="M234.334,316.213c1.583,0,3.06-.844,3.867-2.25.81-1.373.81-3.094,0-4.5-.807-1.373-2.284-2.25-3.867-2.25-1.617,0-3.094.878-3.901,2.25-.81,1.406-.81,3.128,0,4.5.807,1.406,2.284,2.25,3.901,2.25ZM232.717,317.901c-3.479,0-6.258,2.813-6.258,6.294,0,.563.458,1.018,1.021,1.018h13.674c.563,0,1.055-.456,1.055-1.018,0-3.482-2.813-6.294-6.292-6.294h-3.201Z" fill="#f3722c"/>
        </g>
        <g id="text_89">
          <path id="FontAwesome6Free-Solid-f007-89" data-name="FontAwesome6Free-Solid-f007" d="M234.334,290.819c1.583,0,3.06-.844,3.867-2.25.81-1.373.81-3.094,0-4.5-.807-1.373-2.284-2.25-3.867-2.25-1.617,0-3.094.878-3.901,2.25-.81,1.406-.81,3.128,0,4.5.807,1.406,2.284,2.25,3.901,2.25ZM232.717,292.507c-3.479,0-6.258,2.813-6.258,6.294,0,.563.458,1.018,1.021,1.018h13.674c.563,0,1.055-.456,1.055-1.018,0-3.482-2.813-6.294-6.292-6.294h-3.201Z" fill="#f3722c"/>
        </g>
        <g id="text_90">
          <path id="FontAwesome6Free-Solid-f007-90" data-name="FontAwesome6Free-Solid-f007" d="M234.334,265.425c1.583,0,3.06-.844,3.867-2.25.81-1.373.81-3.094,0-4.5-.807-1.373-2.284-2.25-3.867-2.25-1.617,0-3.094.878-3.901,2.25-.81,1.406-.81,3.128,0,4.5.807,1.406,2.284,2.25,3.901,2.25ZM232.717,267.112c-3.479,0-6.258,2.813-6.258,6.294,0,.563.458,1.018,1.021,1.018h13.674c.563,0,1.055-.456,1.055-1.018,0-3.482-2.813-6.294-6.292-6.294h-3.201Z" fill="#f3722c"/>
        </g>
        <g id="text_91">
          <path id="FontAwesome6Free-Solid-f007-91" data-name="FontAwesome6Free-Solid-f007" d="M259.728,493.973c1.583,0,3.06-.844,3.867-2.25.81-1.373.81-3.094,0-4.5-.807-1.373-2.284-2.25-3.867-2.25-1.617,0-3.094.878-3.901,2.25-.81,1.406-.81,3.128,0,4.5.807,1.406,2.284,2.25,3.901,2.25ZM258.111,495.661c-3.479,0-6.258,2.813-6.258,6.294,0,.563.458,1.018,1.021,1.018h13.674c.563,0,1.055-.456,1.055-1.018,0-3.482-2.813-6.294-6.292-6.294h-3.201Z" fill="#f3722c"/>
        </g>
        <g id="text_92">
          <path id="FontAwesome6Free-Solid-f007-92" data-name="FontAwesome6Free-Solid-f007" d="M259.728,468.579c1.583,0,3.06-.844,3.867-2.25.81-1.373.81-3.094,0-4.5-.807-1.373-2.284-2.25-3.867-2.25-1.617,0-3.094.878-3.901,2.25-.81,1.406-.81,3.128,0,4.5.807,1.406,2.284,2.25,3.901,2.25ZM258.111,470.267c-3.479,0-6.258,2.813-6.258,6.294,0,.563.458,1.018,1.021,1.018h13.674c.563,0,1.055-.456,1.055-1.018,0-3.482-2.813-6.294-6.292-6.294h-3.201Z" fill="#f3722c"/>
        </g>
        <g id="text_93">
          <path id="FontAwesome6Free-Solid-f007-93" data-name="FontAwesome6Free-Solid-f007" d="M259.728,443.185c1.583,0,3.06-.844,3.867-2.25.81-1.373.81-3.094,0-4.5-.807-1.373-2.284-2.25-3.867-2.25-1.617,0-3.094.878-3.901,2.25-.81,1.406-.81,3.128,0,4.5.807,1.406,2.284,2.25,3.901,2.25ZM258.111,444.872c-3.479,0-6.258,2.813-6.258,6.294,0,.563.458,1.018,1.021,1.018h13.674c.563,0,1.055-.456,1.055-1.018,0-3.482-2.813-6.294-6.292-6.294h-3.201Z" fill="#f3722c"/>
        </g>
        <g id="text_94">
          <path id="FontAwesome6Free-Solid-f007-94" data-name="FontAwesome6Free-Solid-f007" d="M259.728,417.791c1.583,0,3.06-.844,3.867-2.25.81-1.373.81-3.094,0-4.5-.807-1.373-2.284-2.25-3.867-2.25-1.617,0-3.094.878-3.901,2.25-.81,1.406-.81,3.128,0,4.5.807,1.406,2.284,2.25,3.901,2.25ZM258.111,419.478c-3.479,0-6.258,2.813-6.258,6.294,0,.563.458,1.018,1.021,1.018h13.674c.563,0,1.055-.456,1.055-1.018,0-3.482-2.813-6.294-6.292-6.294h-3.201Z" fill="#f3722c"/>
        </g>
        <g id="text_95">
          <path id="FontAwesome6Free-Solid-f007-95" data-name="FontAwesome6Free-Solid-f007" d="M259.728,392.396c1.583,0,3.06-.844,3.867-2.25.81-1.373.81-3.094,0-4.5-.807-1.373-2.284-2.25-3.867-2.25-1.617,0-3.094.878-3.901,2.25-.81,1.406-.81,3.128,0,4.5.807,1.406,2.284,2.25,3.901,2.25ZM258.111,394.084c-3.479,0-6.258,2.813-6.258,6.294,0,.563.458,1.018,1.021,1.018h13.674c.563,0,1.055-.456,1.055-1.018,0-3.482-2.813-6.294-6.292-6.294h-3.201Z" fill="#f3722c"/>
        </g>
        <g id="text_96">
          <path id="FontAwesome6Free-Solid-f007-96" data-name="FontAwesome6Free-Solid-f007" d="M259.728,367.002c1.583,0,3.06-.844,3.867-2.25.81-1.373.81-3.094,0-4.5-.807-1.373-2.284-2.25-3.867-2.25-1.617,0-3.094.878-3.901,2.25-.81,1.406-.81,3.128,0,4.5.807,1.406,2.284,2.25,3.901,2.25ZM258.111,368.689c-3.479,0-6.258,2.813-6.258,6.294,0,.563.458,1.018,1.021,1.018h13.674c.563,0,1.055-.456,1.055-1.018,0-3.482-2.813-6.294-6.292-6.294h-3.201Z" fill="#f3722c"/>
        </g>
        <g id="text_97">
          <path id="FontAwesome6Free-Solid-f007-97" data-name="FontAwesome6Free-Solid-f007" d="M259.728,341.608c1.583,0,3.06-.844,3.867-2.25.81-1.373.81-3.094,0-4.5-.807-1.373-2.284-2.25-3.867-2.25-1.617,0-3.094.878-3.901,2.25-.81,1.406-.81,3.128,0,4.5.807,1.406,2.284,2.25,3.901,2.25ZM258.111,343.295c-3.479,0-6.258,2.813-6.258,6.294,0,.563.458,1.018,1.021,1.018h13.674c.563,0,1.055-.456,1.055-1.018,0-3.482-2.813-6.294-6.292-6.294h-3.201Z" fill="#f3722c"/>
        </g>
        <g id="text_98">
          <path id="FontAwesome6Free-Solid-f007-98" data-name="FontAwesome6Free-Solid-f007" d="M259.728,316.213c1.583,0,3.06-.844,3.867-2.25.81-1.373.81-3.094,0-4.5-.807-1.373-2.284-2.25-3.867-2.25-1.617,0-3.094.878-3.901,2.25-.81,1.406-.81,3.128,0,4.5.807,1.406,2.284,2.25,3.901,2.25ZM258.111,317.901c-3.479,0-6.258,2.813-6.258,6.294,0,.563.458,1.018,1.021,1.018h13.674c.563,0,1.055-.456,1.055-1.018,0-3.482-2.813-6.294-6.292-6.294h-3.201Z" fill="#f3722c"/>
        </g>
        <g id="text_99">
          <path id="FontAwesome6Free-Solid-f007-99" data-name="FontAwesome6Free-Solid-f007" d="M259.728,290.819c1.583,0,3.06-.844,3.867-2.25.81-1.373.81-3.094,0-4.5-.807-1.373-2.284-2.25-3.867-2.25-1.617,0-3.094.878-3.901,2.25-.81,1.406-.81,3.128,0,4.5.807,1.406,2.284,2.25,3.901,2.25ZM258.111,292.507c-3.479,0-6.258,2.813-6.258,6.294,0,.563.458,1.018,1.021,1.018h13.674c.563,0,1.055-.456,1.055-1.018,0-3.482-2.813-6.294-6.292-6.294h-3.201Z" fill="#f3722c"/>
        </g>
        <g id="text_100">
          <path id="FontAwesome6Free-Solid-f007-100" data-name="FontAwesome6Free-Solid-f007" d="M259.728,265.425c1.583,0,3.06-.844,3.867-2.25.81-1.373.81-3.094,0-4.5-.807-1.373-2.284-2.25-3.867-2.25-1.617,0-3.094.878-3.901,2.25-.81,1.406-.81,3.128,0,4.5.807,1.406,2.284,2.25,3.901,2.25ZM258.111,267.112c-3.479,0-6.258,2.813-6.258,6.294,0,.563.458,1.018,1.021,1.018h13.674c.563,0,1.055-.456,1.055-1.018,0-3.482-2.813-6.294-6.292-6.294h-3.201Z" fill="#f3722c"/>
        </g>
      </g>
    </g>
  </g>
<style>
#g-lecturer_waffle-Artboard_3-interactive-img rect, #g-lecturer_waffle-Artboard_3-interactive-img circle, #g-lecturer_waffle-Artboard_3-interactive-img path, #g-lecturer_waffle-Artboard_3-interactive-img line, #g-lecturer_waffle-Artboard_3-interactive-img polyline, #g-lecturer_waffle-Artboard_3-interactive-img polygon { vector-effect: non-scaling-stroke; }
</style>
</svg>
