<?xml version="1.0" encoding="UTF-8"?>
<svg xmlns="http://www.w3.org/2000/svg" baseProfile="tiny" version="1.2" viewBox="0 0 600 476.25">
  <!-- Generator: Adobe Illustrator 28.7.1, SVG Export Plug-In . SVG Version: 1.2.0 Build 142)  -->
  <g>
    <g id="g-lecturer_waffle-Artboard_2-interactive-img">
      <g>
        <g id="text_1">
          <path id="FontAwesome6Free-Solid-f007" d="M29.899,358.77c1.847,0,3.57-.984,4.512-2.625.945-1.601.945-3.609,0-5.25-.942-1.601-2.664-2.625-4.512-2.625-1.887,0-3.609,1.024-4.551,2.625-.945,1.641-.945,3.649,0,5.25.942,1.641,2.664,2.625,4.551,2.625ZM28.013,360.739c-4.059,0-7.301,3.281-7.301,7.343,0,.656.535,1.188,1.191,1.188h15.953c.656,0,1.23-.532,1.23-1.188,0-4.062-3.281-7.343-7.34-7.343h-3.734Z" fill="#005f73"/>
        </g>
        <g id="text_2">
          <path id="FontAwesome6Free-Solid-f007-2" data-name="FontAwesome6Free-Solid-f007" d="M29.899,330.932c1.847,0,3.57-.984,4.512-2.625.945-1.601.945-3.609,0-5.25-.942-1.601-2.664-2.625-4.512-2.625-1.887,0-3.609,1.024-4.551,2.625-.945,1.641-.945,3.649,0,5.25.942,1.641,2.664,2.625,4.551,2.625ZM28.013,332.901c-4.059,0-7.301,3.281-7.301,7.343,0,.656.535,1.188,1.191,1.188h15.953c.656,0,1.23-.532,1.23-1.188,0-4.062-3.281-7.343-7.34-7.343h-3.734Z" fill="#005f73"/>
        </g>
        <g id="text_3">
          <path id="FontAwesome6Free-Solid-f007-3" data-name="FontAwesome6Free-Solid-f007" d="M29.899,303.095c1.847,0,3.57-.984,4.512-2.625.945-1.601.945-3.609,0-5.25-.942-1.601-2.664-2.625-4.512-2.625-1.887,0-3.609,1.024-4.551,2.625-.945,1.641-.945,3.649,0,5.25.942,1.641,2.664,2.625,4.551,2.625ZM28.013,305.064c-4.059,0-7.301,3.281-7.301,7.343,0,.656.535,1.188,1.191,1.188h15.953c.656,0,1.23-.532,1.23-1.188,0-4.062-3.281-7.343-7.34-7.343h-3.734Z" fill="#005f73"/>
        </g>
        <g id="text_4">
          <path id="FontAwesome6Free-Solid-f007-4" data-name="FontAwesome6Free-Solid-f007" d="M29.899,275.257c1.847,0,3.57-.984,4.512-2.625.945-1.601.945-3.609,0-5.25-.942-1.601-2.664-2.625-4.512-2.625-1.887,0-3.609,1.024-4.551,2.625-.945,1.641-.945,3.649,0,5.25.942,1.641,2.664,2.625,4.551,2.625ZM28.013,277.226c-4.059,0-7.301,3.281-7.301,7.343,0,.656.535,1.188,1.191,1.188h15.953c.656,0,1.23-.532,1.23-1.188,0-4.062-3.281-7.343-7.34-7.343h-3.734Z" fill="#005f73"/>
        </g>
        <g id="text_5">
          <path id="FontAwesome6Free-Solid-f007-5" data-name="FontAwesome6Free-Solid-f007" d="M29.899,247.42c1.847,0,3.57-.984,4.512-2.625.945-1.601.945-3.609,0-5.25-.942-1.601-2.664-2.625-4.512-2.625-1.887,0-3.609,1.024-4.551,2.625-.945,1.641-.945,3.649,0,5.25.942,1.641,2.664,2.625,4.551,2.625ZM28.013,249.389c-4.059,0-7.301,3.281-7.301,7.343,0,.656.535,1.188,1.191,1.188h15.953c.656,0,1.23-.532,1.23-1.188,0-4.062-3.281-7.343-7.34-7.343h-3.734Z" fill="#005f73"/>
        </g>
        <g id="text_6">
          <path id="FontAwesome6Free-Solid-f007-6" data-name="FontAwesome6Free-Solid-f007" d="M57.737,358.77c1.847,0,3.57-.984,4.512-2.625.945-1.601.945-3.609,0-5.25-.942-1.601-2.664-2.625-4.512-2.625-1.887,0-3.609,1.024-4.551,2.625-.945,1.641-.945,3.649,0,5.25.942,1.641,2.664,2.625,4.551,2.625ZM55.85,360.739c-4.059,0-7.301,3.281-7.301,7.343,0,.656.535,1.188,1.191,1.188h15.953c.656,0,1.23-.532,1.23-1.188,0-4.062-3.281-7.343-7.34-7.343h-3.734Z" fill="#005f73"/>
        </g>
        <g id="text_7">
          <path id="FontAwesome6Free-Solid-f007-7" data-name="FontAwesome6Free-Solid-f007" d="M57.737,330.932c1.847,0,3.57-.984,4.512-2.625.945-1.601.945-3.609,0-5.25-.942-1.601-2.664-2.625-4.512-2.625-1.887,0-3.609,1.024-4.551,2.625-.945,1.641-.945,3.649,0,5.25.942,1.641,2.664,2.625,4.551,2.625ZM55.85,332.901c-4.059,0-7.301,3.281-7.301,7.343,0,.656.535,1.188,1.191,1.188h15.953c.656,0,1.23-.532,1.23-1.188,0-4.062-3.281-7.343-7.34-7.343h-3.734Z" fill="#005f73"/>
        </g>
        <g id="text_8">
          <path id="FontAwesome6Free-Solid-f007-8" data-name="FontAwesome6Free-Solid-f007" d="M57.737,303.095c1.847,0,3.57-.984,4.512-2.625.945-1.601.945-3.609,0-5.25-.942-1.601-2.664-2.625-4.512-2.625-1.887,0-3.609,1.024-4.551,2.625-.945,1.641-.945,3.649,0,5.25.942,1.641,2.664,2.625,4.551,2.625ZM55.85,305.064c-4.059,0-7.301,3.281-7.301,7.343,0,.656.535,1.188,1.191,1.188h15.953c.656,0,1.23-.532,1.23-1.188,0-4.062-3.281-7.343-7.34-7.343h-3.734Z" fill="#005f73"/>
        </g>
        <g id="text_9">
          <path id="FontAwesome6Free-Solid-f007-9" data-name="FontAwesome6Free-Solid-f007" d="M57.737,275.257c1.847,0,3.57-.984,4.512-2.625.945-1.601.945-3.609,0-5.25-.942-1.601-2.664-2.625-4.512-2.625-1.887,0-3.609,1.024-4.551,2.625-.945,1.641-.945,3.649,0,5.25.942,1.641,2.664,2.625,4.551,2.625ZM55.85,277.226c-4.059,0-7.301,3.281-7.301,7.343,0,.656.535,1.188,1.191,1.188h15.953c.656,0,1.23-.532,1.23-1.188,0-4.062-3.281-7.343-7.34-7.343h-3.734Z" fill="#005f73"/>
        </g>
        <g id="text_10">
          <path id="FontAwesome6Free-Solid-f007-10" data-name="FontAwesome6Free-Solid-f007" d="M57.737,247.42c1.847,0,3.57-.984,4.512-2.625.945-1.601.945-3.609,0-5.25-.942-1.601-2.664-2.625-4.512-2.625-1.887,0-3.609,1.024-4.551,2.625-.945,1.641-.945,3.649,0,5.25.942,1.641,2.664,2.625,4.551,2.625ZM55.85,249.389c-4.059,0-7.301,3.281-7.301,7.343,0,.656.535,1.188,1.191,1.188h15.953c.656,0,1.23-.532,1.23-1.188,0-4.062-3.281-7.343-7.34-7.343h-3.734Z" fill="#005f73"/>
        </g>
        <g id="text_11">
          <path id="FontAwesome6Free-Solid-f007-11" data-name="FontAwesome6Free-Solid-f007" d="M85.574,358.77c1.847,0,3.57-.984,4.512-2.625.945-1.601.945-3.609,0-5.25-.942-1.601-2.664-2.625-4.512-2.625-1.887,0-3.609,1.024-4.551,2.625-.945,1.641-.945,3.649,0,5.25.942,1.641,2.664,2.625,4.551,2.625ZM83.688,360.739c-4.059,0-7.301,3.281-7.301,7.343,0,.656.535,1.188,1.191,1.188h15.953c.656,0,1.23-.532,1.23-1.188,0-4.062-3.281-7.343-7.34-7.343h-3.734Z" fill="#005f73"/>
        </g>
        <g id="text_12">
          <path id="FontAwesome6Free-Solid-f007-12" data-name="FontAwesome6Free-Solid-f007" d="M85.574,330.932c1.847,0,3.57-.984,4.512-2.625.945-1.601.945-3.609,0-5.25-.942-1.601-2.664-2.625-4.512-2.625-1.887,0-3.609,1.024-4.551,2.625-.945,1.641-.945,3.649,0,5.25.942,1.641,2.664,2.625,4.551,2.625ZM83.688,332.901c-4.059,0-7.301,3.281-7.301,7.343,0,.656.535,1.188,1.191,1.188h15.953c.656,0,1.23-.532,1.23-1.188,0-4.062-3.281-7.343-7.34-7.343h-3.734Z" fill="#005f73"/>
        </g>
        <g id="text_13">
          <path id="FontAwesome6Free-Solid-f007-13" data-name="FontAwesome6Free-Solid-f007" d="M85.574,303.095c1.847,0,3.57-.984,4.512-2.625.945-1.601.945-3.609,0-5.25-.942-1.601-2.664-2.625-4.512-2.625-1.887,0-3.609,1.024-4.551,2.625-.945,1.641-.945,3.649,0,5.25.942,1.641,2.664,2.625,4.551,2.625ZM83.688,305.064c-4.059,0-7.301,3.281-7.301,7.343,0,.656.535,1.188,1.191,1.188h15.953c.656,0,1.23-.532,1.23-1.188,0-4.062-3.281-7.343-7.34-7.343h-3.734Z" fill="#005f73"/>
        </g>
        <g id="text_14">
          <path id="FontAwesome6Free-Solid-f007-14" data-name="FontAwesome6Free-Solid-f007" d="M85.574,275.257c1.847,0,3.57-.984,4.512-2.625.945-1.601.945-3.609,0-5.25-.942-1.601-2.664-2.625-4.512-2.625-1.887,0-3.609,1.024-4.551,2.625-.945,1.641-.945,3.649,0,5.25.942,1.641,2.664,2.625,4.551,2.625ZM83.688,277.226c-4.059,0-7.301,3.281-7.301,7.343,0,.656.535,1.188,1.191,1.188h15.953c.656,0,1.23-.532,1.23-1.188,0-4.062-3.281-7.343-7.34-7.343h-3.734Z" fill="#005f73"/>
        </g>
        <g id="text_15">
          <path id="FontAwesome6Free-Solid-f007-15" data-name="FontAwesome6Free-Solid-f007" d="M85.574,247.42c1.847,0,3.57-.984,4.512-2.625.945-1.601.945-3.609,0-5.25-.942-1.601-2.664-2.625-4.512-2.625-1.887,0-3.609,1.024-4.551,2.625-.945,1.641-.945,3.649,0,5.25.942,1.641,2.664,2.625,4.551,2.625ZM83.688,249.389c-4.059,0-7.301,3.281-7.301,7.343,0,.656.535,1.188,1.191,1.188h15.953c.656,0,1.23-.532,1.23-1.188,0-4.062-3.281-7.343-7.34-7.343h-3.734Z" fill="#005f73"/>
        </g>
        <g id="text_16">
          <path id="FontAwesome6Free-Solid-f007-16" data-name="FontAwesome6Free-Solid-f007" d="M113.412,358.77c1.847,0,3.57-.984,4.512-2.625.945-1.601.945-3.609,0-5.25-.942-1.601-2.664-2.625-4.512-2.625-1.887,0-3.609,1.024-4.551,2.625-.945,1.641-.945,3.649,0,5.25.942,1.641,2.664,2.625,4.551,2.625ZM111.525,360.739c-4.059,0-7.301,3.281-7.301,7.343,0,.656.535,1.188,1.191,1.188h15.953c.656,0,1.23-.532,1.23-1.188,0-4.062-3.281-7.343-7.34-7.343h-3.734Z" fill="#005f73"/>
        </g>
        <g id="text_17">
          <path id="FontAwesome6Free-Solid-f007-17" data-name="FontAwesome6Free-Solid-f007" d="M113.412,330.932c1.847,0,3.57-.984,4.512-2.625.945-1.601.945-3.609,0-5.25-.942-1.601-2.664-2.625-4.512-2.625-1.887,0-3.609,1.024-4.551,2.625-.945,1.641-.945,3.649,0,5.25.942,1.641,2.664,2.625,4.551,2.625ZM111.525,332.901c-4.059,0-7.301,3.281-7.301,7.343,0,.656.535,1.188,1.191,1.188h15.953c.656,0,1.23-.532,1.23-1.188,0-4.062-3.281-7.343-7.34-7.343h-3.734Z" fill="#005f73"/>
        </g>
        <g id="text_18">
          <path id="FontAwesome6Free-Solid-f007-18" data-name="FontAwesome6Free-Solid-f007" d="M113.412,303.095c1.847,0,3.57-.984,4.512-2.625.945-1.601.945-3.609,0-5.25-.942-1.601-2.664-2.625-4.512-2.625-1.887,0-3.609,1.024-4.551,2.625-.945,1.641-.945,3.649,0,5.25.942,1.641,2.664,2.625,4.551,2.625ZM111.525,305.064c-4.059,0-7.301,3.281-7.301,7.343,0,.656.535,1.188,1.191,1.188h15.953c.656,0,1.23-.532,1.23-1.188,0-4.062-3.281-7.343-7.34-7.343h-3.734Z" fill="#005f73"/>
        </g>
        <g id="text_19">
          <path id="FontAwesome6Free-Solid-f007-19" data-name="FontAwesome6Free-Solid-f007" d="M113.412,275.257c1.847,0,3.57-.984,4.512-2.625.945-1.601.945-3.609,0-5.25-.942-1.601-2.664-2.625-4.512-2.625-1.887,0-3.609,1.024-4.551,2.625-.945,1.641-.945,3.649,0,5.25.942,1.641,2.664,2.625,4.551,2.625ZM111.525,277.226c-4.059,0-7.301,3.281-7.301,7.343,0,.656.535,1.188,1.191,1.188h15.953c.656,0,1.23-.532,1.23-1.188,0-4.062-3.281-7.343-7.34-7.343h-3.734Z" fill="#005f73"/>
        </g>
        <g id="text_20">
          <path id="FontAwesome6Free-Solid-f007-20" data-name="FontAwesome6Free-Solid-f007" d="M113.412,247.42c1.847,0,3.57-.984,4.512-2.625.945-1.601.945-3.609,0-5.25-.942-1.601-2.664-2.625-4.512-2.625-1.887,0-3.609,1.024-4.551,2.625-.945,1.641-.945,3.649,0,5.25.942,1.641,2.664,2.625,4.551,2.625ZM111.525,249.389c-4.059,0-7.301,3.281-7.301,7.343,0,.656.535,1.188,1.191,1.188h15.953c.656,0,1.23-.532,1.23-1.188,0-4.062-3.281-7.343-7.34-7.343h-3.734Z" fill="#005f73"/>
        </g>
        <g id="text_21">
          <path id="FontAwesome6Free-Solid-f007-21" data-name="FontAwesome6Free-Solid-f007" d="M141.249,358.77c1.847,0,3.57-.984,4.512-2.625.945-1.601.945-3.609,0-5.25-.942-1.601-2.664-2.625-4.512-2.625-1.887,0-3.609,1.024-4.551,2.625-.945,1.641-.945,3.649,0,5.25.942,1.641,2.664,2.625,4.551,2.625ZM139.363,360.739c-4.059,0-7.301,3.281-7.301,7.343,0,.656.535,1.188,1.191,1.188h15.953c.656,0,1.23-.532,1.23-1.188,0-4.062-3.281-7.343-7.34-7.343h-3.734Z" fill="#005f73"/>
        </g>
        <g id="text_22">
          <path id="FontAwesome6Free-Solid-f007-22" data-name="FontAwesome6Free-Solid-f007" d="M141.249,330.932c1.847,0,3.57-.984,4.512-2.625.945-1.601.945-3.609,0-5.25-.942-1.601-2.664-2.625-4.512-2.625-1.887,0-3.609,1.024-4.551,2.625-.945,1.641-.945,3.649,0,5.25.942,1.641,2.664,2.625,4.551,2.625ZM139.363,332.901c-4.059,0-7.301,3.281-7.301,7.343,0,.656.535,1.188,1.191,1.188h15.953c.656,0,1.23-.532,1.23-1.188,0-4.062-3.281-7.343-7.34-7.343h-3.734Z" fill="#005f73"/>
        </g>
        <g id="text_23">
          <path id="FontAwesome6Free-Solid-f007-23" data-name="FontAwesome6Free-Solid-f007" d="M141.249,303.095c1.847,0,3.57-.984,4.512-2.625.945-1.601.945-3.609,0-5.25-.942-1.601-2.664-2.625-4.512-2.625-1.887,0-3.609,1.024-4.551,2.625-.945,1.641-.945,3.649,0,5.25.942,1.641,2.664,2.625,4.551,2.625ZM139.363,305.064c-4.059,0-7.301,3.281-7.301,7.343,0,.656.535,1.188,1.191,1.188h15.953c.656,0,1.23-.532,1.23-1.188,0-4.062-3.281-7.343-7.34-7.343h-3.734Z" fill="#005f73"/>
        </g>
        <g id="text_24">
          <path id="FontAwesome6Free-Solid-f007-24" data-name="FontAwesome6Free-Solid-f007" d="M141.249,275.257c1.847,0,3.57-.984,4.512-2.625.945-1.601.945-3.609,0-5.25-.942-1.601-2.664-2.625-4.512-2.625-1.887,0-3.609,1.024-4.551,2.625-.945,1.641-.945,3.649,0,5.25.942,1.641,2.664,2.625,4.551,2.625ZM139.363,277.226c-4.059,0-7.301,3.281-7.301,7.343,0,.656.535,1.188,1.191,1.188h15.953c.656,0,1.23-.532,1.23-1.188,0-4.062-3.281-7.343-7.34-7.343h-3.734Z" fill="#005f73"/>
        </g>
        <g id="text_25">
          <path id="FontAwesome6Free-Solid-f007-25" data-name="FontAwesome6Free-Solid-f007" d="M141.249,247.42c1.847,0,3.57-.984,4.512-2.625.945-1.601.945-3.609,0-5.25-.942-1.601-2.664-2.625-4.512-2.625-1.887,0-3.609,1.024-4.551,2.625-.945,1.641-.945,3.649,0,5.25.942,1.641,2.664,2.625,4.551,2.625ZM139.363,249.389c-4.059,0-7.301,3.281-7.301,7.343,0,.656.535,1.188,1.191,1.188h15.953c.656,0,1.23-.532,1.23-1.188,0-4.062-3.281-7.343-7.34-7.343h-3.734Z" fill="#005f73"/>
        </g>
        <g id="text_26">
          <path id="FontAwesome6Free-Solid-f007-26" data-name="FontAwesome6Free-Solid-f007" d="M169.087,358.77c1.847,0,3.57-.984,4.512-2.625.945-1.601.945-3.609,0-5.25-.942-1.601-2.664-2.625-4.512-2.625-1.887,0-3.609,1.024-4.551,2.625-.945,1.641-.945,3.649,0,5.25.942,1.641,2.664,2.625,4.551,2.625ZM167.2,360.739c-4.059,0-7.301,3.281-7.301,7.343,0,.656.535,1.188,1.191,1.188h15.953c.656,0,1.23-.532,1.23-1.188,0-4.062-3.281-7.343-7.34-7.343h-3.734Z" fill="#005f73"/>
        </g>
        <g id="text_27">
          <path id="FontAwesome6Free-Solid-f007-27" data-name="FontAwesome6Free-Solid-f007" d="M169.087,330.932c1.847,0,3.57-.984,4.512-2.625.945-1.601.945-3.609,0-5.25-.942-1.601-2.664-2.625-4.512-2.625-1.887,0-3.609,1.024-4.551,2.625-.945,1.641-.945,3.649,0,5.25.942,1.641,2.664,2.625,4.551,2.625ZM167.2,332.901c-4.059,0-7.301,3.281-7.301,7.343,0,.656.535,1.188,1.191,1.188h15.953c.656,0,1.23-.532,1.23-1.188,0-4.062-3.281-7.343-7.34-7.343h-3.734Z" fill="#005f73"/>
        </g>
        <g id="text_28">
          <path id="FontAwesome6Free-Solid-f007-28" data-name="FontAwesome6Free-Solid-f007" d="M169.087,303.095c1.847,0,3.57-.984,4.512-2.625.945-1.601.945-3.609,0-5.25-.942-1.601-2.664-2.625-4.512-2.625-1.887,0-3.609,1.024-4.551,2.625-.945,1.641-.945,3.649,0,5.25.942,1.641,2.664,2.625,4.551,2.625ZM167.2,305.064c-4.059,0-7.301,3.281-7.301,7.343,0,.656.535,1.188,1.191,1.188h15.953c.656,0,1.23-.532,1.23-1.188,0-4.062-3.281-7.343-7.34-7.343h-3.734Z" fill="#005f73"/>
        </g>
        <g id="text_29">
          <path id="FontAwesome6Free-Solid-f007-29" data-name="FontAwesome6Free-Solid-f007" d="M169.087,275.257c1.847,0,3.57-.984,4.512-2.625.945-1.601.945-3.609,0-5.25-.942-1.601-2.664-2.625-4.512-2.625-1.887,0-3.609,1.024-4.551,2.625-.945,1.641-.945,3.649,0,5.25.942,1.641,2.664,2.625,4.551,2.625ZM167.2,277.226c-4.059,0-7.301,3.281-7.301,7.343,0,.656.535,1.188,1.191,1.188h15.953c.656,0,1.23-.532,1.23-1.188,0-4.062-3.281-7.343-7.34-7.343h-3.734Z" fill="#005f73"/>
        </g>
        <g id="text_30">
          <path id="FontAwesome6Free-Solid-f007-30" data-name="FontAwesome6Free-Solid-f007" d="M169.087,247.42c1.847,0,3.57-.984,4.512-2.625.945-1.601.945-3.609,0-5.25-.942-1.601-2.664-2.625-4.512-2.625-1.887,0-3.609,1.024-4.551,2.625-.945,1.641-.945,3.649,0,5.25.942,1.641,2.664,2.625,4.551,2.625ZM167.2,249.389c-4.059,0-7.301,3.281-7.301,7.343,0,.656.535,1.188,1.191,1.188h15.953c.656,0,1.23-.532,1.23-1.188,0-4.062-3.281-7.343-7.34-7.343h-3.734Z" fill="#005f73"/>
        </g>
        <g id="text_31">
          <path id="FontAwesome6Free-Solid-f007-31" data-name="FontAwesome6Free-Solid-f007" d="M196.925,358.77c1.847,0,3.57-.984,4.512-2.625.945-1.601.945-3.609,0-5.25-.942-1.601-2.664-2.625-4.512-2.625-1.887,0-3.609,1.024-4.551,2.625-.945,1.641-.945,3.649,0,5.25.942,1.641,2.664,2.625,4.551,2.625ZM195.038,360.739c-4.059,0-7.301,3.281-7.301,7.343,0,.656.535,1.188,1.191,1.188h15.953c.656,0,1.23-.532,1.23-1.188,0-4.062-3.281-7.343-7.34-7.343h-3.734Z" fill="#005f73"/>
        </g>
        <g id="text_32">
          <path id="FontAwesome6Free-Solid-f007-32" data-name="FontAwesome6Free-Solid-f007" d="M196.925,330.932c1.847,0,3.57-.984,4.512-2.625.945-1.601.945-3.609,0-5.25-.942-1.601-2.664-2.625-4.512-2.625-1.887,0-3.609,1.024-4.551,2.625-.945,1.641-.945,3.649,0,5.25.942,1.641,2.664,2.625,4.551,2.625ZM195.038,332.901c-4.059,0-7.301,3.281-7.301,7.343,0,.656.535,1.188,1.191,1.188h15.953c.656,0,1.23-.532,1.23-1.188,0-4.062-3.281-7.343-7.34-7.343h-3.734Z" fill="#005f73"/>
        </g>
        <g id="text_33">
          <path id="FontAwesome6Free-Solid-f007-33" data-name="FontAwesome6Free-Solid-f007" d="M196.925,303.095c1.847,0,3.57-.984,4.512-2.625.945-1.601.945-3.609,0-5.25-.942-1.601-2.664-2.625-4.512-2.625-1.887,0-3.609,1.024-4.551,2.625-.945,1.641-.945,3.649,0,5.25.942,1.641,2.664,2.625,4.551,2.625ZM195.038,305.064c-4.059,0-7.301,3.281-7.301,7.343,0,.656.535,1.188,1.191,1.188h15.953c.656,0,1.23-.532,1.23-1.188,0-4.062-3.281-7.343-7.34-7.343h-3.734Z" fill="#005f73"/>
        </g>
        <g id="text_34">
          <path id="FontAwesome6Free-Solid-f007-34" data-name="FontAwesome6Free-Solid-f007" d="M196.925,275.257c1.847,0,3.57-.984,4.512-2.625.945-1.601.945-3.609,0-5.25-.942-1.601-2.664-2.625-4.512-2.625-1.887,0-3.609,1.024-4.551,2.625-.945,1.641-.945,3.649,0,5.25.942,1.641,2.664,2.625,4.551,2.625ZM195.038,277.226c-4.059,0-7.301,3.281-7.301,7.343,0,.656.535,1.188,1.191,1.188h15.953c.656,0,1.23-.532,1.23-1.188,0-4.062-3.281-7.343-7.34-7.343h-3.734Z" fill="#005f73"/>
        </g>
        <g id="text_35">
          <path id="FontAwesome6Free-Solid-f007-35" data-name="FontAwesome6Free-Solid-f007" d="M196.925,247.42c1.847,0,3.57-.984,4.512-2.625.945-1.601.945-3.609,0-5.25-.942-1.601-2.664-2.625-4.512-2.625-1.887,0-3.609,1.024-4.551,2.625-.945,1.641-.945,3.649,0,5.25.942,1.641,2.664,2.625,4.551,2.625ZM195.038,249.389c-4.059,0-7.301,3.281-7.301,7.343,0,.656.535,1.188,1.191,1.188h15.953c.656,0,1.23-.532,1.23-1.188,0-4.062-3.281-7.343-7.34-7.343h-3.734Z" fill="#005f73"/>
        </g>
        <g id="text_36">
          <path id="FontAwesome6Free-Solid-f007-36" data-name="FontAwesome6Free-Solid-f007" d="M224.762,358.77c1.847,0,3.57-.984,4.512-2.625.945-1.601.945-3.609,0-5.25-.942-1.601-2.664-2.625-4.512-2.625-1.887,0-3.609,1.024-4.551,2.625-.945,1.641-.945,3.649,0,5.25.942,1.641,2.664,2.625,4.551,2.625ZM222.875,360.739c-4.059,0-7.301,3.281-7.301,7.343,0,.656.535,1.188,1.191,1.188h15.953c.656,0,1.23-.532,1.23-1.188,0-4.062-3.281-7.343-7.34-7.343h-3.734Z" fill="#005f73"/>
        </g>
        <g id="text_37">
          <path id="FontAwesome6Free-Solid-f007-37" data-name="FontAwesome6Free-Solid-f007" d="M224.762,330.932c1.847,0,3.57-.984,4.512-2.625.945-1.601.945-3.609,0-5.25-.942-1.601-2.664-2.625-4.512-2.625-1.887,0-3.609,1.024-4.551,2.625-.945,1.641-.945,3.649,0,5.25.942,1.641,2.664,2.625,4.551,2.625ZM222.875,332.901c-4.059,0-7.301,3.281-7.301,7.343,0,.656.535,1.188,1.191,1.188h15.953c.656,0,1.23-.532,1.23-1.188,0-4.062-3.281-7.343-7.34-7.343h-3.734Z" fill="#005f73"/>
        </g>
        <g id="text_38">
          <path id="FontAwesome6Free-Solid-f007-38" data-name="FontAwesome6Free-Solid-f007" d="M224.762,303.095c1.847,0,3.57-.984,4.512-2.625.945-1.601.945-3.609,0-5.25-.942-1.601-2.664-2.625-4.512-2.625-1.887,0-3.609,1.024-4.551,2.625-.945,1.641-.945,3.649,0,5.25.942,1.641,2.664,2.625,4.551,2.625ZM222.875,305.064c-4.059,0-7.301,3.281-7.301,7.343,0,.656.535,1.188,1.191,1.188h15.953c.656,0,1.23-.532,1.23-1.188,0-4.062-3.281-7.343-7.34-7.343h-3.734Z" fill="#005f73"/>
        </g>
        <g id="text_39">
          <path id="FontAwesome6Free-Solid-f007-39" data-name="FontAwesome6Free-Solid-f007" d="M224.762,275.257c1.847,0,3.57-.984,4.512-2.625.945-1.601.945-3.609,0-5.25-.942-1.601-2.664-2.625-4.512-2.625-1.887,0-3.609,1.024-4.551,2.625-.945,1.641-.945,3.649,0,5.25.942,1.641,2.664,2.625,4.551,2.625ZM222.875,277.226c-4.059,0-7.301,3.281-7.301,7.343,0,.656.535,1.188,1.191,1.188h15.953c.656,0,1.23-.532,1.23-1.188,0-4.062-3.281-7.343-7.34-7.343h-3.734Z" fill="#005f73"/>
        </g>
        <g id="text_40">
          <path id="FontAwesome6Free-Solid-f007-40" data-name="FontAwesome6Free-Solid-f007" d="M224.762,247.42c1.847,0,3.57-.984,4.512-2.625.945-1.601.945-3.609,0-5.25-.942-1.601-2.664-2.625-4.512-2.625-1.887,0-3.609,1.024-4.551,2.625-.945,1.641-.945,3.649,0,5.25.942,1.641,2.664,2.625,4.551,2.625ZM222.875,249.389c-4.059,0-7.301,3.281-7.301,7.343,0,.656.535,1.188,1.191,1.188h15.953c.656,0,1.23-.532,1.23-1.188,0-4.062-3.281-7.343-7.34-7.343h-3.734Z" fill="#005f73"/>
        </g>
        <g id="text_41">
          <path id="FontAwesome6Free-Solid-f007-41" data-name="FontAwesome6Free-Solid-f007" d="M252.6,358.77c1.847,0,3.57-.984,4.512-2.625.945-1.601.945-3.609,0-5.25-.942-1.601-2.664-2.625-4.512-2.625-1.887,0-3.609,1.024-4.551,2.625-.945,1.641-.945,3.649,0,5.25.942,1.641,2.664,2.625,4.551,2.625ZM250.713,360.739c-4.059,0-7.301,3.281-7.301,7.343,0,.656.535,1.188,1.191,1.188h15.953c.656,0,1.23-.532,1.23-1.188,0-4.062-3.281-7.343-7.34-7.343h-3.734Z" fill="#005f73"/>
        </g>
        <g id="text_42">
          <path id="FontAwesome6Free-Solid-f007-42" data-name="FontAwesome6Free-Solid-f007" d="M252.6,330.932c1.847,0,3.57-.984,4.512-2.625.945-1.601.945-3.609,0-5.25-.942-1.601-2.664-2.625-4.512-2.625-1.887,0-3.609,1.024-4.551,2.625-.945,1.641-.945,3.649,0,5.25.942,1.641,2.664,2.625,4.551,2.625ZM250.713,332.901c-4.059,0-7.301,3.281-7.301,7.343,0,.656.535,1.188,1.191,1.188h15.953c.656,0,1.23-.532,1.23-1.188,0-4.062-3.281-7.343-7.34-7.343h-3.734Z" fill="#005f73"/>
        </g>
        <g id="text_43">
          <path id="FontAwesome6Free-Solid-f007-43" data-name="FontAwesome6Free-Solid-f007" d="M252.6,303.095c1.847,0,3.57-.984,4.512-2.625.945-1.601.945-3.609,0-5.25-.942-1.601-2.664-2.625-4.512-2.625-1.887,0-3.609,1.024-4.551,2.625-.945,1.641-.945,3.649,0,5.25.942,1.641,2.664,2.625,4.551,2.625ZM250.713,305.064c-4.059,0-7.301,3.281-7.301,7.343,0,.656.535,1.188,1.191,1.188h15.953c.656,0,1.23-.532,1.23-1.188,0-4.062-3.281-7.343-7.34-7.343h-3.734Z" fill="#005f73"/>
        </g>
        <g id="text_44">
          <path id="FontAwesome6Free-Solid-f007-44" data-name="FontAwesome6Free-Solid-f007" d="M252.6,275.257c1.847,0,3.57-.984,4.512-2.625.945-1.601.945-3.609,0-5.25-.942-1.601-2.664-2.625-4.512-2.625-1.887,0-3.609,1.024-4.551,2.625-.945,1.641-.945,3.649,0,5.25.942,1.641,2.664,2.625,4.551,2.625ZM250.713,277.226c-4.059,0-7.301,3.281-7.301,7.343,0,.656.535,1.188,1.191,1.188h15.953c.656,0,1.23-.532,1.23-1.188,0-4.062-3.281-7.343-7.34-7.343h-3.734Z" fill="#005f73"/>
        </g>
        <g id="text_45">
          <path id="FontAwesome6Free-Solid-f007-45" data-name="FontAwesome6Free-Solid-f007" d="M252.6,247.42c1.847,0,3.57-.984,4.512-2.625.945-1.601.945-3.609,0-5.25-.942-1.601-2.664-2.625-4.512-2.625-1.887,0-3.609,1.024-4.551,2.625-.945,1.641-.945,3.649,0,5.25.942,1.641,2.664,2.625,4.551,2.625ZM250.713,249.389c-4.059,0-7.301,3.281-7.301,7.343,0,.656.535,1.188,1.191,1.188h15.953c.656,0,1.23-.532,1.23-1.188,0-4.062-3.281-7.343-7.34-7.343h-3.734Z" fill="#005f73"/>
        </g>
        <g id="text_46">
          <path id="FontAwesome6Free-Solid-f007-46" data-name="FontAwesome6Free-Solid-f007" d="M280.437,358.77c1.847,0,3.57-.984,4.512-2.625.945-1.601.945-3.609,0-5.25-.942-1.601-2.664-2.625-4.512-2.625-1.887,0-3.609,1.024-4.551,2.625-.945,1.641-.945,3.649,0,5.25.942,1.641,2.664,2.625,4.551,2.625ZM278.55,360.739c-4.059,0-7.301,3.281-7.301,7.343,0,.656.535,1.188,1.191,1.188h15.953c.656,0,1.23-.532,1.23-1.188,0-4.062-3.281-7.343-7.34-7.343h-3.734Z" fill="#005f73"/>
        </g>
        <g id="text_47">
          <path id="FontAwesome6Free-Solid-f007-47" data-name="FontAwesome6Free-Solid-f007" d="M280.437,330.932c1.847,0,3.57-.984,4.512-2.625.945-1.601.945-3.609,0-5.25-.942-1.601-2.664-2.625-4.512-2.625-1.887,0-3.609,1.024-4.551,2.625-.945,1.641-.945,3.649,0,5.25.942,1.641,2.664,2.625,4.551,2.625ZM278.55,332.901c-4.059,0-7.301,3.281-7.301,7.343,0,.656.535,1.188,1.191,1.188h15.953c.656,0,1.23-.532,1.23-1.188,0-4.062-3.281-7.343-7.34-7.343h-3.734Z" fill="#005f73"/>
        </g>
        <g id="text_48">
          <path id="FontAwesome6Free-Solid-f007-48" data-name="FontAwesome6Free-Solid-f007" d="M280.437,303.095c1.847,0,3.57-.984,4.512-2.625.945-1.601.945-3.609,0-5.25-.942-1.601-2.664-2.625-4.512-2.625-1.887,0-3.609,1.024-4.551,2.625-.945,1.641-.945,3.649,0,5.25.942,1.641,2.664,2.625,4.551,2.625ZM278.55,305.064c-4.059,0-7.301,3.281-7.301,7.343,0,.656.535,1.188,1.191,1.188h15.953c.656,0,1.23-.532,1.23-1.188,0-4.062-3.281-7.343-7.34-7.343h-3.734Z" fill="#005f73"/>
        </g>
        <g id="text_49">
          <path id="FontAwesome6Free-Solid-f007-49" data-name="FontAwesome6Free-Solid-f007" d="M280.437,275.257c1.847,0,3.57-.984,4.512-2.625.945-1.601.945-3.609,0-5.25-.942-1.601-2.664-2.625-4.512-2.625-1.887,0-3.609,1.024-4.551,2.625-.945,1.641-.945,3.649,0,5.25.942,1.641,2.664,2.625,4.551,2.625ZM278.55,277.226c-4.059,0-7.301,3.281-7.301,7.343,0,.656.535,1.188,1.191,1.188h15.953c.656,0,1.23-.532,1.23-1.188,0-4.062-3.281-7.343-7.34-7.343h-3.734Z" fill="#005f73"/>
        </g>
        <g id="text_50">
          <path id="FontAwesome6Free-Solid-f007-50" data-name="FontAwesome6Free-Solid-f007" d="M280.437,247.42c1.847,0,3.57-.984,4.512-2.625.945-1.601.945-3.609,0-5.25-.942-1.601-2.664-2.625-4.512-2.625-1.887,0-3.609,1.024-4.551,2.625-.945,1.641-.945,3.649,0,5.25.942,1.641,2.664,2.625,4.551,2.625ZM278.55,249.389c-4.059,0-7.301,3.281-7.301,7.343,0,.656.535,1.188,1.191,1.188h15.953c.656,0,1.23-.532,1.23-1.188,0-4.062-3.281-7.343-7.34-7.343h-3.734Z" fill="#005f73"/>
        </g>
        <g id="text_51">
          <path id="FontAwesome6Free-Solid-f007-51" data-name="FontAwesome6Free-Solid-f007" d="M308.275,358.77c1.847,0,3.57-.984,4.512-2.625.945-1.601.945-3.609,0-5.25-.942-1.601-2.664-2.625-4.512-2.625-1.887,0-3.609,1.024-4.551,2.625-.945,1.641-.945,3.649,0,5.25.942,1.641,2.664,2.625,4.551,2.625ZM306.388,360.739c-4.059,0-7.301,3.281-7.301,7.343,0,.656.535,1.188,1.191,1.188h15.953c.656,0,1.23-.532,1.23-1.188,0-4.062-3.281-7.343-7.34-7.343h-3.734Z" fill="#005f73"/>
        </g>
        <g id="text_52">
          <path id="FontAwesome6Free-Solid-f007-52" data-name="FontAwesome6Free-Solid-f007" d="M308.275,330.932c1.847,0,3.57-.984,4.512-2.625.945-1.601.945-3.609,0-5.25-.942-1.601-2.664-2.625-4.512-2.625-1.887,0-3.609,1.024-4.551,2.625-.945,1.641-.945,3.649,0,5.25.942,1.641,2.664,2.625,4.551,2.625ZM306.388,332.901c-4.059,0-7.301,3.281-7.301,7.343,0,.656.535,1.188,1.191,1.188h15.953c.656,0,1.23-.532,1.23-1.188,0-4.062-3.281-7.343-7.34-7.343h-3.734Z" fill="#005f73"/>
        </g>
        <g id="text_53">
          <path id="FontAwesome6Free-Solid-f007-53" data-name="FontAwesome6Free-Solid-f007" d="M308.275,303.095c1.847,0,3.57-.984,4.512-2.625.945-1.601.945-3.609,0-5.25-.942-1.601-2.664-2.625-4.512-2.625-1.887,0-3.609,1.024-4.551,2.625-.945,1.641-.945,3.649,0,5.25.942,1.641,2.664,2.625,4.551,2.625ZM306.388,305.064c-4.059,0-7.301,3.281-7.301,7.343,0,.656.535,1.188,1.191,1.188h15.953c.656,0,1.23-.532,1.23-1.188,0-4.062-3.281-7.343-7.34-7.343h-3.734Z" fill="#005f73"/>
        </g>
        <g id="text_54">
          <path id="FontAwesome6Free-Solid-f007-54" data-name="FontAwesome6Free-Solid-f007" d="M308.275,275.257c1.847,0,3.57-.984,4.512-2.625.945-1.601.945-3.609,0-5.25-.942-1.601-2.664-2.625-4.512-2.625-1.887,0-3.609,1.024-4.551,2.625-.945,1.641-.945,3.649,0,5.25.942,1.641,2.664,2.625,4.551,2.625ZM306.388,277.226c-4.059,0-7.301,3.281-7.301,7.343,0,.656.535,1.188,1.191,1.188h15.953c.656,0,1.23-.532,1.23-1.188,0-4.062-3.281-7.343-7.34-7.343h-3.734Z" fill="#005f73"/>
        </g>
        <g id="text_55">
          <path id="FontAwesome6Free-Solid-f007-55" data-name="FontAwesome6Free-Solid-f007" d="M308.275,247.42c1.847,0,3.57-.984,4.512-2.625.945-1.601.945-3.609,0-5.25-.942-1.601-2.664-2.625-4.512-2.625-1.887,0-3.609,1.024-4.551,2.625-.945,1.641-.945,3.649,0,5.25.942,1.641,2.664,2.625,4.551,2.625ZM306.388,249.389c-4.059,0-7.301,3.281-7.301,7.343,0,.656.535,1.188,1.191,1.188h15.953c.656,0,1.23-.532,1.23-1.188,0-4.062-3.281-7.343-7.34-7.343h-3.734Z" fill="#005f73"/>
        </g>
        <g id="text_56">
          <path id="FontAwesome6Free-Solid-f007-56" data-name="FontAwesome6Free-Solid-f007" d="M336.112,358.77c1.847,0,3.57-.984,4.512-2.625.945-1.601.945-3.609,0-5.25-.942-1.601-2.664-2.625-4.512-2.625-1.887,0-3.609,1.024-4.551,2.625-.945,1.641-.945,3.649,0,5.25.942,1.641,2.664,2.625,4.551,2.625ZM334.225,360.739c-4.059,0-7.301,3.281-7.301,7.343,0,.656.535,1.188,1.191,1.188h15.953c.656,0,1.23-.532,1.23-1.188,0-4.062-3.281-7.343-7.34-7.343h-3.734Z" fill="#005f73"/>
        </g>
        <g id="text_57">
          <path id="FontAwesome6Free-Solid-f007-57" data-name="FontAwesome6Free-Solid-f007" d="M336.112,330.932c1.847,0,3.57-.984,4.512-2.625.945-1.601.945-3.609,0-5.25-.942-1.601-2.664-2.625-4.512-2.625-1.887,0-3.609,1.024-4.551,2.625-.945,1.641-.945,3.649,0,5.25.942,1.641,2.664,2.625,4.551,2.625ZM334.225,332.901c-4.059,0-7.301,3.281-7.301,7.343,0,.656.535,1.188,1.191,1.188h15.953c.656,0,1.23-.532,1.23-1.188,0-4.062-3.281-7.343-7.34-7.343h-3.734Z" fill="#005f73"/>
        </g>
        <g id="text_58">
          <path id="FontAwesome6Free-Solid-f007-58" data-name="FontAwesome6Free-Solid-f007" d="M336.112,303.095c1.847,0,3.57-.984,4.512-2.625.945-1.601.945-3.609,0-5.25-.942-1.601-2.664-2.625-4.512-2.625-1.887,0-3.609,1.024-4.551,2.625-.945,1.641-.945,3.649,0,5.25.942,1.641,2.664,2.625,4.551,2.625ZM334.225,305.064c-4.059,0-7.301,3.281-7.301,7.343,0,.656.535,1.188,1.191,1.188h15.953c.656,0,1.23-.532,1.23-1.188,0-4.062-3.281-7.343-7.34-7.343h-3.734Z" fill="#005f73"/>
        </g>
        <g id="text_59">
          <path id="FontAwesome6Free-Solid-f007-59" data-name="FontAwesome6Free-Solid-f007" d="M336.112,275.257c1.847,0,3.57-.984,4.512-2.625.945-1.601.945-3.609,0-5.25-.942-1.601-2.664-2.625-4.512-2.625-1.887,0-3.609,1.024-4.551,2.625-.945,1.641-.945,3.649,0,5.25.942,1.641,2.664,2.625,4.551,2.625ZM334.225,277.226c-4.059,0-7.301,3.281-7.301,7.343,0,.656.535,1.188,1.191,1.188h15.953c.656,0,1.23-.532,1.23-1.188,0-4.062-3.281-7.343-7.34-7.343h-3.734Z" fill="#005f73"/>
        </g>
        <g id="text_60">
          <path id="FontAwesome6Free-Solid-f007-60" data-name="FontAwesome6Free-Solid-f007" d="M336.112,247.42c1.847,0,3.57-.984,4.512-2.625.945-1.601.945-3.609,0-5.25-.942-1.601-2.664-2.625-4.512-2.625-1.887,0-3.609,1.024-4.551,2.625-.945,1.641-.945,3.649,0,5.25.942,1.641,2.664,2.625,4.551,2.625ZM334.225,249.389c-4.059,0-7.301,3.281-7.301,7.343,0,.656.535,1.188,1.191,1.188h15.953c.656,0,1.23-.532,1.23-1.188,0-4.062-3.281-7.343-7.34-7.343h-3.734Z" fill="#005f73"/>
        </g>
        <g id="text_61">
          <path id="FontAwesome6Free-Solid-f007-61" data-name="FontAwesome6Free-Solid-f007" d="M363.95,358.77c1.847,0,3.57-.984,4.512-2.625.945-1.601.945-3.609,0-5.25-.942-1.601-2.664-2.625-4.512-2.625-1.887,0-3.609,1.024-4.551,2.625-.945,1.641-.945,3.649,0,5.25.942,1.641,2.664,2.625,4.551,2.625ZM362.063,360.739c-4.059,0-7.301,3.281-7.301,7.343,0,.656.535,1.188,1.191,1.188h15.953c.656,0,1.23-.532,1.23-1.188,0-4.062-3.281-7.343-7.34-7.343h-3.734Z" fill="#005f73"/>
        </g>
        <g id="text_62">
          <path id="FontAwesome6Free-Solid-f007-62" data-name="FontAwesome6Free-Solid-f007" d="M363.95,330.932c1.847,0,3.57-.984,4.512-2.625.945-1.601.945-3.609,0-5.25-.942-1.601-2.664-2.625-4.512-2.625-1.887,0-3.609,1.024-4.551,2.625-.945,1.641-.945,3.649,0,5.25.942,1.641,2.664,2.625,4.551,2.625ZM362.063,332.901c-4.059,0-7.301,3.281-7.301,7.343,0,.656.535,1.188,1.191,1.188h15.953c.656,0,1.23-.532,1.23-1.188,0-4.062-3.281-7.343-7.34-7.343h-3.734Z" fill="#005f73"/>
        </g>
        <g id="text_63">
          <path id="FontAwesome6Free-Solid-f007-63" data-name="FontAwesome6Free-Solid-f007" d="M363.95,303.095c1.847,0,3.57-.984,4.512-2.625.945-1.601.945-3.609,0-5.25-.942-1.601-2.664-2.625-4.512-2.625-1.887,0-3.609,1.024-4.551,2.625-.945,1.641-.945,3.649,0,5.25.942,1.641,2.664,2.625,4.551,2.625ZM362.063,305.064c-4.059,0-7.301,3.281-7.301,7.343,0,.656.535,1.188,1.191,1.188h15.953c.656,0,1.23-.532,1.23-1.188,0-4.062-3.281-7.343-7.34-7.343h-3.734Z" fill="#005f73"/>
        </g>
        <g id="text_64">
          <path id="FontAwesome6Free-Solid-f007-64" data-name="FontAwesome6Free-Solid-f007" d="M363.95,275.257c1.847,0,3.57-.984,4.512-2.625.945-1.601.945-3.609,0-5.25-.942-1.601-2.664-2.625-4.512-2.625-1.887,0-3.609,1.024-4.551,2.625-.945,1.641-.945,3.649,0,5.25.942,1.641,2.664,2.625,4.551,2.625ZM362.063,277.226c-4.059,0-7.301,3.281-7.301,7.343,0,.656.535,1.188,1.191,1.188h15.953c.656,0,1.23-.532,1.23-1.188,0-4.062-3.281-7.343-7.34-7.343h-3.734Z" fill="#005f73"/>
        </g>
        <g id="text_65">
          <path id="FontAwesome6Free-Solid-f007-65" data-name="FontAwesome6Free-Solid-f007" d="M363.95,247.42c1.847,0,3.57-.984,4.512-2.625.945-1.601.945-3.609,0-5.25-.942-1.601-2.664-2.625-4.512-2.625-1.887,0-3.609,1.024-4.551,2.625-.945,1.641-.945,3.649,0,5.25.942,1.641,2.664,2.625,4.551,2.625ZM362.063,249.389c-4.059,0-7.301,3.281-7.301,7.343,0,.656.535,1.188,1.191,1.188h15.953c.656,0,1.23-.532,1.23-1.188,0-4.062-3.281-7.343-7.34-7.343h-3.734Z" fill="#005f73"/>
        </g>
        <g id="text_66">
          <path id="FontAwesome6Free-Solid-f007-66" data-name="FontAwesome6Free-Solid-f007" d="M391.787,358.77c1.847,0,3.57-.984,4.512-2.625.945-1.601.945-3.609,0-5.25-.942-1.601-2.664-2.625-4.512-2.625-1.887,0-3.609,1.024-4.551,2.625-.945,1.641-.945,3.649,0,5.25.942,1.641,2.664,2.625,4.551,2.625ZM389.9,360.739c-4.059,0-7.301,3.281-7.301,7.343,0,.656.535,1.188,1.191,1.188h15.953c.656,0,1.23-.532,1.23-1.188,0-4.062-3.281-7.343-7.34-7.343h-3.734Z" fill="#005f73"/>
        </g>
        <g id="text_67">
          <path id="FontAwesome6Free-Solid-f007-67" data-name="FontAwesome6Free-Solid-f007" d="M391.787,330.932c1.847,0,3.57-.984,4.512-2.625.945-1.601.945-3.609,0-5.25-.942-1.601-2.664-2.625-4.512-2.625-1.887,0-3.609,1.024-4.551,2.625-.945,1.641-.945,3.649,0,5.25.942,1.641,2.664,2.625,4.551,2.625ZM389.9,332.901c-4.059,0-7.301,3.281-7.301,7.343,0,.656.535,1.188,1.191,1.188h15.953c.656,0,1.23-.532,1.23-1.188,0-4.062-3.281-7.343-7.34-7.343h-3.734Z" fill="#005f73"/>
        </g>
        <g id="text_68">
          <path id="FontAwesome6Free-Solid-f007-68" data-name="FontAwesome6Free-Solid-f007" d="M391.787,303.095c1.847,0,3.57-.984,4.512-2.625.945-1.601.945-3.609,0-5.25-.942-1.601-2.664-2.625-4.512-2.625-1.887,0-3.609,1.024-4.551,2.625-.945,1.641-.945,3.649,0,5.25.942,1.641,2.664,2.625,4.551,2.625ZM389.9,305.064c-4.059,0-7.301,3.281-7.301,7.343,0,.656.535,1.188,1.191,1.188h15.953c.656,0,1.23-.532,1.23-1.188,0-4.062-3.281-7.343-7.34-7.343h-3.734Z" fill="#005f73"/>
        </g>
        <g id="text_69">
          <path id="FontAwesome6Free-Solid-f007-69" data-name="FontAwesome6Free-Solid-f007" d="M391.787,275.257c1.847,0,3.57-.984,4.512-2.625.945-1.601.945-3.609,0-5.25-.942-1.601-2.664-2.625-4.512-2.625-1.887,0-3.609,1.024-4.551,2.625-.945,1.641-.945,3.649,0,5.25.942,1.641,2.664,2.625,4.551,2.625ZM389.9,277.226c-4.059,0-7.301,3.281-7.301,7.343,0,.656.535,1.188,1.191,1.188h15.953c.656,0,1.23-.532,1.23-1.188,0-4.062-3.281-7.343-7.34-7.343h-3.734Z" fill="#005f73"/>
        </g>
        <g id="text_70">
          <path id="FontAwesome6Free-Solid-f007-70" data-name="FontAwesome6Free-Solid-f007" d="M391.787,247.42c1.847,0,3.57-.984,4.512-2.625.945-1.601.945-3.609,0-5.25-.942-1.601-2.664-2.625-4.512-2.625-1.887,0-3.609,1.024-4.551,2.625-.945,1.641-.945,3.649,0,5.25.942,1.641,2.664,2.625,4.551,2.625ZM389.9,249.389c-4.059,0-7.301,3.281-7.301,7.343,0,.656.535,1.188,1.191,1.188h15.953c.656,0,1.23-.532,1.23-1.188,0-4.062-3.281-7.343-7.34-7.343h-3.734Z" fill="#005f73"/>
        </g>
        <g id="text_71">
          <path id="FontAwesome6Free-Solid-f007-71" data-name="FontAwesome6Free-Solid-f007" d="M419.625,358.77c1.847,0,3.57-.984,4.512-2.625.945-1.601.945-3.609,0-5.25-.942-1.601-2.664-2.625-4.512-2.625-1.887,0-3.609,1.024-4.551,2.625-.945,1.641-.945,3.649,0,5.25.942,1.641,2.664,2.625,4.551,2.625ZM417.738,360.739c-4.059,0-7.301,3.281-7.301,7.343,0,.656.535,1.188,1.191,1.188h15.953c.656,0,1.23-.532,1.23-1.188,0-4.062-3.281-7.343-7.34-7.343h-3.734Z" fill="#005f73"/>
        </g>
        <g id="text_72">
          <path id="FontAwesome6Free-Solid-f007-72" data-name="FontAwesome6Free-Solid-f007" d="M419.625,330.932c1.847,0,3.57-.984,4.512-2.625.945-1.601.945-3.609,0-5.25-.942-1.601-2.664-2.625-4.512-2.625-1.887,0-3.609,1.024-4.551,2.625-.945,1.641-.945,3.649,0,5.25.942,1.641,2.664,2.625,4.551,2.625ZM417.738,332.901c-4.059,0-7.301,3.281-7.301,7.343,0,.656.535,1.188,1.191,1.188h15.953c.656,0,1.23-.532,1.23-1.188,0-4.062-3.281-7.343-7.34-7.343h-3.734Z" fill="#005f73"/>
        </g>
        <g id="text_73">
          <path id="FontAwesome6Free-Solid-f007-73" data-name="FontAwesome6Free-Solid-f007" d="M419.625,303.095c1.847,0,3.57-.984,4.512-2.625.945-1.601.945-3.609,0-5.25-.942-1.601-2.664-2.625-4.512-2.625-1.887,0-3.609,1.024-4.551,2.625-.945,1.641-.945,3.649,0,5.25.942,1.641,2.664,2.625,4.551,2.625ZM417.738,305.064c-4.059,0-7.301,3.281-7.301,7.343,0,.656.535,1.188,1.191,1.188h15.953c.656,0,1.23-.532,1.23-1.188,0-4.062-3.281-7.343-7.34-7.343h-3.734Z" fill="#005f73"/>
        </g>
        <g id="text_74">
          <path id="FontAwesome6Free-Solid-f007-74" data-name="FontAwesome6Free-Solid-f007" d="M419.625,275.257c1.847,0,3.57-.984,4.512-2.625.945-1.601.945-3.609,0-5.25-.942-1.601-2.664-2.625-4.512-2.625-1.887,0-3.609,1.024-4.551,2.625-.945,1.641-.945,3.649,0,5.25.942,1.641,2.664,2.625,4.551,2.625ZM417.738,277.226c-4.059,0-7.301,3.281-7.301,7.343,0,.656.535,1.188,1.191,1.188h15.953c.656,0,1.23-.532,1.23-1.188,0-4.062-3.281-7.343-7.34-7.343h-3.734Z" fill="#005f73"/>
        </g>
        <g id="text_75">
          <path id="FontAwesome6Free-Solid-f007-75" data-name="FontAwesome6Free-Solid-f007" d="M419.625,247.42c1.847,0,3.57-.984,4.512-2.625.945-1.601.945-3.609,0-5.25-.942-1.601-2.664-2.625-4.512-2.625-1.887,0-3.609,1.024-4.551,2.625-.945,1.641-.945,3.649,0,5.25.942,1.641,2.664,2.625,4.551,2.625ZM417.738,249.389c-4.059,0-7.301,3.281-7.301,7.343,0,.656.535,1.188,1.191,1.188h15.953c.656,0,1.23-.532,1.23-1.188,0-4.062-3.281-7.343-7.34-7.343h-3.734Z" fill="#005f73"/>
        </g>
        <g id="ichange_x5F_2023">
          <path id="FontAwesome6Free-Solid-f007-76" data-name="FontAwesome6Free-Solid-f007" d="M447.462,358.77c1.847,0,3.57-.984,4.512-2.625.945-1.601.945-3.609,0-5.25-.942-1.601-2.664-2.625-4.512-2.625-1.887,0-3.609,1.024-4.551,2.625-.945,1.641-.945,3.649,0,5.25.942,1.641,2.664,2.625,4.551,2.625ZM445.575,360.739c-4.059,0-7.301,3.281-7.301,7.343,0,.656.535,1.188,1.191,1.188h15.953c.656,0,1.23-.532,1.23-1.188,0-4.062-3.281-7.343-7.34-7.343h-3.734Z" fill="#005f73"/>
        </g>
        <g id="ichange-2022">
          <path id="FontAwesome6Free-Solid-f007-77" data-name="FontAwesome6Free-Solid-f007" d="M447.462,330.932c1.847,0,3.57-.984,4.512-2.625.945-1.601.945-3.609,0-5.25-.942-1.601-2.664-2.625-4.512-2.625-1.887,0-3.609,1.024-4.551,2.625-.945,1.641-.945,3.649,0,5.25.942,1.641,2.664,2.625,4.551,2.625ZM445.575,332.901c-4.059,0-7.301,3.281-7.301,7.343,0,.656.535,1.188,1.191,1.188h15.953c.656,0,1.23-.532,1.23-1.188,0-4.062-3.281-7.343-7.34-7.343h-3.734Z" fill="#005f73"/>
        </g>
        <g id="ichange2019-back2021">
          <path id="FontAwesome6Free-Solid-f007-78" data-name="FontAwesome6Free-Solid-f007" d="M447.462,303.095c1.847,0,3.57-.984,4.512-2.625.945-1.601.945-3.609,0-5.25-.942-1.601-2.664-2.625-4.512-2.625-1.887,0-3.609,1.024-4.551,2.625-.945,1.641-.945,3.649,0,5.25.942,1.641,2.664,2.625,4.551,2.625ZM445.575,305.064c-4.059,0-7.301,3.281-7.301,7.343,0,.656.535,1.188,1.191,1.188h15.953c.656,0,1.23-.532,1.23-1.188,0-4.062-3.281-7.343-7.34-7.343h-3.734Z" fill="#005f73"/>
        </g>
        <g id="text_79">
          <path id="FontAwesome6Free-Solid-f007-79" data-name="FontAwesome6Free-Solid-f007" d="M447.462,275.257c1.847,0,3.57-.984,4.512-2.625.945-1.601.945-3.609,0-5.25-.942-1.601-2.664-2.625-4.512-2.625-1.887,0-3.609,1.024-4.551,2.625-.945,1.641-.945,3.649,0,5.25.942,1.641,2.664,2.625,4.551,2.625ZM445.575,277.226c-4.059,0-7.301,3.281-7.301,7.343,0,.656.535,1.188,1.191,1.188h15.953c.656,0,1.23-.532,1.23-1.188,0-4.062-3.281-7.343-7.34-7.343h-3.734Z" fill="#f3722c"/>
        </g>
        <g id="text_80">
          <path id="FontAwesome6Free-Solid-f007-80" data-name="FontAwesome6Free-Solid-f007" d="M447.462,247.42c1.847,0,3.57-.984,4.512-2.625.945-1.601.945-3.609,0-5.25-.942-1.601-2.664-2.625-4.512-2.625-1.887,0-3.609,1.024-4.551,2.625-.945,1.641-.945,3.649,0,5.25.942,1.641,2.664,2.625,4.551,2.625ZM445.575,249.389c-4.059,0-7.301,3.281-7.301,7.343,0,.656.535,1.188,1.191,1.188h15.953c.656,0,1.23-.532,1.23-1.188,0-4.062-3.281-7.343-7.34-7.343h-3.734Z" fill="#f3722c"/>
        </g>
        <g id="text_81">
          <path id="FontAwesome6Free-Solid-f007-81" data-name="FontAwesome6Free-Solid-f007" d="M475.3,358.77c1.847,0,3.57-.984,4.512-2.625.945-1.601.945-3.609,0-5.25-.942-1.601-2.664-2.625-4.512-2.625-1.887,0-3.609,1.024-4.551,2.625-.945,1.641-.945,3.649,0,5.25.942,1.641,2.664,2.625,4.551,2.625ZM473.413,360.739c-4.059,0-7.301,3.281-7.301,7.343,0,.656.535,1.188,1.191,1.188h15.953c.656,0,1.23-.532,1.23-1.188,0-4.062-3.281-7.343-7.34-7.343h-3.734Z" fill="#f3722c"/>
        </g>
        <g id="text_82">
          <path id="FontAwesome6Free-Solid-f007-82" data-name="FontAwesome6Free-Solid-f007" d="M475.3,330.932c1.847,0,3.57-.984,4.512-2.625.945-1.601.945-3.609,0-5.25-.942-1.601-2.664-2.625-4.512-2.625-1.887,0-3.609,1.024-4.551,2.625-.945,1.641-.945,3.649,0,5.25.942,1.641,2.664,2.625,4.551,2.625ZM473.413,332.901c-4.059,0-7.301,3.281-7.301,7.343,0,.656.535,1.188,1.191,1.188h15.953c.656,0,1.23-.532,1.23-1.188,0-4.062-3.281-7.343-7.34-7.343h-3.734Z" fill="#f3722c"/>
        </g>
        <g id="text_83">
          <path id="FontAwesome6Free-Solid-f007-83" data-name="FontAwesome6Free-Solid-f007" d="M475.3,303.095c1.847,0,3.57-.984,4.512-2.625.945-1.601.945-3.609,0-5.25-.942-1.601-2.664-2.625-4.512-2.625-1.887,0-3.609,1.024-4.551,2.625-.945,1.641-.945,3.649,0,5.25.942,1.641,2.664,2.625,4.551,2.625ZM473.413,305.064c-4.059,0-7.301,3.281-7.301,7.343,0,.656.535,1.188,1.191,1.188h15.953c.656,0,1.23-.532,1.23-1.188,0-4.062-3.281-7.343-7.34-7.343h-3.734Z" fill="#f3722c"/>
        </g>
        <g id="text_84">
          <path id="FontAwesome6Free-Solid-f007-84" data-name="FontAwesome6Free-Solid-f007" d="M475.3,275.257c1.847,0,3.57-.984,4.512-2.625.945-1.601.945-3.609,0-5.25-.942-1.601-2.664-2.625-4.512-2.625-1.887,0-3.609,1.024-4.551,2.625-.945,1.641-.945,3.649,0,5.25.942,1.641,2.664,2.625,4.551,2.625ZM473.413,277.226c-4.059,0-7.301,3.281-7.301,7.343,0,.656.535,1.188,1.191,1.188h15.953c.656,0,1.23-.532,1.23-1.188,0-4.062-3.281-7.343-7.34-7.343h-3.734Z" fill="#f3722c"/>
        </g>
        <g id="text_85">
          <path id="FontAwesome6Free-Solid-f007-85" data-name="FontAwesome6Free-Solid-f007" d="M475.3,247.42c1.847,0,3.57-.984,4.512-2.625.945-1.601.945-3.609,0-5.25-.942-1.601-2.664-2.625-4.512-2.625-1.887,0-3.609,1.024-4.551,2.625-.945,1.641-.945,3.649,0,5.25.942,1.641,2.664,2.625,4.551,2.625ZM473.413,249.389c-4.059,0-7.301,3.281-7.301,7.343,0,.656.535,1.188,1.191,1.188h15.953c.656,0,1.23-.532,1.23-1.188,0-4.062-3.281-7.343-7.34-7.343h-3.734Z" fill="#f3722c"/>
        </g>
        <g id="text_86">
          <path id="FontAwesome6Free-Solid-f007-86" data-name="FontAwesome6Free-Solid-f007" d="M503.137,358.77c1.847,0,3.57-.984,4.512-2.625.945-1.601.945-3.609,0-5.25-.942-1.601-2.664-2.625-4.512-2.625-1.887,0-3.609,1.024-4.551,2.625-.945,1.641-.945,3.649,0,5.25.942,1.641,2.664,2.625,4.551,2.625ZM501.25,360.739c-4.059,0-7.301,3.281-7.301,7.343,0,.656.535,1.188,1.191,1.188h15.953c.656,0,1.23-.532,1.23-1.188,0-4.062-3.281-7.343-7.34-7.343h-3.734Z" fill="#f3722c"/>
        </g>
        <g id="text_87">
          <path id="FontAwesome6Free-Solid-f007-87" data-name="FontAwesome6Free-Solid-f007" d="M503.137,330.932c1.847,0,3.57-.984,4.512-2.625.945-1.601.945-3.609,0-5.25-.942-1.601-2.664-2.625-4.512-2.625-1.887,0-3.609,1.024-4.551,2.625-.945,1.641-.945,3.649,0,5.25.942,1.641,2.664,2.625,4.551,2.625ZM501.25,332.901c-4.059,0-7.301,3.281-7.301,7.343,0,.656.535,1.188,1.191,1.188h15.953c.656,0,1.23-.532,1.23-1.188,0-4.062-3.281-7.343-7.34-7.343h-3.734Z" fill="#f3722c"/>
        </g>
        <g id="text_88">
          <path id="FontAwesome6Free-Solid-f007-88" data-name="FontAwesome6Free-Solid-f007" d="M503.137,303.095c1.847,0,3.57-.984,4.512-2.625.945-1.601.945-3.609,0-5.25-.942-1.601-2.664-2.625-4.512-2.625-1.887,0-3.609,1.024-4.551,2.625-.945,1.641-.945,3.649,0,5.25.942,1.641,2.664,2.625,4.551,2.625ZM501.25,305.064c-4.059,0-7.301,3.281-7.301,7.343,0,.656.535,1.188,1.191,1.188h15.953c.656,0,1.23-.532,1.23-1.188,0-4.062-3.281-7.343-7.34-7.343h-3.734Z" fill="#f3722c"/>
        </g>
        <g id="text_89">
          <path id="FontAwesome6Free-Solid-f007-89" data-name="FontAwesome6Free-Solid-f007" d="M503.137,275.257c1.847,0,3.57-.984,4.512-2.625.945-1.601.945-3.609,0-5.25-.942-1.601-2.664-2.625-4.512-2.625-1.887,0-3.609,1.024-4.551,2.625-.945,1.641-.945,3.649,0,5.25.942,1.641,2.664,2.625,4.551,2.625ZM501.25,277.226c-4.059,0-7.301,3.281-7.301,7.343,0,.656.535,1.188,1.191,1.188h15.953c.656,0,1.23-.532,1.23-1.188,0-4.062-3.281-7.343-7.34-7.343h-3.734Z" fill="#f3722c"/>
        </g>
        <g id="text_90">
          <path id="FontAwesome6Free-Solid-f007-90" data-name="FontAwesome6Free-Solid-f007" d="M503.137,247.42c1.847,0,3.57-.984,4.512-2.625.945-1.601.945-3.609,0-5.25-.942-1.601-2.664-2.625-4.512-2.625-1.887,0-3.609,1.024-4.551,2.625-.945,1.641-.945,3.649,0,5.25.942,1.641,2.664,2.625,4.551,2.625ZM501.25,249.389c-4.059,0-7.301,3.281-7.301,7.343,0,.656.535,1.188,1.191,1.188h15.953c.656,0,1.23-.532,1.23-1.188,0-4.062-3.281-7.343-7.34-7.343h-3.734Z" fill="#f3722c"/>
        </g>
        <g id="text_91">
          <path id="FontAwesome6Free-Solid-f007-91" data-name="FontAwesome6Free-Solid-f007" d="M530.975,358.77c1.847,0,3.57-.984,4.512-2.625.945-1.601.945-3.609,0-5.25-.942-1.601-2.664-2.625-4.512-2.625-1.887,0-3.609,1.024-4.551,2.625-.945,1.641-.945,3.649,0,5.25.942,1.641,2.664,2.625,4.551,2.625ZM529.088,360.739c-4.059,0-7.301,3.281-7.301,7.343,0,.656.535,1.188,1.191,1.188h15.953c.656,0,1.23-.532,1.23-1.188,0-4.062-3.281-7.343-7.34-7.343h-3.734Z" fill="#f3722c"/>
        </g>
        <g id="text_92">
          <path id="FontAwesome6Free-Solid-f007-92" data-name="FontAwesome6Free-Solid-f007" d="M530.975,330.932c1.847,0,3.57-.984,4.512-2.625.945-1.601.945-3.609,0-5.25-.942-1.601-2.664-2.625-4.512-2.625-1.887,0-3.609,1.024-4.551,2.625-.945,1.641-.945,3.649,0,5.25.942,1.641,2.664,2.625,4.551,2.625ZM529.088,332.901c-4.059,0-7.301,3.281-7.301,7.343,0,.656.535,1.188,1.191,1.188h15.953c.656,0,1.23-.532,1.23-1.188,0-4.062-3.281-7.343-7.34-7.343h-3.734Z" fill="#f3722c"/>
        </g>
        <g id="text_93">
          <path id="FontAwesome6Free-Solid-f007-93" data-name="FontAwesome6Free-Solid-f007" d="M530.975,303.095c1.847,0,3.57-.984,4.512-2.625.945-1.601.945-3.609,0-5.25-.942-1.601-2.664-2.625-4.512-2.625-1.887,0-3.609,1.024-4.551,2.625-.945,1.641-.945,3.649,0,5.25.942,1.641,2.664,2.625,4.551,2.625ZM529.088,305.064c-4.059,0-7.301,3.281-7.301,7.343,0,.656.535,1.188,1.191,1.188h15.953c.656,0,1.23-.532,1.23-1.188,0-4.062-3.281-7.343-7.34-7.343h-3.734Z" fill="#f3722c"/>
        </g>
        <g id="text_94">
          <path id="FontAwesome6Free-Solid-f007-94" data-name="FontAwesome6Free-Solid-f007" d="M530.975,275.257c1.847,0,3.57-.984,4.512-2.625.945-1.601.945-3.609,0-5.25-.942-1.601-2.664-2.625-4.512-2.625-1.887,0-3.609,1.024-4.551,2.625-.945,1.641-.945,3.649,0,5.25.942,1.641,2.664,2.625,4.551,2.625ZM529.088,277.226c-4.059,0-7.301,3.281-7.301,7.343,0,.656.535,1.188,1.191,1.188h15.953c.656,0,1.23-.532,1.23-1.188,0-4.062-3.281-7.343-7.34-7.343h-3.734Z" fill="#f3722c"/>
        </g>
        <g id="text_95">
          <path id="FontAwesome6Free-Solid-f007-95" data-name="FontAwesome6Free-Solid-f007" d="M530.975,247.42c1.847,0,3.57-.984,4.512-2.625.945-1.601.945-3.609,0-5.25-.942-1.601-2.664-2.625-4.512-2.625-1.887,0-3.609,1.024-4.551,2.625-.945,1.641-.945,3.649,0,5.25.942,1.641,2.664,2.625,4.551,2.625ZM529.088,249.389c-4.059,0-7.301,3.281-7.301,7.343,0,.656.535,1.188,1.191,1.188h15.953c.656,0,1.23-.532,1.23-1.188,0-4.062-3.281-7.343-7.34-7.343h-3.734Z" fill="#f3722c"/>
        </g>
        <g id="text_96">
          <path id="FontAwesome6Free-Solid-f007-96" data-name="FontAwesome6Free-Solid-f007" d="M558.812,358.77c1.847,0,3.57-.984,4.512-2.625.945-1.601.945-3.609,0-5.25-.942-1.601-2.664-2.625-4.512-2.625-1.887,0-3.609,1.024-4.551,2.625-.945,1.641-.945,3.649,0,5.25.942,1.641,2.664,2.625,4.551,2.625ZM556.925,360.739c-4.059,0-7.301,3.281-7.301,7.343,0,.656.535,1.188,1.191,1.188h15.953c.656,0,1.23-.532,1.23-1.188,0-4.062-3.281-7.343-7.34-7.343h-3.734Z" fill="#f3722c"/>
        </g>
        <g id="text_97">
          <path id="FontAwesome6Free-Solid-f007-97" data-name="FontAwesome6Free-Solid-f007" d="M558.812,330.932c1.847,0,3.57-.984,4.512-2.625.945-1.601.945-3.609,0-5.25-.942-1.601-2.664-2.625-4.512-2.625-1.887,0-3.609,1.024-4.551,2.625-.945,1.641-.945,3.649,0,5.25.942,1.641,2.664,2.625,4.551,2.625ZM556.925,332.901c-4.059,0-7.301,3.281-7.301,7.343,0,.656.535,1.188,1.191,1.188h15.953c.656,0,1.23-.532,1.23-1.188,0-4.062-3.281-7.343-7.34-7.343h-3.734Z" fill="#f3722c"/>
        </g>
        <g id="text_98">
          <path id="FontAwesome6Free-Solid-f007-98" data-name="FontAwesome6Free-Solid-f007" d="M558.812,303.095c1.847,0,3.57-.984,4.512-2.625.945-1.601.945-3.609,0-5.25-.942-1.601-2.664-2.625-4.512-2.625-1.887,0-3.609,1.024-4.551,2.625-.945,1.641-.945,3.649,0,5.25.942,1.641,2.664,2.625,4.551,2.625ZM556.925,305.064c-4.059,0-7.301,3.281-7.301,7.343,0,.656.535,1.188,1.191,1.188h15.953c.656,0,1.23-.532,1.23-1.188,0-4.062-3.281-7.343-7.34-7.343h-3.734Z" fill="#f3722c"/>
        </g>
        <g id="text_99">
          <path id="FontAwesome6Free-Solid-f007-99" data-name="FontAwesome6Free-Solid-f007" d="M558.812,275.257c1.847,0,3.57-.984,4.512-2.625.945-1.601.945-3.609,0-5.25-.942-1.601-2.664-2.625-4.512-2.625-1.887,0-3.609,1.024-4.551,2.625-.945,1.641-.945,3.649,0,5.25.942,1.641,2.664,2.625,4.551,2.625ZM556.925,277.226c-4.059,0-7.301,3.281-7.301,7.343,0,.656.535,1.188,1.191,1.188h15.953c.656,0,1.23-.532,1.23-1.188,0-4.062-3.281-7.343-7.34-7.343h-3.734Z" fill="#f3722c"/>
        </g>
        <g id="text_100">
          <path id="FontAwesome6Free-Solid-f007-100" data-name="FontAwesome6Free-Solid-f007" d="M558.812,247.42c1.847,0,3.57-.984,4.512-2.625.945-1.601.945-3.609,0-5.25-.942-1.601-2.664-2.625-4.512-2.625-1.887,0-3.609,1.024-4.551,2.625-.945,1.641-.945,3.649,0,5.25.942,1.641,2.664,2.625,4.551,2.625ZM556.925,249.389c-4.059,0-7.301,3.281-7.301,7.343,0,.656.535,1.188,1.191,1.188h15.953c.656,0,1.23-.532,1.23-1.188,0-4.062-3.281-7.343-7.34-7.343h-3.734Z" fill="#f3722c"/>
        </g>
      </g>
    </g>
  </g>
<style>
#g-lecturer_waffle-Artboard_2-interactive-img rect, #g-lecturer_waffle-Artboard_2-interactive-img circle, #g-lecturer_waffle-Artboard_2-interactive-img path, #g-lecturer_waffle-Artboard_2-interactive-img line, #g-lecturer_waffle-Artboard_2-interactive-img polyline, #g-lecturer_waffle-Artboard_2-interactive-img polygon { vector-effect: non-scaling-stroke; }
</style>
</svg>
