<?xml version="1.0" encoding="UTF-8"?>
<svg xmlns="http://www.w3.org/2000/svg" baseProfile="tiny" version="1.2" viewBox="0 0 1200 693">
  <!-- Generator: Adobe Illustrator 28.7.1, SVG Export Plug-In . SVG Version: 1.2.0 Build 142)  -->
  <g>
    <g id="g-lecturer_waffle-Artboard_1-interactive-img">
      <g>
        <g id="text_1">
          <path id="FontAwesome6Free-Solid-f007" d="M62.36,556.268c3.695,0,7.14-1.969,9.023-5.25,1.89-3.202,1.89-7.219,0-10.5-1.883-3.202-5.329-5.25-9.023-5.25-3.773,0-7.219,2.047-9.102,5.25-1.89,3.281-1.89,7.297,0,10.5,1.883,3.281,5.329,5.25,9.102,5.25ZM58.586,560.205c-8.118,0-14.602,6.562-14.602,14.687,0,1.312,1.07,2.376,2.382,2.376h31.907c1.312,0,2.461-1.063,2.461-2.376,0-8.124-6.562-14.687-14.68-14.687h-7.468Z" fill="#005f73"/>
        </g>
        <g id="text_2">
          <path id="FontAwesome6Free-Solid-f007-2" data-name="FontAwesome6Free-Solid-f007" d="M62.36,500.593c3.695,0,7.14-1.969,9.023-5.25,1.89-3.202,1.89-7.219,0-10.5-1.883-3.202-5.329-5.25-9.023-5.25-3.773,0-7.219,2.047-9.102,5.25-1.89,3.281-1.89,7.297,0,10.5,1.883,3.281,5.329,5.25,9.102,5.25ZM58.586,504.53c-8.118,0-14.602,6.562-14.602,14.687,0,1.312,1.07,2.376,2.382,2.376h31.907c1.312,0,2.461-1.063,2.461-2.376,0-8.124-6.562-14.687-14.68-14.687h-7.468Z" fill="#005f73"/>
        </g>
        <g id="text_3">
          <path id="FontAwesome6Free-Solid-f007-3" data-name="FontAwesome6Free-Solid-f007" d="M62.36,444.918c3.695,0,7.14-1.969,9.023-5.25,1.89-3.202,1.89-7.219,0-10.5-1.883-3.202-5.329-5.25-9.023-5.25-3.773,0-7.219,2.047-9.102,5.25-1.89,3.281-1.89,7.297,0,10.5,1.883,3.281,5.329,5.25,9.102,5.25ZM58.586,448.855c-8.118,0-14.602,6.562-14.602,14.687,0,1.312,1.07,2.376,2.382,2.376h31.907c1.312,0,2.461-1.063,2.461-2.376,0-8.124-6.562-14.687-14.68-14.687h-7.468Z" fill="#005f73"/>
        </g>
        <g id="text_4">
          <path id="FontAwesome6Free-Solid-f007-4" data-name="FontAwesome6Free-Solid-f007" d="M62.36,389.243c3.695,0,7.14-1.969,9.023-5.25,1.89-3.202,1.89-7.219,0-10.5-1.883-3.202-5.329-5.25-9.023-5.25-3.773,0-7.219,2.047-9.102,5.25-1.89,3.281-1.89,7.297,0,10.5,1.883,3.281,5.329,5.25,9.102,5.25ZM58.586,393.18c-8.118,0-14.602,6.562-14.602,14.687,0,1.312,1.07,2.376,2.382,2.376h31.907c1.312,0,2.461-1.063,2.461-2.376,0-8.124-6.562-14.687-14.68-14.687h-7.468Z" fill="#005f73"/>
        </g>
        <g id="text_5">
          <path id="FontAwesome6Free-Solid-f007-5" data-name="FontAwesome6Free-Solid-f007" d="M62.36,333.568c3.695,0,7.14-1.969,9.023-5.25,1.89-3.202,1.89-7.219,0-10.5-1.883-3.202-5.329-5.25-9.023-5.25-3.773,0-7.219,2.047-9.102,5.25-1.89,3.281-1.89,7.297,0,10.5,1.883,3.281,5.329,5.25,9.102,5.25ZM58.586,337.505c-8.118,0-14.602,6.562-14.602,14.687,0,1.312,1.07,2.376,2.382,2.376h31.907c1.312,0,2.461-1.063,2.461-2.376,0-8.124-6.562-14.687-14.68-14.687h-7.468Z" fill="#005f73"/>
        </g>
        <g id="text_6">
          <path id="FontAwesome6Free-Solid-f007-6" data-name="FontAwesome6Free-Solid-f007" d="M118.035,556.268c3.695,0,7.14-1.969,9.023-5.25,1.89-3.202,1.89-7.219,0-10.5-1.883-3.202-5.329-5.25-9.023-5.25-3.773,0-7.219,2.047-9.102,5.25-1.89,3.281-1.89,7.297,0,10.5,1.883,3.281,5.329,5.25,9.102,5.25ZM114.261,560.205c-8.118,0-14.602,6.562-14.602,14.687,0,1.312,1.07,2.376,2.382,2.376h31.907c1.312,0,2.461-1.063,2.461-2.376,0-8.124-6.562-14.687-14.68-14.687h-7.468Z" fill="#005f73"/>
        </g>
        <g id="text_7">
          <path id="FontAwesome6Free-Solid-f007-7" data-name="FontAwesome6Free-Solid-f007" d="M118.035,500.593c3.695,0,7.14-1.969,9.023-5.25,1.89-3.202,1.89-7.219,0-10.5-1.883-3.202-5.329-5.25-9.023-5.25-3.773,0-7.219,2.047-9.102,5.25-1.89,3.281-1.89,7.297,0,10.5,1.883,3.281,5.329,5.25,9.102,5.25ZM114.261,504.53c-8.118,0-14.602,6.562-14.602,14.687,0,1.312,1.07,2.376,2.382,2.376h31.907c1.312,0,2.461-1.063,2.461-2.376,0-8.124-6.562-14.687-14.68-14.687h-7.468Z" fill="#005f73"/>
        </g>
        <g id="text_8">
          <path id="FontAwesome6Free-Solid-f007-8" data-name="FontAwesome6Free-Solid-f007" d="M118.035,444.918c3.695,0,7.14-1.969,9.023-5.25,1.89-3.202,1.89-7.219,0-10.5-1.883-3.202-5.329-5.25-9.023-5.25-3.773,0-7.219,2.047-9.102,5.25-1.89,3.281-1.89,7.297,0,10.5,1.883,3.281,5.329,5.25,9.102,5.25ZM114.261,448.855c-8.118,0-14.602,6.562-14.602,14.687,0,1.312,1.07,2.376,2.382,2.376h31.907c1.312,0,2.461-1.063,2.461-2.376,0-8.124-6.562-14.687-14.68-14.687h-7.468Z" fill="#005f73"/>
        </g>
        <g id="text_9">
          <path id="FontAwesome6Free-Solid-f007-9" data-name="FontAwesome6Free-Solid-f007" d="M118.035,389.243c3.695,0,7.14-1.969,9.023-5.25,1.89-3.202,1.89-7.219,0-10.5-1.883-3.202-5.329-5.25-9.023-5.25-3.773,0-7.219,2.047-9.102,5.25-1.89,3.281-1.89,7.297,0,10.5,1.883,3.281,5.329,5.25,9.102,5.25ZM114.261,393.18c-8.118,0-14.602,6.562-14.602,14.687,0,1.312,1.07,2.376,2.382,2.376h31.907c1.312,0,2.461-1.063,2.461-2.376,0-8.124-6.562-14.687-14.68-14.687h-7.468Z" fill="#005f73"/>
        </g>
        <g id="text_10">
          <path id="FontAwesome6Free-Solid-f007-10" data-name="FontAwesome6Free-Solid-f007" d="M118.035,333.568c3.695,0,7.14-1.969,9.023-5.25,1.89-3.202,1.89-7.219,0-10.5-1.883-3.202-5.329-5.25-9.023-5.25-3.773,0-7.219,2.047-9.102,5.25-1.89,3.281-1.89,7.297,0,10.5,1.883,3.281,5.329,5.25,9.102,5.25ZM114.261,337.505c-8.118,0-14.602,6.562-14.602,14.687,0,1.312,1.07,2.376,2.382,2.376h31.907c1.312,0,2.461-1.063,2.461-2.376,0-8.124-6.562-14.687-14.68-14.687h-7.468Z" fill="#005f73"/>
        </g>
        <g id="text_11">
          <path id="FontAwesome6Free-Solid-f007-11" data-name="FontAwesome6Free-Solid-f007" d="M173.71,556.268c3.695,0,7.14-1.969,9.023-5.25,1.89-3.202,1.89-7.219,0-10.5-1.883-3.202-5.329-5.25-9.023-5.25-3.773,0-7.219,2.047-9.102,5.25-1.89,3.281-1.89,7.297,0,10.5,1.883,3.281,5.329,5.25,9.102,5.25ZM169.936,560.205c-8.118,0-14.602,6.562-14.602,14.687,0,1.312,1.07,2.376,2.382,2.376h31.907c1.312,0,2.461-1.063,2.461-2.376,0-8.124-6.562-14.687-14.68-14.687h-7.468Z" fill="#005f73"/>
        </g>
        <g id="text_12">
          <path id="FontAwesome6Free-Solid-f007-12" data-name="FontAwesome6Free-Solid-f007" d="M173.71,500.593c3.695,0,7.14-1.969,9.023-5.25,1.89-3.202,1.89-7.219,0-10.5-1.883-3.202-5.329-5.25-9.023-5.25-3.773,0-7.219,2.047-9.102,5.25-1.89,3.281-1.89,7.297,0,10.5,1.883,3.281,5.329,5.25,9.102,5.25ZM169.936,504.53c-8.118,0-14.602,6.562-14.602,14.687,0,1.312,1.07,2.376,2.382,2.376h31.907c1.312,0,2.461-1.063,2.461-2.376,0-8.124-6.562-14.687-14.68-14.687h-7.468Z" fill="#005f73"/>
        </g>
        <g id="text_13">
          <path id="FontAwesome6Free-Solid-f007-13" data-name="FontAwesome6Free-Solid-f007" d="M173.71,444.918c3.695,0,7.14-1.969,9.023-5.25,1.89-3.202,1.89-7.219,0-10.5-1.883-3.202-5.329-5.25-9.023-5.25-3.773,0-7.219,2.047-9.102,5.25-1.89,3.281-1.89,7.297,0,10.5,1.883,3.281,5.329,5.25,9.102,5.25ZM169.936,448.855c-8.118,0-14.602,6.562-14.602,14.687,0,1.312,1.07,2.376,2.382,2.376h31.907c1.312,0,2.461-1.063,2.461-2.376,0-8.124-6.562-14.687-14.68-14.687h-7.468Z" fill="#005f73"/>
        </g>
        <g id="text_14">
          <path id="FontAwesome6Free-Solid-f007-14" data-name="FontAwesome6Free-Solid-f007" d="M173.71,389.243c3.695,0,7.14-1.969,9.023-5.25,1.89-3.202,1.89-7.219,0-10.5-1.883-3.202-5.329-5.25-9.023-5.25-3.773,0-7.219,2.047-9.102,5.25-1.89,3.281-1.89,7.297,0,10.5,1.883,3.281,5.329,5.25,9.102,5.25ZM169.936,393.18c-8.118,0-14.602,6.562-14.602,14.687,0,1.312,1.07,2.376,2.382,2.376h31.907c1.312,0,2.461-1.063,2.461-2.376,0-8.124-6.562-14.687-14.68-14.687h-7.468Z" fill="#005f73"/>
        </g>
        <g id="text_15">
          <path id="FontAwesome6Free-Solid-f007-15" data-name="FontAwesome6Free-Solid-f007" d="M173.71,333.568c3.695,0,7.14-1.969,9.023-5.25,1.89-3.202,1.89-7.219,0-10.5-1.883-3.202-5.329-5.25-9.023-5.25-3.773,0-7.219,2.047-9.102,5.25-1.89,3.281-1.89,7.297,0,10.5,1.883,3.281,5.329,5.25,9.102,5.25ZM169.936,337.505c-8.118,0-14.602,6.562-14.602,14.687,0,1.312,1.07,2.376,2.382,2.376h31.907c1.312,0,2.461-1.063,2.461-2.376,0-8.124-6.562-14.687-14.68-14.687h-7.468Z" fill="#005f73"/>
        </g>
        <g id="text_16">
          <path id="FontAwesome6Free-Solid-f007-16" data-name="FontAwesome6Free-Solid-f007" d="M229.385,556.268c3.695,0,7.14-1.969,9.023-5.25,1.89-3.202,1.89-7.219,0-10.5-1.883-3.202-5.329-5.25-9.023-5.25-3.773,0-7.219,2.047-9.102,5.25-1.89,3.281-1.89,7.297,0,10.5,1.883,3.281,5.329,5.25,9.102,5.25ZM225.611,560.205c-8.118,0-14.602,6.562-14.602,14.687,0,1.312,1.07,2.376,2.382,2.376h31.907c1.312,0,2.461-1.063,2.461-2.376,0-8.124-6.562-14.687-14.68-14.687h-7.468Z" fill="#005f73"/>
        </g>
        <g id="text_17">
          <path id="FontAwesome6Free-Solid-f007-17" data-name="FontAwesome6Free-Solid-f007" d="M229.385,500.593c3.695,0,7.14-1.969,9.023-5.25,1.89-3.202,1.89-7.219,0-10.5-1.883-3.202-5.329-5.25-9.023-5.25-3.773,0-7.219,2.047-9.102,5.25-1.89,3.281-1.89,7.297,0,10.5,1.883,3.281,5.329,5.25,9.102,5.25ZM225.611,504.53c-8.118,0-14.602,6.562-14.602,14.687,0,1.312,1.07,2.376,2.382,2.376h31.907c1.312,0,2.461-1.063,2.461-2.376,0-8.124-6.562-14.687-14.68-14.687h-7.468Z" fill="#005f73"/>
        </g>
        <g id="text_18">
          <path id="FontAwesome6Free-Solid-f007-18" data-name="FontAwesome6Free-Solid-f007" d="M229.385,444.918c3.695,0,7.14-1.969,9.023-5.25,1.89-3.202,1.89-7.219,0-10.5-1.883-3.202-5.329-5.25-9.023-5.25-3.773,0-7.219,2.047-9.102,5.25-1.89,3.281-1.89,7.297,0,10.5,1.883,3.281,5.329,5.25,9.102,5.25ZM225.611,448.855c-8.118,0-14.602,6.562-14.602,14.687,0,1.312,1.07,2.376,2.382,2.376h31.907c1.312,0,2.461-1.063,2.461-2.376,0-8.124-6.562-14.687-14.68-14.687h-7.468Z" fill="#005f73"/>
        </g>
        <g id="text_19">
          <path id="FontAwesome6Free-Solid-f007-19" data-name="FontAwesome6Free-Solid-f007" d="M229.385,389.243c3.695,0,7.14-1.969,9.023-5.25,1.89-3.202,1.89-7.219,0-10.5-1.883-3.202-5.329-5.25-9.023-5.25-3.773,0-7.219,2.047-9.102,5.25-1.89,3.281-1.89,7.297,0,10.5,1.883,3.281,5.329,5.25,9.102,5.25ZM225.611,393.18c-8.118,0-14.602,6.562-14.602,14.687,0,1.312,1.07,2.376,2.382,2.376h31.907c1.312,0,2.461-1.063,2.461-2.376,0-8.124-6.562-14.687-14.68-14.687h-7.468Z" fill="#005f73"/>
        </g>
        <g id="text_20">
          <path id="FontAwesome6Free-Solid-f007-20" data-name="FontAwesome6Free-Solid-f007" d="M229.385,333.568c3.695,0,7.14-1.969,9.023-5.25,1.89-3.202,1.89-7.219,0-10.5-1.883-3.202-5.329-5.25-9.023-5.25-3.773,0-7.219,2.047-9.102,5.25-1.89,3.281-1.89,7.297,0,10.5,1.883,3.281,5.329,5.25,9.102,5.25ZM225.611,337.505c-8.118,0-14.602,6.562-14.602,14.687,0,1.312,1.07,2.376,2.382,2.376h31.907c1.312,0,2.461-1.063,2.461-2.376,0-8.124-6.562-14.687-14.68-14.687h-7.468Z" fill="#005f73"/>
        </g>
        <g id="text_21">
          <path id="FontAwesome6Free-Solid-f007-21" data-name="FontAwesome6Free-Solid-f007" d="M285.06,556.268c3.695,0,7.14-1.969,9.023-5.25,1.89-3.202,1.89-7.219,0-10.5-1.883-3.202-5.329-5.25-9.023-5.25-3.773,0-7.219,2.047-9.102,5.25-1.89,3.281-1.89,7.297,0,10.5,1.883,3.281,5.329,5.25,9.102,5.25ZM281.286,560.205c-8.118,0-14.602,6.562-14.602,14.687,0,1.312,1.07,2.376,2.382,2.376h31.907c1.312,0,2.461-1.063,2.461-2.376,0-8.124-6.562-14.687-14.68-14.687h-7.468Z" fill="#005f73"/>
        </g>
        <g id="text_22">
          <path id="FontAwesome6Free-Solid-f007-22" data-name="FontAwesome6Free-Solid-f007" d="M285.06,500.593c3.695,0,7.14-1.969,9.023-5.25,1.89-3.202,1.89-7.219,0-10.5-1.883-3.202-5.329-5.25-9.023-5.25-3.773,0-7.219,2.047-9.102,5.25-1.89,3.281-1.89,7.297,0,10.5,1.883,3.281,5.329,5.25,9.102,5.25ZM281.286,504.53c-8.118,0-14.602,6.562-14.602,14.687,0,1.312,1.07,2.376,2.382,2.376h31.907c1.312,0,2.461-1.063,2.461-2.376,0-8.124-6.562-14.687-14.68-14.687h-7.468Z" fill="#005f73"/>
        </g>
        <g id="text_23">
          <path id="FontAwesome6Free-Solid-f007-23" data-name="FontAwesome6Free-Solid-f007" d="M285.06,444.918c3.695,0,7.14-1.969,9.023-5.25,1.89-3.202,1.89-7.219,0-10.5-1.883-3.202-5.329-5.25-9.023-5.25-3.773,0-7.219,2.047-9.102,5.25-1.89,3.281-1.89,7.297,0,10.5,1.883,3.281,5.329,5.25,9.102,5.25ZM281.286,448.855c-8.118,0-14.602,6.562-14.602,14.687,0,1.312,1.07,2.376,2.382,2.376h31.907c1.312,0,2.461-1.063,2.461-2.376,0-8.124-6.562-14.687-14.68-14.687h-7.468Z" fill="#005f73"/>
        </g>
        <g id="text_24">
          <path id="FontAwesome6Free-Solid-f007-24" data-name="FontAwesome6Free-Solid-f007" d="M285.06,389.243c3.695,0,7.14-1.969,9.023-5.25,1.89-3.202,1.89-7.219,0-10.5-1.883-3.202-5.329-5.25-9.023-5.25-3.773,0-7.219,2.047-9.102,5.25-1.89,3.281-1.89,7.297,0,10.5,1.883,3.281,5.329,5.25,9.102,5.25ZM281.286,393.18c-8.118,0-14.602,6.562-14.602,14.687,0,1.312,1.07,2.376,2.382,2.376h31.907c1.312,0,2.461-1.063,2.461-2.376,0-8.124-6.562-14.687-14.68-14.687h-7.468Z" fill="#005f73"/>
        </g>
        <g id="text_25">
          <path id="FontAwesome6Free-Solid-f007-25" data-name="FontAwesome6Free-Solid-f007" d="M285.06,333.568c3.695,0,7.14-1.969,9.023-5.25,1.89-3.202,1.89-7.219,0-10.5-1.883-3.202-5.329-5.25-9.023-5.25-3.773,0-7.219,2.047-9.102,5.25-1.89,3.281-1.89,7.297,0,10.5,1.883,3.281,5.329,5.25,9.102,5.25ZM281.286,337.505c-8.118,0-14.602,6.562-14.602,14.687,0,1.312,1.07,2.376,2.382,2.376h31.907c1.312,0,2.461-1.063,2.461-2.376,0-8.124-6.562-14.687-14.68-14.687h-7.468Z" fill="#005f73"/>
        </g>
        <g id="text_26">
          <path id="FontAwesome6Free-Solid-f007-26" data-name="FontAwesome6Free-Solid-f007" d="M340.735,556.268c3.695,0,7.14-1.969,9.023-5.25,1.89-3.202,1.89-7.219,0-10.5-1.883-3.202-5.329-5.25-9.023-5.25-3.773,0-7.219,2.047-9.102,5.25-1.89,3.281-1.89,7.297,0,10.5,1.883,3.281,5.329,5.25,9.102,5.25ZM336.961,560.205c-8.118,0-14.602,6.562-14.602,14.687,0,1.312,1.07,2.376,2.382,2.376h31.907c1.312,0,2.461-1.063,2.461-2.376,0-8.124-6.562-14.687-14.68-14.687h-7.468Z" fill="#005f73"/>
        </g>
        <g id="text_27">
          <path id="FontAwesome6Free-Solid-f007-27" data-name="FontAwesome6Free-Solid-f007" d="M340.735,500.593c3.695,0,7.14-1.969,9.023-5.25,1.89-3.202,1.89-7.219,0-10.5-1.883-3.202-5.329-5.25-9.023-5.25-3.773,0-7.219,2.047-9.102,5.25-1.89,3.281-1.89,7.297,0,10.5,1.883,3.281,5.329,5.25,9.102,5.25ZM336.961,504.53c-8.118,0-14.602,6.562-14.602,14.687,0,1.312,1.07,2.376,2.382,2.376h31.907c1.312,0,2.461-1.063,2.461-2.376,0-8.124-6.562-14.687-14.68-14.687h-7.468Z" fill="#005f73"/>
        </g>
        <g id="text_28">
          <path id="FontAwesome6Free-Solid-f007-28" data-name="FontAwesome6Free-Solid-f007" d="M340.735,444.918c3.695,0,7.14-1.969,9.023-5.25,1.89-3.202,1.89-7.219,0-10.5-1.883-3.202-5.329-5.25-9.023-5.25-3.773,0-7.219,2.047-9.102,5.25-1.89,3.281-1.89,7.297,0,10.5,1.883,3.281,5.329,5.25,9.102,5.25ZM336.961,448.855c-8.118,0-14.602,6.562-14.602,14.687,0,1.312,1.07,2.376,2.382,2.376h31.907c1.312,0,2.461-1.063,2.461-2.376,0-8.124-6.562-14.687-14.68-14.687h-7.468Z" fill="#005f73"/>
        </g>
        <g id="text_29">
          <path id="FontAwesome6Free-Solid-f007-29" data-name="FontAwesome6Free-Solid-f007" d="M340.735,389.243c3.695,0,7.14-1.969,9.023-5.25,1.89-3.202,1.89-7.219,0-10.5-1.883-3.202-5.329-5.25-9.023-5.25-3.773,0-7.219,2.047-9.102,5.25-1.89,3.281-1.89,7.297,0,10.5,1.883,3.281,5.329,5.25,9.102,5.25ZM336.961,393.18c-8.118,0-14.602,6.562-14.602,14.687,0,1.312,1.07,2.376,2.382,2.376h31.907c1.312,0,2.461-1.063,2.461-2.376,0-8.124-6.562-14.687-14.68-14.687h-7.468Z" fill="#005f73"/>
        </g>
        <g id="text_30">
          <path id="FontAwesome6Free-Solid-f007-30" data-name="FontAwesome6Free-Solid-f007" d="M340.735,333.568c3.695,0,7.14-1.969,9.023-5.25,1.89-3.202,1.89-7.219,0-10.5-1.883-3.202-5.329-5.25-9.023-5.25-3.773,0-7.219,2.047-9.102,5.25-1.89,3.281-1.89,7.297,0,10.5,1.883,3.281,5.329,5.25,9.102,5.25ZM336.961,337.505c-8.118,0-14.602,6.562-14.602,14.687,0,1.312,1.07,2.376,2.382,2.376h31.907c1.312,0,2.461-1.063,2.461-2.376,0-8.124-6.562-14.687-14.68-14.687h-7.468Z" fill="#005f73"/>
        </g>
        <g id="text_31">
          <path id="FontAwesome6Free-Solid-f007-31" data-name="FontAwesome6Free-Solid-f007" d="M396.41,556.268c3.695,0,7.14-1.969,9.023-5.25,1.89-3.202,1.89-7.219,0-10.5-1.883-3.202-5.329-5.25-9.023-5.25-3.773,0-7.219,2.047-9.102,5.25-1.89,3.281-1.89,7.297,0,10.5,1.883,3.281,5.329,5.25,9.102,5.25ZM392.637,560.205c-8.118,0-14.602,6.562-14.602,14.687,0,1.312,1.07,2.376,2.382,2.376h31.907c1.312,0,2.461-1.063,2.461-2.376,0-8.124-6.562-14.687-14.68-14.687h-7.468Z" fill="#005f73"/>
        </g>
        <g id="text_32">
          <path id="FontAwesome6Free-Solid-f007-32" data-name="FontAwesome6Free-Solid-f007" d="M396.41,500.593c3.695,0,7.14-1.969,9.023-5.25,1.89-3.202,1.89-7.219,0-10.5-1.883-3.202-5.329-5.25-9.023-5.25-3.773,0-7.219,2.047-9.102,5.25-1.89,3.281-1.89,7.297,0,10.5,1.883,3.281,5.329,5.25,9.102,5.25ZM392.637,504.53c-8.118,0-14.602,6.562-14.602,14.687,0,1.312,1.07,2.376,2.382,2.376h31.907c1.312,0,2.461-1.063,2.461-2.376,0-8.124-6.562-14.687-14.68-14.687h-7.468Z" fill="#005f73"/>
        </g>
        <g id="text_33">
          <path id="FontAwesome6Free-Solid-f007-33" data-name="FontAwesome6Free-Solid-f007" d="M396.41,444.918c3.695,0,7.14-1.969,9.023-5.25,1.89-3.202,1.89-7.219,0-10.5-1.883-3.202-5.329-5.25-9.023-5.25-3.773,0-7.219,2.047-9.102,5.25-1.89,3.281-1.89,7.297,0,10.5,1.883,3.281,5.329,5.25,9.102,5.25ZM392.637,448.855c-8.118,0-14.602,6.562-14.602,14.687,0,1.312,1.07,2.376,2.382,2.376h31.907c1.312,0,2.461-1.063,2.461-2.376,0-8.124-6.562-14.687-14.68-14.687h-7.468Z" fill="#005f73"/>
        </g>
        <g id="text_34">
          <path id="FontAwesome6Free-Solid-f007-34" data-name="FontAwesome6Free-Solid-f007" d="M396.41,389.243c3.695,0,7.14-1.969,9.023-5.25,1.89-3.202,1.89-7.219,0-10.5-1.883-3.202-5.329-5.25-9.023-5.25-3.773,0-7.219,2.047-9.102,5.25-1.89,3.281-1.89,7.297,0,10.5,1.883,3.281,5.329,5.25,9.102,5.25ZM392.637,393.18c-8.118,0-14.602,6.562-14.602,14.687,0,1.312,1.07,2.376,2.382,2.376h31.907c1.312,0,2.461-1.063,2.461-2.376,0-8.124-6.562-14.687-14.68-14.687h-7.468Z" fill="#005f73"/>
        </g>
        <g id="text_35">
          <path id="FontAwesome6Free-Solid-f007-35" data-name="FontAwesome6Free-Solid-f007" d="M396.41,333.568c3.695,0,7.14-1.969,9.023-5.25,1.89-3.202,1.89-7.219,0-10.5-1.883-3.202-5.329-5.25-9.023-5.25-3.773,0-7.219,2.047-9.102,5.25-1.89,3.281-1.89,7.297,0,10.5,1.883,3.281,5.329,5.25,9.102,5.25ZM392.637,337.505c-8.118,0-14.602,6.562-14.602,14.687,0,1.312,1.07,2.376,2.382,2.376h31.907c1.312,0,2.461-1.063,2.461-2.376,0-8.124-6.562-14.687-14.68-14.687h-7.468Z" fill="#005f73"/>
        </g>
        <g id="text_36">
          <path id="FontAwesome6Free-Solid-f007-36" data-name="FontAwesome6Free-Solid-f007" d="M452.085,556.268c3.695,0,7.14-1.969,9.023-5.25,1.89-3.202,1.89-7.219,0-10.5-1.883-3.202-5.329-5.25-9.023-5.25-3.773,0-7.219,2.047-9.102,5.25-1.89,3.281-1.89,7.297,0,10.5,1.883,3.281,5.329,5.25,9.102,5.25ZM448.312,560.205c-8.118,0-14.602,6.562-14.602,14.687,0,1.312,1.07,2.376,2.382,2.376h31.907c1.312,0,2.461-1.063,2.461-2.376,0-8.124-6.562-14.687-14.68-14.687h-7.468Z" fill="#005f73"/>
        </g>
        <g id="text_37">
          <path id="FontAwesome6Free-Solid-f007-37" data-name="FontAwesome6Free-Solid-f007" d="M452.085,500.593c3.695,0,7.14-1.969,9.023-5.25,1.89-3.202,1.89-7.219,0-10.5-1.883-3.202-5.329-5.25-9.023-5.25-3.773,0-7.219,2.047-9.102,5.25-1.89,3.281-1.89,7.297,0,10.5,1.883,3.281,5.329,5.25,9.102,5.25ZM448.312,504.53c-8.118,0-14.602,6.562-14.602,14.687,0,1.312,1.07,2.376,2.382,2.376h31.907c1.312,0,2.461-1.063,2.461-2.376,0-8.124-6.562-14.687-14.68-14.687h-7.468Z" fill="#005f73"/>
        </g>
        <g id="text_38">
          <path id="FontAwesome6Free-Solid-f007-38" data-name="FontAwesome6Free-Solid-f007" d="M452.085,444.918c3.695,0,7.14-1.969,9.023-5.25,1.89-3.202,1.89-7.219,0-10.5-1.883-3.202-5.329-5.25-9.023-5.25-3.773,0-7.219,2.047-9.102,5.25-1.89,3.281-1.89,7.297,0,10.5,1.883,3.281,5.329,5.25,9.102,5.25ZM448.312,448.855c-8.118,0-14.602,6.562-14.602,14.687,0,1.312,1.07,2.376,2.382,2.376h31.907c1.312,0,2.461-1.063,2.461-2.376,0-8.124-6.562-14.687-14.68-14.687h-7.468Z" fill="#005f73"/>
        </g>
        <g id="text_39">
          <path id="FontAwesome6Free-Solid-f007-39" data-name="FontAwesome6Free-Solid-f007" d="M452.085,389.243c3.695,0,7.14-1.969,9.023-5.25,1.89-3.202,1.89-7.219,0-10.5-1.883-3.202-5.329-5.25-9.023-5.25-3.773,0-7.219,2.047-9.102,5.25-1.89,3.281-1.89,7.297,0,10.5,1.883,3.281,5.329,5.25,9.102,5.25ZM448.312,393.18c-8.118,0-14.602,6.562-14.602,14.687,0,1.312,1.07,2.376,2.382,2.376h31.907c1.312,0,2.461-1.063,2.461-2.376,0-8.124-6.562-14.687-14.68-14.687h-7.468Z" fill="#005f73"/>
        </g>
        <g id="text_40">
          <path id="FontAwesome6Free-Solid-f007-40" data-name="FontAwesome6Free-Solid-f007" d="M452.085,333.568c3.695,0,7.14-1.969,9.023-5.25,1.89-3.202,1.89-7.219,0-10.5-1.883-3.202-5.329-5.25-9.023-5.25-3.773,0-7.219,2.047-9.102,5.25-1.89,3.281-1.89,7.297,0,10.5,1.883,3.281,5.329,5.25,9.102,5.25ZM448.312,337.505c-8.118,0-14.602,6.562-14.602,14.687,0,1.312,1.07,2.376,2.382,2.376h31.907c1.312,0,2.461-1.063,2.461-2.376,0-8.124-6.562-14.687-14.68-14.687h-7.468Z" fill="#005f73"/>
        </g>
        <g id="text_41">
          <path id="FontAwesome6Free-Solid-f007-41" data-name="FontAwesome6Free-Solid-f007" d="M507.76,556.268c3.695,0,7.14-1.969,9.023-5.25,1.89-3.202,1.89-7.219,0-10.5-1.883-3.202-5.329-5.25-9.023-5.25-3.773,0-7.219,2.047-9.102,5.25-1.89,3.281-1.89,7.297,0,10.5,1.883,3.281,5.329,5.25,9.102,5.25ZM503.987,560.205c-8.118,0-14.602,6.562-14.602,14.687,0,1.312,1.07,2.376,2.382,2.376h31.907c1.312,0,2.461-1.063,2.461-2.376,0-8.124-6.562-14.687-14.68-14.687h-7.468Z" fill="#005f73"/>
        </g>
        <g id="text_42">
          <path id="FontAwesome6Free-Solid-f007-42" data-name="FontAwesome6Free-Solid-f007" d="M507.76,500.593c3.695,0,7.14-1.969,9.023-5.25,1.89-3.202,1.89-7.219,0-10.5-1.883-3.202-5.329-5.25-9.023-5.25-3.773,0-7.219,2.047-9.102,5.25-1.89,3.281-1.89,7.297,0,10.5,1.883,3.281,5.329,5.25,9.102,5.25ZM503.987,504.53c-8.118,0-14.602,6.562-14.602,14.687,0,1.312,1.07,2.376,2.382,2.376h31.907c1.312,0,2.461-1.063,2.461-2.376,0-8.124-6.562-14.687-14.68-14.687h-7.468Z" fill="#005f73"/>
        </g>
        <g id="text_43">
          <path id="FontAwesome6Free-Solid-f007-43" data-name="FontAwesome6Free-Solid-f007" d="M507.76,444.918c3.695,0,7.14-1.969,9.023-5.25,1.89-3.202,1.89-7.219,0-10.5-1.883-3.202-5.329-5.25-9.023-5.25-3.773,0-7.219,2.047-9.102,5.25-1.89,3.281-1.89,7.297,0,10.5,1.883,3.281,5.329,5.25,9.102,5.25ZM503.987,448.855c-8.118,0-14.602,6.562-14.602,14.687,0,1.312,1.07,2.376,2.382,2.376h31.907c1.312,0,2.461-1.063,2.461-2.376,0-8.124-6.562-14.687-14.68-14.687h-7.468Z" fill="#005f73"/>
        </g>
        <g id="text_44">
          <path id="FontAwesome6Free-Solid-f007-44" data-name="FontAwesome6Free-Solid-f007" d="M507.76,389.243c3.695,0,7.14-1.969,9.023-5.25,1.89-3.202,1.89-7.219,0-10.5-1.883-3.202-5.329-5.25-9.023-5.25-3.773,0-7.219,2.047-9.102,5.25-1.89,3.281-1.89,7.297,0,10.5,1.883,3.281,5.329,5.25,9.102,5.25ZM503.987,393.18c-8.118,0-14.602,6.562-14.602,14.687,0,1.312,1.07,2.376,2.382,2.376h31.907c1.312,0,2.461-1.063,2.461-2.376,0-8.124-6.562-14.687-14.68-14.687h-7.468Z" fill="#005f73"/>
        </g>
        <g id="text_45">
          <path id="FontAwesome6Free-Solid-f007-45" data-name="FontAwesome6Free-Solid-f007" d="M507.76,333.568c3.695,0,7.14-1.969,9.023-5.25,1.89-3.202,1.89-7.219,0-10.5-1.883-3.202-5.329-5.25-9.023-5.25-3.773,0-7.219,2.047-9.102,5.25-1.89,3.281-1.89,7.297,0,10.5,1.883,3.281,5.329,5.25,9.102,5.25ZM503.987,337.505c-8.118,0-14.602,6.562-14.602,14.687,0,1.312,1.07,2.376,2.382,2.376h31.907c1.312,0,2.461-1.063,2.461-2.376,0-8.124-6.562-14.687-14.68-14.687h-7.468Z" fill="#005f73"/>
        </g>
        <g id="text_46">
          <path id="FontAwesome6Free-Solid-f007-46" data-name="FontAwesome6Free-Solid-f007" d="M563.435,556.268c3.695,0,7.14-1.969,9.023-5.25,1.89-3.202,1.89-7.219,0-10.5-1.883-3.202-5.329-5.25-9.023-5.25-3.773,0-7.219,2.047-9.102,5.25-1.89,3.281-1.89,7.297,0,10.5,1.883,3.281,5.329,5.25,9.102,5.25ZM559.662,560.205c-8.118,0-14.602,6.562-14.602,14.687,0,1.312,1.07,2.376,2.382,2.376h31.907c1.312,0,2.461-1.063,2.461-2.376,0-8.124-6.562-14.687-14.68-14.687h-7.468Z" fill="#005f73"/>
        </g>
        <g id="text_47">
          <path id="FontAwesome6Free-Solid-f007-47" data-name="FontAwesome6Free-Solid-f007" d="M563.435,500.593c3.695,0,7.14-1.969,9.023-5.25,1.89-3.202,1.89-7.219,0-10.5-1.883-3.202-5.329-5.25-9.023-5.25-3.773,0-7.219,2.047-9.102,5.25-1.89,3.281-1.89,7.297,0,10.5,1.883,3.281,5.329,5.25,9.102,5.25ZM559.662,504.53c-8.118,0-14.602,6.562-14.602,14.687,0,1.312,1.07,2.376,2.382,2.376h31.907c1.312,0,2.461-1.063,2.461-2.376,0-8.124-6.562-14.687-14.68-14.687h-7.468Z" fill="#005f73"/>
        </g>
        <g id="text_48">
          <path id="FontAwesome6Free-Solid-f007-48" data-name="FontAwesome6Free-Solid-f007" d="M563.435,444.918c3.695,0,7.14-1.969,9.023-5.25,1.89-3.202,1.89-7.219,0-10.5-1.883-3.202-5.329-5.25-9.023-5.25-3.773,0-7.219,2.047-9.102,5.25-1.89,3.281-1.89,7.297,0,10.5,1.883,3.281,5.329,5.25,9.102,5.25ZM559.662,448.855c-8.118,0-14.602,6.562-14.602,14.687,0,1.312,1.07,2.376,2.382,2.376h31.907c1.312,0,2.461-1.063,2.461-2.376,0-8.124-6.562-14.687-14.68-14.687h-7.468Z" fill="#005f73"/>
        </g>
        <g id="text_49">
          <path id="FontAwesome6Free-Solid-f007-49" data-name="FontAwesome6Free-Solid-f007" d="M563.435,389.243c3.695,0,7.14-1.969,9.023-5.25,1.89-3.202,1.89-7.219,0-10.5-1.883-3.202-5.329-5.25-9.023-5.25-3.773,0-7.219,2.047-9.102,5.25-1.89,3.281-1.89,7.297,0,10.5,1.883,3.281,5.329,5.25,9.102,5.25ZM559.662,393.18c-8.118,0-14.602,6.562-14.602,14.687,0,1.312,1.07,2.376,2.382,2.376h31.907c1.312,0,2.461-1.063,2.461-2.376,0-8.124-6.562-14.687-14.68-14.687h-7.468Z" fill="#005f73"/>
        </g>
        <g id="text_50">
          <path id="FontAwesome6Free-Solid-f007-50" data-name="FontAwesome6Free-Solid-f007" d="M563.435,333.568c3.695,0,7.14-1.969,9.023-5.25,1.89-3.202,1.89-7.219,0-10.5-1.883-3.202-5.329-5.25-9.023-5.25-3.773,0-7.219,2.047-9.102,5.25-1.89,3.281-1.89,7.297,0,10.5,1.883,3.281,5.329,5.25,9.102,5.25ZM559.662,337.505c-8.118,0-14.602,6.562-14.602,14.687,0,1.312,1.07,2.376,2.382,2.376h31.907c1.312,0,2.461-1.063,2.461-2.376,0-8.124-6.562-14.687-14.68-14.687h-7.468Z" fill="#005f73"/>
        </g>
        <g id="text_51">
          <path id="FontAwesome6Free-Solid-f007-51" data-name="FontAwesome6Free-Solid-f007" d="M619.11,556.268c3.695,0,7.14-1.969,9.023-5.25,1.89-3.202,1.89-7.219,0-10.5-1.883-3.202-5.329-5.25-9.023-5.25-3.773,0-7.219,2.047-9.102,5.25-1.89,3.281-1.89,7.297,0,10.5,1.883,3.281,5.329,5.25,9.102,5.25ZM615.337,560.205c-8.118,0-14.602,6.562-14.602,14.687,0,1.312,1.07,2.376,2.382,2.376h31.907c1.312,0,2.461-1.063,2.461-2.376,0-8.124-6.562-14.687-14.68-14.687h-7.468Z" fill="#005f73"/>
        </g>
        <g id="text_52">
          <path id="FontAwesome6Free-Solid-f007-52" data-name="FontAwesome6Free-Solid-f007" d="M619.11,500.593c3.695,0,7.14-1.969,9.023-5.25,1.89-3.202,1.89-7.219,0-10.5-1.883-3.202-5.329-5.25-9.023-5.25-3.773,0-7.219,2.047-9.102,5.25-1.89,3.281-1.89,7.297,0,10.5,1.883,3.281,5.329,5.25,9.102,5.25ZM615.337,504.53c-8.118,0-14.602,6.562-14.602,14.687,0,1.312,1.07,2.376,2.382,2.376h31.907c1.312,0,2.461-1.063,2.461-2.376,0-8.124-6.562-14.687-14.68-14.687h-7.468Z" fill="#005f73"/>
        </g>
        <g id="text_53">
          <path id="FontAwesome6Free-Solid-f007-53" data-name="FontAwesome6Free-Solid-f007" d="M619.11,444.918c3.695,0,7.14-1.969,9.023-5.25,1.89-3.202,1.89-7.219,0-10.5-1.883-3.202-5.329-5.25-9.023-5.25-3.773,0-7.219,2.047-9.102,5.25-1.89,3.281-1.89,7.297,0,10.5,1.883,3.281,5.329,5.25,9.102,5.25ZM615.337,448.855c-8.118,0-14.602,6.562-14.602,14.687,0,1.312,1.07,2.376,2.382,2.376h31.907c1.312,0,2.461-1.063,2.461-2.376,0-8.124-6.562-14.687-14.68-14.687h-7.468Z" fill="#005f73"/>
        </g>
        <g id="text_54">
          <path id="FontAwesome6Free-Solid-f007-54" data-name="FontAwesome6Free-Solid-f007" d="M619.11,389.243c3.695,0,7.14-1.969,9.023-5.25,1.89-3.202,1.89-7.219,0-10.5-1.883-3.202-5.329-5.25-9.023-5.25-3.773,0-7.219,2.047-9.102,5.25-1.89,3.281-1.89,7.297,0,10.5,1.883,3.281,5.329,5.25,9.102,5.25ZM615.337,393.18c-8.118,0-14.602,6.562-14.602,14.687,0,1.312,1.07,2.376,2.382,2.376h31.907c1.312,0,2.461-1.063,2.461-2.376,0-8.124-6.562-14.687-14.68-14.687h-7.468Z" fill="#005f73"/>
        </g>
        <g id="text_55">
          <path id="FontAwesome6Free-Solid-f007-55" data-name="FontAwesome6Free-Solid-f007" d="M619.11,333.568c3.695,0,7.14-1.969,9.023-5.25,1.89-3.202,1.89-7.219,0-10.5-1.883-3.202-5.329-5.25-9.023-5.25-3.773,0-7.219,2.047-9.102,5.25-1.89,3.281-1.89,7.297,0,10.5,1.883,3.281,5.329,5.25,9.102,5.25ZM615.337,337.505c-8.118,0-14.602,6.562-14.602,14.687,0,1.312,1.07,2.376,2.382,2.376h31.907c1.312,0,2.461-1.063,2.461-2.376,0-8.124-6.562-14.687-14.68-14.687h-7.468Z" fill="#005f73"/>
        </g>
        <g id="text_56">
          <path id="FontAwesome6Free-Solid-f007-56" data-name="FontAwesome6Free-Solid-f007" d="M674.785,556.268c3.695,0,7.14-1.969,9.023-5.25,1.89-3.202,1.89-7.219,0-10.5-1.883-3.202-5.329-5.25-9.023-5.25-3.773,0-7.219,2.047-9.102,5.25-1.89,3.281-1.89,7.297,0,10.5,1.883,3.281,5.329,5.25,9.102,5.25ZM671.012,560.205c-8.118,0-14.602,6.562-14.602,14.687,0,1.312,1.07,2.376,2.382,2.376h31.907c1.312,0,2.461-1.063,2.461-2.376,0-8.124-6.562-14.687-14.68-14.687h-7.468Z" fill="#005f73"/>
        </g>
        <g id="text_57">
          <path id="FontAwesome6Free-Solid-f007-57" data-name="FontAwesome6Free-Solid-f007" d="M674.785,500.593c3.695,0,7.14-1.969,9.023-5.25,1.89-3.202,1.89-7.219,0-10.5-1.883-3.202-5.329-5.25-9.023-5.25-3.773,0-7.219,2.047-9.102,5.25-1.89,3.281-1.89,7.297,0,10.5,1.883,3.281,5.329,5.25,9.102,5.25ZM671.012,504.53c-8.118,0-14.602,6.562-14.602,14.687,0,1.312,1.07,2.376,2.382,2.376h31.907c1.312,0,2.461-1.063,2.461-2.376,0-8.124-6.562-14.687-14.68-14.687h-7.468Z" fill="#005f73"/>
        </g>
        <g id="text_58">
          <path id="FontAwesome6Free-Solid-f007-58" data-name="FontAwesome6Free-Solid-f007" d="M674.785,444.918c3.695,0,7.14-1.969,9.023-5.25,1.89-3.202,1.89-7.219,0-10.5-1.883-3.202-5.329-5.25-9.023-5.25-3.773,0-7.219,2.047-9.102,5.25-1.89,3.281-1.89,7.297,0,10.5,1.883,3.281,5.329,5.25,9.102,5.25ZM671.012,448.855c-8.118,0-14.602,6.562-14.602,14.687,0,1.312,1.07,2.376,2.382,2.376h31.907c1.312,0,2.461-1.063,2.461-2.376,0-8.124-6.562-14.687-14.68-14.687h-7.468Z" fill="#005f73"/>
        </g>
        <g id="text_59">
          <path id="FontAwesome6Free-Solid-f007-59" data-name="FontAwesome6Free-Solid-f007" d="M674.785,389.243c3.695,0,7.14-1.969,9.023-5.25,1.89-3.202,1.89-7.219,0-10.5-1.883-3.202-5.329-5.25-9.023-5.25-3.773,0-7.219,2.047-9.102,5.25-1.89,3.281-1.89,7.297,0,10.5,1.883,3.281,5.329,5.25,9.102,5.25ZM671.012,393.18c-8.118,0-14.602,6.562-14.602,14.687,0,1.312,1.07,2.376,2.382,2.376h31.907c1.312,0,2.461-1.063,2.461-2.376,0-8.124-6.562-14.687-14.68-14.687h-7.468Z" fill="#005f73"/>
        </g>
        <g id="text_60">
          <path id="FontAwesome6Free-Solid-f007-60" data-name="FontAwesome6Free-Solid-f007" d="M674.785,333.568c3.695,0,7.14-1.969,9.023-5.25,1.89-3.202,1.89-7.219,0-10.5-1.883-3.202-5.329-5.25-9.023-5.25-3.773,0-7.219,2.047-9.102,5.25-1.89,3.281-1.89,7.297,0,10.5,1.883,3.281,5.329,5.25,9.102,5.25ZM671.012,337.505c-8.118,0-14.602,6.562-14.602,14.687,0,1.312,1.07,2.376,2.382,2.376h31.907c1.312,0,2.461-1.063,2.461-2.376,0-8.124-6.562-14.687-14.68-14.687h-7.468Z" fill="#005f73"/>
        </g>
        <g id="text_61">
          <path id="FontAwesome6Free-Solid-f007-61" data-name="FontAwesome6Free-Solid-f007" d="M730.46,556.268c3.695,0,7.14-1.969,9.023-5.25,1.89-3.202,1.89-7.219,0-10.5-1.883-3.202-5.329-5.25-9.023-5.25-3.773,0-7.219,2.047-9.102,5.25-1.89,3.281-1.89,7.297,0,10.5,1.883,3.281,5.329,5.25,9.102,5.25ZM726.687,560.205c-8.118,0-14.602,6.562-14.602,14.687,0,1.312,1.07,2.376,2.382,2.376h31.907c1.312,0,2.461-1.063,2.461-2.376,0-8.124-6.562-14.687-14.68-14.687h-7.468Z" fill="#005f73"/>
        </g>
        <g id="text_62">
          <path id="FontAwesome6Free-Solid-f007-62" data-name="FontAwesome6Free-Solid-f007" d="M730.46,500.593c3.695,0,7.14-1.969,9.023-5.25,1.89-3.202,1.89-7.219,0-10.5-1.883-3.202-5.329-5.25-9.023-5.25-3.773,0-7.219,2.047-9.102,5.25-1.89,3.281-1.89,7.297,0,10.5,1.883,3.281,5.329,5.25,9.102,5.25ZM726.687,504.53c-8.118,0-14.602,6.562-14.602,14.687,0,1.312,1.07,2.376,2.382,2.376h31.907c1.312,0,2.461-1.063,2.461-2.376,0-8.124-6.562-14.687-14.68-14.687h-7.468Z" fill="#005f73"/>
        </g>
        <g id="text_63">
          <path id="FontAwesome6Free-Solid-f007-63" data-name="FontAwesome6Free-Solid-f007" d="M730.46,444.918c3.695,0,7.14-1.969,9.023-5.25,1.89-3.202,1.89-7.219,0-10.5-1.883-3.202-5.329-5.25-9.023-5.25-3.773,0-7.219,2.047-9.102,5.25-1.89,3.281-1.89,7.297,0,10.5,1.883,3.281,5.329,5.25,9.102,5.25ZM726.687,448.855c-8.118,0-14.602,6.562-14.602,14.687,0,1.312,1.07,2.376,2.382,2.376h31.907c1.312,0,2.461-1.063,2.461-2.376,0-8.124-6.562-14.687-14.68-14.687h-7.468Z" fill="#005f73"/>
        </g>
        <g id="text_64">
          <path id="FontAwesome6Free-Solid-f007-64" data-name="FontAwesome6Free-Solid-f007" d="M730.46,389.243c3.695,0,7.14-1.969,9.023-5.25,1.89-3.202,1.89-7.219,0-10.5-1.883-3.202-5.329-5.25-9.023-5.25-3.773,0-7.219,2.047-9.102,5.25-1.89,3.281-1.89,7.297,0,10.5,1.883,3.281,5.329,5.25,9.102,5.25ZM726.687,393.18c-8.118,0-14.602,6.562-14.602,14.687,0,1.312,1.07,2.376,2.382,2.376h31.907c1.312,0,2.461-1.063,2.461-2.376,0-8.124-6.562-14.687-14.68-14.687h-7.468Z" fill="#005f73"/>
        </g>
        <g id="text_65">
          <path id="FontAwesome6Free-Solid-f007-65" data-name="FontAwesome6Free-Solid-f007" d="M730.46,333.568c3.695,0,7.14-1.969,9.023-5.25,1.89-3.202,1.89-7.219,0-10.5-1.883-3.202-5.329-5.25-9.023-5.25-3.773,0-7.219,2.047-9.102,5.25-1.89,3.281-1.89,7.297,0,10.5,1.883,3.281,5.329,5.25,9.102,5.25ZM726.687,337.505c-8.118,0-14.602,6.562-14.602,14.687,0,1.312,1.07,2.376,2.382,2.376h31.907c1.312,0,2.461-1.063,2.461-2.376,0-8.124-6.562-14.687-14.68-14.687h-7.468Z" fill="#005f73"/>
        </g>
        <g id="text_66">
          <path id="FontAwesome6Free-Solid-f007-66" data-name="FontAwesome6Free-Solid-f007" d="M786.135,556.268c3.695,0,7.14-1.969,9.023-5.25,1.89-3.202,1.89-7.219,0-10.5-1.883-3.202-5.329-5.25-9.023-5.25-3.773,0-7.219,2.047-9.102,5.25-1.89,3.281-1.89,7.297,0,10.5,1.883,3.281,5.329,5.25,9.102,5.25ZM782.362,560.205c-8.118,0-14.602,6.562-14.602,14.687,0,1.312,1.07,2.376,2.382,2.376h31.907c1.312,0,2.461-1.063,2.461-2.376,0-8.124-6.562-14.687-14.68-14.687h-7.468Z" fill="#005f73"/>
        </g>
        <g id="text_67">
          <path id="FontAwesome6Free-Solid-f007-67" data-name="FontAwesome6Free-Solid-f007" d="M786.135,500.593c3.695,0,7.14-1.969,9.023-5.25,1.89-3.202,1.89-7.219,0-10.5-1.883-3.202-5.329-5.25-9.023-5.25-3.773,0-7.219,2.047-9.102,5.25-1.89,3.281-1.89,7.297,0,10.5,1.883,3.281,5.329,5.25,9.102,5.25ZM782.362,504.53c-8.118,0-14.602,6.562-14.602,14.687,0,1.312,1.07,2.376,2.382,2.376h31.907c1.312,0,2.461-1.063,2.461-2.376,0-8.124-6.562-14.687-14.68-14.687h-7.468Z" fill="#005f73"/>
        </g>
        <g id="text_68">
          <path id="FontAwesome6Free-Solid-f007-68" data-name="FontAwesome6Free-Solid-f007" d="M786.135,444.918c3.695,0,7.14-1.969,9.023-5.25,1.89-3.202,1.89-7.219,0-10.5-1.883-3.202-5.329-5.25-9.023-5.25-3.773,0-7.219,2.047-9.102,5.25-1.89,3.281-1.89,7.297,0,10.5,1.883,3.281,5.329,5.25,9.102,5.25ZM782.362,448.855c-8.118,0-14.602,6.562-14.602,14.687,0,1.312,1.07,2.376,2.382,2.376h31.907c1.312,0,2.461-1.063,2.461-2.376,0-8.124-6.562-14.687-14.68-14.687h-7.468Z" fill="#005f73"/>
        </g>
        <g id="text_69">
          <path id="FontAwesome6Free-Solid-f007-69" data-name="FontAwesome6Free-Solid-f007" d="M786.135,389.243c3.695,0,7.14-1.969,9.023-5.25,1.89-3.202,1.89-7.219,0-10.5-1.883-3.202-5.329-5.25-9.023-5.25-3.773,0-7.219,2.047-9.102,5.25-1.89,3.281-1.89,7.297,0,10.5,1.883,3.281,5.329,5.25,9.102,5.25ZM782.362,393.18c-8.118,0-14.602,6.562-14.602,14.687,0,1.312,1.07,2.376,2.382,2.376h31.907c1.312,0,2.461-1.063,2.461-2.376,0-8.124-6.562-14.687-14.68-14.687h-7.468Z" fill="#005f73"/>
        </g>
        <g id="text_70">
          <path id="FontAwesome6Free-Solid-f007-70" data-name="FontAwesome6Free-Solid-f007" d="M786.135,333.568c3.695,0,7.14-1.969,9.023-5.25,1.89-3.202,1.89-7.219,0-10.5-1.883-3.202-5.329-5.25-9.023-5.25-3.773,0-7.219,2.047-9.102,5.25-1.89,3.281-1.89,7.297,0,10.5,1.883,3.281,5.329,5.25,9.102,5.25ZM782.362,337.505c-8.118,0-14.602,6.562-14.602,14.687,0,1.312,1.07,2.376,2.382,2.376h31.907c1.312,0,2.461-1.063,2.461-2.376,0-8.124-6.562-14.687-14.68-14.687h-7.468Z" fill="#005f73"/>
        </g>
        <g id="text_71">
          <path id="FontAwesome6Free-Solid-f007-71" data-name="FontAwesome6Free-Solid-f007" d="M841.81,556.268c3.695,0,7.14-1.969,9.023-5.25,1.89-3.202,1.89-7.219,0-10.5-1.883-3.202-5.329-5.25-9.023-5.25-3.773,0-7.219,2.047-9.102,5.25-1.89,3.281-1.89,7.297,0,10.5,1.883,3.281,5.329,5.25,9.102,5.25ZM838.037,560.205c-8.118,0-14.602,6.562-14.602,14.687,0,1.312,1.07,2.376,2.382,2.376h31.907c1.312,0,2.461-1.063,2.461-2.376,0-8.124-6.562-14.687-14.68-14.687h-7.468Z" fill="#005f73"/>
        </g>
        <g id="text_72">
          <path id="FontAwesome6Free-Solid-f007-72" data-name="FontAwesome6Free-Solid-f007" d="M841.81,500.593c3.695,0,7.14-1.969,9.023-5.25,1.89-3.202,1.89-7.219,0-10.5-1.883-3.202-5.329-5.25-9.023-5.25-3.773,0-7.219,2.047-9.102,5.25-1.89,3.281-1.89,7.297,0,10.5,1.883,3.281,5.329,5.25,9.102,5.25ZM838.037,504.53c-8.118,0-14.602,6.562-14.602,14.687,0,1.312,1.07,2.376,2.382,2.376h31.907c1.312,0,2.461-1.063,2.461-2.376,0-8.124-6.562-14.687-14.68-14.687h-7.468Z" fill="#005f73"/>
        </g>
        <g id="text_73">
          <path id="FontAwesome6Free-Solid-f007-73" data-name="FontAwesome6Free-Solid-f007" d="M841.81,444.918c3.695,0,7.14-1.969,9.023-5.25,1.89-3.202,1.89-7.219,0-10.5-1.883-3.202-5.329-5.25-9.023-5.25-3.773,0-7.219,2.047-9.102,5.25-1.89,3.281-1.89,7.297,0,10.5,1.883,3.281,5.329,5.25,9.102,5.25ZM838.037,448.855c-8.118,0-14.602,6.562-14.602,14.687,0,1.312,1.07,2.376,2.382,2.376h31.907c1.312,0,2.461-1.063,2.461-2.376,0-8.124-6.562-14.687-14.68-14.687h-7.468Z" fill="#005f73"/>
        </g>
        <g id="text_74">
          <path id="FontAwesome6Free-Solid-f007-74" data-name="FontAwesome6Free-Solid-f007" d="M841.81,389.243c3.695,0,7.14-1.969,9.023-5.25,1.89-3.202,1.89-7.219,0-10.5-1.883-3.202-5.329-5.25-9.023-5.25-3.773,0-7.219,2.047-9.102,5.25-1.89,3.281-1.89,7.297,0,10.5,1.883,3.281,5.329,5.25,9.102,5.25ZM838.037,393.18c-8.118,0-14.602,6.562-14.602,14.687,0,1.312,1.07,2.376,2.382,2.376h31.907c1.312,0,2.461-1.063,2.461-2.376,0-8.124-6.562-14.687-14.68-14.687h-7.468Z" fill="#005f73"/>
        </g>
        <g id="text_75">
          <path id="FontAwesome6Free-Solid-f007-75" data-name="FontAwesome6Free-Solid-f007" d="M841.81,333.568c3.695,0,7.14-1.969,9.023-5.25,1.89-3.202,1.89-7.219,0-10.5-1.883-3.202-5.329-5.25-9.023-5.25-3.773,0-7.219,2.047-9.102,5.25-1.89,3.281-1.89,7.297,0,10.5,1.883,3.281,5.329,5.25,9.102,5.25ZM838.037,337.505c-8.118,0-14.602,6.562-14.602,14.687,0,1.312,1.07,2.376,2.382,2.376h31.907c1.312,0,2.461-1.063,2.461-2.376,0-8.124-6.562-14.687-14.68-14.687h-7.468Z" fill="#005f73"/>
        </g>
        <g id="change_2023">
          <path id="FontAwesome6Free-Solid-f007-76" data-name="FontAwesome6Free-Solid-f007" d="M897.485,556.268c3.695,0,7.14-1.969,9.023-5.25,1.89-3.202,1.89-7.219,0-10.5-1.883-3.202-5.329-5.25-9.023-5.25-3.773,0-7.219,2.047-9.102,5.25-1.89,3.281-1.89,7.297,0,10.5,1.883,3.281,5.329,5.25,9.102,5.25ZM893.712,560.205c-8.118,0-14.602,6.562-14.602,14.687,0,1.312,1.07,2.376,2.382,2.376h31.907c1.312,0,2.461-1.063,2.461-2.376,0-8.124-6.562-14.687-14.68-14.687h-7.468Z" fill="#005f73"/>
        </g>
        <g id="change-2022">
          <path id="FontAwesome6Free-Solid-f007-77" data-name="FontAwesome6Free-Solid-f007" d="M897.485,500.593c3.695,0,7.14-1.969,9.023-5.25,1.89-3.202,1.89-7.219,0-10.5-1.883-3.202-5.329-5.25-9.023-5.25-3.773,0-7.219,2.047-9.102,5.25-1.89,3.281-1.89,7.297,0,10.5,1.883,3.281,5.329,5.25,9.102,5.25ZM893.712,504.53c-8.118,0-14.602,6.562-14.602,14.687,0,1.312,1.07,2.376,2.382,2.376h31.907c1.312,0,2.461-1.063,2.461-2.376,0-8.124-6.562-14.687-14.68-14.687h-7.468Z" fill="#005f73"/>
        </g>
        <g id="change2019-back2021">
          <path id="FontAwesome6Free-Solid-f007-78" data-name="FontAwesome6Free-Solid-f007" d="M897.485,444.918c3.695,0,7.14-1.969,9.023-5.25,1.89-3.202,1.89-7.219,0-10.5-1.883-3.202-5.329-5.25-9.023-5.25-3.773,0-7.219,2.047-9.102,5.25-1.89,3.281-1.89,7.297,0,10.5,1.883,3.281,5.329,5.25,9.102,5.25ZM893.712,448.855c-8.118,0-14.602,6.562-14.602,14.687,0,1.312,1.07,2.376,2.382,2.376h31.907c1.312,0,2.461-1.063,2.461-2.376,0-8.124-6.562-14.687-14.68-14.687h-7.468Z" fill="#005f73"/>
        </g>
        <g id="text_79">
          <path id="FontAwesome6Free-Solid-f007-79" data-name="FontAwesome6Free-Solid-f007" d="M897.485,389.243c3.695,0,7.14-1.969,9.023-5.25,1.89-3.202,1.89-7.219,0-10.5-1.883-3.202-5.329-5.25-9.023-5.25-3.773,0-7.219,2.047-9.102,5.25-1.89,3.281-1.89,7.297,0,10.5,1.883,3.281,5.329,5.25,9.102,5.25ZM893.712,393.18c-8.118,0-14.602,6.562-14.602,14.687,0,1.312,1.07,2.376,2.382,2.376h31.907c1.312,0,2.461-1.063,2.461-2.376,0-8.124-6.562-14.687-14.68-14.687h-7.468Z" fill="#f3722c"/>
        </g>
        <g id="text_80">
          <path id="FontAwesome6Free-Solid-f007-80" data-name="FontAwesome6Free-Solid-f007" d="M897.485,333.568c3.695,0,7.14-1.969,9.023-5.25,1.89-3.202,1.89-7.219,0-10.5-1.883-3.202-5.329-5.25-9.023-5.25-3.773,0-7.219,2.047-9.102,5.25-1.89,3.281-1.89,7.297,0,10.5,1.883,3.281,5.329,5.25,9.102,5.25ZM893.712,337.505c-8.118,0-14.602,6.562-14.602,14.687,0,1.312,1.07,2.376,2.382,2.376h31.907c1.312,0,2.461-1.063,2.461-2.376,0-8.124-6.562-14.687-14.68-14.687h-7.468Z" fill="#f3722c"/>
        </g>
        <g id="text_81">
          <path id="FontAwesome6Free-Solid-f007-81" data-name="FontAwesome6Free-Solid-f007" d="M953.16,556.268c3.695,0,7.14-1.969,9.023-5.25,1.89-3.202,1.89-7.219,0-10.5-1.883-3.202-5.329-5.25-9.023-5.25-3.773,0-7.219,2.047-9.102,5.25-1.89,3.281-1.89,7.297,0,10.5,1.883,3.281,5.329,5.25,9.102,5.25ZM949.387,560.205c-8.118,0-14.602,6.562-14.602,14.687,0,1.312,1.07,2.376,2.382,2.376h31.907c1.312,0,2.461-1.063,2.461-2.376,0-8.124-6.562-14.687-14.68-14.687h-7.468Z" fill="#f3722c"/>
        </g>
        <g id="text_82">
          <path id="FontAwesome6Free-Solid-f007-82" data-name="FontAwesome6Free-Solid-f007" d="M953.16,500.593c3.695,0,7.14-1.969,9.023-5.25,1.89-3.202,1.89-7.219,0-10.5-1.883-3.202-5.329-5.25-9.023-5.25-3.773,0-7.219,2.047-9.102,5.25-1.89,3.281-1.89,7.297,0,10.5,1.883,3.281,5.329,5.25,9.102,5.25ZM949.387,504.53c-8.118,0-14.602,6.562-14.602,14.687,0,1.312,1.07,2.376,2.382,2.376h31.907c1.312,0,2.461-1.063,2.461-2.376,0-8.124-6.562-14.687-14.68-14.687h-7.468Z" fill="#f3722c"/>
        </g>
        <g id="text_83">
          <path id="FontAwesome6Free-Solid-f007-83" data-name="FontAwesome6Free-Solid-f007" d="M953.16,444.918c3.695,0,7.14-1.969,9.023-5.25,1.89-3.202,1.89-7.219,0-10.5-1.883-3.202-5.329-5.25-9.023-5.25-3.773,0-7.219,2.047-9.102,5.25-1.89,3.281-1.89,7.297,0,10.5,1.883,3.281,5.329,5.25,9.102,5.25ZM949.387,448.855c-8.118,0-14.602,6.562-14.602,14.687,0,1.312,1.07,2.376,2.382,2.376h31.907c1.312,0,2.461-1.063,2.461-2.376,0-8.124-6.562-14.687-14.68-14.687h-7.468Z" fill="#f3722c"/>
        </g>
        <g id="text_84">
          <path id="FontAwesome6Free-Solid-f007-84" data-name="FontAwesome6Free-Solid-f007" d="M953.16,389.243c3.695,0,7.14-1.969,9.023-5.25,1.89-3.202,1.89-7.219,0-10.5-1.883-3.202-5.329-5.25-9.023-5.25-3.773,0-7.219,2.047-9.102,5.25-1.89,3.281-1.89,7.297,0,10.5,1.883,3.281,5.329,5.25,9.102,5.25ZM949.387,393.18c-8.118,0-14.602,6.562-14.602,14.687,0,1.312,1.07,2.376,2.382,2.376h31.907c1.312,0,2.461-1.063,2.461-2.376,0-8.124-6.562-14.687-14.68-14.687h-7.468Z" fill="#f3722c"/>
        </g>
        <g id="text_85">
          <path id="FontAwesome6Free-Solid-f007-85" data-name="FontAwesome6Free-Solid-f007" d="M953.16,333.568c3.695,0,7.14-1.969,9.023-5.25,1.89-3.202,1.89-7.219,0-10.5-1.883-3.202-5.329-5.25-9.023-5.25-3.773,0-7.219,2.047-9.102,5.25-1.89,3.281-1.89,7.297,0,10.5,1.883,3.281,5.329,5.25,9.102,5.25ZM949.387,337.505c-8.118,0-14.602,6.562-14.602,14.687,0,1.312,1.07,2.376,2.382,2.376h31.907c1.312,0,2.461-1.063,2.461-2.376,0-8.124-6.562-14.687-14.68-14.687h-7.468Z" fill="#f3722c"/>
        </g>
        <g id="text_86">
          <path id="FontAwesome6Free-Solid-f007-86" data-name="FontAwesome6Free-Solid-f007" d="M1008.835,556.268c3.695,0,7.14-1.969,9.023-5.25,1.89-3.202,1.89-7.219,0-10.5-1.883-3.202-5.329-5.25-9.023-5.25-3.773,0-7.219,2.047-9.102,5.25-1.89,3.281-1.89,7.297,0,10.5,1.883,3.281,5.329,5.25,9.102,5.25ZM1005.062,560.205c-8.118,0-14.602,6.562-14.602,14.687,0,1.312,1.07,2.376,2.382,2.376h31.907c1.312,0,2.461-1.063,2.461-2.376,0-8.124-6.562-14.687-14.68-14.687h-7.468Z" fill="#f3722c"/>
        </g>
        <g id="text_87">
          <path id="FontAwesome6Free-Solid-f007-87" data-name="FontAwesome6Free-Solid-f007" d="M1008.835,500.593c3.695,0,7.14-1.969,9.023-5.25,1.89-3.202,1.89-7.219,0-10.5-1.883-3.202-5.329-5.25-9.023-5.25-3.773,0-7.219,2.047-9.102,5.25-1.89,3.281-1.89,7.297,0,10.5,1.883,3.281,5.329,5.25,9.102,5.25ZM1005.062,504.53c-8.118,0-14.602,6.562-14.602,14.687,0,1.312,1.07,2.376,2.382,2.376h31.907c1.312,0,2.461-1.063,2.461-2.376,0-8.124-6.562-14.687-14.68-14.687h-7.468Z" fill="#f3722c"/>
        </g>
        <g id="text_88">
          <path id="FontAwesome6Free-Solid-f007-88" data-name="FontAwesome6Free-Solid-f007" d="M1008.835,444.918c3.695,0,7.14-1.969,9.023-5.25,1.89-3.202,1.89-7.219,0-10.5-1.883-3.202-5.329-5.25-9.023-5.25-3.773,0-7.219,2.047-9.102,5.25-1.89,3.281-1.89,7.297,0,10.5,1.883,3.281,5.329,5.25,9.102,5.25ZM1005.062,448.855c-8.118,0-14.602,6.562-14.602,14.687,0,1.312,1.07,2.376,2.382,2.376h31.907c1.312,0,2.461-1.063,2.461-2.376,0-8.124-6.562-14.687-14.68-14.687h-7.468Z" fill="#f3722c"/>
        </g>
        <g id="text_89">
          <path id="FontAwesome6Free-Solid-f007-89" data-name="FontAwesome6Free-Solid-f007" d="M1008.835,389.243c3.695,0,7.14-1.969,9.023-5.25,1.89-3.202,1.89-7.219,0-10.5-1.883-3.202-5.329-5.25-9.023-5.25-3.773,0-7.219,2.047-9.102,5.25-1.89,3.281-1.89,7.297,0,10.5,1.883,3.281,5.329,5.25,9.102,5.25ZM1005.062,393.18c-8.118,0-14.602,6.562-14.602,14.687,0,1.312,1.07,2.376,2.382,2.376h31.907c1.312,0,2.461-1.063,2.461-2.376,0-8.124-6.562-14.687-14.68-14.687h-7.468Z" fill="#f3722c"/>
        </g>
        <g id="text_90">
          <path id="FontAwesome6Free-Solid-f007-90" data-name="FontAwesome6Free-Solid-f007" d="M1008.835,333.568c3.695,0,7.14-1.969,9.023-5.25,1.89-3.202,1.89-7.219,0-10.5-1.883-3.202-5.329-5.25-9.023-5.25-3.773,0-7.219,2.047-9.102,5.25-1.89,3.281-1.89,7.297,0,10.5,1.883,3.281,5.329,5.25,9.102,5.25ZM1005.062,337.505c-8.118,0-14.602,6.562-14.602,14.687,0,1.312,1.07,2.376,2.382,2.376h31.907c1.312,0,2.461-1.063,2.461-2.376,0-8.124-6.562-14.687-14.68-14.687h-7.468Z" fill="#f3722c"/>
        </g>
        <g id="text_91">
          <path id="FontAwesome6Free-Solid-f007-91" data-name="FontAwesome6Free-Solid-f007" d="M1064.51,556.268c3.695,0,7.14-1.969,9.023-5.25,1.89-3.202,1.89-7.219,0-10.5-1.883-3.202-5.329-5.25-9.023-5.25-3.773,0-7.219,2.047-9.102,5.25-1.89,3.281-1.89,7.297,0,10.5,1.883,3.281,5.329,5.25,9.102,5.25ZM1060.737,560.205c-8.118,0-14.602,6.562-14.602,14.687,0,1.312,1.07,2.376,2.382,2.376h31.907c1.312,0,2.461-1.063,2.461-2.376,0-8.124-6.562-14.687-14.68-14.687h-7.468Z" fill="#f3722c"/>
        </g>
        <g id="text_92">
          <path id="FontAwesome6Free-Solid-f007-92" data-name="FontAwesome6Free-Solid-f007" d="M1064.51,500.593c3.695,0,7.14-1.969,9.023-5.25,1.89-3.202,1.89-7.219,0-10.5-1.883-3.202-5.329-5.25-9.023-5.25-3.773,0-7.219,2.047-9.102,5.25-1.89,3.281-1.89,7.297,0,10.5,1.883,3.281,5.329,5.25,9.102,5.25ZM1060.737,504.53c-8.118,0-14.602,6.562-14.602,14.687,0,1.312,1.07,2.376,2.382,2.376h31.907c1.312,0,2.461-1.063,2.461-2.376,0-8.124-6.562-14.687-14.68-14.687h-7.468Z" fill="#f3722c"/>
        </g>
        <g id="text_93">
          <path id="FontAwesome6Free-Solid-f007-93" data-name="FontAwesome6Free-Solid-f007" d="M1064.51,444.918c3.695,0,7.14-1.969,9.023-5.25,1.89-3.202,1.89-7.219,0-10.5-1.883-3.202-5.329-5.25-9.023-5.25-3.773,0-7.219,2.047-9.102,5.25-1.89,3.281-1.89,7.297,0,10.5,1.883,3.281,5.329,5.25,9.102,5.25ZM1060.737,448.855c-8.118,0-14.602,6.562-14.602,14.687,0,1.312,1.07,2.376,2.382,2.376h31.907c1.312,0,2.461-1.063,2.461-2.376,0-8.124-6.562-14.687-14.68-14.687h-7.468Z" fill="#f3722c"/>
        </g>
        <g id="text_94">
          <path id="FontAwesome6Free-Solid-f007-94" data-name="FontAwesome6Free-Solid-f007" d="M1064.51,389.243c3.695,0,7.14-1.969,9.023-5.25,1.89-3.202,1.89-7.219,0-10.5-1.883-3.202-5.329-5.25-9.023-5.25-3.773,0-7.219,2.047-9.102,5.25-1.89,3.281-1.89,7.297,0,10.5,1.883,3.281,5.329,5.25,9.102,5.25ZM1060.737,393.18c-8.118,0-14.602,6.562-14.602,14.687,0,1.312,1.07,2.376,2.382,2.376h31.907c1.312,0,2.461-1.063,2.461-2.376,0-8.124-6.562-14.687-14.68-14.687h-7.468Z" fill="#f3722c"/>
        </g>
        <g id="text_95">
          <path id="FontAwesome6Free-Solid-f007-95" data-name="FontAwesome6Free-Solid-f007" d="M1064.51,333.568c3.695,0,7.14-1.969,9.023-5.25,1.89-3.202,1.89-7.219,0-10.5-1.883-3.202-5.329-5.25-9.023-5.25-3.773,0-7.219,2.047-9.102,5.25-1.89,3.281-1.89,7.297,0,10.5,1.883,3.281,5.329,5.25,9.102,5.25ZM1060.737,337.505c-8.118,0-14.602,6.562-14.602,14.687,0,1.312,1.07,2.376,2.382,2.376h31.907c1.312,0,2.461-1.063,2.461-2.376,0-8.124-6.562-14.687-14.68-14.687h-7.468Z" fill="#f3722c"/>
        </g>
        <g id="text_96">
          <path id="FontAwesome6Free-Solid-f007-96" data-name="FontAwesome6Free-Solid-f007" d="M1120.185,556.268c3.695,0,7.14-1.969,9.023-5.25,1.89-3.202,1.89-7.219,0-10.5-1.883-3.202-5.329-5.25-9.023-5.25-3.773,0-7.219,2.047-9.102,5.25-1.89,3.281-1.89,7.297,0,10.5,1.883,3.281,5.329,5.25,9.102,5.25ZM1116.412,560.205c-8.118,0-14.602,6.562-14.602,14.687,0,1.312,1.07,2.376,2.382,2.376h31.907c1.312,0,2.461-1.063,2.461-2.376,0-8.124-6.562-14.687-14.68-14.687h-7.468Z" fill="#f3722c"/>
        </g>
        <g id="text_97">
          <path id="FontAwesome6Free-Solid-f007-97" data-name="FontAwesome6Free-Solid-f007" d="M1120.185,500.593c3.695,0,7.14-1.969,9.023-5.25,1.89-3.202,1.89-7.219,0-10.5-1.883-3.202-5.329-5.25-9.023-5.25-3.773,0-7.219,2.047-9.102,5.25-1.89,3.281-1.89,7.297,0,10.5,1.883,3.281,5.329,5.25,9.102,5.25ZM1116.412,504.53c-8.118,0-14.602,6.562-14.602,14.687,0,1.312,1.07,2.376,2.382,2.376h31.907c1.312,0,2.461-1.063,2.461-2.376,0-8.124-6.562-14.687-14.68-14.687h-7.468Z" fill="#f3722c"/>
        </g>
        <g id="text_98">
          <path id="FontAwesome6Free-Solid-f007-98" data-name="FontAwesome6Free-Solid-f007" d="M1120.185,444.918c3.695,0,7.14-1.969,9.023-5.25,1.89-3.202,1.89-7.219,0-10.5-1.883-3.202-5.329-5.25-9.023-5.25-3.773,0-7.219,2.047-9.102,5.25-1.89,3.281-1.89,7.297,0,10.5,1.883,3.281,5.329,5.25,9.102,5.25ZM1116.412,448.855c-8.118,0-14.602,6.562-14.602,14.687,0,1.312,1.07,2.376,2.382,2.376h31.907c1.312,0,2.461-1.063,2.461-2.376,0-8.124-6.562-14.687-14.68-14.687h-7.468Z" fill="#f3722c"/>
        </g>
        <g id="text_99">
          <path id="FontAwesome6Free-Solid-f007-99" data-name="FontAwesome6Free-Solid-f007" d="M1120.185,389.243c3.695,0,7.14-1.969,9.023-5.25,1.89-3.202,1.89-7.219,0-10.5-1.883-3.202-5.329-5.25-9.023-5.25-3.773,0-7.219,2.047-9.102,5.25-1.89,3.281-1.89,7.297,0,10.5,1.883,3.281,5.329,5.25,9.102,5.25ZM1116.412,393.18c-8.118,0-14.602,6.562-14.602,14.687,0,1.312,1.07,2.376,2.382,2.376h31.907c1.312,0,2.461-1.063,2.461-2.376,0-8.124-6.562-14.687-14.68-14.687h-7.468Z" fill="#f3722c"/>
        </g>
        <g id="text_100">
          <path id="FontAwesome6Free-Solid-f007-100" data-name="FontAwesome6Free-Solid-f007" d="M1120.185,333.568c3.695,0,7.14-1.969,9.023-5.25,1.89-3.202,1.89-7.219,0-10.5-1.883-3.202-5.329-5.25-9.023-5.25-3.773,0-7.219,2.047-9.102,5.25-1.89,3.281-1.89,7.297,0,10.5,1.883,3.281,5.329,5.25,9.102,5.25ZM1116.412,337.505c-8.118,0-14.602,6.562-14.602,14.687,0,1.312,1.07,2.376,2.382,2.376h31.907c1.312,0,2.461-1.063,2.461-2.376,0-8.124-6.562-14.687-14.68-14.687h-7.468Z" fill="#f3722c"/>
        </g>
        <text/>
      </g>
    </g>
  </g>
<style>
#g-lecturer_waffle-Artboard_1-interactive-img rect, #g-lecturer_waffle-Artboard_1-interactive-img circle, #g-lecturer_waffle-Artboard_1-interactive-img path, #g-lecturer_waffle-Artboard_1-interactive-img line, #g-lecturer_waffle-Artboard_1-interactive-img polyline, #g-lecturer_waffle-Artboard_1-interactive-img polygon { vector-effect: non-scaling-stroke; }
</style>
</svg>
